<?xml version="1.0" standalone="no"?>
<!DOCTYPE svg PUBLIC "-//W3C//DTD SVG 20010904//EN"
 "http://www.w3.org/TR/2001/REC-SVG-20010904/DTD/svg10.dtd">
<svg version="1.0" xmlns="http://www.w3.org/2000/svg"
 width="700.000000pt" height="700.000000pt" viewBox="0 0 700.000000 700.000000"
 preserveAspectRatio="xMidYMid meet">
<metadata>
Created by potrace 1.11, written by Peter Selinger 2001-2013
</metadata>
<g transform="translate(0.000000,700.000000) scale(0.100000,-0.100000)"
fill="#000000" stroke="none">
<path d="M3308 6875 c-2 -1 -39 -5 -83 -9 -684 -53 -1347 -324 -1885 -770 -97
-81 -307 -287 -398 -391 -367 -421 -644 -983 -751 -1525 -6 -30 -14 -66 -16
-80 -3 -14 -10 -59 -16 -100 -5 -41 -12 -86 -14 -100 -25 -149 -26 -605 0
-800 57 -448 188 -850 402 -1240 174 -316 448 -655 718 -889 55 -47 102 -88
105 -91 3 -4 57 -44 120 -92 357 -265 776 -463 1202 -567 133 -33 139 -34 273
-56 196 -31 298 -39 535 -39 171 0 374 10 390 19 3 1 33 6 68 9 79 8 278 48
402 81 52 14 105 28 117 30 22 5 193 66 293 105 85 33 292 134 393 191 84 48
301 189 344 223 10 8 65 52 123 98 57 45 168 146 246 223 332 330 578 697 751
1120 66 160 150 428 168 534 3 19 7 37 9 40 2 3 7 24 10 45 4 21 8 48 11 60 2
12 7 39 10 61 3 22 10 67 15 100 16 104 24 244 24 435 0 168 -10 375 -18 389
-2 3 -7 40 -11 81 -4 41 -9 78 -11 81 -2 4 -6 24 -10 45 -53 350 -221 799
-426 1138 -79 129 -214 324 -274 392 -11 12 -46 54 -79 93 -78 92 -266 276
-380 372 -506 423 -1136 695 -1775 764 -36 4 -81 9 -100 12 -36 5 -477 12
-482 8z m452 -558 c19 -3 62 -9 94 -12 283 -30 613 -130 905 -276 126 -63 352
-199 414 -249 6 -5 53 -42 102 -82 143 -115 283 -252 395 -388 34 -41 69 -84
78 -95 21 -25 182 -262 182 -268 0 -2 22 -42 48 -88 49 -86 58 -104 112 -225
92 -203 177 -497 205 -707 11 -80 16 -116 22 -167 9 -78 9 -431 0 -520 -62
-596 -280 -1112 -664 -1572 -59 -71 -302 -307 -383 -372 -375 -299 -857 -515
-1310 -586 -41 -6 -86 -13 -100 -16 -151 -24 -630 -24 -730 1 -8 2 -35 7 -60
10 -336 46 -750 199 -1056 391 -80 50 -251 169 -264 184 -3 3 -30 25 -60 50
-84 67 -317 305 -394 400 -305 382 -517 860 -590 1335 -41 270 -41 630 0 869
3 17 7 43 9 58 64 369 205 725 419 1052 113 172 216 299 370 452 315 313 634
516 1050 669 101 37 367 109 441 118 22 3 69 10 105 16 36 6 101 13 145 16 44
4 81 8 83 10 5 5 395 -3 432 -8z"/>
<path d="M3295 6019 c-507 -48 -928 -210 -1331 -513 -94 -70 -301 -264 -380
-356 -93 -109 -234 -310 -234 -335 0 -22 43 -131 87 -223 42 -86 76 -117 138
-126 l46 -7 68 64 c65 61 162 136 261 202 79 53 165 146 203 220 40 79 70 111
142 150 28 15 86 51 130 80 244 159 422 189 628 106 130 -52 251 -201 277
-341 41 -211 -39 -409 -212 -528 -27 -18 -48 -36 -48 -40 0 -16 49 -254 53
-258 2 -3 38 4 78 15 187 51 348 41 508 -30 83 -38 219 -141 342 -260 40 -39
111 -72 158 -73 44 -1 53 4 121 59 40 33 103 95 138 138 36 43 87 96 115 117
55 41 48 23 102 261 36 159 224 745 289 903 20 49 53 118 73 154 l35 66 -39
35 c-96 86 -370 248 -553 326 -123 53 -337 122 -435 141 -11 2 -31 6 -45 9
-78 17 -101 20 -225 36 -104 13 -387 18 -490 8z"/>
<path d="M5567 4863 c-10 -32 -19 -69 -21 -83 -23 -139 -66 -293 -155 -550
-96 -277 -117 -425 -87 -595 13 -76 14 -150 1 -260 -17 -152 -13 -191 33 -320
47 -129 56 -157 77 -251 27 -123 77 -280 98 -311 63 -92 168 -74 253 45 22 29
57 70 80 91 32 29 45 52 62 106 27 88 69 257 77 310 21 129 26 168 32 245 9
110 9 312 0 420 -32 384 -155 767 -351 1090 -81 133 -79 132 -99 63z"/>
<path d="M2333 4145 c-28 -19 -75 -60 -104 -91 -223 -236 -257 -252 -574 -260
-148 -3 -186 1 -315 33 -75 18 -229 88 -279 127 -19 14 -38 23 -42 19 -4 -5
-10 -37 -14 -73 -4 -36 -9 -68 -10 -71 -24 -38 -23 -621 0 -659 2 -3 5 -27 9
-55 23 -216 130 -543 256 -782 54 -103 157 -273 166 -273 2 0 37 21 79 46 42
25 126 66 188 91 152 61 154 62 224 135 147 150 299 385 346 533 9 28 25 104
37 170 17 98 44 213 76 325 2 8 15 65 28 126 21 97 24 132 21 280 -3 160 -12
311 -21 325 -2 4 -6 24 -10 45 -3 22 -7 40 -8 41 -1 1 -25 -13 -53 -32z"/>
<path d="M3385 3505 c-5 -2 -26 -6 -46 -9 -30 -5 -46 -18 -90 -75 -30 -37 -79
-88 -110 -112 -42 -32 -59 -53 -63 -76 -4 -18 -23 -90 -42 -160 -20 -71 -37
-132 -38 -138 -4 -20 -69 -211 -81 -240 -7 -16 -23 -55 -35 -85 -118 -295
-476 -769 -675 -895 -33 -21 -118 -66 -190 -100 l-130 -61 102 -76 c203 -151
377 -247 625 -344 86 -33 301 -97 364 -107 16 -3 57 -10 92 -16 248 -46 575
-49 827 -6 75 12 112 20 205 42 111 26 307 88 326 104 6 5 19 10 30 12 34 6
243 107 315 153 21 13 41 24 43 24 10 0 214 145 285 203 42 34 125 111 186
170 l110 109 -75 22 c-259 76 -419 258 -538 611 -138 408 -176 543 -189 673
-3 34 -9 62 -13 62 -5 0 -39 -13 -76 -29 -180 -76 -349 -84 -552 -25 -182 53
-264 103 -412 255 -97 99 -129 122 -155 114z"/>
</g>
</svg>
