<svg width="274" height="36" viewBox="0 0 274 36" fill="none" xmlns="http://www.w3.org/2000/svg">
<path d="M0.628906 14.9093V29.0999H10.1038V20.196L11.2185 19.083L12.0546 18.2483L15.3987 23.8132L18.7428 29.3781H30.1685L24.595 20.4742L18.7428 11.8486L24.0376 6.28367L29.3324 0.71875H17.9067L14.0053 5.17069L10.1038 9.34438V4.89244V0.71875H0.628906V14.9093V14.9093ZM34.6273 8.2314C31.8405 9.06614 29.3324 11.2921 28.2177 14.0746C27.6604 15.4658 27.3817 16.0223 27.3817 18.8048C27.3817 21.5872 27.3817 22.422 28.2177 23.8132C30.1684 27.9869 34.6272 30.2129 40.4794 29.9346C46.6103 29.6564 49.9544 26.3174 50.7904 20.7525C51.3478 15.1876 49.397 11.2921 44.6595 9.06614C43.2662 8.50964 42.4301 8.2314 39.3647 8.2314C36.8566 7.95315 35.4633 7.95315 34.6273 8.2314ZM40.2008 13.7963C41.5941 14.3528 42.1515 16.3005 42.1515 18.8048C42.1515 22.422 41.3154 23.8132 39.086 23.8132C36.8566 23.8132 35.4633 21.8655 35.4633 18.5265C35.4633 16.0223 37.1353 13.5181 38.8074 13.5181L40.2008 13.7963ZM112.656 8.2314C107.64 9.62263 104.853 14.3528 105.132 19.6395C105.132 23.8132 107.919 27.4304 111.82 28.8216C114.328 29.6564 120.18 29.6564 122.967 28.8216C125.197 27.9869 127.147 26.3174 127.983 24.6479C129.098 22.422 129.098 22.422 124.639 22.422H120.738L119.902 23.2567C119.066 24.0914 118.787 24.0914 117.394 24.0914C115.722 23.8132 114.607 22.9784 114.05 21.309V20.4742H129.655V35.7778H138.016V27.1521L138.852 27.7086C140.524 29.3781 143.589 29.6564 146.376 28.8216C149.72 27.9869 152.785 23.8132 152.785 20.4742V19.3612L153.064 20.7525C154.179 26.8739 159.195 29.9346 166.441 29.3781C171.735 29.0999 174.801 26.8739 176.194 22.7002L176.752 21.0307V22.9784C176.752 25.2044 177.03 25.7609 178.424 27.4304C180.653 29.9346 186.784 29.9346 190.685 27.7086L191.8 26.8739L192.079 27.7086V28.5434H196.537H200.996L200.439 27.7086C199.882 27.1521 199.882 26.0392 199.603 19.6395C199.603 10.4574 199.324 10.1791 196.259 8.50965C194.587 7.67491 194.308 7.6749 189.849 7.39666C187.62 7.11841 185.669 7.39666 183.44 7.6749C179.817 8.50964 177.866 10.7356 177.866 13.2398V14.3528H182.046C185.948 14.3528 185.948 14.3528 186.226 13.5181C186.784 11.5704 191.521 11.8486 191.243 13.7963C191.243 14.6311 189.849 15.1876 185.948 15.4658C181.489 16.0223 179.26 16.857 178.145 18.2483C177.588 18.8048 177.309 19.6395 177.309 19.9177C177.309 20.196 176.194 20.196 172.85 20.196H168.113V20.7525C167.834 22.1437 166.719 22.7002 165.326 22.7002C163.096 22.7002 161.982 21.0307 161.982 17.6918C161.982 16.857 161.982 15.4658 162.26 14.9093C162.818 13.7963 164.211 12.4051 165.047 12.4051C166.162 12.4051 167.555 13.2398 167.834 14.3528L168.391 15.4658H176.752L176.473 14.0746C176.194 11.2921 174.243 9.06614 171.178 7.6749C167.834 6.28367 161.146 6.28368 158.359 8.2314C155.851 9.62263 154.179 11.8486 153.621 14.6311L153.064 16.5788V14.9093C152.507 9.90088 148.884 6.84017 144.425 6.84017C141.917 6.84017 140.524 7.11842 138.852 8.50965L137.737 9.34438V7.11842H129.934V12.9616C129.934 17.4135 129.934 18.5265 129.655 16.857C129.098 12.6833 126.59 9.34438 122.967 7.6749C120.459 7.95315 114.886 7.67491 112.656 8.2314ZM119.623 14.0746C120.18 14.6311 120.738 15.4658 120.738 15.744C120.738 16.3005 120.459 16.3005 117.115 16.3005C114.886 16.3005 113.771 16.3005 113.771 16.0223C113.771 15.4658 114.607 13.7963 115.164 13.5181C115.722 13.2398 116.558 13.2398 117.394 13.2398C118.508 13.2398 119.066 13.2398 119.623 14.0746ZM143.032 14.9093C143.868 15.744 144.425 18.2483 144.147 19.9177C143.032 24.6479 138.294 24.0914 138.016 19.3612C137.737 17.1353 138.016 16.3005 138.852 15.1876C140.245 13.7963 141.638 13.7963 143.032 14.9093ZM191.243 21.0307C191.243 23.2567 189.849 24.6479 187.899 24.6479C186.226 24.6479 185.39 24.3697 185.39 23.2567C185.39 22.1437 185.948 21.5872 188.456 21.0307C191.243 20.196 191.243 20.196 191.243 21.0307ZM51.3478 18.5265V29.0999H58.872V23.2567L58.5933 17.4135L60.544 23.2567L62.4948 29.0999H66.6749L68.0683 24.3697L70.019 18.5265C70.2976 17.6918 70.2977 18.2483 70.2977 23.2567V29.0999H77.8219V7.95315H68.0683L66.9536 11.5704C66.1175 13.7963 65.2815 16.0223 64.7242 18.5265L62.7734 13.2398L61.1014 8.2314H56.0852H51.0691V18.5265H51.3478ZM78.6579 18.5265V29.0999H86.1821V25.2044C86.1821 22.422 85.9035 19.9177 85.6248 17.4135L87.5755 23.2567L89.5262 29.0999H93.7063L95.3784 24.0914L97.0505 18.2483V29.0999H104.575V7.95315H95.0997L93.985 11.5704C92.0343 18.2483 91.7556 18.8048 91.477 18.2483L89.8049 12.6833L88.4115 7.95315H78.9366V18.5265H78.6579ZM201.275 18.5265V29.0999H209.635V21.309H215.209V29.0999H223.848V7.95315H215.487V14.9093H209.635V7.95315H201.275V18.5265ZM224.684 11.2921V14.9093H231.372V29.3781H239.732V14.9093H246.699V8.2314H224.684V11.2921ZM247.535 11.2921V14.9093H251.994V29.3781H260.075C268.993 29.3781 269.829 29.0999 271.78 27.4304C273.452 25.4827 274.009 22.7002 273.173 20.196C271.78 17.1353 269.272 15.744 263.698 15.744H260.075V8.2314H247.535V11.2921ZM264.813 21.309C265.092 21.5872 265.37 22.1437 265.37 22.7002C265.37 23.8132 264.255 24.3697 262.026 24.3697H260.075V20.7525H262.026C263.698 20.7525 264.534 20.7525 264.813 21.309Z" fill="black"/>
</svg>
