<svg width="86" height="38" viewBox="0 0 86 38" fill="none" xmlns="http://www.w3.org/2000/svg">
<path d="M47.7273 8.67468H44.9406C44.1045 8.67468 43.5472 9.23117 43.5472 10.0659V35.9428C43.5472 36.7776 44.1045 37.334 44.9406 37.334H47.7273C48.5634 37.334 49.1207 36.7776 49.1207 35.9428V10.0659C49.1207 9.23117 48.5634 8.67468 47.7273 8.67468ZM39.3671 32.6039C38.531 32.6039 37.695 32.0474 37.695 31.2126V2.27502C37.695 1.71853 37.1377 1.16204 36.5803 1.16204H33.2362C32.6789 1.16204 32.1215 1.71853 32.1215 2.27502V32.3256C32.1215 35.3863 34.6296 37.6123 37.695 37.6123C37.695 37.6123 37.695 37.6123 37.9737 37.6123H39.6458C40.2031 37.6123 40.7604 37.0558 40.7604 36.4993V33.7168C40.4818 33.1604 39.9244 32.6039 39.3671 32.6039ZM64.4478 0.883789H59.9891C56.3663 0.883789 53.5795 3.66625 53.5795 7.28345V35.9428C53.5795 36.7776 54.1369 37.334 54.9729 37.334H57.7597C58.5957 37.334 59.153 36.7776 59.153 35.9428V17.8568H63.3332C64.1692 17.8568 64.7265 17.3003 64.7265 16.4656V14.5179C64.7265 13.6831 64.1692 13.1266 63.3332 13.1266H59.153V7.83994C59.153 7.00521 59.989 6.17047 60.8251 6.17047H64.1692C65.0052 6.17047 65.5626 5.61397 65.5626 4.77923V2.27502C65.8412 1.71853 65.2839 0.883789 64.4478 0.883789ZM84.2338 27.0389H80.8897C80.0537 27.0389 79.4963 27.5954 79.4963 28.4302V31.2126C79.4963 32.0474 78.939 32.6039 78.103 32.6039H74.4802C73.6441 32.6039 73.0868 32.0474 73.0868 31.2126V24.2565H83.3978C84.2338 24.2565 84.7911 23.7 84.7911 22.8652V14.7961C84.7911 11.1789 81.7257 8.11819 78.103 8.11819H73.9228C70.3 8.11819 67.2346 11.1789 67.2346 14.7961V18.6915V21.474V30.6561C67.2346 34.2733 70.3 37.334 73.9228 37.334H78.6603C82.2831 37.334 85.3485 34.2733 85.3485 30.6561V28.1519C85.6272 27.5954 84.7911 27.0389 84.2338 27.0389ZM73.6441 14.7961C73.6441 13.6831 74.4801 12.8484 75.5948 12.8484H77.2669C78.3816 12.8484 79.2176 13.6831 79.2176 14.7961V19.5263H73.6441V14.7961V14.7961ZM47.7273 0.883789H44.9406C44.1045 0.883789 43.5472 1.44028 43.5472 2.27502V4.22274C43.5472 5.05748 44.1045 5.61397 44.9406 5.61397H47.7273C48.5634 5.61397 49.1207 5.05748 49.1207 4.22274V2.27502C49.1207 1.71853 48.5634 0.883789 47.7273 0.883789ZM26.2693 24.813H1.18857C0.631223 24.813 0.352539 25.0912 0.352539 25.6477V27.3172C0.352539 27.8737 0.631223 28.1519 1.18857 28.1519H5.3687V32.0474C5.3687 35.1081 7.87678 37.6123 10.9422 37.6123H21.2532C24.3186 37.6123 26.8267 35.1081 26.8267 32.0474V25.6477C26.8267 25.0912 26.548 24.813 26.2693 24.813ZM23.7613 32.0474C23.7613 33.1603 22.9252 33.9951 21.8105 33.9951H10.3849C9.27016 33.9951 8.43415 33.1603 8.43415 32.0474V28.4302H23.4826V32.0474H23.7613ZM26.2693 17.3003H6.76208C6.20473 17.3003 5.92604 17.5786 5.92604 18.1351V19.8045C5.92604 20.361 6.20473 20.6393 6.76208 20.6393H26.2693C26.8267 20.6393 27.1054 20.361 27.1054 19.8045V18.1351C26.8267 17.8568 26.548 17.3003 26.2693 17.3003ZM1.18857 20.6393H2.86064C3.41799 20.6393 3.69663 20.361 3.69663 19.8045V18.1351C3.69663 17.5786 3.41799 17.3003 2.86064 17.3003H1.18857C0.631223 17.3003 0.352539 17.5786 0.352539 18.1351V19.8045C0.352539 20.361 0.631223 20.6393 1.18857 20.6393ZM21.5319 1.44028H20.9745C19.0238 1.44028 17.073 2.55326 16.237 4.22274L13.1716 9.50942C12.8929 10.0659 12.0569 10.6224 11.2209 10.6224H10.6635C9.54881 10.6224 8.43415 9.78766 8.43415 8.39643V7.0052C8.43415 5.89222 9.27014 4.77923 10.6635 4.77923H11.7782C12.3356 4.77923 12.6143 4.50099 12.6143 3.9445V2.27502C12.6143 1.71853 12.3356 1.44028 11.7782 1.44028H10.6635C7.59809 1.44028 5.09001 3.94449 5.09001 7.0052V8.39643C5.09001 11.4571 7.59809 13.9614 10.6635 13.9614H11.7782C13.4503 13.9614 15.1223 13.1266 15.9584 11.7354L19.3025 5.61397C19.5811 5.05748 19.8598 5.05748 20.4171 5.05748H21.5319C22.6466 5.05748 23.7613 5.89222 23.7613 7.28345V8.67468C23.7613 9.78767 22.9252 10.9007 21.5319 10.9007H20.4171C19.8598 10.9007 19.5812 11.1789 19.5812 11.7354V13.1266C19.5812 13.6831 19.8598 13.9614 20.4171 13.9614H21.5319C24.5973 13.9614 27.1054 11.4571 27.1054 8.39643V7.0052C27.1054 3.94449 24.5973 1.44028 21.5319 1.44028Z" fill="black"/>
</svg>
