<svg width="228" height="31" viewBox="0 0 228 31" fill="none" xmlns="http://www.w3.org/2000/svg">
<path d="M59.6291 6.12936L53.2195 14.4767L46.81 6.12936H45.6953V21.4329H48.7607V13.642L52.6622 18.3722H53.7769L57.6783 13.642V21.7112H60.7438V6.12936H59.6291ZM69.3827 10.0248C66.0386 10.0248 63.2518 12.529 63.2518 15.868C63.2518 19.2069 66.0386 21.7112 69.3827 21.7112C72.7268 21.9894 75.5135 19.4852 75.5135 15.868C75.5135 12.529 72.7268 10.0248 69.3827 10.0248ZM69.3827 12.8073C71.0547 12.8073 72.4481 14.1985 72.4481 15.868C72.4481 17.5375 71.0547 18.9287 69.3827 18.9287C67.7106 18.9287 66.3173 17.5375 66.3173 15.868C66.3173 14.1985 67.7106 12.8073 69.3827 12.8073ZM81.6444 10.0248C79.1363 10.0248 77.4643 11.1378 77.4643 13.3638C77.4643 15.0332 78.579 16.1462 80.5297 16.7027L81.6444 17.2592C82.2017 17.5375 82.7591 17.8157 82.7591 18.3722C82.7591 18.9287 82.2017 19.2069 81.3657 19.2069C80.251 19.2069 79.1363 18.6504 78.3003 17.5375L76.6282 19.4852C77.7429 20.8764 79.415 21.7112 81.3657 21.7112C83.8738 21.7112 85.8245 20.3199 85.8245 18.094C85.8245 16.4245 84.7098 15.5897 82.7591 14.755L81.6444 14.4767C80.8084 14.1985 80.5297 13.9203 80.5297 13.3638C80.5297 12.8073 81.087 12.529 81.6444 12.529C82.4804 12.529 83.5951 12.8073 84.1525 13.642L85.8245 11.6943C84.7098 10.5813 83.3164 10.0248 81.6444 10.0248ZM93.6274 10.0248C90.2833 10.0248 87.4966 12.529 87.4966 15.868C87.4966 19.2069 90.2833 21.7112 93.6274 21.7112C95.8568 21.7112 97.5289 20.5982 98.6436 18.9287L96.4142 17.2592C95.8568 18.0939 95.0208 18.9287 93.6274 18.9287C91.9554 18.9287 90.562 17.5375 90.562 15.868C90.562 14.1985 91.6767 12.8073 93.6274 12.8073C95.0208 12.8073 95.5781 13.3638 96.4142 14.4767L98.6436 12.8073C97.8076 11.1378 95.8568 10.0248 93.6274 10.0248ZM106.168 10.0248C102.824 10.0248 100.037 12.529 100.037 15.868C100.037 19.2069 102.824 21.7112 106.168 21.7112C109.512 21.7112 112.299 19.2069 112.299 15.868C112.299 12.529 109.512 10.0248 106.168 10.0248ZM106.168 12.8073C107.84 12.8073 109.233 14.1985 109.233 15.868C109.233 17.5375 107.84 18.9287 106.168 18.9287C104.496 18.9287 103.102 17.5375 103.102 15.868C103.102 14.1985 104.496 12.8073 106.168 12.8073ZM128.74 10.3031L126.232 16.7027L123.167 10.0248H122.052L118.987 16.7027L116.2 10.3031H112.856L118.151 21.9894H119.266L122.61 15.3115L125.954 21.9894H127.068L132.363 10.3031H128.74V10.3031ZM133.757 17.8157C132.642 17.8157 131.527 18.6504 131.527 20.0417C131.527 21.1547 132.363 22.2676 133.757 22.2676C134.871 22.2676 135.986 21.4329 135.986 20.0417C135.986 18.6504 135.15 17.8157 133.757 17.8157ZM147.69 13.3638C148.526 12.8073 148.805 11.6943 148.805 10.5813C148.805 8.07709 146.854 6.40761 144.068 6.40761H138.773V21.4329H145.461C148.526 21.4329 150.477 19.4852 150.477 16.981C150.477 15.3115 149.362 14.1985 147.69 13.3638ZM143.789 9.19007C145.182 9.19007 145.74 9.74656 145.74 10.8595C145.74 11.9725 145.182 12.529 143.789 12.529H141.56V9.19007H143.789ZM145.182 18.9287H141.56V15.3115H145.182C146.576 15.3115 147.412 16.1462 147.412 17.2592C147.412 18.3722 146.576 18.9287 145.182 18.9287ZM163.018 10.3031H159.952V16.981C159.952 18.3722 159.116 19.2069 157.723 19.2069C156.608 19.2069 155.493 18.3722 155.493 16.981V10.3031H152.428V16.7027C152.428 20.0417 154.657 21.9894 157.723 21.9894C160.788 21.9894 163.018 20.0417 163.018 16.7027V10.3031V10.3031ZM169.984 10.0248C167.476 10.0248 165.804 11.1378 165.804 13.3638C165.804 15.0332 166.919 16.1462 168.87 16.7027L169.984 17.2592C170.542 17.5375 171.099 17.8157 171.099 18.3722C171.099 18.9287 170.542 19.2069 169.706 19.2069C168.591 19.2069 167.476 18.6504 166.64 17.5375L164.968 19.4852C166.083 20.8764 167.755 21.7112 169.706 21.7112C172.214 21.7112 174.165 20.3199 174.165 18.094C174.165 16.4245 173.05 15.5897 171.099 14.755L169.984 14.4767C169.148 14.1985 168.87 13.9203 168.87 13.3638C168.87 12.8073 169.427 12.529 169.984 12.529C170.82 12.529 171.935 12.8073 172.492 13.642L174.165 11.6943C173.05 10.5813 171.656 10.0248 169.984 10.0248ZM178.066 4.18164C176.951 4.18164 176.115 5.01638 176.115 6.12936C176.115 7.24235 176.951 8.07709 178.066 8.07709C179.181 8.07709 180.017 7.24235 180.017 6.12936C180.017 5.01638 179.181 4.18164 178.066 4.18164ZM179.738 10.3031H176.673V21.7112H179.738V10.3031ZM188.934 10.0248C187.541 10.0248 186.426 10.5813 185.59 11.416V10.3031H182.803V21.7112H185.869V15.0332C185.869 13.642 186.705 12.8073 188.098 12.8073C189.492 12.8073 190.328 13.642 190.328 15.0332V21.7112H193.393V14.755C193.114 11.9725 191.442 10.0248 188.934 10.0248ZM206.77 15.3115C206.77 12.2508 204.54 10.0248 201.475 10.0248C198.131 10.0248 195.623 12.529 195.623 15.868C195.623 19.2069 198.131 21.7112 201.753 21.7112C203.425 21.7112 205.097 21.1547 206.212 20.0417L204.819 17.8157C203.983 18.6504 202.868 18.9287 201.753 18.9287C200.081 18.9287 198.967 18.094 198.688 16.7027H206.77C206.77 16.7027 206.77 15.868 206.77 15.3115ZM201.196 12.529C202.589 12.529 203.704 13.3638 203.704 14.755H198.409C198.967 13.3638 200.081 12.529 201.196 12.529ZM212.9 10.0248C210.392 10.0248 208.72 11.1378 208.72 13.3638C208.72 15.0332 209.835 16.1462 211.786 16.7027L212.9 17.2592C213.458 17.5375 214.015 17.8157 214.015 18.3722C214.015 18.9287 213.458 19.2069 212.622 19.2069C211.507 19.2069 210.392 18.6504 209.556 17.5375L207.884 19.4852C208.999 20.8764 210.671 21.7112 212.622 21.7112C215.13 21.7112 217.081 20.3199 217.081 18.094C217.081 16.4245 215.966 15.5897 214.015 14.755L212.9 14.4767C212.064 14.1985 211.786 13.9203 211.786 13.3638C211.786 12.8073 212.343 12.529 212.9 12.529C213.736 12.529 214.851 12.8073 215.408 13.642L217.081 11.6943C215.966 10.5813 214.572 10.0248 212.9 10.0248ZM223.49 10.0248C220.982 10.0248 219.31 11.1378 219.31 13.3638C219.31 15.0332 220.425 16.1462 222.375 16.7027L223.49 17.2592C224.047 17.5375 224.605 17.8157 224.605 18.3722C224.605 18.9287 224.047 19.2069 223.211 19.2069C222.097 19.2069 220.982 18.6504 220.146 17.5375L218.474 19.4852C219.589 20.8764 221.261 21.7112 223.211 21.7112C225.719 21.7112 227.67 20.3199 227.67 18.094C227.67 16.4245 226.555 15.5897 224.605 14.755L223.49 14.4767C222.654 14.1985 222.375 13.9203 222.375 13.3638C222.375 12.8073 222.933 12.529 223.49 12.529C224.326 12.529 225.441 12.8073 225.998 13.642L227.67 11.6943C226.555 10.5813 225.162 10.0248 223.49 10.0248Z" fill="#FF4261"/>
<path d="M31.2042 1.39961C31.2042 1.39961 30.9255 1.12136 31.2042 1.39961C31.2042 1.12136 31.2042 0.843113 31.2042 0.843113L30.9255 0.564867L30.6469 0.286621H30.3682H30.0895H2.50066H2.22199H1.94331L1.66464 0.564867C1.66464 0.564867 1.10729 0.564867 0.828613 0.843113V1.12136V1.39961V28.946V29.2242V29.5025L1.10728 29.7807L1.38597 30.059C1.66464 30.059 1.66463 30.059 1.94331 30.059H29.5321C29.8108 30.059 29.8108 30.059 30.0895 30.059L30.3682 29.7807L30.6469 29.5025V29.2242V28.946V1.39961H31.2042ZM15.8771 13.0859L11.9756 9.1905H20.0572L15.8771 13.0859ZM7.51681 8.63401L13.9263 15.0337L3.61536 25.607V4.73856L7.51681 8.63401ZM17.8278 15.0337L21.7292 11.1382V19.2074L17.8278 15.0337ZM24.7947 8.35576L28.4174 4.73856V25.607L24.7947 21.9898V8.35576ZM26.4667 2.79084L22.8439 6.40804H9.18887L5.56609 2.79084H26.4667ZM5.56609 27.5548L15.8771 17.2596L26.1881 27.5548H5.56609Z" fill="#FF4261"/>
</svg>
