<svg width="285" height="34" viewBox="0 0 285 34" fill="none" xmlns="http://www.w3.org/2000/svg">
<path d="M3.73386 18.7035V31.5028H0.668457V5.34766H3.73386V16.1993H7.078V5.34766H10.1434V31.5028H7.078V18.7035H3.73386Z" fill="black"/>
<path d="M13.7661 30.3898C12.6514 28.9986 12.6514 27.0509 12.6514 25.9379V11.1908C12.6514 9.7996 12.6514 7.85187 13.7661 6.73889C14.3234 6.18239 15.1594 5.34766 17.3888 5.34766C19.6182 5.34766 20.733 6.46064 21.0116 6.73889C22.1263 8.13012 22.1263 10.0778 22.1263 11.1908V25.9379C22.1263 27.3291 22.1263 29.2768 21.0116 30.3898C20.4543 30.9463 19.6182 31.781 17.3888 31.781C15.1594 32.0593 14.0447 30.9463 13.7661 30.3898ZM15.7168 26.4944C15.7168 27.8856 15.7168 28.1638 15.9955 28.4421C16.2741 28.7203 16.8315 29.2768 17.3888 29.2768C17.9462 29.2768 18.5035 28.9986 18.7822 28.4421C18.7822 28.1638 19.0609 27.6074 19.0609 26.4944V10.3561C19.0609 8.96486 19.0609 8.68661 18.7822 8.40836C18.5035 8.13012 17.9462 7.57363 17.3888 7.57363C16.8315 7.57363 16.2741 7.85187 15.9955 8.40836C15.9955 8.68661 15.7168 9.2431 15.7168 10.3561V26.4944Z" fill="black"/>
<path d="M24.9135 5.34766H29.6509C31.6016 5.34766 32.7163 6.18239 33.2737 6.73889C34.1097 7.85187 34.3884 9.52135 34.3884 10.9126V13.4168C34.3884 14.2515 34.3884 15.3645 33.831 16.1993C33.2737 17.034 32.7163 17.3122 31.8803 17.5905C33.2737 17.8687 33.831 18.7035 34.1097 19.5382C34.3884 20.373 34.3884 21.2077 34.3884 22.3207V25.9379C34.3884 27.0509 34.3884 28.1638 33.5524 29.2768C32.995 30.1116 32.159 30.9463 30.2083 30.9463H24.6348V5.34766H24.9135ZM29.0936 16.4775C29.6509 16.4775 30.2083 16.4775 30.4869 15.921C30.7656 15.3645 31.0443 14.808 31.0443 13.695V10.6343C31.0443 10.0778 31.0443 9.2431 30.4869 8.68661C30.2083 8.40836 29.6509 8.13012 28.5362 8.13012H27.7002V16.4775H29.0936ZM29.0936 28.9986C29.3722 28.9986 30.2083 28.9986 30.7656 28.4421C31.0443 28.1638 31.0443 27.6074 31.0443 26.7726V22.5989C31.0443 21.7642 31.0443 20.6512 30.7656 20.0947C30.2083 19.26 29.3722 19.26 28.8149 19.26H27.9789V28.9986H29.0936Z" fill="black"/>
<path d="M36.6177 5.34766H39.6831V16.4775H41.0765C43.0272 16.4775 44.1419 17.3122 44.4206 17.5905C45.5353 18.7035 46.0926 19.8165 46.0926 22.5989V25.6596C46.0926 27.3291 45.8139 28.9986 44.9779 30.1116C43.8632 31.2246 42.7485 31.5028 41.6338 31.5028H36.6177V5.34766V5.34766ZM39.6831 28.9986H40.7978C41.3551 28.9986 42.1912 28.9986 42.4699 28.4421C42.7485 28.1638 43.0272 27.6074 43.0272 26.2161V22.8772C43.0272 22.0424 43.0272 20.6512 42.4699 20.0947C42.1912 19.8165 41.6338 19.26 40.5191 19.26H39.6831V28.9986ZM47.2073 5.34766H50.2728V31.5028H47.2073V5.34766Z" fill="black"/>
<path d="M59.469 31.5026V18.425L59.7477 16.4773L56.125 26.4942V31.5026H53.0596V5.34745H56.125V17.8685L55.8463 19.8163L59.469 9.79939V5.34745H62.5345V31.5026H59.469ZM60.3051 3.39972C59.7477 3.95622 58.6331 4.23446 57.797 4.23446C56.961 4.23446 55.8463 3.95622 55.2889 3.39972C54.4529 2.56499 54.1743 1.452 54.1743 0.895508H56.4037C56.4037 1.17375 56.4037 1.73025 56.4037 1.73025C56.4037 2.00849 56.961 2.28674 57.5183 2.28674C58.0757 2.28674 58.3544 2.00849 58.6331 1.73025C58.6331 1.452 58.6331 1.17375 58.6331 0.895508H60.8624C61.4198 1.452 61.1411 2.56499 60.3051 3.39972Z" fill="black"/>
<path d="M74.5176 5.34766H83.4351V8.13012H77.583V16.4775H78.9763C80.091 16.4775 82.5991 16.7558 83.4351 19.26C83.9925 20.6512 83.9925 22.3207 83.9925 23.4337V25.6596C83.9925 27.0509 83.7138 28.9986 82.8778 30.1116C82.5991 30.6681 81.4844 31.5028 79.8124 31.5028H74.5176V5.34766V5.34766ZM78.9763 28.9986C79.255 28.9986 80.091 28.9986 80.3697 28.4421C80.6484 27.8856 80.9271 27.0509 80.9271 26.4944V22.5989C80.9271 21.2077 80.9271 20.6512 80.6484 20.373C80.3697 19.26 79.5337 19.26 78.9763 19.26H77.583V28.9986H78.9763Z" fill="#F44F00"/>
<path d="M92.6312 31.5028V18.4252L92.9098 16.4775L89.2871 26.4944V31.5028H86.2217V5.34766H89.2871V17.8687L89.0084 19.8165L92.6312 9.7996V5.34766H95.6966V31.5028H92.6312Z" fill="#F44F00"/>
<path d="M101.27 21.4859V26.7725C101.27 27.8855 101.27 28.442 101.549 28.7203C101.827 28.9985 102.106 29.555 102.942 29.555C103.778 29.555 104.057 29.555 104.335 28.7203C104.335 28.442 104.614 27.8855 104.614 26.7725V22.3206C104.614 21.2076 104.614 20.3729 104.335 20.0946C104.057 19.8164 103.499 19.2599 102.106 19.2599H99.8766V16.4774H102.385C103.221 16.4774 103.778 16.4774 104.057 15.3644C104.057 14.808 104.335 13.9732 104.335 13.4167V9.79952C104.335 9.24303 104.335 8.96478 104.057 8.40829C104.057 8.13004 103.499 7.8518 102.663 7.8518C102.106 7.8518 101.549 8.13004 101.549 8.40829C101.549 8.40829 101.27 8.96478 101.27 10.0778V14.2515H98.2046V10.356C98.2046 9.24303 98.2046 7.57355 99.3193 6.46057C100.155 5.62583 101.549 5.06934 102.942 5.06934C104.614 5.06934 105.729 5.90407 106.286 6.46057C107.401 7.8518 107.401 9.52128 107.401 10.356V13.4167C107.401 14.2515 107.401 15.3644 106.843 16.1992C106.565 16.7557 106.007 17.3122 104.893 17.5904C105.729 17.8687 106.286 18.1469 106.565 18.7034C107.401 19.8164 107.401 20.9294 107.401 22.0424V25.6596C107.401 28.442 106.843 29.555 106.565 30.1115C105.729 31.2245 104.614 32.0592 102.663 32.0592C100.991 32.0592 99.598 31.5027 99.0406 30.3897C98.2046 28.9985 98.2046 27.329 98.2046 26.216V21.4859H101.27Z" fill="#F44F00"/>
<path d="M113.253 18.7035V31.5028H110.188V5.34766H113.253V16.1993H116.598V5.34766H119.663V31.5028H116.598V18.7035H113.253Z" fill="#F44F00"/>
<path d="M122.449 5.34766H130.81V8.13012H125.793V16.4775H129.137V19.26H125.793V28.9986H130.81V31.781H122.449V5.34766Z" fill="#F44F00"/>
<path d="M138.334 28.4419C138.613 27.8854 138.613 27.329 138.613 25.9377V21.764H141.678V26.216C141.678 28.4419 141.121 29.5549 140.842 30.3897C140.285 31.2244 139.17 32.0591 137.219 32.0591C135.269 32.0591 134.154 30.9462 133.597 30.3897C132.482 28.9984 132.482 26.7725 132.482 25.3812V10.9124C132.482 9.5212 132.482 7.85172 133.597 6.46049C134.154 5.62575 135.269 4.79102 137.498 4.79102C138.891 4.79102 140.006 5.34751 141.121 6.18225C142.236 7.57348 142.236 9.79945 142.236 10.9124V13.9731H139.17V10.3559C139.17 9.79945 139.17 8.96471 138.613 8.40822C138.334 8.12997 138.055 7.85172 137.219 7.85172C136.383 7.85172 135.826 8.12997 135.547 8.12997C134.99 8.68646 134.99 9.5212 134.99 10.0777V25.6595C134.99 27.0507 134.99 27.8854 135.269 28.1637C135.269 28.4419 135.826 28.9984 136.662 28.9984C137.777 29.2767 138.055 28.7202 138.334 28.4419Z" fill="#F44F00"/>
<path d="M158.956 14.8079C158.677 16.1992 157.563 17.5904 155.612 17.5904C153.104 17.5904 151.71 15.9209 151.71 13.1385C151.71 10.6342 153.104 8.68652 155.612 8.68652C157.284 8.68652 158.677 9.52126 158.956 11.1907H157.284C157.005 10.356 156.448 10.0778 155.612 10.0778C153.94 10.0778 153.104 11.469 153.104 13.1385C153.104 14.8079 153.94 16.1992 155.612 16.1992C156.727 16.1992 157.284 15.6427 157.563 14.8079H158.956Z" fill="black"/>
<path d="M166.202 14.2511C166.202 15.9206 165.087 17.3118 163.136 17.3118C161.186 17.3118 160.071 15.9206 160.071 14.2511C160.071 12.5817 161.186 11.1904 163.136 11.1904C165.087 11.1904 166.202 12.5817 166.202 14.2511ZM164.808 14.2511C164.808 13.1382 164.251 12.3034 163.136 12.3034C162.022 12.3034 161.464 13.1382 161.464 14.2511C161.464 15.3641 162.022 16.1989 163.136 16.1989C164.251 16.1989 164.808 15.3641 164.808 14.2511Z" fill="black"/>
<path d="M172.89 11.1904V15.9206H174.005V18.7031H172.611V17.3118H167.316V11.4687H168.71V16.1989H171.497V11.1904H172.89Z" fill="black"/>
<path d="M175.397 17.3118V11.1904H176.791V15.0859H177.07L179.578 11.1904H180.971V17.0336H179.578V13.4164H179.299L176.791 17.3118H175.397Z" fill="black"/>
<path d="M186.266 16.4772C185.709 17.0337 185.151 17.3119 184.315 17.3119C182.922 17.3119 182.086 16.4772 182.086 15.3642C182.086 14.5295 182.643 13.4165 184.315 13.4165H185.987C185.987 12.5817 185.709 12.3035 184.594 12.3035C183.758 12.3035 183.479 12.5817 183.479 13.1382H182.365C182.365 12.0252 183.479 11.4688 184.873 11.4688C186.266 11.4688 187.381 12.3035 187.381 13.6947V17.5902H186.266V16.4772ZM186.266 14.8077V14.2512H184.873C184.037 14.2512 183.479 14.5295 183.479 15.086C183.479 15.6424 184.037 15.9207 184.594 15.9207C185.43 16.1989 186.266 15.6424 186.266 14.8077Z" fill="black"/>
<path d="M188.496 15.9206C189.61 15.9206 189.889 15.3641 189.889 13.6946V11.1904H194.626V17.0336H193.512V12.3034H191.282V13.6946C191.282 16.1989 190.446 17.3118 189.053 17.3118H188.774V15.9206H188.496Z" fill="black"/>
<path d="M197.692 13.1382H199.364C200.757 13.1382 201.593 13.9729 201.593 15.0859C201.593 16.4771 200.757 17.3118 199.364 17.3118H196.298V11.1904H197.692V13.1382ZM199.364 16.1989C200.2 16.1989 200.478 15.9206 200.478 15.3641C200.478 14.8076 200.2 14.5294 199.364 14.5294H197.97V16.4771H199.364V16.1989Z" fill="black"/>
<path d="M207.167 17.3118V14.8076H204.38V17.3118H202.987V11.1904H204.38V13.6946H207.167V11.1904H208.56V17.0336H207.167V17.3118Z" fill="black"/>
<path d="M215.806 14.2511C215.806 15.9206 214.691 17.3118 212.74 17.3118C210.789 17.3118 209.675 15.9206 209.675 14.2511C209.675 12.5817 210.789 11.1904 212.74 11.1904C214.691 11.1904 215.806 12.5817 215.806 14.2511ZM214.691 14.2511C214.691 13.1382 214.134 12.3034 213.019 12.3034C211.904 12.3034 211.347 13.1382 211.347 14.2511C211.347 15.3641 211.904 16.1989 213.019 16.1989C214.134 16.1989 214.691 15.3641 214.691 14.2511Z" fill="black"/>
<path d="M222.773 14.2511H218.314C218.314 15.3641 218.871 16.1989 219.986 16.1989C220.822 16.1989 221.101 15.9206 221.379 15.3641H222.773C222.494 16.4771 221.658 17.3118 220.265 17.3118C218.314 17.3118 217.199 15.9206 217.199 14.2511C217.199 12.3034 218.314 11.1904 220.265 11.1904C221.937 11.1904 223.051 12.5817 223.051 13.9729V14.2511H222.773ZM218.593 13.4164H221.658C221.658 12.5817 221.101 12.3034 220.265 12.3034C219.15 12.0252 218.593 12.8599 218.593 13.4164Z" fill="black"/>
<path d="M156.169 31.2245V26.4943H153.383V31.2245H151.989V25.3813H157.284V31.2245H156.169Z" fill="black"/>
<path d="M160.628 25.1034V25.6599H160.906C161.185 25.3817 161.742 24.8252 162.579 24.8252C164.251 24.8252 165.087 26.2164 165.087 27.8859C165.087 29.5554 164.251 30.9466 162.579 30.9466C161.742 30.9466 161.185 30.6684 160.906 30.1119H160.628V33.1726H159.234V24.8252H160.628V25.1034ZM160.628 28.1641C160.628 29.2771 161.185 30.1119 162.3 30.1119C163.415 30.1119 163.972 29.2771 163.972 28.1641C163.972 27.0512 163.415 26.2164 162.3 26.2164C160.906 26.2164 160.628 27.0512 160.628 28.1641Z" fill="black"/>
<path d="M171.775 28.4421H167.316C167.316 29.555 167.873 30.3898 168.988 30.3898C169.824 30.3898 170.103 30.1115 170.381 29.555H171.775C171.496 30.668 170.66 31.5028 169.267 31.5028C167.316 31.5028 166.201 30.1115 166.201 28.4421C166.201 26.4943 167.316 25.3813 169.267 25.3813C170.939 25.3813 172.053 26.7726 172.053 28.1638L171.775 28.4421ZM167.595 27.3291H170.66C170.66 26.4943 170.103 26.2161 169.267 26.2161C168.152 26.2161 167.873 26.4943 167.595 27.3291Z" fill="black"/>
<path d="M179.857 29.8327V32.6152H178.463V30.9457H173.726V32.6152H172.333V29.8327H173.169C173.447 28.998 173.726 27.885 173.726 26.772V25.1025H178.463V29.8327H179.857ZM177.627 26.2155H175.398V26.772C175.398 28.1632 175.119 28.998 174.841 29.8327H177.627V26.2155Z" fill="black"/>
<path d="M185.151 31.2245V26.4943H182.365V31.2245H180.971V25.3813H186.266V31.2245H185.151Z" fill="black"/>
<path d="M189.61 25.1034V25.6599H189.889C190.168 25.3817 190.725 24.8252 191.561 24.8252C193.233 24.8252 194.069 26.2164 194.069 27.8859C194.069 29.5554 193.233 30.9466 191.561 30.9466C190.725 30.9466 190.168 30.6684 189.889 30.1119H189.61V33.1726H188.217V24.8252H189.61V25.1034ZM189.61 28.1641C189.61 29.2771 190.168 30.1119 191.282 30.1119C192.397 30.1119 192.954 29.2771 192.954 28.1641C192.954 27.0512 192.397 26.2164 191.282 26.2164C190.168 26.2164 189.61 27.0512 189.61 28.1641Z" fill="black"/>
<path d="M195.741 31.2245V25.3813H197.135V29.2768H197.413L199.921 25.3813H201.315V31.2245H199.921V27.3291H199.643L197.135 31.2245H195.741Z" fill="black"/>
<path d="M207.167 31.2245V28.7203H204.38V31.2245H202.987V25.3813H204.38V27.6073H207.167V25.3813H208.56V31.2245H207.167V31.2245Z" fill="black"/>
<path d="M210.232 31.2245V25.3813H211.626V29.2768H211.904L214.413 25.3813H215.806V31.2245H214.413V27.3291H214.134L211.626 31.2245H210.232Z" fill="black"/>
<path d="M217.478 25.1025H219.428L220.822 27.6068H221.1L222.494 25.1025H224.444V30.9457H223.051V26.772H222.772L221.658 28.998H220.543L219.428 26.772H219.15V30.9457H217.756V25.1025H217.478Z" fill="black"/>
<path d="M229.739 30.6686C229.182 31.2251 228.625 31.5033 227.788 31.5033C226.395 31.5033 225.559 30.6686 225.559 29.5556C225.559 28.7209 226.116 27.6079 227.788 27.6079H229.461C229.461 26.7731 229.182 26.4949 228.067 26.4949C227.231 26.4949 226.952 26.7731 226.952 27.3296H225.559C225.559 26.2166 226.674 25.6602 228.067 25.6602C229.461 25.6602 230.575 26.4949 230.575 27.8861V31.7816H229.461L229.739 30.6686ZM229.739 28.7209V28.1644H228.346C227.51 28.1644 226.952 28.4426 226.952 28.9991C226.952 29.5556 227.51 29.8338 228.067 29.8338C229.182 30.1121 229.739 29.5556 229.739 28.7209Z" fill="black"/>
<path d="M232.248 25.1025H237.542V26.2155H235.592V30.9457H234.198V26.2155H232.248V25.1025Z" fill="black"/>
<path d="M243.952 28.4421H239.493C239.493 29.555 240.05 30.3898 241.165 30.3898C242.001 30.3898 242.28 30.1115 242.559 29.555H243.952C243.673 30.668 242.837 31.5028 241.444 31.5028C239.493 31.5028 238.378 30.1115 238.378 28.4421C238.378 26.4943 239.493 25.3813 241.444 25.3813C243.116 25.3813 244.231 26.7726 244.231 28.1638V28.4421H243.952ZM239.772 27.3291H242.837C242.837 26.4943 242.28 26.2161 241.444 26.2161C240.329 26.2161 239.772 26.4943 239.772 27.3291Z" fill="black"/>
<path d="M244.788 29.8333C245.903 29.8333 246.181 29.2768 246.181 27.6073V25.3813H250.919V31.2245H249.526V26.4943H247.296V27.6073C247.296 30.1115 246.46 31.2245 245.067 31.2245H244.788V29.8333Z" fill="black"/>
<path d="M253.984 27.0508H255.656C257.05 27.0508 257.886 27.8856 257.886 28.9985C257.886 30.1115 257.05 31.2245 255.656 31.2245H252.591V25.3813H253.984V27.0508ZM255.378 29.8333C256.214 29.8333 256.492 29.555 256.492 28.9985C256.492 28.4421 256.214 28.1638 255.378 28.1638H253.984V30.1115L255.378 29.8333Z" fill="black"/>
<path d="M264.574 29.2762C264.295 30.3892 263.459 31.224 262.066 31.224C260.115 31.224 259 29.8327 259 28.1632C259 26.4938 260.115 25.1025 262.066 25.1025C263.459 25.1025 264.295 25.9373 264.574 27.0503H263.18C263.18 26.4938 262.623 26.2155 261.787 26.2155C260.672 26.2155 260.115 27.0503 260.115 28.1632C260.115 29.2762 260.672 30.111 261.787 30.111C262.623 30.111 262.902 29.8327 263.18 29.2762H264.574Z" fill="black"/>
<path d="M265.41 25.1025H270.705V26.2155H268.754V30.9457H267.361V26.2155H265.41V25.1025Z" fill="black"/>
<path d="M276.278 28.1638C276.835 28.1638 277.114 28.7203 277.114 29.555C277.114 30.668 276.278 31.2245 274.885 31.2245H271.819V25.3813H274.885C275.999 25.3813 276.835 25.9378 276.835 26.7726C277.114 27.3291 276.557 27.6073 276.278 28.1638ZM273.213 27.6073H274.885C275.442 27.6073 275.721 27.3291 275.721 26.7726C275.721 26.4943 275.442 25.9378 274.885 25.9378H273.213V27.6073ZM274.885 30.1115C275.721 30.1115 275.999 29.8333 275.999 29.2768C275.999 28.7203 275.721 28.4421 274.885 28.4421H273.213V29.8333L274.885 30.1115Z" fill="black"/>
<path d="M284.36 28.1632C284.36 29.8327 283.245 31.224 281.294 31.224C279.344 31.224 278.229 29.8327 278.229 28.1632C278.229 26.4938 279.344 25.1025 281.294 25.1025C283.245 25.1025 284.36 26.2155 284.36 28.1632ZM282.967 28.1632C282.967 27.0503 282.409 26.2155 281.294 26.2155C280.18 26.2155 279.622 27.0503 279.622 28.1632C279.622 29.2762 280.18 30.111 281.294 30.111C282.409 30.111 282.967 29.2762 282.967 28.1632Z" fill="black"/>
</svg>
