<svg width="188" height="36" viewBox="0 0 188 36" fill="none" xmlns="http://www.w3.org/2000/svg">
<path d="M0.36377 0.996582V35.7774H21.2643V21.865H15.6909V14.9089H21.2643V7.95274H28.2312V35.7774H35.1981V0.996582H0.36377ZM14.2975 28.8212H7.33063V7.95274H14.2975V28.8212Z" fill="#00ACE5"/>
<path d="M56.0987 25.2041H52.7546V19.0827H47.4598V25.2041H44.1157V10.7353H47.4598V16.3002H52.4759V10.457H55.82V25.2041H56.0987Z" fill="#212226"/>
<path d="M70.5896 18.5262C70.5896 19.9175 70.3109 21.0305 69.7536 22.1434C69.1962 23.2564 68.6389 24.0912 67.5242 24.6477C66.4094 25.2042 65.5734 25.4824 64.1801 25.4824C62.7867 25.4824 61.9507 25.2042 60.836 24.6477C59.9999 24.0912 59.1639 23.2564 58.6065 22.1434C58.0492 21.0305 57.7705 19.9175 57.7705 18.5262V17.6915C57.7705 16.3003 58.0492 15.1873 58.6065 14.0743C59.1639 12.9613 59.7213 12.1266 60.836 11.5701C61.9507 11.0136 62.7867 10.7354 64.1801 10.7354C65.5734 10.7354 66.4094 11.0136 67.5242 11.5701C68.3602 12.1266 69.1962 12.9613 69.7536 14.0743C70.3109 15.1873 70.5896 16.3003 70.5896 17.6915V18.5262ZM66.9668 17.6915C66.9668 16.3003 66.6881 15.1873 66.4095 14.3526C65.8521 13.5178 65.2948 13.2396 64.4587 13.2396C62.7867 13.2396 61.672 14.6308 61.672 17.135V18.248C61.672 19.6392 61.9507 20.7522 62.2293 21.587C62.7867 22.4217 63.344 22.6999 64.1801 22.6999C65.0161 22.6999 65.8521 22.4217 66.1308 21.587C66.6881 20.7522 66.9668 19.6392 66.9668 18.248V17.6915Z" fill="#212226"/>
<path d="M72.2617 25.2042V10.7354H77.2779C79.2287 10.7354 80.6221 11.0136 81.4581 11.8483C82.2941 12.4048 82.8515 13.5178 82.8515 14.909C82.8515 15.7438 82.5728 16.3003 82.2941 16.8568C82.0155 17.4133 81.4581 17.6915 80.9008 17.9698C81.7368 18.248 82.2942 18.5262 82.5728 19.0827C83.1302 19.6392 83.1302 20.1957 83.1302 21.0305C83.1302 22.4217 82.5728 23.5347 81.7368 24.3694C80.9008 24.9259 79.5073 25.4824 77.8353 25.4824L72.2617 25.2042ZM75.6059 16.8568H77.5566C78.3927 16.8568 78.95 16.5785 79.2287 16.3003C79.5073 16.022 79.7861 15.7438 79.7861 15.1873C79.7861 14.6308 79.5073 14.0743 79.2287 13.7961C78.95 13.5178 78.3927 13.2396 77.5566 13.2396H75.8845L75.6059 16.8568ZM75.6059 19.0827V22.4217H77.8353C78.3926 22.4217 78.95 22.1434 79.2287 21.8652C79.5073 21.587 79.7861 21.3087 79.7861 20.7522C79.7861 19.6392 79.2287 18.8045 77.8353 18.8045H75.6059V19.0827Z" fill="#212226"/>
<path d="M93.1624 22.7H88.4249L87.5889 25.4825H83.6875L88.9823 11.0137H92.3264L97.6212 25.4825H93.9984L93.1624 22.7ZM89.261 19.9175H92.3264L90.6543 14.9091L89.261 19.9175Z" fill="#212226"/>
<path d="M105.981 25.2042V20.1958H104.031L101.523 25.2042H97.8999L100.965 19.0828C99.572 18.2481 99.0146 17.1351 99.0146 15.4656C99.0146 14.0744 99.5719 12.9614 100.408 12.1267C101.244 11.2919 102.637 11.0137 104.309 11.0137H109.604V25.4825H105.981V25.2042ZM102.359 15.7439C102.359 16.3003 102.637 17.1351 102.916 17.4133C103.195 17.6916 103.752 17.9698 104.309 17.9698H105.981V13.7961H104.309C103.752 13.7961 103.195 14.0744 102.916 14.3526C102.637 14.6309 102.359 14.9091 102.359 15.7439Z" fill="#212226"/>
<path d="M126.046 13.5178H119.915V25.2042H116.571V10.7354H126.325V13.5178H126.046Z" fill="#212226"/>
<path d="M134.128 22.7H129.39L128.554 25.4825H124.932L130.227 11.0137H133.571L138.865 25.4825H135.243L134.128 22.7ZM130.227 19.9175H133.292L131.62 14.9091L130.227 19.9175Z" fill="#212226"/>
<path d="M146.668 14.9091C146.668 14.3526 146.389 14.0744 146.111 13.7961C145.832 13.5179 145.275 13.2396 144.717 13.2396C144.16 13.2396 143.603 13.5179 143.324 13.7961C143.045 14.0744 142.767 14.3526 142.767 14.9091H139.422C139.422 14.0744 139.701 13.5179 139.98 12.9614C140.258 12.4049 141.094 11.8484 141.93 11.5702C142.767 11.2919 143.603 11.0137 144.717 11.0137C146.389 11.0137 147.783 11.2919 148.619 12.1267C149.455 12.6831 150.012 13.7961 150.012 15.1874C150.012 15.7439 149.733 16.3003 149.455 17.1351C149.176 17.6916 148.619 17.9698 147.783 18.5263C148.619 18.8046 149.176 19.0828 149.455 19.6393C150.012 20.1958 150.012 21.0305 150.012 21.587C150.012 22.9783 149.455 23.813 148.34 24.6477C147.225 25.4825 145.832 25.7607 144.16 25.7607C142.488 25.7607 141.373 25.4825 140.258 24.6477C139.144 23.813 138.586 22.9783 138.586 21.587H141.93C141.93 22.1435 142.209 22.4218 142.488 22.7C142.767 22.9783 143.324 23.2565 143.881 23.2565C144.439 23.2565 144.996 22.9783 145.553 22.7C146.111 22.4218 146.111 22.1435 146.111 21.587C146.111 21.0305 145.832 20.474 145.553 20.1958C145.275 19.9176 144.717 19.6393 144.16 19.6393H142.209V17.1351H144.16C146.111 16.5786 146.668 16.0221 146.668 14.9091Z" fill="#212226"/>
<path d="M161.159 19.0827H155.586V22.4216H161.995V24.9258H151.963V10.457H161.995V13.2395H155.586V16.3002H161.159V19.0827Z" fill="#212226"/>
<path d="M175.093 13.5178H170.634V25.2042H167.29V13.5178H163.11V10.7354H175.093V13.5178Z" fill="#212226"/>
<path d="M183.174 22.7H178.437L177.601 25.4825H173.978L179.273 11.0137H182.617L187.912 25.4825H184.289L183.174 22.7ZM179.273 19.9175H182.338L180.666 14.9091L179.273 19.9175Z" fill="#212226"/>
</svg>
