<svg width="192" height="43" viewBox="0 0 192 43" fill="none" xmlns="http://www.w3.org/2000/svg">
<path d="M65.76 0.93645H64.088V5.94489H63.5308V0.658203H66.3174V5.94489H65.76V0.93645Z" fill="black"/>
<path d="M70.7763 1.77119L68.8256 5.94489H68.5469V0.658203H69.1043V4.8319L71.055 0.658203H71.3337V5.94489H70.7763V1.77119Z" fill="black"/>
<path d="M73.8418 0.379883H74.3992V5.3883H76.0712V0.379883H76.6285V5.3883H78.3006V0.379883H78.858V5.66655H74.1205L73.8418 0.379883Z" fill="black"/>
<path d="M83.3166 4.27526C83.3166 5.11 82.7592 5.94474 81.9232 5.94474C81.0871 5.94474 80.5298 5.38824 80.5298 4.27526V1.77104C80.5298 0.936303 81.0871 0.101562 81.9232 0.101562C82.7592 0.101562 83.3166 0.658056 83.3166 1.77104V3.16227H81.0872V4.27526C81.0872 4.83175 81.3658 5.38824 81.9232 5.38824C82.4805 5.38824 82.7593 5.11 82.7593 4.27526V3.99701L83.3166 4.27526ZM81.0872 1.77104V2.88403H82.7593V1.77104C82.7593 1.21455 82.4805 0.658052 81.9232 0.658052C81.3658 0.936298 81.0872 1.21455 81.0872 1.77104Z" fill="black"/>
<path d="M85.8246 0.379883H86.1032L87.4966 4.27532L88.8899 0.379883H89.1686V5.66655H88.6113V1.77111L87.4966 5.11006H87.218L86.1032 1.77111V5.66655H85.5459L85.8246 0.379883Z" fill="black"/>
<path d="M95.8573 5.94474C95.0212 5.94474 94.4639 5.38824 94.4639 4.27526V1.77104C94.4639 0.936303 95.0212 0.101562 95.8573 0.101562C96.6933 0.101562 97.2507 0.658056 97.2507 1.77104V4.27526C97.2507 5.38824 96.6933 5.94474 95.8573 5.94474ZM96.6934 1.77104C96.6934 1.21455 96.4146 0.658052 95.8573 0.658052C95.2999 0.658052 95.0213 0.936303 95.0213 1.77104V4.27526C95.0213 4.83175 95.2999 5.38824 95.8573 5.38824C96.4146 5.38824 96.6934 5.11 96.6934 4.27526V1.77104Z" fill="black"/>
<path d="M102.267 0.379883H105.053V0.936371H103.939V5.9448H103.381V0.936371H102.267V0.379883V0.379883Z" fill="black"/>
<path d="M109.791 4.27526C109.791 5.11 109.233 5.94474 108.397 5.94474C107.561 5.94474 107.004 5.38824 107.004 4.27526V1.77104C107.004 0.936303 107.561 0.101562 108.397 0.101562C109.233 0.101562 109.791 0.658056 109.791 1.77104V3.16227H107.561V4.27526C107.561 4.83175 107.84 5.38824 108.397 5.38824C108.955 5.38824 109.233 5.11 109.233 4.27526V3.99701L109.791 4.27526ZM107.561 1.77104V2.88403H109.233V1.77104C109.233 1.21455 108.955 0.658052 108.397 0.658052C107.84 0.936298 107.561 1.21455 107.561 1.77104Z" fill="black"/>
<path d="M111.742 2.3276V2.04935C111.742 1.21462 112.299 0.379883 113.135 0.379883C113.971 0.379883 114.529 0.93637 114.529 2.04935V5.9448H113.971V5.38831C113.692 5.66655 113.414 5.9448 112.856 5.9448C112.299 5.9448 111.742 5.38831 111.742 4.55357V4.27532C111.742 3.44059 112.299 2.8841 113.135 2.8841H113.971V2.04935C113.971 1.49286 113.692 0.936371 113.135 0.936371C112.578 0.936371 112.299 1.21462 112.299 2.04935V2.3276H111.742ZM113.971 3.16234H113.135C112.578 3.16234 112.299 3.44059 112.299 3.99708V4.27532C112.299 4.83182 112.578 5.11006 113.135 5.11006C113.692 5.11006 113.971 4.83182 113.971 3.99708V3.16234Z" fill="black"/>
<path d="M116.479 0.379883H119.266V0.936371H118.151V5.9448H117.594V0.936371H116.479V0.379883V0.379883Z" fill="black"/>
<path d="M121.216 0.379883H121.774V0.936371C122.052 0.658125 122.331 0.379883 122.888 0.379883C123.446 0.379883 124.003 0.936374 124.003 1.77111V4.55357C124.003 5.3883 123.446 5.94479 122.888 5.94479C122.331 5.94479 122.052 5.66655 121.774 5.3883V7.89251H121.216V0.379883ZM123.446 4.55357V1.77111C123.446 1.21462 123.167 0.658124 122.61 0.658124C122.052 0.658124 121.774 0.936374 121.774 1.77111V4.27532C121.774 4.83181 122.052 5.3883 122.61 5.3883C123.167 5.3883 123.446 5.11006 123.446 4.55357Z" fill="black"/>
<path d="M129.019 4.27526C129.019 5.11 128.462 5.94474 127.626 5.94474C126.79 5.94474 126.232 5.38824 126.232 4.27526V1.77104C126.232 0.936303 126.79 0.101562 127.626 0.101562C128.462 0.101562 129.019 0.658056 129.019 1.77104V3.16227H126.79V4.27526C126.79 4.83175 127.068 5.38824 127.626 5.38824C128.183 5.38824 128.462 5.11 128.462 4.27526V3.99701L129.019 4.27526ZM126.79 1.77104V2.88403H128.462V1.77104C128.462 1.21455 128.183 0.658052 127.626 0.658052C127.068 0.936298 126.79 1.21455 126.79 1.77104Z" fill="black"/>
<path d="M7.7959 31.8213H10.0253V27.3694H24.5164V17.3525H7.7959V31.8213ZM10.0253 19.8568H22.287V25.1434H10.0253V19.8568ZM121.495 31.8213H123.725V27.3694H138.216V17.3525H121.495V31.8213ZM123.725 19.8568H135.986V25.1434H123.725V19.8568ZM161.067 17.6308V27.6477H171.657V31.8213H173.886V27.3694H184.476V17.3525H161.067V17.6308ZM171.378 25.1434H163.018V19.8568H171.378V25.1434ZM181.968 25.1434H173.608V19.8568H181.968V25.1434ZM27.5818 31.8213H29.8112V27.3694H42.0729V31.8213H44.3023V17.3525H27.5818V31.8213ZM29.8112 19.8568H42.0729V25.4217H29.8112V19.8568ZM86.3822 31.8213H103.103V17.3525H86.3822V31.8213ZM88.8903 19.8568H101.152V29.8736H88.8903V19.8568ZM61.3015 17.3525H49.3185L55.4493 27.6477L61.3015 17.3525V31.8213H63.5309V17.3525H61.3015ZM46.8104 31.8213H49.0398V17.3525H46.8104V31.8213ZM141.003 31.8213H143.232V27.3694H155.494V31.8213H157.723V17.3525H141.003V31.8213ZM143.232 19.8568H155.494V25.4217H143.232V19.8568ZM66.5963 19.8568H73.8418V31.8213H76.0713V19.5785H83.3168V17.3525H66.875V19.8568H66.5963ZM107.562 31.8213H109.791V19.5785H118.151V17.3525H107.562V31.8213Z" fill="black"/>
<path d="M132.364 3.16272V1.77148H131.806V5.11044H132.364V3.99745H190.885V41.2824H1.38628V3.99745H59.6294V5.11044H60.1867V1.77148H59.6294V3.16272H0.550293V42.3954H192V3.16272H132.364Z" fill="#C80E3F"/>
</svg>
