<svg width="136" height="41" viewBox="0 0 136 41" fill="none" xmlns="http://www.w3.org/2000/svg">
<path d="M28.9958 33.946H2.24298V1.39123H28.9958V9.46037H30.3892V0H0.849609V35.059H30.3892V33.1113H28.9958V33.946Z" fill="#FF1E1B"/>
<path d="M18.685 31.9986V8.06947H27.0453V3.06104H4.47266V8.06947H12.8329V31.9986H18.685Z" fill="#FF1E1B"/>
<path d="M37.9135 12.521C37.0775 11.9645 36.2414 11.408 35.1267 11.1297C34.012 10.8515 33.176 10.5732 32.0613 10.5732C28.9958 10.5732 26.4877 11.408 24.8157 13.3557C23.1436 15.3034 22.3076 17.8076 22.3076 21.4248C22.3076 24.7638 23.1436 27.5463 24.537 29.494C26.2091 31.4417 28.4385 32.2765 31.7826 32.2765C33.4546 32.2765 34.848 31.9982 36.2414 31.72C37.6348 31.1635 38.7495 30.607 39.5855 30.0505L37.9135 26.4333C37.3561 26.7115 36.7988 27.268 35.9627 27.5463C35.1267 27.8245 34.012 28.1028 32.8973 28.1028C30.9465 28.1028 29.8319 27.5463 28.9958 26.7115C28.1598 25.8768 27.6024 24.4856 27.6024 22.8161H40.1429C40.4216 21.9813 40.4216 21.4248 40.4216 20.8684C40.4216 20.3119 40.4216 19.4771 40.4216 18.9206C40.4216 17.2512 40.1428 15.8599 39.5855 15.0252C39.3068 13.9122 38.7495 13.0775 37.9135 12.521ZM35.4053 19.7554H27.6024C27.8811 18.3641 28.1598 17.2512 28.7171 16.4164C29.2745 15.5817 30.3892 15.0252 31.7826 15.0252C32.8973 15.0252 33.7333 15.3034 34.5694 16.1382C35.4054 16.9729 35.684 18.0859 35.4053 19.7554Z" fill="#FF1E1B"/>
<path d="M57.9782 25.3204C57.9782 24.2074 57.9782 22.8161 58.2568 21.7032C58.2568 20.5902 58.2568 19.1989 58.2568 18.086C58.2568 16.973 58.2568 16.1382 57.9782 15.0253C57.6995 14.1905 57.4208 13.3558 56.8635 12.7993C56.3061 12.2428 55.4701 11.6863 54.6341 11.4081C53.7981 11.1298 52.4047 10.8516 51.0113 10.8516C49.3393 10.8516 47.6673 11.1298 46.2739 11.4081C44.8805 11.6863 43.4871 11.9645 42.3724 12.521L43.7657 16.4165C44.6018 16.1382 45.4378 15.86 46.8312 15.5817C47.9459 15.3035 49.0606 15.3035 50.1753 15.3035C51.5687 15.3035 52.6834 15.5817 52.9621 16.4165C53.5194 16.973 53.5194 18.086 53.2407 19.7554C51.29 19.7554 49.8966 19.7554 48.2246 20.0337C46.5525 20.3119 45.4378 20.5902 44.3231 21.1467C43.2084 21.7032 42.3724 22.2597 41.8151 23.3726C41.2577 24.2074 40.979 25.3204 40.979 26.4333C40.979 27.2681 41.2577 28.1028 41.5364 28.9376C41.8151 29.7723 42.3724 30.3288 42.9298 30.8853C43.4871 31.4418 44.0445 31.72 44.8805 31.9983C45.7165 32.2765 46.5525 32.5548 47.3886 32.5548C49.0606 32.5548 50.1753 32.2765 51.29 31.72C52.4047 31.1635 52.962 30.3288 53.5193 29.4941H53.798L54.6341 32.2765H59.0928C58.8142 31.1635 58.5355 30.3288 58.5355 29.2158C57.9782 27.8246 57.9782 26.7116 57.9782 25.3204ZM52.9621 25.5986C52.6834 26.1551 52.126 26.7116 51.5687 27.2681C51.0113 27.8246 50.1753 28.1028 49.0606 28.1028C48.2246 28.1028 47.6672 27.8246 47.1099 27.5463C46.5525 26.9898 46.5525 26.4333 46.5525 25.8769C46.5525 25.3204 46.8312 24.7639 47.1099 24.4856C47.3885 24.2074 47.9459 23.9291 48.5032 23.6509C49.0606 23.3726 49.8967 23.3726 50.454 23.3726C51.29 23.3726 52.126 23.3726 52.9621 23.3726V25.5986Z" fill="#FF1E1B"/>
<path d="M59.9287 16.1384H65.7809V31.9984H71.3544V16.1384H77.2065V11.4082H59.9287V16.1384Z" fill="#FF1E1B"/>
<path d="M88.9108 10.8516C87.5174 10.8516 86.4028 11.1298 85.2881 11.6863C84.1734 12.2428 83.3373 13.0775 82.7799 13.9123H82.5013L81.9439 11.4081H78.0425V40.3457H83.3373V31.9983C83.8946 32.2765 84.452 32.5548 85.0094 32.5548C85.5667 32.5548 86.4027 32.833 87.2387 32.833C88.6321 32.833 90.0255 32.5548 91.4189 31.9983C92.5336 31.4418 93.6483 30.607 94.4843 29.7723C95.3203 28.6593 95.8777 27.5463 96.4351 26.1551C96.9924 24.7639 96.9924 23.0944 96.9924 21.4249C96.9924 17.8077 96.4351 15.3035 95.0417 13.634C93.3696 11.6863 91.4189 10.8516 88.9108 10.8516ZM89.7468 26.4333C88.9108 27.5463 87.7961 28.1028 86.124 28.1028C85.288 28.1028 84.7307 28.1028 84.452 27.8246C83.8946 27.5463 83.616 27.2681 83.0586 26.9898V18.3642C83.3373 17.2512 83.8946 16.4165 84.452 16.1382C85.0093 15.5817 85.8453 15.3035 86.96 15.3035C88.3534 15.3035 89.1895 15.86 90.0255 16.6947C90.5828 17.8077 90.8616 19.1989 90.8616 20.8684C91.1402 23.3726 90.5828 25.3204 89.7468 26.4333Z" fill="#FF1E1B"/>
<path d="M114.549 25.3204C114.549 24.2074 114.549 22.8161 114.828 21.7032C114.828 20.5902 114.828 19.1989 114.828 18.086C114.828 16.973 114.828 16.1382 114.549 15.0253C114.27 14.1905 113.992 13.3558 113.434 12.7993C112.877 12.2428 112.041 11.6863 111.205 11.4081C110.369 11.1298 108.975 10.8516 107.582 10.8516C105.91 10.8516 104.238 11.1298 102.845 11.4081C101.451 11.6863 100.058 11.9645 98.9432 12.521L100.337 16.4165C101.173 16.1382 102.009 15.86 103.402 15.5817C104.517 15.3035 105.631 15.3035 106.746 15.3035C108.139 15.3035 109.254 15.5817 109.533 16.4165C110.09 16.973 110.09 18.086 109.811 19.7554C107.861 19.7554 106.467 19.7554 104.795 20.0337C103.402 20.3119 102.009 20.5902 100.894 21.1467C99.7791 21.7032 98.9431 22.2597 98.3858 23.3726C97.8284 24.2074 97.5498 25.3204 97.5498 26.4333C97.5498 27.2681 97.8284 28.1028 98.1071 28.9376C98.3858 29.7723 98.9431 30.3288 99.5005 30.8853C100.058 31.4418 100.615 31.72 101.451 31.9983C102.287 32.2765 103.123 32.5548 103.959 32.5548C105.631 32.5548 106.746 32.2765 107.861 31.72C108.975 31.1635 109.533 30.3288 110.09 29.4941H110.369L111.205 32.2765H115.664C115.385 31.1635 115.106 30.3288 115.106 29.2158C114.549 27.8246 114.549 26.7116 114.549 25.3204ZM109.254 25.5986C108.975 26.1551 108.418 26.7116 107.861 27.2681C107.303 27.8246 106.467 28.1028 105.353 28.1028C104.517 28.1028 103.959 27.8246 103.402 27.5463C102.845 26.9898 102.845 26.4333 102.845 25.8769C102.845 25.3204 103.123 24.7639 103.402 24.4856C103.681 24.2074 104.238 23.9291 104.795 23.6509C105.353 23.3726 106.189 23.3726 106.746 23.3726C107.582 23.3726 108.418 23.3726 109.254 23.3726V25.5986Z" fill="#FF1E1B"/>
<path d="M120.958 11.4082C120.958 14.7472 120.68 17.2514 120.68 19.4773C120.68 21.7033 120.122 23.0945 119.844 24.4858C119.565 25.5988 119.286 26.4335 118.729 26.99C118.172 27.5465 117.893 27.8247 117.336 27.8247C117.057 27.8247 116.5 27.8247 116.221 27.5465L115.664 31.9984C116.221 32.2767 117.336 32.5549 119.008 32.5549C120.401 32.5549 121.516 31.9984 122.352 31.1637C123.188 30.3289 123.745 28.9377 124.303 27.5465C124.86 26.1553 125.139 24.2075 125.417 22.2598C125.696 20.3121 125.975 18.3644 125.975 16.4166H130.155V32.2767H135.45V11.4082H120.958Z" fill="#FF1E1B"/>
</svg>
