<svg width="20" height="19" viewBox="0 0 20 19" fill="none" xmlns="http://www.w3.org/2000/svg">
<path d="M6.48556 14.8197C5.46907 14.8197 4.64663 15.6514 4.64663 16.6679C4.64663 17.6844 5.46907 18.516 6.48556 18.516C7.50206 18.516 8.33373 17.6844 8.33373 16.6679C8.33373 15.6514 7.50206 14.8197 6.48556 14.8197ZM0.94104 0.0343018V1.88248H2.78921L6.11593 8.89629L4.86841 11.1603C4.72055 11.4191 4.63739 11.724 4.63739 12.0474C4.63739 13.0639 5.46907 13.8956 6.48556 13.8956H17.5746V12.0474H6.87368C6.74431 12.0474 6.64266 11.9458 6.64266 11.8164L6.67038 11.7055L7.50206 10.1993H14.3865C15.0796 10.1993 15.6895 9.82038 16.0037 9.24745L19.3119 3.25012C19.3858 3.12075 19.4228 2.96366 19.4228 2.80656C19.4228 2.29831 19.0069 1.88248 18.4987 1.88248H4.83145L3.9628 0.0343018H0.94104ZM15.7264 14.8197C14.7099 14.8197 13.8875 15.6514 13.8875 16.6679C13.8875 17.6844 14.7099 18.516 15.7264 18.516C16.7429 18.516 17.5746 17.6844 17.5746 16.6679C17.5746 15.6514 16.7429 14.8197 15.7264 14.8197Z" fill="#F57C2A"/>
</svg>
