<svg width="197" height="57" viewBox="0 0 197 57" fill="none" xmlns="http://www.w3.org/2000/svg">
<path fill-rule="evenodd" clip-rule="evenodd" d="M130.719 14.4976C130.028 14.4976 129.579 14.5659 129.372 14.7025C128.957 14.9416 128.508 15.1124 128.059 15.2832C127.575 15.4539 127.091 15.6247 126.642 15.898C125.709 16.4445 124.88 17.3667 124.188 18.6305C123.601 19.7235 123.117 21.0214 122.841 22.4219C122.772 22.6951 122.703 23.0025 122.633 23.2758C122.184 25.1885 121.735 27.1696 122.495 28.8433C123.394 30.8927 125.018 32.2589 126.607 33.4544C127.056 33.796 127.575 34.1375 127.989 34.2742C128.197 34.3425 128.439 34.3766 128.68 34.3766C128.888 34.4108 129.095 34.4108 129.302 34.4791C129.683 34.5816 130.028 34.7865 130.339 34.9915C130.892 35.2989 131.479 35.6404 132.205 35.6404C132.24 35.6404 132.24 35.6404 132.274 35.6404C132.827 35.6404 133.345 35.3672 133.864 35.0939C134.002 35.0256 134.14 34.9573 134.278 34.889C136.213 33.9668 136.939 33.0104 138.079 31.405C138.183 31.2684 138.252 31.1659 138.356 31.0293C138.598 30.6877 138.874 30.3462 139.15 30.0046C139.945 29.0141 140.671 28.0918 141.016 26.7256C141.258 25.735 141.327 24.7445 141.224 23.754C141.155 22.8659 140.913 21.9778 140.567 21.0898C140.256 20.3042 139.842 19.5527 139.358 18.9037C138.909 18.2889 138.39 17.7083 137.837 17.2642C137.768 17.1959 137.665 17.1276 137.596 17.0593C136.524 16.1712 135.488 15.3173 133.829 14.9074C132.827 14.6342 131.756 14.4976 130.719 14.4976ZM132.343 34.0351C131.859 34.0351 131.341 33.7618 130.788 33.4544C130.374 33.2495 129.959 33.0104 129.544 32.9079C129.337 32.8396 129.13 32.8054 128.957 32.8054C128.784 32.7713 128.646 32.7713 128.542 32.703C128.024 32.498 127.298 32.0198 126.607 31.405C125.916 30.8244 125.294 30.1754 124.88 29.5947L124.845 29.5606C124.258 28.775 123.497 27.7161 123.566 26.589C123.566 26.4182 123.705 26.2132 123.808 26.0425C123.912 25.8717 124.016 25.735 124.05 25.5643C124.119 25.3252 124.085 25.0519 124.05 24.847C124.05 24.6762 124.016 24.5396 124.05 24.4029C124.05 24.2663 124.119 24.1638 124.188 24.0272C124.258 23.8906 124.327 23.754 124.361 23.5832L124.396 23.4466C124.81 21.3972 125.087 20.0309 126.054 18.5963C126.504 17.9474 127.022 17.435 127.678 17.0593C128.369 16.6836 129.199 16.4445 130.201 16.3079C130.546 16.2737 130.892 16.2395 131.272 16.2395C132.481 16.2395 133.656 16.4445 134.417 16.786C135.108 17.0935 136.075 17.8107 136.939 18.6647C137.906 19.621 138.598 20.5774 138.839 21.2947C138.874 21.4313 138.909 21.568 138.909 21.7046C138.909 21.8754 138.943 22.0461 138.978 22.2169C139.22 23.0708 139.392 24.1638 139.392 25.1202C139.392 26.2474 139.22 27.2379 138.874 27.9552C138.667 28.3651 138.287 28.8091 137.872 29.2532C137.561 29.5947 137.25 29.9363 136.974 30.312C136.801 30.5511 136.628 30.7902 136.455 31.0635C135.868 31.9174 135.315 32.703 134.555 33.147C133.898 33.5569 132.827 34.0009 132.412 34.0351C132.378 34.0351 132.343 34.0351 132.343 34.0351Z" fill="white"/>
<path fill-rule="evenodd" clip-rule="evenodd" d="M162.958 16.1714C161.853 16.1714 160.021 17.0595 159.365 17.9134C159.295 18.0158 159.192 18.1866 159.088 18.4257C159.019 18.5623 158.915 18.7331 158.846 18.8697C158.604 19.3138 158.328 19.8261 158.155 20.4068C157.982 21.0558 157.913 21.7389 158.017 22.4562C158.052 22.6611 158.121 22.8319 158.19 23.0027C158.259 23.1393 158.293 23.3101 158.328 23.4467C158.363 23.72 158.328 23.9932 158.328 24.2665C158.328 24.5397 158.293 24.8471 158.328 25.1545C158.363 25.3936 158.466 25.6669 158.57 25.906C158.674 26.1451 158.743 26.3842 158.777 26.555C158.777 26.6574 158.812 26.7941 158.812 26.9307C159.019 28.536 159.261 30.2097 160.436 30.7904C160.885 30.9953 161.783 31.1661 162.405 31.1661C162.474 31.1661 162.544 31.1661 162.578 31.1661C163.373 31.0978 163.96 30.6537 164.479 30.2439C164.582 30.1755 164.651 30.1072 164.755 30.0389C165.066 29.7998 165.446 29.5266 165.481 29.1509C165.515 28.9118 165.412 28.7068 165.239 28.4677L165.17 28.3994L165.066 28.3653C164.962 28.3653 164.859 28.3311 164.755 28.3311C164.133 28.3311 163.788 28.7068 163.511 29.0142C163.304 29.2533 163.096 29.4583 162.82 29.4924C162.613 29.5266 162.405 29.5607 162.233 29.5607C161.611 29.5607 161.196 29.3216 160.954 28.7751C160.712 28.2286 160.609 27.5113 160.505 26.7257C160.47 26.2817 160.401 25.8035 160.298 25.3595C160.263 25.1204 160.159 24.9496 160.09 24.7788C160.021 24.6422 159.987 24.5739 159.952 24.4714C160.401 24.5397 160.85 24.608 161.3 24.608C162.371 24.608 163.338 24.3689 164.133 23.9249C164.997 23.4467 165.584 22.6953 165.826 21.8072C166.034 21.0899 166.034 20.2702 165.826 19.4163C165.653 18.5965 165.308 17.8451 164.859 17.2644C164.617 16.9228 164.34 16.6837 164.029 16.4788C163.684 16.2739 163.338 16.1714 162.958 16.1714C162.958 16.1714 162.993 16.1714 162.958 16.1714ZM159.848 22.6953C159.399 20.7484 159.883 19.0405 161.196 18.2891C161.68 18.0158 162.198 17.8451 162.613 17.8451C163.166 17.8451 163.546 18.1183 163.788 18.699C164.099 19.5187 164.237 21.6364 163.822 22.1488C163.407 22.6611 162.578 22.9344 161.576 22.9344C160.989 22.9685 160.401 22.8661 159.848 22.6953Z" fill="white"/>
<path fill-rule="evenodd" clip-rule="evenodd" d="M170.733 16.7178C170.146 16.7178 169.731 16.8544 169.489 17.196C169.074 17.7425 169.316 18.5622 169.558 19.4161C169.662 19.826 169.8 20.2359 169.835 20.6458C169.973 21.4655 169.8 22.4561 169.662 23.2075C169.593 23.5491 169.558 23.8565 169.524 24.1297C169.524 24.2664 169.524 24.403 169.558 24.5396C169.593 24.7787 169.593 24.8812 169.593 24.9495C169.351 24.847 169.109 24.8129 168.867 24.8129C168.556 24.8129 168.28 24.8812 168.072 25.052C167.83 25.2227 167.692 25.496 167.658 25.8376V26.0083L167.83 26.1108C168.072 26.2474 168.349 26.3158 168.66 26.3841C169.074 26.4865 169.351 26.5548 169.42 26.7256C169.524 27.1355 169.455 27.7845 169.351 28.3993C169.282 28.9116 169.213 29.3898 169.247 29.7997C169.282 30.3462 169.524 30.6878 169.904 30.8244C170.007 30.8586 170.146 30.8927 170.249 30.8927C170.491 30.8927 170.733 30.7903 170.906 30.5853C171.044 30.4487 171.113 30.2096 171.182 29.9705C171.286 29.5265 171.32 28.9458 171.32 28.3993C171.32 27.9553 171.355 27.4771 171.424 27.1697C172.219 26.9647 173.325 26.9647 174.396 26.9306C174.845 26.9306 175.26 26.8964 175.674 26.8964C175.743 27.033 175.813 27.1697 175.882 27.3063C175.985 27.5112 176.124 27.7162 176.193 28.0236C176.262 28.2968 176.227 28.6042 176.193 28.9116C176.158 29.2191 176.124 29.5265 176.193 29.868C176.296 30.5853 176.78 31.0977 177.298 31.0977C177.644 31.0977 177.955 30.8927 178.162 30.5512L178.266 30.4145L178.197 30.2438C178.024 29.9022 178.093 29.5265 178.162 29.1166C178.197 28.8092 178.266 28.5018 178.231 28.1602C178.231 27.887 178.128 27.6137 178.024 27.3404C177.92 27.033 177.817 26.7256 177.851 26.4865C177.92 26.2133 178.231 26.1108 178.646 25.9059C178.957 25.8034 179.268 25.6668 179.475 25.4618C179.752 25.1886 179.786 24.8129 179.648 24.3688L179.614 24.2664L179.51 24.198C179.406 24.1297 179.268 24.0956 179.13 24.0956C178.922 24.0956 178.75 24.1639 178.611 24.198C178.508 24.2322 178.404 24.2664 178.3 24.3005C178.404 23.6174 178.266 23.1734 178.024 22.6952C178.3 22.2511 178.3 21.8071 178.3 21.4314C178.3 21.0898 178.3 20.7482 178.439 20.3725L178.508 20.2017L178.404 20.0651C178.128 19.7235 177.54 19.4845 176.987 19.4845C176.573 19.4845 176.262 19.6211 176.02 19.826L175.951 19.8943V19.9968C175.882 20.3725 176.02 20.6116 176.124 20.7824C176.158 20.8507 176.193 20.8849 176.227 20.9532C175.882 21.9779 176.02 22.9001 176.124 23.9248C176.158 24.1297 176.193 24.3688 176.193 24.5738C175.674 24.8812 174.914 24.9153 174.223 24.9153C174.05 24.9153 173.877 24.9153 173.739 24.9153C173.601 24.9153 173.463 24.9153 173.325 24.9153H173.29C173.014 24.9153 172.772 24.9836 172.53 25.0861C172.323 25.1544 172.15 25.2227 171.977 25.2227C171.942 25.2227 171.908 25.2227 171.873 25.2227C171.908 24.8129 171.942 24.3688 171.977 23.8906C172.012 23.31 172.046 22.6952 172.115 22.0803C172.115 21.9437 172.184 21.8412 172.219 21.7046C172.288 21.5338 172.357 21.3289 172.357 21.124C172.357 20.8849 172.288 20.6799 172.219 20.4067C172.15 20.2017 172.081 19.9626 172.081 19.7235C172.046 19.382 172.081 19.0404 172.115 18.6989C172.15 18.289 172.219 17.9133 172.115 17.5717C172.012 17.1618 171.735 16.8886 171.251 16.7519H171.217H171.182C171.009 16.7178 170.871 16.7178 170.733 16.7178Z" fill="white"/>
<path fill-rule="evenodd" clip-rule="evenodd" d="M184.451 18.2549C183.933 18.2549 183.484 18.5623 183.38 19.0063C183.311 19.2454 183.415 19.4845 183.484 19.7578C183.518 19.8944 183.588 20.0652 183.588 20.1676C183.657 21.2607 183.622 22.7294 183.553 24.3006C183.518 25.3594 183.484 26.4866 183.484 27.4771C183.484 28.2286 183.622 28.9117 183.864 29.4582C184.106 30.0389 184.486 30.4829 184.901 30.7562L184.935 30.7903H184.97C185.315 30.8928 185.695 30.9611 186.041 30.9611C186.663 30.9611 187.25 30.7903 187.769 30.4488C188.252 30.1413 188.632 29.7315 188.943 29.2191C189.254 28.6726 189.393 28.0578 189.393 27.443C189.393 26.794 189.185 26.145 188.84 25.5985C188.425 24.9496 187.769 24.6422 187.112 24.3347C186.801 24.1981 186.49 24.0273 186.214 23.8566L186.145 23.8224H186.075C186.006 23.8224 185.972 23.8224 185.903 23.8224C185.695 23.8224 185.557 23.8907 185.453 23.9249C185.419 23.9249 185.384 23.959 185.35 23.959C184.97 22.3878 185.212 20.2018 185.35 18.9722V18.9039L185.315 18.8355C185.246 18.4598 184.831 18.2549 184.451 18.2549ZM185.35 25.4961C185.453 25.4619 185.592 25.4619 185.73 25.4619C186.352 25.4619 186.974 25.8376 187.388 26.4866C187.838 27.1697 187.941 28.0236 187.665 28.6385C187.492 29.0142 186.87 29.4582 186.317 29.4582C186.145 29.4582 186.006 29.4241 185.868 29.3558C185.592 29.185 185.419 28.8434 185.35 28.2286C185.281 27.6479 185.315 26.9306 185.35 26.2817C185.35 25.9743 185.35 25.7352 185.35 25.4961Z" fill="white"/>
<path fill-rule="evenodd" clip-rule="evenodd" d="M150.484 19.2798C150.07 19.2798 149.724 19.5189 149.586 19.7921C149.379 20.1337 149.206 20.5777 149.068 20.9876C148.757 21.8415 148.446 22.6954 147.685 23.1395C147.409 23.3103 147.202 23.3786 146.994 23.3786C146.614 23.3786 146.338 23.1053 145.992 22.7637C145.578 22.388 145.128 21.944 144.437 21.944C144.403 21.944 144.368 21.944 144.334 21.944C143.884 21.9781 143.435 22.3197 142.882 23.0712C142.813 23.1395 142.537 23.5152 142.329 23.9592C142.053 24.5057 141.984 24.8814 142.157 25.1547C142.226 25.2913 142.399 25.4963 142.813 25.4963C142.917 25.4963 143.021 25.4963 143.159 25.4621C143.608 25.3596 143.781 24.9156 143.919 24.4716C144.023 24.1983 144.161 23.8226 144.299 23.8226C144.368 23.8226 144.541 24.0617 144.61 24.1642C144.714 24.3349 144.852 24.5057 145.025 24.6424C145.301 24.9156 145.923 25.3255 146.338 25.3596C146.441 25.3596 146.511 25.3938 146.614 25.3938C147.202 25.3938 147.582 25.1547 147.927 24.9498C148.065 24.8473 148.204 24.779 148.376 24.7107C148.307 25.0522 148.204 25.3938 148.135 25.7354C147.996 26.4185 147.824 27.1016 147.616 27.7506C147.513 28.0922 147.305 28.3996 147.098 28.707C146.891 29.0144 146.718 29.2876 146.649 29.595C146.545 29.9708 146.614 30.3123 146.891 30.6539L146.994 30.7564H147.167C147.582 30.7564 147.996 30.7905 148.446 30.7905C148.895 30.8247 149.379 30.8588 149.862 30.8588C150.415 30.8588 150.899 30.8247 151.348 30.7564C151.797 30.6881 152.281 30.4831 152.799 30.2782C153.11 30.1757 153.387 30.0391 153.698 29.9366C154.562 29.6634 155.426 29.3901 156.151 29.3218C156.255 29.3218 156.359 29.2876 156.428 29.2876C156.911 29.2535 157.361 29.1852 157.602 28.8436C157.775 28.6387 157.775 28.3313 157.706 27.9555L157.672 27.7847L157.533 27.7164C157.222 27.614 156.877 27.5457 156.462 27.5457C155.875 27.5457 155.287 27.6823 154.769 27.7847C154.251 27.8872 153.698 28.0922 153.18 28.2971C152.558 28.5362 151.97 28.7753 151.417 28.8436C151.003 28.8778 150.553 28.9119 150.139 28.9119C149.69 28.9119 149.309 28.8778 148.895 28.8094C149.655 26.3843 150.346 23.7201 151.037 21.1242C151.141 20.6802 151.279 20.202 151.383 19.758L151.417 19.5872L151.314 19.4506C151.003 19.3823 150.761 19.2798 150.484 19.2798Z" fill="white"/>
<path fill-rule="evenodd" clip-rule="evenodd" d="M194.541 27.9551C194.057 27.9551 193.608 28.1942 193.262 28.6041C192.951 28.9798 192.779 29.4238 192.744 29.902C192.709 30.2436 192.779 30.5168 192.951 30.7559C193.124 31.0292 193.435 31.1999 193.781 31.2341C193.815 31.2341 193.884 31.2341 193.919 31.2341C194.506 31.2341 195.301 30.7559 195.647 30.4143C195.785 30.2777 195.819 30.1069 195.888 29.9361C195.923 29.8678 195.958 29.7312 195.992 29.6971C196.13 29.5604 196.234 29.3896 196.234 29.2189V29.1847C196.199 28.6724 195.612 28.2966 195.543 28.2283C195.197 28.0575 194.852 27.9551 194.541 27.9551Z" fill="white"/>
<path fill-rule="evenodd" clip-rule="evenodd" d="M47.5471 32.3613C47.7198 32.7029 47.8581 33.0786 48.0654 33.4202C47.9272 33.6251 47.7889 33.8642 47.6507 34.1033C47.3052 34.6498 46.9942 35.128 46.6141 35.5379C46.1994 35.9477 45.7502 36.1527 45.1628 36.221C45.0592 36.221 44.99 36.221 44.8864 36.221C44.1607 36.221 43.3314 35.9819 42.6749 35.6062C42.0184 35.2305 41.6037 34.7523 41.5692 34.2741C41.4655 33.2835 42.122 32.4296 42.7786 31.7465C43.4351 31.0634 44.3335 30.1411 45.301 30.1411C45.6466 30.1411 45.9921 30.2436 46.3377 30.4827C46.8905 30.8926 47.2015 31.6099 47.5471 32.3613ZM51.0025 33.1469C51.659 33.1469 51.5554 31.9173 50.8643 32.1564C50.2769 32.3272 50.5187 33.1469 51.0025 33.1469ZM57.7751 35.777L57.706 35.7087L57.6024 35.6745C57.4642 35.6403 57.3605 35.6403 57.2223 35.6403C56.704 35.6403 56.1511 35.8453 55.8747 36.0161C55.6328 36.1527 55.3909 36.3235 55.149 36.5284C54.6653 36.87 54.1815 37.1774 53.6632 37.5189C53.0412 37.8947 52.0046 38.5436 51.2789 38.5436C51.2444 38.5436 51.2098 38.5436 51.1753 38.5436C50.7261 38.5095 50.3805 38.2362 50.1041 37.6556C49.8276 37.1091 49.6549 36.4259 49.5167 35.7428C49.4821 35.5379 49.413 35.3329 49.3784 35.128C49.5167 35.0255 49.5858 34.9231 49.6894 34.7864C49.8622 34.5815 49.9659 34.4449 50.1386 34.4107C50.1732 34.4107 50.1732 34.4107 50.2077 34.4107C50.3114 34.4107 50.4151 34.4449 50.5187 34.479C50.6569 34.5132 50.8297 34.5815 51.0025 34.5815C51.0371 34.5815 51.1062 34.5815 51.1407 34.5815C52.281 34.4107 52.903 33.2494 52.8339 32.2588C52.7993 31.849 52.6611 31.4732 52.3847 31.2C52.0737 30.8926 51.659 30.7218 51.1753 30.7218C51.0025 30.7218 50.7952 30.756 50.5878 30.7901C50.2077 30.8584 49.9313 31.1317 49.724 31.3708C49.5167 31.5757 49.3784 31.7123 49.2057 31.7123C49.1711 31.7123 49.1711 31.7123 49.1366 31.7123C49.0329 31.7123 48.9638 31.5416 48.8256 31.2341C48.7565 31.0634 48.6874 30.8926 48.5491 30.7218C48.169 30.0728 47.7198 29.5946 47.2706 29.2189C46.6487 28.7407 45.923 28.5016 45.1283 28.5016C45.0592 28.5016 44.9555 28.5016 44.8864 28.5016C43.677 28.5699 42.9168 29.3897 42.2257 30.2095C42.122 30.3461 41.9838 30.4827 41.8801 30.5852C41.7765 30.6876 41.6728 30.7901 41.5692 30.9267C40.7744 31.7465 39.7723 32.8053 39.876 34.3082C39.9106 34.6156 40.0488 34.8889 40.1524 35.128C40.2561 35.3671 40.3943 35.5379 40.3598 35.777C40.3598 35.9136 40.2215 36.221 39.9106 36.5967C39.6341 36.9383 39.254 37.2115 38.9776 37.3482C38.5629 37.5189 38.1828 37.6214 37.8027 37.6214C37.1117 37.6214 36.5588 37.314 36.1096 36.7333C35.7295 36.221 35.4876 35.4012 35.2803 34.5815C35.1766 34.2399 35.1075 33.8984 35.0038 33.5568C34.9347 33.3177 34.8311 33.0786 34.762 32.8395C34.5892 32.3272 34.4164 31.8148 34.3819 31.4732C34.3128 30.9267 34.3819 30.2778 34.451 29.7313C34.4855 29.3897 34.5201 29.0823 34.5201 28.809C34.5201 28.6041 34.4855 28.4333 34.451 28.2625C34.4164 28.1601 34.3819 28.0576 34.3819 27.9551C34.3128 26.2473 34.8311 24.8127 35.3148 23.4123C35.453 23.0024 35.5913 22.5926 35.7295 22.1827C35.8677 21.7386 35.9714 21.2946 36.0405 20.8847C36.1441 20.3382 36.2478 19.8259 36.4551 19.3818C36.5588 19.1086 36.697 18.8695 36.8698 18.5962C37.1808 18.0839 37.4918 17.5374 37.4918 16.8543V16.6835L37.319 16.6152C37.1808 16.5469 37.0425 16.5127 36.9389 16.5127C36.6279 16.5127 36.4206 16.6835 36.2478 16.8543C36.1441 16.9226 36.0405 17.025 35.9714 17.025L35.8331 17.0592L35.764 17.1617C35.0729 18.3913 34.6583 19.6209 34.2436 21.0555C34.1745 21.2604 34.1054 21.4312 34.0709 21.6362C33.518 23.1049 33.0688 24.5736 32.8615 26.2815C32.1704 26.4181 31.8594 26.7938 31.583 27.1695C31.5139 27.272 31.4102 27.3745 31.3411 27.4769C31.0646 27.7843 30.028 28.8432 29.0951 28.9457C28.9914 28.9457 28.8877 28.9457 28.7841 28.9457C27.6783 28.9457 27.0563 28.3308 26.3653 27.716C26.0197 27.3745 25.6396 27.0329 25.1904 26.7938C24.6721 26.4864 24.1538 26.3498 23.5664 26.3498C23.2554 26.3498 22.9098 26.3839 22.5643 26.4864C22.2533 26.5547 21.3549 26.8963 21.0439 27.1012C20.7675 27.272 20.6292 27.5111 20.5256 27.716C20.4565 27.8527 20.3874 27.9551 20.3183 28.0576C20.3183 27.0671 20.2491 26.0424 20.0764 25.1201C19.9036 24.1296 19.6617 23.2415 19.3507 22.4901C19.4198 22.4901 19.4889 22.4901 19.5926 22.4901C19.7999 22.4901 20.0418 22.4901 20.2491 22.4218C20.6983 22.2851 21.0784 21.9777 21.3203 21.5679C21.5277 21.2263 21.6313 20.7823 21.5622 20.3724C21.5277 19.9625 21.3203 19.6209 21.0439 19.3477C20.7329 19.0403 20.3183 18.8695 19.869 18.8353C19.8345 18.8353 19.7999 18.8353 19.7654 18.8353C18.9361 18.8353 18.245 19.3135 17.6576 19.7234C17.3466 19.9283 17.0701 20.1333 16.7937 20.2358L16.6555 20.2699L16.5864 20.4065C16.1026 21.5679 15.2388 22.1827 14.2367 22.9C14.0294 23.0366 13.822 23.2074 13.6147 23.344C13.4074 23.5148 13.2001 23.6856 13.0273 23.8563C12.7509 24.1638 12.4744 24.437 12.1634 24.4712C12.0598 24.4712 11.9215 24.5053 11.7833 24.5053C11.2996 24.5053 10.7813 24.3687 10.5394 24.2662C9.5373 23.8905 9.08809 22.7292 8.60433 21.5337C8.08602 20.2358 7.5677 18.8695 6.25464 18.4596C5.9091 18.3571 5.56355 18.2888 5.21801 18.2888C4.18138 18.2888 3.31752 18.767 2.93743 19.1769C1.86624 20.2358 1.31337 22.1485 0.795057 23.8563C0.691394 24.1979 0.587731 24.5395 0.484068 24.8469C0.414959 24.9835 0.34585 25.2568 0.311296 25.4959C0.276742 25.6666 0.242188 25.8374 0.242188 25.9399C0.242188 26.1448 0.276742 26.2473 0.311296 26.3156C0.380405 26.4522 0.518622 26.5205 0.622285 26.5205H0.656839C0.760502 26.5205 0.829611 26.5205 0.933274 26.5205C1.31337 26.5205 1.69347 26.4522 2.00446 26.0082C2.14268 25.8033 2.14268 25.53 2.14268 25.2568C2.14268 25.1201 2.14268 24.9494 2.17723 24.8469C2.21178 24.6761 2.28089 24.4712 2.38456 24.2321C2.55733 23.8905 2.66099 23.5831 2.76465 23.2757C2.90287 22.8316 3.17931 21.9436 3.5594 21.1921C3.9395 20.4748 4.3196 19.9967 4.63059 19.9283C4.66514 19.9283 4.73425 19.9283 4.80336 19.9283C4.87247 19.9283 4.97613 19.9283 5.07979 19.9625C5.21801 19.9625 5.32167 19.9967 5.45989 19.9967C5.529 19.9967 5.56355 19.9967 5.63266 19.9967C6.42741 20.509 6.77295 21.4312 7.1185 22.4559C7.32582 23.0707 7.5677 23.6856 7.87869 24.2321C8.56978 25.3934 9.98651 26.0424 11.7142 26.0424C12.2325 26.0424 12.7854 25.974 13.3037 25.8716C13.7184 25.7691 13.9603 25.4959 14.2021 25.1543C14.5822 24.7103 15.1005 24.0954 16.3791 23.4123C16.5864 23.3098 16.7246 23.0707 16.8283 22.9C16.8974 22.7975 16.9665 22.6267 17.0356 22.6267C17.1738 22.6609 17.4848 23.0024 17.6576 23.3782C18.0031 24.0613 18.2104 24.9152 18.3487 25.974C18.4523 26.8621 18.4869 27.8868 18.4178 28.9115C18.3832 29.5263 18.1759 30.2436 18.0031 30.8584C17.934 31.1317 17.8303 31.4049 17.7958 31.644C17.7267 32.0197 17.6576 32.3613 17.5885 32.6346C17.4848 33.1469 17.4157 33.6251 17.2084 34.1375C16.69 35.5379 15.2388 37.4848 14.2712 38.3387C13.822 38.7486 13.3383 38.9194 12.82 39.1243C12.4053 39.2951 11.9907 39.4659 11.5069 39.7391C11.3341 39.8416 11.1614 40.0124 10.9886 40.149C10.7121 40.3881 10.4357 40.6272 10.1938 40.6272C9.98651 40.6272 9.77918 40.4564 9.5373 40.2856C9.29542 40.0807 9.01899 39.9099 8.708 39.9099C8.67344 39.9099 8.60433 39.9099 8.53523 39.9099C8.08602 40.0124 7.80958 40.4222 7.87869 40.9346C7.91325 41.2078 8.01691 41.4811 8.22424 41.686C8.43156 41.9251 8.74255 42.0618 9.05354 42.0618C9.26087 42.1301 9.64096 42.1642 9.95195 42.1642C10.2975 42.1642 10.5739 42.1301 10.7813 42.0618C11.1614 41.891 11.4723 41.6519 11.7833 41.4128C12.0598 41.2078 12.3362 41.0029 12.6472 40.8321C12.8891 40.6955 13.1655 40.593 13.4419 40.4906C14.0639 40.2173 14.7205 39.9099 15.1697 39.5342C16.0681 38.7486 16.8974 37.5873 17.5885 36.5626C18.8324 34.7181 19.3507 32.737 19.9382 30.4827C19.9727 30.2778 20.0418 30.0728 20.1109 29.8679C20.7675 29.7313 21.113 29.2872 21.3894 28.9115C21.5968 28.6724 21.7695 28.4333 22.0114 28.2967C22.1842 28.2284 22.7371 27.9893 23.4281 27.9893C23.6009 27.9893 23.8082 28.0234 23.981 28.0576C24.4302 28.1601 24.8449 28.5699 25.2595 29.014C25.6396 29.4239 26.0197 29.8337 26.5035 30.0728C26.849 30.2436 27.7474 30.6535 28.7841 30.6535C29.1296 30.6535 29.4406 30.6193 29.7516 30.5169C30.4772 30.3119 31.4447 29.6288 32.0322 29.1164C32.2049 28.9457 32.3086 28.7749 32.3777 28.6383C32.4468 28.5358 32.5159 28.3992 32.6196 28.3308C32.6196 28.6383 32.6541 28.9457 32.6541 29.2872C32.6887 30.6876 32.7233 32.1564 33.1379 33.2835C33.3107 33.7617 33.4489 34.2741 33.6217 34.7523C34.1054 36.2893 34.5201 37.758 35.6258 38.5436C36.1787 38.9535 36.9043 39.1585 37.7336 39.1585C38.632 39.1585 39.4959 38.9194 40.1524 38.4753C40.3598 38.3387 40.6362 37.9971 40.9472 37.6214C41.1545 37.3482 41.5346 36.9383 41.6728 36.8358C41.7765 36.87 41.9493 36.9724 42.0875 37.0408C42.2603 37.1432 42.433 37.2457 42.6058 37.314C43.2623 37.5531 44.299 37.8605 45.0937 37.8605C45.1974 37.8605 45.3356 37.8605 45.4392 37.8264C46.1303 37.7239 46.6141 37.4165 47.0287 37.1091C47.3052 36.9041 47.5471 36.7333 47.8926 36.5967C47.9617 36.8017 48.0308 36.9724 48.0999 37.1774C48.3418 37.8605 48.6182 38.5436 48.9983 39.1243C49.4821 39.8074 50.0695 40.149 50.8297 40.2515C50.8988 40.2515 51.0025 40.2515 51.1062 40.2515C51.6936 40.2515 52.4538 40.0807 53.2831 39.705C54.1124 39.3634 54.838 38.7827 55.5291 38.2021C56.0129 37.7922 56.4966 37.4165 56.9458 37.1774C57.0495 37.2457 57.1877 37.2457 57.3259 37.2457C57.5333 37.2457 57.7406 37.1774 57.8788 37.0408L57.9479 36.9724L57.9825 36.87C57.9825 36.5284 58.0861 36.1185 57.7751 35.777ZM18.5905 20.8847C19.0052 21.2263 20.18 21.3971 19.9727 20.4407C19.5235 20.065 18.6942 20.4065 18.5905 20.8847Z" fill="white"/>
<path fill-rule="evenodd" clip-rule="evenodd" d="M110.436 17.5718L110.332 17.6059C109.503 17.845 108.881 18.2891 108.259 18.6989C107.913 18.938 107.602 19.143 107.257 19.3479L107.222 19.3821L107.188 19.4162C107.153 19.4504 107.118 19.4845 107.049 19.5529C106.877 19.7578 106.6 20.031 106.393 20.3385C106.116 20.7825 106.013 21.1241 106.082 21.4315C106.151 21.6364 106.289 21.8755 106.738 22.0121C106.807 22.0463 106.911 22.0463 106.98 22.0463C107.498 22.0463 107.809 21.6022 108.086 21.1924C108.224 21.0216 108.328 20.8508 108.466 20.7483C109.053 20.236 109.641 19.9286 110.09 19.9286C110.505 19.9286 110.781 20.1677 110.988 20.6459C111.265 21.2948 111.334 21.9438 111.161 22.7636C110.988 23.515 110.677 24.2664 110.332 25.052C109.986 25.8376 109.641 26.6574 109.434 27.4772C109.192 28.4335 109.192 29.3216 109.399 30.1755L109.434 30.278L109.503 30.3463C109.848 30.6196 110.125 30.722 110.401 30.722C110.608 30.722 110.885 30.6537 111.127 30.3121C111.265 30.1072 111.369 29.8681 111.472 29.5265C111.645 28.9459 111.68 28.1944 111.749 27.5455C111.783 26.999 111.852 26.4866 111.921 26.2134C112.06 25.6669 112.336 25.1545 112.578 24.608C112.958 23.8224 113.338 23.0027 113.373 22.0804C113.442 20.9191 113.2 19.9286 112.613 19.1088C112.129 18.3915 111.403 17.8792 110.505 17.5718H110.436Z" fill="white"/>
<path fill-rule="evenodd" clip-rule="evenodd" d="M76.1578 23.959C75.9851 23.959 75.8123 24.0273 75.6395 24.0615C75.5013 24.0956 75.3631 24.1639 75.2249 24.1639C75.1903 24.1639 75.1558 24.1639 75.0866 24.1639C74.983 24.1639 74.8793 24.1639 74.7757 24.1298C74.672 24.1298 74.5338 24.0956 74.4301 24.0956C74.2919 24.0956 74.1882 24.0956 74.0846 24.1298C73.8081 24.1981 73.4626 24.3689 73.0479 24.6421C72.6678 24.8812 72.2532 25.1886 71.8731 25.496C71.5275 25.7693 70.4218 26.6915 70.0763 27.3405C68.7632 29.8681 69.8689 33.9327 71.0783 36.0162C71.3548 36.5286 72.115 37.485 72.5296 37.7582C73.0134 38.0656 73.5663 38.2364 74.1537 38.2364C74.8793 38.2364 75.5704 37.9973 76.1233 37.5533C76.7107 37.0751 77.0562 36.4261 77.1254 35.7088C77.1945 34.8549 76.8144 33.6594 76.6761 33.3179C76.4343 32.6689 75.9505 31.4734 75.6395 30.9952C75.4667 30.7561 75.294 30.6195 75.0866 30.517C75.0175 30.4829 74.9484 30.4487 74.9139 30.3804C75.0866 30.3804 75.2249 30.4146 75.3976 30.4146C75.6395 30.4487 75.916 30.4487 76.1578 30.4487C76.4343 30.4487 76.6761 30.4146 76.8835 30.3804C77.229 30.3121 77.6782 30.073 78.1274 29.7997C78.3693 29.629 78.8531 29.2874 78.9913 28.9458C79.1295 28.6043 79.1295 27.7162 79.095 27.3746C79.0604 27.0331 78.9222 26.5207 78.8185 26.0767C78.5421 25.1545 78.3693 24.9495 78.3002 24.8812C77.8856 24.4372 76.7453 24.0273 76.2269 23.9931C76.1578 23.959 76.1578 23.959 76.1578 23.959ZM71.3893 28.9458C71.4239 28.5701 71.493 28.2627 71.6312 27.9553C71.804 27.6137 72.0459 27.3063 72.3568 26.9989C72.9443 26.4524 73.7045 26.0767 74.4301 25.701C74.7411 25.8717 75.1212 25.8717 75.4322 25.8717C75.5704 25.8717 75.7086 25.8717 75.8123 25.8717C75.9505 25.8717 76.0542 25.8717 76.1924 25.8717C76.3997 25.8717 76.607 25.8717 76.8489 25.9401C76.8489 25.9742 76.8835 26.0084 76.8835 26.0767C77.1599 26.8281 77.5055 27.887 77.1945 28.4335C77.0908 28.6384 76.8835 28.7409 76.5725 28.8092C76.4688 28.8434 76.3306 28.8434 76.1578 28.8434C75.8814 28.8434 75.5359 28.8092 75.1903 28.7409C74.9139 28.7067 74.6374 28.6726 74.3265 28.6384C74.2228 28.6384 74.0846 28.6384 73.9809 28.6384C73.3589 28.6384 72.8061 28.7409 72.3223 28.8092C72.0113 28.8775 71.6658 28.9458 71.3893 28.9458ZM71.2511 30.6878C71.493 30.6195 71.7003 30.6195 71.9422 30.6195C72.4605 30.6195 72.9443 30.7903 73.3935 31.0977C73.8081 31.4051 74.1537 31.8491 74.4992 32.3956C75.0521 33.3862 75.3976 34.7524 75.4667 36.1529C75.2249 36.5969 74.9139 36.836 74.5683 36.836C73.7736 36.836 72.6678 35.6747 72.2532 34.6158C71.5621 33.0105 71.2857 31.8491 71.2511 30.6878Z" fill="white"/>
<path fill-rule="evenodd" clip-rule="evenodd" d="M83.5526 24.5054C82.9997 24.5054 82.6887 25.0519 82.5505 25.4959C82.4123 25.9399 82.3432 26.4864 82.3086 26.828C82.3086 27.2379 82.3086 27.6819 82.3432 28.126C82.3777 28.7408 82.4123 29.3898 82.3086 30.0046C82.3086 30.0729 82.2741 30.107 82.2741 30.1754C82.2049 30.6194 82.1013 31.3025 81.9631 31.6782C81.6866 31.6099 81.4448 31.5758 81.2374 31.5758C80.8919 31.5758 80.65 31.6782 80.4772 31.849C80.3045 32.0198 80.2354 32.2931 80.2354 32.6346V32.7371L80.3045 32.8054C80.5463 33.0787 80.961 33.147 81.272 33.2153C81.5139 33.2494 81.7212 33.2836 81.8594 33.3861C82.0322 33.6935 81.9285 34.4449 81.8249 35.0939C81.7557 35.6062 81.6521 36.1186 81.6866 36.5626C81.7212 36.8359 81.7557 37.0408 81.8594 37.2116C81.9976 37.4165 82.1704 37.5532 82.4123 37.6215C82.5159 37.6556 82.585 37.6556 82.6887 37.6556C82.9997 37.6556 83.3798 37.519 83.5526 36.8359C83.6562 36.4601 83.6562 35.982 83.6562 35.5038C83.6562 34.8206 83.6562 33.9326 84.0018 33.7959C84.2437 33.7959 84.4855 33.7959 84.7274 33.7959C85.3148 33.7959 85.8677 33.7618 86.386 33.7618C86.9043 33.7276 87.3535 33.7276 87.8373 33.7276C87.9064 33.7276 88.0101 33.7276 88.0792 33.7276C88.1137 33.8301 88.1828 33.9326 88.2519 34.035C88.4247 34.3083 88.5975 34.6157 88.632 35.0256C88.6666 35.333 88.6666 35.6745 88.7012 36.0161C88.7012 36.426 88.7012 36.8359 88.8048 37.1433C88.943 37.7239 89.2886 37.8264 89.565 37.8264C89.7723 37.8264 90.0488 37.7581 90.3252 37.5873L90.498 37.4848V37.2799C90.4634 36.9383 90.498 36.5626 90.5325 36.1527C90.5671 35.6404 90.6362 35.0597 90.5671 34.5132C90.5325 34.24 90.4289 34.0009 90.3598 33.7959C90.2561 33.5227 90.2215 33.3861 90.2561 33.1811C90.2907 33.0445 90.498 32.942 90.7053 32.8396C90.8781 32.7371 91.0508 32.6688 91.1891 32.5322C91.3964 32.3272 91.4655 32.0881 91.3964 31.849C91.2927 31.3367 90.7744 31.2684 90.498 31.2342C90.3943 31.2342 90.2215 31.2 90.187 31.1659C90.0488 30.5169 90.0833 29.7655 90.0833 29.014C90.1179 28.0918 90.1524 27.2037 89.876 26.4864L89.7723 26.2132L89.4959 26.3157C88.8739 26.5206 88.4938 27.0671 88.3902 27.9552C88.3211 28.6383 88.3902 29.4581 88.4938 30.2095C88.5284 30.6535 88.5975 31.0976 88.5975 31.405C88.2865 31.6782 87.6645 31.7124 87.0425 31.7124C86.8698 31.7124 86.7316 31.7124 86.5588 31.7124C86.386 31.7124 86.2132 31.7124 86.0405 31.7124C85.8677 31.7124 85.7295 31.7124 85.5913 31.7124C85.3148 31.7124 85.0384 31.8149 84.7965 31.8832C84.5892 31.9515 84.4164 31.9856 84.2782 31.9856C84.2436 31.9856 84.1745 31.9856 84.1745 31.9515C84.451 30.9951 84.5546 29.7996 84.6583 28.6383C84.6583 28.4675 84.6929 28.2626 84.7274 28.0576C84.762 27.6478 84.6929 27.3404 84.5892 27.0671C84.5546 26.9305 84.5201 26.7939 84.4855 26.6572C84.4855 26.4864 84.4855 26.3157 84.4855 26.1107C84.5201 25.5984 84.5201 25.086 84.14 24.7786C84.0018 24.6078 83.7944 24.5054 83.5526 24.5054Z" fill="white"/>
<path fill-rule="evenodd" clip-rule="evenodd" d="M98.7216 27.3403C98.2378 27.3403 97.7195 27.5452 97.2012 27.921C96.5101 28.3992 94.6442 30.2778 94.3677 31.1317C94.2295 31.5416 94.2295 32.1564 94.2295 32.737C94.2295 33.0444 94.2295 33.3519 94.1949 33.6251V33.7617C94.0567 35.1963 93.9531 36.4259 94.4714 37.3482C94.6096 37.5873 94.8515 37.8263 95.0934 38.0996C95.3007 38.3045 95.508 38.5095 95.6462 38.7144C95.7499 38.851 95.819 39.0218 95.8881 39.1585C95.9572 39.3634 96.0609 39.5342 96.1991 39.6708C96.5101 40.0124 96.9938 40.2515 97.5813 40.4222C98.0996 40.5589 98.7216 40.6272 99.4127 40.6272C101.14 40.6272 103.075 40.149 104.112 39.5C104.354 39.3634 104.734 39.056 105.114 38.6803C105.563 38.2362 105.84 37.8264 105.943 37.4848C106.013 37.2798 106.013 36.9724 106.047 36.6309C106.047 36.3576 106.082 36.0844 106.116 35.8111C106.151 35.572 106.185 35.3671 106.22 35.1621C106.289 34.7864 106.358 34.479 106.324 34.2058C106.254 33.7617 105.425 32.5321 105.425 32.5321C105.149 32.0881 104.699 31.7123 104.25 31.3025C104.077 31.1658 103.939 31.0292 103.801 30.8926C102.523 29.6971 102.004 29.2531 100.311 28.6383C100.311 28.6383 100.277 28.6383 100.277 28.6041C100.035 28.5016 99.5854 28.3308 99.1708 28.3308C99.2744 28.1601 99.3435 27.921 99.3781 27.6477V27.3745L99.1362 27.3062C98.9634 27.3745 98.8252 27.3403 98.7216 27.3403ZM97.2357 38.6803C97.063 38.2362 96.752 37.8605 96.4755 37.4848C96.0954 36.9724 95.6808 36.4259 95.5771 35.777C95.5426 35.572 95.5771 35.3329 95.6117 35.0597C95.6462 34.8889 95.6462 34.7181 95.6462 34.5473C95.6462 34.1716 95.6462 33.7959 95.6117 33.3518C95.5771 32.6346 95.5426 31.8831 95.6808 31.3366C95.7844 30.9267 96.6483 30.2095 97.2012 29.6971C97.3394 29.5605 97.4776 29.458 97.6158 29.3214C97.7886 29.1848 97.9959 29.0823 98.2033 28.9798C98.2378 28.9457 98.2724 28.9457 98.3069 28.9115C98.3069 29.014 98.3069 29.1506 98.3415 29.2872C98.4106 29.6288 98.9289 29.8679 100.138 30.3119C100.518 30.4486 100.933 30.6193 101.037 30.6876C101.313 30.8926 102.315 31.5757 103.214 32.5321C104.043 33.386 104.492 34.1375 104.561 34.7523C104.596 34.9572 104.527 35.2305 104.458 35.5037C104.423 35.7086 104.354 35.9477 104.354 36.1527C104.216 37.2798 104.147 37.4848 103.559 37.9288C103.145 38.2362 102.488 38.5095 101.762 38.7144C101.002 38.9194 100.173 39.056 99.4127 39.056C98.5833 39.1585 97.8231 38.9877 97.2357 38.6803Z" fill="white"/>
<path fill-rule="evenodd" clip-rule="evenodd" d="M59.7445 29.4243C59.5026 29.4243 59.2262 29.5609 58.9843 29.8684C58.8116 30.0733 58.6733 30.3124 58.6042 30.5173C57.844 33.1132 57.844 36.9729 59.088 38.7149L59.1225 38.749L59.1917 38.7832C59.2953 38.8515 59.4335 38.9198 59.5372 39.0223C60.0555 39.3639 60.5738 39.7054 61.334 39.7737C61.3686 39.7737 61.4377 39.7737 61.5068 39.7737C62.8198 39.7737 65.1695 38.9198 65.8261 38.1684C65.9988 37.9634 66.1025 37.7585 66.2062 37.5536C66.2407 37.4852 66.2753 37.4169 66.3098 37.3486C66.3098 37.3828 66.3098 37.3828 66.3098 37.4169C66.3789 37.656 66.448 37.9976 66.9664 38.1342C67.07 38.1684 67.1391 38.1684 67.2428 38.1684C67.5192 38.1684 67.692 38.0318 67.7611 37.9293C68.1067 37.5194 67.8993 36.7338 67.6574 35.8116C67.5538 35.3675 67.4501 34.8894 67.4156 34.5478C67.381 34.2062 67.4501 33.8647 67.5192 33.5231C67.6229 33.0449 67.692 32.5667 67.4501 32.191L67.4156 32.1227L67.3465 32.0885C67.2082 32.0202 67.07 31.9861 66.8973 31.9861C66.6208 31.9861 66.4135 32.0885 66.2407 32.1568L66.1371 32.191L66.0679 32.2935C65.7224 32.9424 65.6533 33.6597 65.5842 34.3429C65.5496 34.7869 65.5151 35.2309 65.3769 35.6066C65.0659 36.5972 64.8586 36.9729 64.7203 37.1095C64.5821 37.2462 64.1329 37.4852 63.3727 37.7243C62.6816 37.9293 61.9905 38.0659 61.5413 38.0659C61.4722 38.0659 61.4377 38.0659 61.4031 38.0659C60.9539 38.0318 60.5738 37.861 60.3319 37.5536C60.0901 37.2803 59.9173 36.9046 59.8136 36.3922C59.6754 35.7091 59.5372 34.0696 59.6754 32.9424C59.71 32.635 59.8827 32.191 60.0555 31.747C60.401 30.7564 60.6084 30.1416 60.3665 29.7659C60.1246 29.4926 59.9173 29.4243 59.7445 29.4243Z" fill="white"/>
<path fill-rule="evenodd" clip-rule="evenodd" d="M110.194 35.2305C110.056 35.2305 109.918 35.2305 109.779 35.2646C109.503 35.3329 108.985 35.4354 108.777 35.9478C108.432 36.6992 108.777 37.4165 108.985 37.8947C109.054 37.9971 109.088 38.1338 109.123 38.2021C109.192 38.3729 109.226 38.5436 109.261 38.7144C109.33 38.9877 109.399 39.2268 109.503 39.4317C109.676 39.6708 109.918 39.8074 110.228 39.8074C110.47 39.8074 110.747 39.6708 111.023 39.3976C111.3 39.1243 111.611 38.6803 111.818 38.2021C111.956 37.9288 112.198 37.3823 112.164 37.0066C112.164 36.5284 111.922 36.0844 111.542 35.7428C111.231 35.4013 110.712 35.2305 110.194 35.2305Z" fill="white"/>
<path fill-rule="evenodd" clip-rule="evenodd" d="M20.6636 51.3525H21.3547V54.2558L23.0133 51.3525H23.808V55.2464H23.1169V52.3089L21.4238 55.2464H20.6636V51.3525Z" fill="white"/>
<path fill-rule="evenodd" clip-rule="evenodd" d="M30.7186 52.5821C30.684 52.4797 30.6495 52.3772 30.5804 52.2747C30.5458 52.1723 30.4767 52.1039 30.3731 52.0356C30.3039 51.9673 30.2003 51.899 30.0966 51.8648C29.993 51.8307 29.8547 51.7965 29.7165 51.7965C29.5092 51.7965 29.3364 51.8307 29.1637 51.9332C29.0254 52.0015 28.8872 52.1381 28.7836 52.2747C28.6799 52.4113 28.6108 52.5821 28.5762 52.7529C28.5417 52.9237 28.5071 53.1286 28.5071 53.2994C28.5071 53.4702 28.5417 53.6751 28.5762 53.8459C28.6108 54.0167 28.6799 54.1875 28.7836 54.3241C28.8872 54.4607 28.9909 54.5632 29.1637 54.6657C29.3019 54.734 29.5092 54.8023 29.7165 54.8023C29.8547 54.8023 29.993 54.7681 30.1312 54.734C30.2348 54.6657 30.3385 54.5974 30.4422 54.5291C30.5113 54.4266 30.5804 54.3241 30.6495 54.2216C30.684 54.085 30.7186 53.9484 30.7532 53.8118H31.4097C31.4097 54.0509 31.3406 54.2558 31.2715 54.4607C31.1678 54.6657 31.0641 54.8023 30.9259 54.9731C30.7877 55.1097 30.6149 55.2122 30.4076 55.2805C30.2003 55.3488 29.993 55.383 29.7511 55.383C29.4401 55.383 29.1982 55.3147 28.9563 55.2122C28.7144 55.1097 28.5417 54.9731 28.3689 54.7681C28.1961 54.5974 28.0925 54.3583 27.9888 54.1192C27.9197 53.8801 27.8506 53.6068 27.8506 53.3336C27.8506 53.0603 27.8851 52.7871 27.9888 52.548C28.0925 52.3089 28.1961 52.0698 28.3689 51.899C28.5417 51.7282 28.7144 51.5574 28.9563 51.455C29.1982 51.3525 29.4401 51.2842 29.7511 51.2842C29.9584 51.2842 30.1657 51.3183 30.3731 51.3867C30.5804 51.455 30.7532 51.5233 30.8914 51.6599C31.0296 51.7624 31.1678 51.899 31.2369 52.0698C31.3406 52.2406 31.3751 52.4113 31.4097 52.6163H30.7186V52.5821Z" fill="white"/>
<path fill-rule="evenodd" clip-rule="evenodd" d="M35.418 51.3525H36.1091V53.1287L37.8713 51.3525H38.7352L37.1457 52.9237L38.8388 55.2464H37.975L36.6965 53.4019L36.1091 53.9484V55.2464H35.418V51.3525Z" fill="white"/>
<path fill-rule="evenodd" clip-rule="evenodd" d="M42.8128 54.6657C42.951 54.6657 43.0892 54.6316 43.1929 54.5291C43.3311 54.4266 43.4002 54.3242 43.4693 54.1875L42.1562 51.3525H42.9856L43.884 53.5386L44.7824 51.3525H45.5426L44.2295 54.2217C44.0567 54.5974 43.8494 54.8707 43.6075 55.0414C43.3657 55.2122 43.1238 55.2805 42.8128 55.2805C42.7437 55.2805 42.6746 55.2805 42.64 55.2805C42.6055 55.2805 42.5363 55.2805 42.5018 55.2464V54.6657C42.5363 54.6657 42.5709 54.6657 42.6055 54.6657C42.7091 54.6657 42.7437 54.6657 42.8128 54.6657Z" fill="white"/>
<path fill-rule="evenodd" clip-rule="evenodd" d="M52.0389 52.5821C52.0043 52.4797 51.9698 52.3772 51.9007 52.2747C51.8661 52.1723 51.797 52.1039 51.6934 52.0356C51.6243 51.9673 51.5206 51.899 51.4169 51.8648C51.3133 51.8307 51.175 51.7965 51.0368 51.7965C50.8295 51.7965 50.6567 51.8307 50.484 51.9332C50.3457 52.0015 50.2075 52.1381 50.1039 52.2747C50.0002 52.4113 49.9311 52.5821 49.8965 52.7529C49.862 52.9237 49.8274 53.1286 49.8274 53.2994C49.8274 53.4702 49.862 53.6751 49.8965 53.8459C49.9311 54.0167 50.0002 54.1875 50.1039 54.3241C50.2075 54.4607 50.3112 54.5632 50.484 54.6657C50.6222 54.734 50.8295 54.8023 51.0368 54.8023C51.175 54.8023 51.3133 54.7681 51.4515 54.734C51.5551 54.6657 51.6588 54.5974 51.7625 54.5291C51.8316 54.4266 51.9007 54.3241 51.9698 54.2216C52.0043 54.085 52.0389 53.9484 52.0735 53.8118H52.73C52.73 54.0509 52.6609 54.2558 52.5918 54.4607C52.4881 54.6657 52.3844 54.8023 52.2462 54.9731C52.108 55.1097 51.9352 55.2122 51.7279 55.2805C51.5206 55.3488 51.3133 55.383 51.0714 55.383C50.7604 55.383 50.5185 55.3147 50.2766 55.2122C50.0348 55.1097 49.862 54.9731 49.6892 54.7681C49.5164 54.5974 49.4128 54.3583 49.3091 54.1192C49.24 53.8801 49.1709 53.6068 49.1709 53.3336C49.1709 53.0603 49.2055 52.7871 49.3091 52.548C49.4128 52.3089 49.5164 52.0698 49.6892 51.899C49.862 51.7282 50.0348 51.5574 50.2766 51.455C50.5185 51.3525 50.7604 51.2842 51.0714 51.2842C51.2787 51.2842 51.486 51.3183 51.6934 51.3867C51.9007 51.455 52.0735 51.5233 52.2117 51.6599C52.3499 51.7624 52.4881 51.899 52.5572 52.0698C52.6609 52.2406 52.6954 52.4113 52.73 52.6163H52.0389V52.5821Z" fill="white"/>
<path fill-rule="evenodd" clip-rule="evenodd" d="M59.4334 52.5821C59.3989 52.4797 59.3643 52.3772 59.2952 52.2747C59.2607 52.1723 59.1915 52.1039 59.0879 52.0356C59.0188 51.9673 58.9151 51.899 58.8115 51.8648C58.7078 51.8307 58.5696 51.7965 58.4314 51.7965C58.224 51.7965 58.0513 51.8307 57.8785 51.9332C57.7403 52.0015 57.6021 52.1381 57.4984 52.2747C57.3947 52.4113 57.3256 52.5821 57.2911 52.7529C57.2565 52.9237 57.222 53.1286 57.222 53.2994C57.222 53.4702 57.2565 53.6751 57.2911 53.8459C57.3256 54.0167 57.3947 54.1875 57.4984 54.3241C57.6021 54.4607 57.7057 54.5632 57.8785 54.6657C58.0167 54.734 58.224 54.8023 58.4314 54.8023C58.5696 54.8023 58.7078 54.7681 58.846 54.734C58.9497 54.6657 59.0533 54.5974 59.157 54.5291C59.2261 54.4266 59.2952 54.3241 59.3643 54.2216C59.3989 54.085 59.4334 53.9484 59.468 53.8118H60.1245C60.1245 54.0509 60.0554 54.2558 59.9863 54.4607C59.8826 54.6657 59.779 54.8023 59.6408 54.9731C59.5025 55.1097 59.3298 55.2122 59.1224 55.2805C58.9151 55.3488 58.7078 55.383 58.4659 55.383C58.1549 55.383 57.913 55.3147 57.6712 55.2122C57.4293 55.1097 57.2565 54.9731 57.0837 54.7681C56.911 54.5974 56.8073 54.3583 56.7036 54.1192C56.6345 53.8801 56.5654 53.6068 56.5654 53.3336C56.5654 53.0603 56.6 52.7871 56.7036 52.548C56.8073 52.3089 56.911 52.0698 57.0837 51.899C57.2565 51.7282 57.4293 51.5574 57.6712 51.455C57.913 51.3525 58.1549 51.2842 58.4659 51.2842C58.6732 51.2842 58.8806 51.3183 59.0879 51.3867C59.2952 51.455 59.468 51.5233 59.6062 51.6599C59.7444 51.7624 59.8826 51.899 59.9517 52.0698C60.0554 52.2406 60.09 52.4113 60.1245 52.6163H59.4334V52.5821Z" fill="white"/>
<path fill-rule="evenodd" clip-rule="evenodd" d="M63.7871 51.3525H66.9661V51.9332H65.7222V55.2464H65.0311V51.9332H63.7871V51.3525Z" fill="white"/>
<path fill-rule="evenodd" clip-rule="evenodd" d="M71.4928 54.6999H72.7023C72.9096 54.6999 73.0824 54.6316 73.186 54.5291C73.2897 54.4266 73.3588 54.2558 73.3588 54.0851C73.3588 53.8801 73.2897 53.7435 73.186 53.641C73.0824 53.5386 72.9096 53.4702 72.7023 53.4702H71.4928V54.6999ZM71.4928 52.992H72.6331C72.8059 52.992 72.9441 52.9579 73.0478 52.8554C73.1515 52.753 73.2206 52.6163 73.2206 52.4455C73.2206 52.2406 73.186 52.104 73.0824 52.0357C72.9787 51.9674 72.8405 51.899 72.6677 51.899H71.5274V52.992H71.4928ZM70.8018 51.3525H72.7023C73.0478 51.3525 73.3242 51.4209 73.5661 51.5916C73.7734 51.7624 73.8771 52.0015 73.8771 52.3089C73.8771 52.5139 73.8426 52.6846 73.7389 52.8213C73.6352 52.9579 73.497 53.0604 73.3242 53.1628C73.5661 53.2311 73.7389 53.3336 73.8771 53.5044C74.0153 53.6752 74.0499 53.9143 74.0499 54.1534C74.0499 54.29 74.0153 54.4608 73.9808 54.5632C73.9117 54.6999 73.8426 54.8023 73.7043 54.9048C73.6007 55.0073 73.4279 55.0756 73.2551 55.1439C73.0824 55.2122 72.8405 55.2122 72.5986 55.2122H70.8018V51.3525Z" fill="white"/>
<path fill-rule="evenodd" clip-rule="evenodd" d="M79.7862 51.8307C79.5789 51.8307 79.4061 51.8648 79.2334 51.9673C79.0951 52.0356 78.9569 52.1722 78.8533 52.3088C78.7496 52.4455 78.6805 52.6163 78.6459 52.787C78.6114 52.9578 78.5768 53.1628 78.5768 53.3335C78.5768 53.5043 78.6114 53.7093 78.6459 53.8801C78.6805 54.0508 78.7496 54.2216 78.8533 54.3582C78.9569 54.4949 79.0606 54.5973 79.2334 54.6998C79.3716 54.7681 79.5789 54.8364 79.7862 54.8364C79.9935 54.8364 80.1663 54.8023 80.3391 54.6998C80.4773 54.6315 80.6155 54.4949 80.7192 54.3582C80.8229 54.2216 80.892 54.0508 80.9265 53.8801C80.9611 53.7093 80.9956 53.5385 80.9956 53.3335C80.9956 53.1628 80.9611 52.9578 80.9265 52.787C80.892 52.6163 80.8229 52.4455 80.7192 52.3088C80.6155 52.1722 80.5119 52.0698 80.3391 51.9673C80.1663 51.8648 79.9935 51.8307 79.7862 51.8307ZM79.7862 51.25C80.0627 51.25 80.3391 51.3183 80.581 51.4208C80.8229 51.5233 80.9956 51.6599 81.1684 51.8648C81.3412 52.0356 81.4448 52.2747 81.5485 52.5138C81.6176 52.7529 81.6867 53.0261 81.6867 53.2994C81.6867 53.5726 81.6522 53.8459 81.5485 54.085C81.4448 54.3241 81.3412 54.5632 81.1684 54.734C80.9956 54.9047 80.8229 55.0755 80.581 55.178C80.3391 55.2805 80.0972 55.3488 79.7862 55.3488C79.4752 55.3488 79.2334 55.2805 78.9915 55.178C78.7496 55.0755 78.5768 54.9389 78.4041 54.734C78.2313 54.5632 78.1276 54.3241 78.024 54.085C77.9549 53.8459 77.8857 53.5726 77.8857 53.2994C77.8857 53.0261 77.9203 52.7529 78.024 52.5138C78.1276 52.2747 78.2313 52.0356 78.4041 51.8648C78.5768 51.694 78.7496 51.5233 78.9915 51.4208C79.2334 51.3183 79.4752 51.25 79.7862 51.25Z" fill="white"/>
<path fill-rule="evenodd" clip-rule="evenodd" d="M92.2945 51.8307C92.0872 51.8307 91.9144 51.8648 91.7417 51.9673C91.6034 52.0356 91.4652 52.1722 91.3616 52.3088C91.2579 52.4455 91.1888 52.6163 91.1542 52.787C91.1197 52.9578 91.0851 53.1628 91.0851 53.3335C91.0851 53.5043 91.1197 53.7093 91.1542 53.8801C91.1888 54.0508 91.2579 54.2216 91.3616 54.3582C91.4652 54.4949 91.5689 54.5973 91.7417 54.6998C91.8799 54.7681 92.0872 54.8364 92.2945 54.8364C92.5019 54.8364 92.6746 54.8023 92.8474 54.6998C92.9856 54.6315 93.1238 54.4949 93.2275 54.3582C93.3312 54.2216 93.4003 54.0508 93.4348 53.8801C93.4694 53.7093 93.5039 53.5385 93.5039 53.3335C93.5039 53.1628 93.4694 52.9578 93.4348 52.787C93.4003 52.6163 93.3312 52.4455 93.2275 52.3088C93.1238 52.1722 93.0202 52.0698 92.8474 51.9673C92.7092 51.8648 92.5019 51.8307 92.2945 51.8307ZM92.2945 51.25C92.571 51.25 92.8474 51.3183 93.0893 51.4208C93.3312 51.5233 93.5039 51.6599 93.6767 51.8648C93.8495 52.0356 93.9531 52.2747 94.0568 52.5138C94.1259 52.7529 94.195 53.0261 94.195 53.2994C94.195 53.5726 94.1605 53.8459 94.0568 54.085C93.9531 54.3241 93.8495 54.5632 93.6767 54.734C93.5039 54.9047 93.3312 55.0755 93.0893 55.178C92.8474 55.2805 92.6055 55.3488 92.2945 55.3488C91.9835 55.3488 91.7417 55.2805 91.4998 55.178C91.2579 55.0755 91.0851 54.9389 90.9124 54.734C90.7396 54.5632 90.6359 54.3241 90.5323 54.085C90.4631 53.8459 90.394 53.5726 90.394 53.2994C90.394 53.0261 90.4286 52.7529 90.5323 52.5138C90.6359 52.2747 90.7396 52.0356 90.9124 51.8648C91.0851 51.694 91.2579 51.5233 91.4998 51.4208C91.7417 51.3183 92.0181 51.25 92.2945 51.25Z" fill="white"/>
<path fill-rule="evenodd" clip-rule="evenodd" d="M100.899 52.5821C100.864 52.4797 100.83 52.3772 100.761 52.2747C100.726 52.1723 100.657 52.1039 100.553 52.0356C100.484 51.9673 100.38 51.899 100.277 51.8648C100.173 51.8307 100.035 51.7965 99.8967 51.7965C99.6894 51.7965 99.5166 51.8307 99.3438 51.9332C99.2056 52.0015 99.0674 52.1381 98.9637 52.2747C98.8601 52.4113 98.7909 52.5821 98.7564 52.7529C98.7218 52.9237 98.6873 53.1286 98.6873 53.2994C98.6873 53.4702 98.7218 53.6751 98.7564 53.8459C98.7909 54.0167 98.8601 54.1875 98.9637 54.3241C99.0674 54.4607 99.1711 54.5632 99.3438 54.6657C99.482 54.734 99.6894 54.8023 99.8967 54.8023C100.035 54.8023 100.173 54.7681 100.311 54.734C100.415 54.6657 100.519 54.5974 100.622 54.5291C100.691 54.4266 100.761 54.3241 100.83 54.2216C100.864 54.085 100.899 53.9484 100.933 53.8118H101.59C101.59 54.0509 101.521 54.2558 101.452 54.4607C101.348 54.6657 101.244 54.8023 101.106 54.9731C100.968 55.1097 100.795 55.2122 100.588 55.2805C100.38 55.3488 100.173 55.383 99.9313 55.383C99.6203 55.383 99.3784 55.3147 99.1365 55.2122C98.8946 55.1097 98.7218 54.9731 98.5491 54.7681C98.3763 54.5974 98.2726 54.3583 98.169 54.1192C98.0999 53.8801 98.0308 53.6068 98.0308 53.3336C98.0308 53.0603 98.0653 52.7871 98.169 52.548C98.2726 52.3089 98.3763 52.0698 98.5491 51.899C98.7218 51.7282 98.8946 51.5574 99.1365 51.455C99.3784 51.3525 99.6203 51.2842 99.9313 51.2842C100.139 51.2842 100.346 51.3183 100.553 51.3867C100.761 51.455 100.933 51.5233 101.072 51.6599C101.21 51.7624 101.348 51.899 101.417 52.0698C101.521 52.2406 101.555 52.4113 101.59 52.6163H100.899V52.5821Z" fill="white"/>
<path fill-rule="evenodd" clip-rule="evenodd" d="M107.291 51.8307C107.084 51.8307 106.911 51.8648 106.738 51.9673C106.6 52.0356 106.462 52.1722 106.358 52.3088C106.254 52.4455 106.185 52.6163 106.151 52.787C106.116 52.9578 106.082 53.1628 106.082 53.3335C106.082 53.5043 106.116 53.7093 106.151 53.8801C106.185 54.0508 106.254 54.2216 106.358 54.3582C106.462 54.4949 106.565 54.5973 106.738 54.6998C106.876 54.7681 107.084 54.8364 107.291 54.8364C107.498 54.8364 107.671 54.8023 107.844 54.6998C107.982 54.6315 108.12 54.4949 108.224 54.3582C108.328 54.2216 108.397 54.0508 108.431 53.8801C108.466 53.7093 108.501 53.5385 108.501 53.3335C108.501 53.1628 108.466 52.9578 108.431 52.787C108.397 52.6163 108.328 52.4455 108.224 52.3088C108.12 52.1722 108.017 52.0698 107.844 51.9673C107.671 51.8648 107.498 51.8307 107.291 51.8307ZM107.291 51.25C107.568 51.25 107.844 51.3183 108.086 51.4208C108.328 51.5233 108.501 51.6599 108.673 51.8648C108.846 52.0356 108.95 52.2747 109.053 52.5138C109.122 52.7529 109.192 53.0261 109.192 53.2994C109.192 53.5726 109.157 53.8459 109.053 54.085C108.95 54.3241 108.846 54.5632 108.673 54.734C108.501 54.9047 108.328 55.0755 108.086 55.178C107.844 55.2805 107.602 55.3488 107.291 55.3488C106.98 55.3488 106.738 55.2805 106.496 55.178C106.254 55.0755 106.082 54.9389 105.909 54.734C105.736 54.5632 105.633 54.3241 105.529 54.085C105.46 53.8459 105.391 53.5726 105.391 53.2994C105.391 53.0261 105.425 52.7529 105.529 52.5138C105.633 52.2747 105.736 52.0356 105.909 51.8648C106.082 51.694 106.254 51.5233 106.496 51.4208C106.738 51.3183 106.98 51.25 107.291 51.25Z" fill="white"/>
<path fill-rule="evenodd" clip-rule="evenodd" d="M113.891 54.6999H114.928C115.032 54.6999 115.101 54.6999 115.17 54.6657C115.239 54.6316 115.308 54.5974 115.377 54.5632C115.446 54.5291 115.481 54.4608 115.515 54.3583C115.55 54.29 115.584 54.1534 115.584 54.0509C115.584 53.9143 115.55 53.8118 115.515 53.7435C115.481 53.6752 115.412 53.6069 115.343 53.5386C115.273 53.5044 115.204 53.4702 115.135 53.4361C115.066 53.4019 114.962 53.4019 114.893 53.4019H113.891V54.6999ZM113.2 51.3525H115.93V51.9332H113.891V52.8213H114.928C115.204 52.8213 115.446 52.8554 115.619 52.9237C115.792 52.992 115.93 53.0945 116.034 53.2311C116.137 53.3678 116.206 53.4702 116.241 53.6069C116.276 53.7435 116.31 53.8801 116.31 53.9826C116.31 54.1192 116.276 54.2217 116.241 54.3925C116.206 54.5291 116.137 54.6657 116.034 54.7682C115.93 54.8707 115.792 54.9731 115.619 55.0756C115.446 55.1439 115.204 55.1781 114.928 55.1781H113.2V51.3525Z" fill="white"/>
<path fill-rule="evenodd" clip-rule="evenodd" d="M123.946 51.3525H124.638V55.2464H123.946V51.3525ZM120.975 54.6999H122.011C122.115 54.6999 122.184 54.6999 122.253 54.6657C122.322 54.6316 122.392 54.5974 122.461 54.5632C122.53 54.5291 122.564 54.4608 122.599 54.3583C122.633 54.29 122.668 54.1534 122.668 54.0509C122.668 53.9143 122.633 53.8118 122.599 53.7435C122.564 53.6752 122.495 53.6069 122.426 53.5386C122.357 53.5044 122.288 53.4702 122.219 53.4361C122.15 53.4019 122.046 53.4019 121.977 53.4019H120.975V54.6999ZM120.284 51.3525H120.975V52.8554H122.011C122.288 52.8554 122.53 52.8896 122.703 52.9579C122.875 53.0262 123.013 53.1287 123.117 53.2653C123.221 53.4019 123.29 53.5044 123.324 53.641C123.359 53.7777 123.394 53.9143 123.394 54.0167C123.394 54.1534 123.359 54.2558 123.324 54.4266C123.29 54.5632 123.221 54.6999 123.117 54.8023C123.013 54.9048 122.875 55.0073 122.703 55.1097C122.53 55.1781 122.288 55.2122 122.011 55.2122H120.284V51.3525Z" fill="white"/>
<path fill-rule="evenodd" clip-rule="evenodd" d="M128.542 51.3525H129.372L130.27 52.7188L131.203 51.3525H131.963L130.685 53.2311L132.067 55.2464H131.238L130.235 53.7435L129.233 55.2464H128.473L129.855 53.2311L128.542 51.3525Z" fill="white"/>
<path fill-rule="evenodd" clip-rule="evenodd" d="M140.602 54.6657C140.705 54.6657 140.775 54.6315 140.844 54.5974C140.913 54.5632 140.982 54.4949 141.016 54.4266C141.051 54.3583 141.085 54.2558 141.12 54.1533C141.155 54.0509 141.155 53.9484 141.189 53.8118C141.189 53.6751 141.224 53.5727 141.224 53.4702C141.224 53.3677 141.258 53.2653 141.258 53.1628C141.258 53.0603 141.258 52.9578 141.293 52.8554C141.293 52.7529 141.293 52.6163 141.293 52.4797C141.293 52.343 141.293 52.1722 141.293 51.9673C141.293 51.7965 141.293 51.5574 141.293 51.2842H144.023V55.178H143.332V51.8648H141.949C141.949 52.1039 141.949 52.3089 141.949 52.5138C141.949 52.6846 141.949 52.8554 141.949 53.0262C141.949 53.1969 141.949 53.3336 141.915 53.4702C141.915 53.6068 141.88 53.7776 141.846 53.9484C141.811 54.0509 141.811 54.1875 141.742 54.3241C141.707 54.4607 141.638 54.5974 141.535 54.734C141.431 54.8706 141.327 54.9731 141.189 55.0414C141.051 55.1439 140.878 55.178 140.671 55.178C140.602 55.178 140.533 55.178 140.498 55.178C140.464 55.178 140.394 55.178 140.36 55.1439V54.5632C140.394 54.5632 140.429 54.5632 140.464 54.5632C140.533 54.6657 140.567 54.6657 140.602 54.6657Z" fill="white"/>
<path fill-rule="evenodd" clip-rule="evenodd" d="M151.486 51.8307C151.279 51.8307 151.106 51.8648 150.934 51.9673C150.795 52.0356 150.657 52.1722 150.553 52.3088C150.45 52.4455 150.381 52.6163 150.346 52.787C150.312 52.9578 150.277 53.1628 150.277 53.3335C150.277 53.5043 150.312 53.7093 150.346 53.8801C150.381 54.0508 150.45 54.2216 150.553 54.3582C150.657 54.4949 150.761 54.5973 150.934 54.6998C151.072 54.7681 151.279 54.8364 151.486 54.8364C151.694 54.8364 151.866 54.8023 152.039 54.6998C152.177 54.6315 152.316 54.4949 152.419 54.3582C152.523 54.2216 152.592 54.0508 152.627 53.8801C152.661 53.7093 152.696 53.5385 152.696 53.3335C152.696 53.1628 152.661 52.9578 152.627 52.787C152.592 52.6163 152.523 52.4455 152.419 52.3088C152.316 52.1722 152.212 52.0698 152.039 51.9673C151.866 51.8648 151.694 51.8307 151.486 51.8307ZM151.486 51.25C151.797 51.25 152.039 51.3183 152.281 51.4208C152.523 51.5233 152.696 51.6599 152.869 51.8648C153.041 52.0356 153.145 52.2747 153.249 52.5138C153.352 52.7529 153.387 53.0261 153.387 53.2994C153.387 53.5726 153.352 53.8459 153.249 54.085C153.145 54.3241 153.041 54.5632 152.869 54.734C152.696 54.9047 152.523 55.0755 152.281 55.178C152.039 55.2805 151.797 55.3488 151.486 55.3488C151.21 55.3488 150.968 55.3146 150.726 55.2122C150.519 55.1097 150.312 54.9731 150.139 54.8364C149.966 54.6657 149.862 54.4949 149.759 54.2558C149.655 54.0167 149.586 53.8117 149.586 53.5385H148.929V55.2805H148.238V51.3866H148.929V52.992H149.586C149.62 52.7529 149.69 52.5479 149.793 52.343C149.897 52.1381 150.035 51.9673 150.173 51.7965C150.346 51.6599 150.519 51.5233 150.726 51.4208C150.968 51.3183 151.21 51.25 151.486 51.25Z" fill="white"/>
<path fill-rule="evenodd" clip-rule="evenodd" d="M158.363 54.6657H160.056V51.9673H158.674C158.674 52.2064 158.674 52.4114 158.674 52.6163C158.674 52.7871 158.674 52.9579 158.674 53.1287C158.674 53.2994 158.674 53.4361 158.639 53.5727C158.639 53.7093 158.605 53.8801 158.57 54.0509C158.536 54.1533 158.536 54.29 158.466 54.4266C158.432 54.4949 158.397 54.5632 158.363 54.6657ZM160.678 55.2464H157.706V56.2027H157.015V54.6657H157.464C157.499 54.6657 157.533 54.6315 157.533 54.6315C157.603 54.5974 157.672 54.5291 157.706 54.4608C157.741 54.3924 157.775 54.29 157.81 54.1875C157.844 54.085 157.879 53.9826 157.879 53.8459C157.879 53.7093 157.914 53.6068 157.914 53.5044C157.914 53.4019 157.948 53.2994 157.948 53.197C157.948 53.0945 157.948 52.992 157.983 52.8896C157.983 52.7871 157.983 52.6505 157.983 52.5138C157.983 52.3772 157.983 52.2064 157.983 52.0015C157.983 51.8307 157.983 51.5916 157.983 51.3184H160.712V54.6315H161.334V56.1686H160.643V55.2464H160.678Z" fill="white"/>
<path fill-rule="evenodd" clip-rule="evenodd" d="M165.239 51.3525H168.072V51.9332H165.93V52.9579H167.934V53.5044H165.93V54.6657H168.107V55.2464H165.239V51.3525Z" fill="white"/>
<path fill-rule="evenodd" clip-rule="evenodd" d="M173.117 50.1914C173.152 50.3622 173.221 50.4647 173.325 50.4988C173.428 50.5671 173.566 50.6013 173.705 50.6013C173.843 50.6013 173.981 50.5671 174.05 50.4988C174.154 50.4305 174.223 50.328 174.258 50.1914H174.569C174.534 50.4647 174.43 50.6354 174.292 50.7721C174.119 50.9087 173.912 50.977 173.67 50.977C173.428 50.977 173.221 50.9087 173.048 50.7721C172.91 50.6354 172.806 50.4647 172.772 50.1914H173.117ZM172.115 51.3527H172.806V54.256L174.465 51.3527H175.26V55.2466H174.569V52.3433L172.875 55.2466H172.081V51.3527H172.115Z" fill="white"/>
<path fill-rule="evenodd" clip-rule="evenodd" d="M21.7002 1.14307H25.7776V6.33485H25.0865V1.72373H22.3913V6.33485H21.7002V1.14307Z" fill="white"/>
<path fill-rule="evenodd" clip-rule="evenodd" d="M53.7666 3.63649C54.1467 3.63649 54.4577 3.56818 54.6305 3.3974C54.8032 3.22661 54.9069 2.98752 54.9069 2.68011C54.9069 2.3727 54.8032 2.1336 54.6305 1.96282C54.4577 1.79204 54.1467 1.72373 53.7666 1.72373H52.3844V3.63649H53.7666ZM51.6934 1.14307H54.0085C54.5268 1.14307 54.9414 1.27969 55.2179 1.55294C55.4943 1.8262 55.6325 2.20192 55.6325 2.68011C55.6325 3.1583 55.4943 3.53402 55.2179 3.80727C54.9414 4.08052 54.5268 4.21715 54.0085 4.21715H52.3844V6.33485H51.6934V1.14307Z" fill="white"/>
<path fill-rule="evenodd" clip-rule="evenodd" d="M83.4833 5.89022C83.7943 5.89022 84.0707 5.8219 84.3126 5.71944C84.5545 5.58281 84.7273 5.44618 84.8655 5.24124C85.0037 5.0363 85.1073 4.79721 85.1765 4.55811C85.2456 4.31902 85.2801 4.04577 85.2801 3.77251C85.2801 3.49926 85.2456 3.26017 85.1765 2.98691C85.1073 2.74782 85.0037 2.50872 84.8655 2.30378C84.7273 2.09884 84.5199 1.92806 84.3126 1.82559C84.0707 1.68897 83.7943 1.65481 83.4833 1.65481C83.1723 1.65481 82.8959 1.72312 82.654 1.82559C82.4121 1.96222 82.2393 2.09884 82.1011 2.30378C81.9629 2.50872 81.8592 2.74782 81.7901 2.98691C81.721 3.22601 81.6865 3.49926 81.6865 3.77251C81.6865 4.04577 81.721 4.28486 81.7901 4.55811C81.8592 4.79721 81.9629 5.0363 82.1011 5.24124C82.2393 5.44618 82.4467 5.61697 82.654 5.71944C82.8613 5.8219 83.1378 5.89022 83.4833 5.89022ZM83.4833 6.47088C83.0686 6.47088 82.6885 6.40257 82.3776 6.23178C82.0666 6.09516 81.7901 5.89022 81.5828 5.61697C81.3755 5.37787 81.2027 5.07046 81.099 4.76305C80.9954 4.42149 80.9263 4.07992 80.9263 3.73836C80.9263 3.39679 80.9954 3.05523 81.099 2.71366C81.2027 2.3721 81.3755 2.09884 81.5828 1.82559C81.7901 1.5865 82.0666 1.38156 82.3776 1.21078C82.6885 1.03999 83.0686 0.97168 83.4833 0.97168C83.8979 0.97168 84.278 1.03999 84.589 1.21078C84.9 1.3474 85.1765 1.55234 85.3838 1.82559C85.5911 2.06469 85.7639 2.3721 85.8675 2.71366C85.9712 3.05523 86.0403 3.39679 86.0403 3.73836C86.0403 4.11408 85.9712 4.45564 85.8675 4.76305C85.7639 5.10462 85.5911 5.37787 85.3838 5.61697C85.1765 5.85606 84.9 6.061 84.589 6.23178C84.2435 6.40257 83.8979 6.47088 83.4833 6.47088Z" fill="white"/>
<path fill-rule="evenodd" clip-rule="evenodd" d="M111.61 1.14307H115.239V1.72373H112.301V3.36324H115.066V3.9439H112.301V5.75419H115.273V6.33485H111.61V1.14307Z" fill="white"/>
<path fill-rule="evenodd" clip-rule="evenodd" d="M140.878 1.14307H141.569V3.67065L144.264 1.14307H145.163L142.64 3.46571L145.232 6.33485H144.368L142.122 3.87559L141.569 4.38793V6.33485H140.878V1.14307Z" fill="white"/>
<path fill-rule="evenodd" clip-rule="evenodd" d="M171.735 1.72373H170.007V1.14307H174.223V1.72373H172.461V6.33485H171.735V1.72373Z" fill="white"/>
<path fill-rule="evenodd" clip-rule="evenodd" d="M130.443 14.0195C129.752 14.0195 129.303 14.0878 129.095 14.2245C128.681 14.4636 128.231 14.6343 127.782 14.8051C127.298 14.9759 126.815 15.1467 126.365 15.4199C125.432 15.9665 124.603 16.8887 123.912 18.1525C123.325 19.2455 122.841 20.5434 122.564 21.9438C122.495 22.2171 122.426 22.5245 122.357 22.7977C121.908 24.7105 121.459 26.6916 122.219 28.3653C123.117 30.4146 124.741 31.7809 126.331 32.9764C126.78 33.3179 127.298 33.6595 127.713 33.7961C127.92 33.8644 128.162 33.8986 128.404 33.8986C128.611 33.9328 128.819 33.9328 129.026 34.0011C129.406 34.1035 129.752 34.3085 130.063 34.5134C130.616 34.8208 131.203 35.1624 131.929 35.1624C131.963 35.1624 131.963 35.1624 131.998 35.1624C132.551 35.1624 133.069 34.8891 133.587 34.6159C133.725 34.5476 133.864 34.4793 134.002 34.4109C135.937 33.4887 136.663 32.5323 137.803 30.927C137.907 30.7904 137.976 30.6879 138.079 30.5513C138.321 30.2097 138.598 29.8681 138.874 29.5266C139.669 28.536 140.394 27.6138 140.74 26.2476C140.982 25.257 141.051 24.2665 140.947 23.2759C140.878 22.3879 140.636 21.4998 140.291 20.6117C139.98 19.8261 139.565 19.0747 139.081 18.4257C138.632 17.8109 138.114 17.2302 137.561 16.7862C137.492 16.7179 137.388 16.6496 137.319 16.5813C136.248 15.6932 135.211 14.8393 133.553 14.4294C132.516 14.1562 131.445 14.0195 130.443 14.0195ZM132.032 33.557C131.549 33.557 131.03 33.2838 130.477 32.9764C130.063 32.7714 129.648 32.5323 129.233 32.4299C129.026 32.3616 128.819 32.3274 128.646 32.3274C128.473 32.2932 128.335 32.2932 128.231 32.2249C127.713 32.02 126.987 31.5418 126.296 30.927C125.605 30.3463 124.983 29.6974 124.569 29.1167L124.534 29.0825C123.947 28.2969 123.186 27.2381 123.256 26.1109C123.256 25.9401 123.394 25.7352 123.497 25.5644C123.601 25.3936 123.705 25.257 123.739 25.0862C123.808 24.8471 123.774 24.5739 123.739 24.3689C123.739 24.1982 123.705 24.0615 123.739 23.9249C123.739 23.7883 123.808 23.6858 123.877 23.5492C123.947 23.4126 124.016 23.2759 124.05 23.1052L124.085 22.9685C124.499 20.9191 124.776 19.5529 125.743 18.1183C126.193 17.4693 126.711 16.957 127.367 16.5813C128.059 16.2055 128.888 15.9665 129.89 15.8298C130.235 15.7957 130.581 15.7615 130.961 15.7615C132.171 15.7615 133.345 15.9665 134.106 16.308C134.797 16.6154 135.764 17.3327 136.628 18.1866C137.596 19.143 138.287 20.0994 138.529 20.8167C138.563 20.9533 138.598 21.0899 138.598 21.2265C138.598 21.3973 138.632 21.5681 138.667 21.7389C138.909 22.5928 139.081 23.6858 139.081 24.6422C139.081 25.7694 138.909 26.7599 138.563 27.4772C138.356 27.8871 137.976 28.3311 137.561 28.7751C137.25 29.1167 136.939 29.4583 136.663 29.834C136.49 30.0731 136.317 30.3122 136.144 30.5854C135.557 31.4393 135.004 32.2249 134.244 32.669C133.587 33.0788 132.516 33.5229 132.101 33.557C132.067 33.557 132.067 33.557 132.032 33.557Z" fill="white"/>
<path fill-rule="evenodd" clip-rule="evenodd" d="M162.647 15.6592C161.541 15.6592 159.71 16.5472 159.054 17.4012C158.984 17.5036 158.881 17.6744 158.777 17.9135C158.708 18.0501 158.604 18.2209 158.535 18.3575C158.293 18.8016 158.017 19.3139 157.844 19.8946C157.671 20.5436 157.602 21.2267 157.706 21.944C157.74 22.1489 157.81 22.3197 157.879 22.4905C157.948 22.6271 157.982 22.7979 158.017 22.9345C158.051 23.2078 158.017 23.481 158.017 23.7543C158.017 24.0275 157.982 24.3349 158.017 24.6423C158.051 24.8814 158.155 25.1547 158.259 25.3938C158.362 25.6329 158.432 25.872 158.466 26.0428C158.466 26.1452 158.501 26.2819 158.501 26.4185C158.708 28.0238 158.95 29.6975 160.125 30.2782C160.574 30.4831 161.472 30.6539 162.094 30.6539C162.163 30.6539 162.233 30.6539 162.267 30.6539C163.062 30.5856 163.649 30.1415 164.168 29.7317C164.271 29.6633 164.34 29.595 164.444 29.5267C164.755 29.2876 165.135 29.0144 165.17 28.6386C165.204 28.3996 165.101 28.1946 164.928 27.9555L164.859 27.8872L164.755 27.853C164.651 27.853 164.548 27.8189 164.444 27.8189C163.822 27.8189 163.477 28.1946 163.2 28.502C162.993 28.7411 162.785 28.9461 162.509 28.9802C162.302 29.0144 162.094 29.0485 161.922 29.0485C161.3 29.0485 160.885 28.8094 160.643 28.2629C160.401 27.7164 160.298 26.9991 160.194 26.2135C160.159 25.7695 160.09 25.2913 159.987 24.8473C159.952 24.6082 159.848 24.4374 159.779 24.2666C159.71 24.13 159.676 24.0617 159.641 23.9592C160.09 24.0275 160.539 24.0958 160.989 24.0958C162.06 24.0958 163.027 23.8567 163.822 23.4127C164.686 22.9345 165.273 22.1831 165.515 21.295C165.723 20.5777 165.723 19.758 165.515 18.904C165.342 18.0843 164.997 17.3328 164.548 16.7522C164.306 16.4106 164.029 16.1715 163.718 15.9666C163.373 15.7958 163.027 15.6592 162.647 15.6592C162.682 15.6592 162.682 15.6592 162.647 15.6592ZM159.572 22.2172C159.123 20.2703 159.606 18.5625 160.92 17.811C161.403 17.5378 161.922 17.367 162.336 17.367C162.889 17.367 163.269 17.6403 163.511 18.2209C163.822 19.0407 163.96 21.1584 163.546 21.6707C163.131 22.1831 162.302 22.4563 161.3 22.4563C160.712 22.4905 160.125 22.388 159.572 22.2172Z" fill="white"/>
<path fill-rule="evenodd" clip-rule="evenodd" d="M170.422 16.2056C169.835 16.2056 169.42 16.3422 169.178 16.6838C168.763 17.2303 169.005 18.05 169.247 18.9039C169.351 19.3138 169.489 19.7237 169.524 20.1336C169.662 20.9533 169.489 21.9439 169.351 22.6953C169.282 23.0369 169.247 23.3443 169.213 23.6175C169.213 23.7541 169.213 23.8908 169.247 24.0274C169.282 24.2665 169.282 24.369 169.282 24.4373C169.04 24.3348 168.798 24.3006 168.556 24.3006C168.245 24.3006 167.969 24.369 167.761 24.5397C167.519 24.7105 167.381 24.9838 167.347 25.3253V25.4961L167.519 25.5986C167.761 25.7352 168.038 25.8035 168.349 25.8718C168.763 25.9743 169.04 26.0426 169.109 26.2134C169.213 26.6233 169.144 27.2723 169.04 27.8871C168.971 28.3994 168.902 28.8776 168.936 29.2875C168.971 29.834 169.213 30.1756 169.593 30.3122C169.696 30.3463 169.835 30.3805 169.938 30.3805C170.18 30.3805 170.422 30.278 170.595 30.0731C170.733 29.9365 170.802 29.6974 170.871 29.4583C170.975 29.0142 171.009 28.4336 171.009 27.8871C171.009 27.443 171.044 26.9648 171.113 26.6574C171.908 26.4525 173.014 26.4525 174.085 26.4183C174.534 26.4183 174.949 26.3842 175.363 26.3842C175.432 26.5208 175.502 26.6574 175.571 26.7941C175.674 26.999 175.813 27.2039 175.882 27.5114C175.951 27.7846 175.916 28.092 175.882 28.3994C175.847 28.7068 175.813 29.0142 175.882 29.3558C175.985 30.0731 176.469 30.5854 176.987 30.5854C177.333 30.5854 177.644 30.3805 177.851 30.0389L177.955 29.9023L177.886 29.7315C177.713 29.39 177.782 29.0142 177.851 28.6044C177.886 28.297 177.955 27.9895 177.92 27.648C177.92 27.3747 177.817 27.1015 177.713 26.8282C177.609 26.5208 177.506 26.2134 177.54 25.9743C177.609 25.7011 177.92 25.5986 178.335 25.3937C178.646 25.2912 178.957 25.1546 179.164 24.9496C179.441 24.6764 179.475 24.3006 179.337 23.8566L179.303 23.7541L179.199 23.6858C179.095 23.6175 178.957 23.5834 178.819 23.5834C178.611 23.5834 178.439 23.6517 178.3 23.6858C178.197 23.72 178.093 23.7541 177.989 23.7883C178.093 23.1052 177.955 22.6611 177.713 22.1829C177.989 21.7389 177.989 21.2949 177.989 20.9192C177.989 20.5776 177.989 20.236 178.128 19.8603L178.197 19.6895L178.093 19.5529C177.817 19.2113 177.229 18.9722 176.676 18.9722C176.262 18.9722 175.951 19.1089 175.709 19.3138L175.64 19.3821V19.4846C175.571 19.8603 175.709 20.0994 175.812 20.2702C175.847 20.3385 175.882 20.3727 175.916 20.441C175.571 21.4657 175.709 22.3879 175.812 23.4126C175.847 23.6175 175.882 23.8566 175.882 24.0616C175.363 24.369 174.603 24.4031 173.912 24.4031C173.739 24.4031 173.566 24.4031 173.428 24.4031C173.29 24.4031 173.152 24.4031 173.014 24.4031H172.979C172.703 24.4031 172.461 24.4714 172.219 24.5739C172.012 24.6422 171.839 24.7105 171.666 24.7105C171.631 24.7105 171.597 24.7105 171.562 24.7105C171.597 24.3006 171.631 23.8566 171.666 23.3784C171.701 22.7978 171.735 22.1829 171.804 21.5681C171.804 21.4315 171.873 21.329 171.908 21.1924C171.977 21.0216 172.046 20.8167 172.046 20.6117C172.046 20.3727 171.977 20.1677 171.908 19.8945C171.839 19.6895 171.77 19.4504 171.77 19.2113C171.735 18.8698 171.77 18.5282 171.804 18.1866C171.839 17.7768 171.908 17.401 171.804 17.0595C171.701 16.6496 171.424 16.3763 170.94 16.2397H170.906H170.871C170.698 16.2397 170.56 16.2056 170.422 16.2056Z" fill="white"/>
<path fill-rule="evenodd" clip-rule="evenodd" d="M184.175 17.7769C183.656 17.7769 183.207 18.0843 183.103 18.5283C183.034 18.7674 183.138 19.0065 183.207 19.2797C183.242 19.4164 183.311 19.5872 183.311 19.6896C183.38 20.7826 183.345 22.2514 183.276 23.8226C183.242 24.8814 183.207 26.0086 183.207 26.9991C183.207 27.7506 183.345 28.4337 183.587 28.9802C183.829 29.5609 184.209 30.0049 184.624 30.2781L184.658 30.3123H184.693C185.038 30.4148 185.418 30.4831 185.764 30.4831C186.386 30.4831 186.973 30.3123 187.492 29.9707C187.975 29.6633 188.356 29.2534 188.667 28.7411C188.978 28.1946 189.116 27.5798 189.116 26.965C189.116 26.316 188.908 25.667 188.563 25.1205C188.148 24.4715 187.492 24.1641 186.835 23.8567C186.524 23.7201 186.213 23.5493 185.937 23.3785L185.868 23.3444H185.799C185.729 23.3444 185.695 23.3444 185.626 23.3444C185.418 23.3444 185.28 23.4127 185.177 23.4468C185.142 23.4468 185.107 23.481 185.073 23.481C184.693 21.9098 184.935 19.7238 185.073 18.4941V18.4258L185.038 18.3575C184.935 17.9818 184.555 17.7769 184.175 17.7769ZM185.073 24.9839C185.177 24.9497 185.315 24.9497 185.453 24.9497C186.075 24.9497 186.697 25.3254 187.112 25.9744C187.561 26.6575 187.665 27.5115 187.388 28.1263C187.215 28.502 186.593 28.946 186.04 28.946C185.868 28.946 185.729 28.9119 185.591 28.8436C185.315 28.6728 185.142 28.3312 185.073 27.7164C185.004 27.1357 185.038 26.4185 185.073 25.7695C185.038 25.4962 185.073 25.223 185.073 24.9839Z" fill="white"/>
<path fill-rule="evenodd" clip-rule="evenodd" d="M150.208 18.8013C149.793 18.8013 149.448 19.0404 149.31 19.3136C149.102 19.6552 148.929 20.0992 148.791 20.5091C148.48 21.363 148.169 22.2169 147.409 22.661C147.133 22.8317 146.925 22.9001 146.718 22.9001C146.338 22.9001 146.061 22.6268 145.716 22.2852C145.301 21.9095 144.852 21.4655 144.161 21.4655C144.126 21.4655 144.092 21.4655 144.057 21.4655C143.608 21.4996 143.159 21.8412 142.606 22.5926C142.537 22.661 142.26 23.0367 142.053 23.4807C141.777 24.0272 141.708 24.4029 141.88 24.6762C141.949 24.8128 142.122 25.0178 142.537 25.0178C142.641 25.0178 142.744 25.0178 142.882 24.9836C143.332 24.8811 143.504 24.4371 143.643 23.9931C143.746 23.7198 143.884 23.3441 144.023 23.3441C144.092 23.3441 144.265 23.5832 144.334 23.6857C144.437 23.8564 144.576 24.0272 144.748 24.1638C145.025 24.4371 145.647 24.847 146.061 24.8811C146.165 24.8811 146.234 24.9153 146.338 24.9153C146.925 24.9153 147.305 24.6762 147.651 24.4712C147.789 24.3688 147.927 24.3005 148.1 24.2322C148.031 24.5737 147.927 24.9153 147.858 25.2568C147.72 25.94 147.547 26.6231 147.34 27.2721C147.236 27.6136 147.029 27.9211 146.822 28.2285C146.614 28.5359 146.442 28.8091 146.372 29.1165C146.269 29.4923 146.338 29.8338 146.614 30.1754L146.718 30.2779H146.891C147.305 30.2779 147.72 30.312 148.169 30.312C148.618 30.3462 149.102 30.3803 149.586 30.3803C150.139 30.3803 150.623 30.3462 151.072 30.2779C151.521 30.2095 152.005 30.0046 152.523 29.7997C152.834 29.6972 153.11 29.5606 153.421 29.4581C154.285 29.1848 155.149 28.9116 155.875 28.8433C155.979 28.8433 156.082 28.8091 156.151 28.8091C156.635 28.775 157.084 28.7067 157.326 28.3651C157.499 28.1602 157.499 27.8527 157.43 27.477L157.395 27.3062L157.257 27.2379C156.946 27.1355 156.6 27.0671 156.186 27.0671C155.598 27.0671 155.011 27.2038 154.493 27.3062C153.974 27.4087 153.421 27.6136 152.903 27.8186C152.281 28.0577 151.694 28.2968 151.141 28.3651C150.726 28.3992 150.277 28.4334 149.862 28.4334C149.413 28.4334 149.033 28.3992 148.618 28.3309C149.379 25.9058 150.07 23.2416 150.761 20.6457C150.864 20.2017 151.003 19.7235 151.106 19.2795L151.141 19.1087L151.037 18.9721C150.726 18.9037 150.484 18.8013 150.208 18.8013Z" fill="white"/>
<path fill-rule="evenodd" clip-rule="evenodd" d="M194.264 27.4771C193.781 27.4771 193.331 27.7161 192.986 28.126C192.675 28.5017 192.502 28.9458 192.468 29.424C192.433 29.7655 192.502 30.0388 192.675 30.2779C192.848 30.5511 193.159 30.7219 193.504 30.7561C193.539 30.7561 193.608 30.7561 193.642 30.7561C194.23 30.7561 195.025 30.2779 195.37 29.9363C195.508 29.7997 195.543 29.6289 195.612 29.4581C195.647 29.3898 195.681 29.2532 195.716 29.219C195.854 29.0824 195.958 28.9116 195.958 28.7408V28.7067C195.923 28.1943 195.336 27.8186 195.267 27.7503C194.886 27.5795 194.575 27.4771 194.264 27.4771Z" fill="white"/>
<path fill-rule="evenodd" clip-rule="evenodd" d="M47.2703 31.8833C47.4431 32.2248 47.5813 32.6006 47.7887 32.9421C47.6504 33.1471 47.5122 33.3862 47.374 33.6253C47.0285 34.1718 46.7175 34.6499 46.3374 35.0598C45.9227 35.4697 45.4735 35.6746 44.8861 35.743C44.7824 35.743 44.7133 35.743 44.6097 35.743C43.884 35.743 43.0547 35.5039 42.3982 35.1281C41.7416 34.7524 41.327 34.2742 41.2924 33.796C41.1888 32.8055 41.8453 31.9516 42.5018 31.2685C43.1584 30.5853 44.0568 29.6631 45.0243 29.6631C45.3699 29.6631 45.7154 29.7656 46.0609 30.0047C46.5793 30.3804 46.9248 31.0977 47.2703 31.8833ZM50.7258 32.6689C51.3823 32.6689 51.2786 31.4392 50.5876 31.6783C50.0001 31.8491 50.242 32.6347 50.7258 32.6689ZM57.4984 35.2989L57.4293 35.2306L57.3256 35.1964C57.1874 35.1623 57.0838 35.1623 56.9456 35.1623C56.4272 35.1623 55.8744 35.3672 55.5979 35.538C55.3561 35.6746 55.1142 35.8454 54.8723 36.0504C54.3885 36.3919 53.9048 36.6993 53.3865 37.0409C52.7645 37.4166 51.7279 38.0656 51.0022 38.0656C50.9677 38.0656 50.9331 38.0656 50.8985 38.0656C50.4493 38.0314 50.1038 37.7582 49.8274 37.1775C49.5509 36.631 49.3782 35.9479 49.2399 35.2648C49.2054 35.0598 49.1363 34.8549 49.1017 34.6499C49.2399 34.5475 49.309 34.445 49.4127 34.3084C49.5855 34.1034 49.6891 33.9668 49.8619 33.9327C49.8965 33.9327 49.8965 33.9327 49.931 33.9327C50.0347 33.9327 50.1383 33.9668 50.242 34.001C50.3802 34.0351 50.553 34.1034 50.7258 34.1034C50.7603 34.1034 50.8294 34.1034 50.864 34.1034C52.0043 33.9327 52.6263 32.7713 52.5572 31.7808C52.5226 31.3709 52.3844 30.9952 52.1079 30.722C51.797 30.4145 51.3823 30.2438 50.8985 30.2438C50.7258 30.2438 50.5184 30.2779 50.3111 30.3121C49.931 30.3804 49.6546 30.6536 49.4473 30.8927C49.2399 31.0977 49.1017 31.2343 48.929 31.2343C48.8944 31.2343 48.8944 31.2343 48.8598 31.2343C48.7562 31.2343 48.6871 31.0635 48.5489 30.7561C48.4797 30.5853 48.4106 30.4145 48.2724 30.2438C47.8923 29.5948 47.4431 29.1166 46.9939 28.7409C46.3719 28.2627 45.6463 28.0236 44.8515 28.0236C44.7824 28.0236 44.6788 28.0236 44.6097 28.0236C43.4003 28.0919 42.6401 28.9117 41.949 29.7314C41.8453 29.868 41.7071 30.0047 41.6034 30.1071C41.4998 30.2096 41.3961 30.3121 41.2924 30.4487C40.4977 31.2685 39.4956 32.3273 39.5993 33.8302C39.6338 34.1376 39.772 34.4109 39.8757 34.6499C39.9794 34.889 40.1176 35.0598 40.083 35.2989C40.083 35.4355 39.9448 35.743 39.6338 36.1187C39.3574 36.4602 38.9773 36.7335 38.7009 36.8701C38.2862 37.0409 37.9061 37.1434 37.526 37.1434C36.8349 37.1434 36.2821 36.836 35.8329 36.2553C35.4528 35.743 35.2109 34.9232 35.0035 34.1034C34.8999 33.7619 34.8308 33.4203 34.7271 33.0787C34.658 32.8397 34.5543 32.6006 34.4852 32.3615C34.3125 31.8491 34.1397 31.3368 34.1051 30.9952C34.036 30.4487 34.1051 29.7997 34.1742 29.2532C34.2088 28.9117 34.2434 28.6043 34.2434 28.331C34.2434 28.1261 34.2088 27.9553 34.1742 27.7845C34.1397 27.682 34.1051 27.5796 34.1051 27.4771C34.036 25.7693 34.5543 24.3347 35.0381 22.9343C35.1763 22.5244 35.3145 22.1145 35.4528 21.7046C35.591 21.2606 35.6946 20.8166 35.7637 20.4067C35.8674 19.8602 35.9711 19.3478 36.1784 18.9038C36.2821 18.6306 36.4203 18.3915 36.593 18.1182C36.904 17.6059 37.215 17.0594 37.215 16.3762V16.2055L37.0423 16.1371C36.904 16.0688 36.7658 16.0347 36.6622 16.0347C36.3512 16.0347 36.1438 16.2055 35.9711 16.3762C35.8674 16.4445 35.7637 16.547 35.6946 16.547L35.5564 16.5812L35.4873 16.6836C34.7962 17.9133 34.3816 19.1429 33.9669 20.5775C33.8978 20.7824 33.8287 20.9532 33.7941 21.1581C33.3104 22.6952 32.8266 24.1639 32.6193 25.8717C31.9282 26.0084 31.6172 26.3841 31.3408 26.7598C31.2717 26.8623 31.168 26.9647 31.0989 27.0672C30.8225 27.3746 29.7858 28.4335 28.8529 28.5359C28.7492 28.5359 28.6455 28.5359 28.5419 28.5359C27.4361 28.5359 26.8142 27.9211 26.1231 27.3063C25.7775 26.9647 25.3974 26.6232 24.9482 26.3841C24.4299 26.0767 23.9116 25.94 23.3242 25.94C23.0132 25.94 22.6676 25.9742 22.3221 26.0767C22.0111 26.145 21.1127 26.4865 20.8017 26.6915C20.5253 26.8623 20.3871 27.1014 20.2834 27.3063C20.2143 27.4429 20.1452 27.5454 20.0761 27.6479C20.0761 26.6573 20.007 25.6326 19.8342 24.7104C19.6614 23.7199 19.4195 22.8318 19.1086 22.0804C19.1777 22.0804 19.2468 22.0804 19.3504 22.0804C19.5578 22.0804 19.7996 22.0804 20.007 22.0121C20.4562 21.8754 20.8363 21.568 21.0781 21.1581C21.2855 20.8166 21.3891 20.3725 21.32 19.9627C21.2855 19.5528 21.0781 19.2112 20.8017 18.938C20.4907 18.6306 20.0761 18.4598 19.6269 18.4256C19.5923 18.4256 19.5578 18.4256 19.5232 18.4256C18.6939 18.4256 18.0028 18.9038 17.4154 19.3137C17.1044 19.5186 16.828 19.7236 16.5515 19.826L16.4133 19.8602L16.3442 19.9968C15.8604 21.1581 14.9966 21.773 13.9945 22.4902C13.7872 22.6269 13.5799 22.7976 13.3725 22.9343C13.1652 23.1051 12.9579 23.2758 12.7851 23.4466C12.5087 23.754 12.2322 24.0273 11.9212 24.0614C11.8176 24.0614 11.6794 24.0956 11.5412 24.0956C11.0574 24.0956 10.5391 23.959 10.2972 23.8565C9.29512 23.4808 8.84591 22.3195 8.36215 21.124C7.84384 19.826 7.32552 18.4598 6.01246 18.0499C5.66691 17.9474 5.32137 17.8791 4.97582 17.8791C3.93919 17.8791 3.07534 18.3573 2.69524 18.7672C1.62405 19.6894 1.03663 21.568 0.518315 23.2758C0.414652 23.6174 0.310989 23.959 0.207326 24.2664C0.138217 24.403 0.0691087 24.6763 0.0345543 24.9154C0 25.0861 0 25.2228 0 25.3594C0 25.5643 0.0345543 25.6668 0.0691087 25.7351C0.138217 25.8717 0.276435 25.94 0.380098 25.94H0.414652C0.518315 25.94 0.587424 25.94 0.691087 25.94C1.07118 25.94 1.45128 25.8717 1.76227 25.4277C1.90049 25.2228 1.90049 24.9495 1.90049 24.6763C1.90049 24.5396 1.90049 24.3688 1.93504 24.2664C1.9696 24.0956 2.03871 23.8907 2.14237 23.6516C2.24603 23.3783 2.3497 23.1051 2.45336 22.7976C2.59158 22.3536 2.86801 21.4655 3.24811 20.7141C3.62821 19.9968 4.0083 19.5186 4.31929 19.4503C4.35385 19.4503 4.42296 19.4503 4.49206 19.4503C4.56117 19.4503 4.66484 19.4503 4.7685 19.4845C4.90672 19.4845 5.01038 19.5186 5.1486 19.5186C5.21771 19.5186 5.25226 19.5186 5.32137 19.5186C6.11612 20.031 6.46166 20.9532 6.80721 21.9779C7.01453 22.5927 7.25641 23.2075 7.5674 23.754C8.25849 24.9154 9.67522 25.5643 11.4029 25.5643C11.9212 25.5643 12.4741 25.496 12.9924 25.3935C13.4071 25.2911 13.649 25.0178 13.8908 24.6763C14.2709 24.2322 14.7893 23.6174 16.0678 22.9343C16.2751 22.8318 16.4133 22.5927 16.517 22.4219C16.5861 22.3195 16.6552 22.1487 16.7243 22.1487C16.8625 22.1828 17.1735 22.5244 17.3463 22.9001C17.6918 23.5832 17.8991 24.4372 18.0374 25.496C18.141 26.3841 18.1756 27.4088 18.1065 28.4335C18.0719 29.0483 17.8646 29.7656 17.6918 30.3804C17.6227 30.6536 17.5191 30.9269 17.4845 31.166C17.4154 31.5417 17.3463 31.8833 17.2772 32.1565C17.1735 32.6689 17.1044 33.1471 16.8971 33.6594C16.3788 35.0598 14.9275 37.0067 13.96 37.8607C13.5107 38.2705 13.027 38.4413 12.5087 38.6463C12.094 38.817 11.6794 38.9878 11.1956 39.2611C11.0228 39.3635 10.8501 39.5343 10.6773 39.6709C10.4009 39.91 10.1244 40.1491 9.88254 40.1491C9.67522 40.1491 9.46789 39.9784 9.22601 39.8076C8.98413 39.6026 8.70769 39.4319 8.3967 39.4319C8.36215 39.4319 8.29304 39.4319 8.22393 39.4319C7.77473 39.5343 7.49829 39.9442 7.5674 40.4565C7.60195 40.7298 7.70562 41.003 7.91294 41.208C8.12027 41.4471 8.43126 41.5837 8.74225 41.5837C8.94957 41.652 9.32967 41.6862 9.64066 41.6862C9.9862 41.6862 10.2626 41.652 10.47 41.5837C10.8501 41.4129 11.1611 41.1738 11.472 40.9347C11.7485 40.7298 12.0249 40.5249 12.3359 40.3541C12.5778 40.2175 12.8542 40.115 13.1306 40.0125C13.7526 39.7393 14.4092 39.4319 14.8584 39.0561C15.7568 38.2705 16.5861 37.1092 17.2772 36.0845C18.5211 34.2401 19.0394 32.259 19.6269 30.0047C19.6614 29.7997 19.7305 29.5948 19.7996 29.3898C20.4562 29.2532 20.8017 28.8092 21.0781 28.4335C21.2855 28.1944 21.4582 27.9553 21.7001 27.8187C21.8729 27.7503 22.4258 27.5112 23.1169 27.5112C23.2896 27.5112 23.497 27.5454 23.6697 27.5796C24.1189 27.682 24.5336 28.0919 24.9482 28.5359C25.3283 28.9458 25.7084 29.3557 26.1922 29.5948C26.5377 29.7656 27.4361 30.1754 28.4728 30.1754C28.8183 30.1754 29.1293 30.1413 29.4403 30.0388C30.1659 29.8339 31.1335 29.1508 31.7209 28.6384C31.8937 28.4676 31.9973 28.2968 32.0664 28.1602C32.1355 28.0577 32.2046 27.9211 32.3083 27.8528C32.3083 28.1602 32.3429 28.4676 32.3429 28.8092C32.3774 30.2096 32.412 31.6783 32.8266 32.8055C32.9994 33.2837 33.1376 33.796 33.3104 34.2742C33.7941 35.8113 34.2088 37.28 35.3145 38.0656C35.8674 38.4755 36.593 38.6804 37.4224 38.6804C38.3208 38.6804 39.1846 38.4413 39.8412 37.9973C40.0485 37.8607 40.3249 37.5191 40.6359 37.1434C40.8432 36.8701 41.2233 36.4602 41.3615 36.3578C41.4652 36.3919 41.638 36.4944 41.7762 36.5627C41.949 36.6652 42.1217 36.7676 42.2945 36.836C42.951 37.0751 43.9877 37.3825 44.7824 37.3825C44.8861 37.3825 45.0243 37.3825 45.128 37.3483C45.8191 37.2458 46.3028 36.9384 46.7175 36.631C46.9939 36.4261 47.2358 36.2553 47.5813 36.1187C47.6504 36.3236 47.7195 36.4944 47.7887 36.6993C48.0305 37.3825 48.307 38.0656 48.6871 38.6463C49.1708 39.3294 49.7583 39.6709 50.5184 39.7734C50.5876 39.7734 50.6912 39.7734 50.7949 39.7734C51.3823 39.7734 52.1425 39.6026 52.9718 39.2269C53.8011 38.8853 54.5268 38.3047 55.2178 37.724C55.7016 37.3142 56.1854 36.9384 56.6346 36.6993C56.7382 36.7676 56.8764 36.7676 57.0147 36.7676C57.222 36.7676 57.4293 36.6993 57.5675 36.5627L57.6366 36.4944L57.6712 36.3919C57.6712 36.0504 57.7749 35.6405 57.4984 35.2989ZM18.2792 20.4067C18.6939 20.7483 19.8687 20.919 19.6614 19.9627C19.2468 19.5869 18.3829 19.9285 18.2792 20.4067Z" fill="white"/>
<path fill-rule="evenodd" clip-rule="evenodd" d="M110.125 17.0933L110.021 17.1274C109.192 17.3665 108.57 17.8105 107.948 18.2204C107.602 18.4595 107.291 18.6645 106.946 18.8694L106.911 18.9036L106.876 18.9377C106.842 18.9719 106.807 19.006 106.738 19.0743C106.565 19.2793 106.289 19.5525 106.082 19.8599C105.805 20.304 105.702 20.6455 105.771 20.9529C105.84 21.1579 105.978 21.397 106.427 21.5336C106.496 21.5678 106.6 21.5678 106.669 21.5678C107.187 21.5678 107.498 21.1237 107.775 20.7138C107.913 20.5431 108.017 20.3723 108.155 20.2698C108.742 19.7575 109.33 19.4501 109.779 19.4501C110.194 19.4501 110.47 19.6892 110.677 20.1673C110.954 20.8163 111.023 21.4653 110.85 22.285C110.677 23.0365 110.366 23.7879 110.021 24.5735C109.675 25.3591 109.33 26.1789 109.123 26.9986C108.881 27.955 108.881 28.8431 109.088 29.697L109.123 29.7995L109.192 29.8678C109.537 30.141 109.814 30.2435 110.09 30.2435C110.297 30.2435 110.574 30.1752 110.816 29.8336C110.954 29.6287 111.058 29.3896 111.161 29.048C111.334 28.4674 111.369 27.7159 111.438 27.067C111.472 26.5205 111.541 26.0081 111.61 25.7349C111.749 25.1883 112.025 24.676 112.267 24.1295C112.647 23.3439 113.027 22.5241 113.062 21.6019C113.131 20.4406 112.889 19.4501 112.302 18.6303C111.818 17.913 111.092 17.4007 110.194 17.0933H110.125Z" fill="white"/>
<path fill-rule="evenodd" clip-rule="evenodd" d="M75.8468 23.481C75.674 23.481 75.5013 23.5493 75.3285 23.5834C75.1903 23.6176 75.052 23.6859 74.9138 23.6859C74.8793 23.6859 74.8447 23.6859 74.7756 23.6859C74.6719 23.6859 74.5683 23.6859 74.4646 23.6517C74.361 23.6517 74.2227 23.6176 74.1191 23.6176C73.9809 23.6176 73.8772 23.6176 73.7735 23.6517C73.4971 23.7201 73.1516 23.8908 72.7369 24.1641C72.3568 24.4032 71.9422 24.7106 71.5621 25.018C71.2165 25.2913 70.1108 26.2135 69.7652 26.8624C68.4522 29.39 69.5579 33.4547 70.7673 35.5382C71.0437 36.0506 71.8039 37.0069 72.2186 37.2802C72.7023 37.5876 73.2552 37.7584 73.8426 37.7584C74.5683 37.7584 75.2594 37.5193 75.8122 37.0752C76.3997 36.5971 76.7452 35.9481 76.8143 35.2308C76.8834 34.3769 76.5033 33.1814 76.3651 32.8398C76.1232 32.1909 75.6395 30.9954 75.3285 30.5172C75.1557 30.2781 74.9829 30.1415 74.7756 30.039C74.7065 30.0048 74.6374 29.9707 74.6028 29.9024C74.7756 29.9024 74.9138 29.9365 75.0866 29.9365C75.3285 29.9707 75.6049 29.9707 75.8468 29.9707C76.1232 29.9707 76.3651 29.9365 76.5724 29.9024C76.918 29.8341 77.3672 29.595 77.8164 29.3217C78.0583 29.1509 78.542 28.8094 78.6803 28.4678C78.8185 28.1262 78.8185 27.2382 78.7839 26.8966C78.7494 26.555 78.6111 26.0427 78.5075 25.5987C78.231 24.6764 78.0583 24.4715 77.9892 24.4032C77.5745 23.9591 76.4342 23.5493 75.9159 23.5151C75.8814 23.481 75.8468 23.481 75.8468 23.481ZM71.0783 28.4678C71.1128 28.0921 71.182 27.7847 71.3202 27.4773C71.4929 27.1357 71.7348 26.8283 72.0458 26.5209C72.6332 25.9744 73.3934 25.5987 74.1191 25.2229C74.4301 25.3937 74.8102 25.3937 75.1212 25.3937C75.2594 25.3937 75.3976 25.3937 75.5013 25.3937C75.6395 25.3937 75.7431 25.3937 75.8814 25.3937C76.0887 25.3937 76.296 25.3937 76.5379 25.462C76.5379 25.4962 76.5724 25.5303 76.5724 25.5987C76.8489 26.3501 77.1944 27.409 76.8834 27.9555C76.7798 28.1604 76.5724 28.2629 76.2614 28.3312C76.1578 28.3653 76.0196 28.3653 75.8468 28.3653C75.5704 28.3653 75.2248 28.3312 74.8793 28.2629C74.6028 28.2287 74.3264 28.1946 74.0154 28.1604C73.9118 28.1604 73.7735 28.1604 73.6699 28.1604C73.0479 28.1604 72.495 28.2629 72.0113 28.3312C71.7003 28.3995 71.3893 28.4678 71.0783 28.4678ZM70.9401 30.2098C71.182 30.1415 71.3893 30.1415 71.6312 30.1415C72.1495 30.1415 72.6332 30.3123 73.0824 30.6197C73.4971 30.9271 73.8426 31.3711 74.1882 31.9176C74.7411 32.9082 75.0866 34.2744 75.1557 35.6748C74.9138 36.1189 74.6028 36.358 74.2573 36.358C73.4625 36.358 72.3568 35.1966 71.9422 34.1378C71.2856 32.5324 70.9746 31.3711 70.9401 30.2098Z" fill="white"/>
<path fill-rule="evenodd" clip-rule="evenodd" d="M83.2415 24.0273C82.6887 24.0273 82.3777 24.5738 82.2395 25.0179C82.1012 25.4619 82.0321 26.0084 81.9976 26.35C81.9976 26.7599 81.9976 27.2039 82.0321 27.6479C82.0667 28.2627 82.1012 28.9117 81.9976 29.5265C81.9976 29.5949 81.963 29.629 81.963 29.6973C81.8939 30.1414 81.7903 30.8245 81.652 31.2002C81.3756 31.1319 81.1337 31.0977 80.9264 31.0977C80.5808 31.0977 80.339 31.2002 80.1662 31.371C79.9934 31.5418 79.9243 31.815 79.9243 32.1566V32.2591L79.9934 32.3274C80.2353 32.6006 80.65 32.6689 80.9609 32.7372C81.2028 32.7714 81.4102 32.8056 81.5484 32.908C81.7211 33.2154 81.6175 33.9669 81.5138 34.6159C81.4447 35.1282 81.341 35.6405 81.3756 36.0846C81.4102 36.3578 81.4447 36.5628 81.5484 36.7336C81.6866 36.9385 81.8594 37.0751 82.1012 37.1434C82.2049 37.1776 82.274 37.1776 82.3777 37.1776C82.6887 37.1776 83.0688 37.041 83.2415 36.3578C83.3452 35.9821 83.3452 35.5039 83.3452 35.0257C83.3452 34.3426 83.3452 33.4545 83.6907 33.3179C83.9326 33.3179 84.1745 33.3179 84.4164 33.3179C85.0038 33.3179 85.5567 33.2838 86.075 33.2838C86.5933 33.2496 87.0425 33.2496 87.5263 33.2496C87.5954 33.2496 87.6991 33.2496 87.7682 33.2496C87.8027 33.3521 87.8718 33.4545 87.9409 33.557C88.1137 33.8303 88.2865 34.1377 88.321 34.5475C88.3556 34.8549 88.3556 35.1965 88.3901 35.5381C88.3901 35.948 88.3901 36.3578 88.4938 36.6652C88.632 37.2459 88.9776 37.3484 89.254 37.3484C89.4613 37.3484 89.7378 37.2801 90.0142 37.1093L90.187 37.0068V36.8019C90.1524 36.4603 90.187 36.0846 90.2215 35.6747C90.2561 35.1624 90.3252 34.5817 90.2561 34.0352C90.2215 33.7619 90.1179 33.5228 90.0487 33.3179C89.9451 33.0447 89.9105 32.908 89.9451 32.7031C89.9796 32.5665 90.187 32.464 90.3943 32.3615C90.5671 32.2591 90.7398 32.1907 90.8781 32.0541C91.0854 31.8492 91.1545 31.6101 91.0854 31.371C90.9817 30.8586 90.4634 30.7903 90.187 30.7562C90.0833 30.7562 89.9105 30.722 89.876 30.6879C89.7378 30.0389 89.7723 29.2874 89.7723 28.536C89.8069 27.6138 89.8414 26.7257 89.565 26.0084L89.4613 25.7352L89.1849 25.8376C88.5629 26.0426 88.1828 26.5891 88.0791 27.4771C88.01 28.1603 88.0791 28.98 88.1828 29.7315C88.2174 30.1755 88.2865 30.6195 88.2865 30.927C87.9755 31.2002 87.3535 31.2344 86.7315 31.2344C86.5588 31.2344 86.4205 31.2344 86.2478 31.2344C86.075 31.2344 85.9022 31.2344 85.7295 31.2344C85.5567 31.2344 85.4185 31.2344 85.2802 31.2344C85.0038 31.2344 84.7274 31.3368 84.4855 31.4051C84.2782 31.4735 84.1054 31.5076 83.9672 31.5076C83.9326 31.5076 83.8635 31.5076 83.8635 31.4735C84.1399 30.5171 84.2436 29.3216 84.3473 28.1603C84.3473 27.9895 84.3818 27.7846 84.4164 27.5796C84.4509 27.1697 84.3818 26.8623 84.2782 26.5891C84.2436 26.4525 84.2091 26.3158 84.1745 26.1792C84.1745 26.0084 84.1745 25.8376 84.1745 25.6327C84.2091 25.1204 84.2091 24.608 83.829 24.3006C83.6907 24.1298 83.4834 24.0273 83.2415 24.0273Z" fill="white"/>
<path fill-rule="evenodd" clip-rule="evenodd" d="M98.4105 26.8623C97.9268 26.8623 97.4085 27.0672 96.8901 27.4429C96.1991 27.9211 94.3331 29.7997 94.0567 30.6536C93.9185 31.0635 93.9185 31.6783 93.9185 32.259C93.9185 32.5664 93.9185 32.8738 93.8839 33.1471V33.2837C93.7457 34.7183 93.642 35.9479 94.1603 36.8701C94.2986 37.1092 94.5404 37.3483 94.7823 37.6216C94.9896 37.8265 95.197 38.0314 95.3352 38.2364C95.4389 38.373 95.508 38.5438 95.5771 38.6804C95.6462 38.8854 95.7498 39.0561 95.8881 39.1928C96.1991 39.5343 96.6828 39.7734 97.2702 39.9442C97.7886 40.0808 98.4105 40.1491 99.1016 40.1491C100.829 40.1491 102.764 39.671 103.801 39.022C104.043 38.8854 104.423 38.5779 104.803 38.2022C105.252 37.7582 105.529 37.3483 105.632 37.0067C105.702 36.8018 105.702 36.4944 105.736 36.1528C105.736 35.8796 105.771 35.6063 105.805 35.3331C105.84 35.094 105.874 34.889 105.909 34.6841C105.978 34.3084 106.047 34.001 106.013 33.7277C105.943 33.2837 105.114 32.0541 105.114 32.0541C104.838 31.61 104.388 31.2343 103.939 30.8244C103.766 30.6878 103.628 30.5512 103.49 30.4146C102.212 29.2191 101.693 28.775 100 28.1602C100 28.1602 99.9655 28.1602 99.9655 28.1261C99.7236 28.0236 99.2744 27.8528 98.8597 27.8528C98.9634 27.682 99.0325 27.4429 99.0671 27.1697V26.8964L98.8252 26.8281C98.6524 26.8623 98.5488 26.8623 98.4105 26.8623ZM96.9593 38.2022C96.7865 37.7582 96.4755 37.3825 96.1991 37.0067C95.819 36.4944 95.4043 35.9479 95.3006 35.2989C95.2661 35.094 95.3006 34.8549 95.3352 34.5816C95.3697 34.4109 95.3698 34.2401 95.3698 34.0693C95.3698 33.6936 95.3697 33.3179 95.3352 32.8738C95.3006 32.1565 95.2661 31.4051 95.4043 30.8586C95.508 30.4487 96.3718 29.7314 96.9247 29.2191C97.0629 29.0825 97.2011 28.98 97.3394 28.8434C97.5121 28.7067 97.7194 28.6043 97.9268 28.5018C97.9613 28.4676 97.9959 28.4676 98.0304 28.4335C98.0304 28.5359 98.0304 28.6726 98.065 28.8092C98.1341 29.1508 98.6524 29.3899 99.8618 29.8339C100.242 29.9705 100.657 30.1413 100.76 30.2096C101.037 30.4146 102.039 31.0977 102.937 32.0541C103.766 32.908 104.216 33.6594 104.285 34.2742C104.319 34.4792 104.25 34.7524 104.181 35.0257C104.147 35.2306 104.077 35.4697 104.077 35.6746C103.939 36.8018 103.87 37.0067 103.283 37.4508C102.868 37.7582 102.212 38.0314 101.486 38.2364C100.726 38.4413 99.8964 38.5779 99.1362 38.5779C98.2723 38.6463 97.5121 38.5096 96.9593 38.2022Z" fill="white"/>
<path fill-rule="evenodd" clip-rule="evenodd" d="M59.4682 28.9458C59.2263 28.9458 58.9498 29.0824 58.708 29.3898C58.5352 29.5948 58.397 29.8339 58.3279 30.0388C57.5677 32.6347 57.5677 36.4944 58.8116 38.2364L58.8462 38.2705L58.9153 38.3047C59.0189 38.373 59.1572 38.4413 59.2608 38.5438C59.7791 38.8853 60.2975 39.2269 61.0577 39.2952C61.0922 39.2952 61.1613 39.2952 61.2304 39.2952C62.5435 39.2952 64.8932 38.4413 65.5497 37.6899C65.7225 37.4849 65.8262 37.28 65.9298 37.075C65.9644 37.0067 65.9989 36.9384 66.0335 36.8701C66.0335 36.9043 66.0335 36.9043 66.0335 36.9384C66.1026 37.1775 66.1717 37.5191 66.69 37.6557C66.7937 37.6899 66.8628 37.6899 66.9664 37.6899C67.2429 37.6899 67.4157 37.5532 67.4848 37.4508C67.8303 37.0409 67.623 36.2553 67.3811 35.3331C67.2774 34.889 67.1738 34.4108 67.1392 34.0693C67.1047 33.7277 67.1738 33.3861 67.2429 33.0446C67.3465 32.5664 67.4156 32.0882 67.1738 31.7125L67.1392 31.6442L67.0701 31.61C66.9319 31.5417 66.7937 31.5075 66.6209 31.5075C66.3445 31.5075 66.1371 31.61 65.9644 31.6783L65.8607 31.7125L65.7916 31.8149C65.4461 32.4639 65.3769 33.1812 65.3078 33.8643C65.2733 34.3084 65.2387 34.7524 65.1005 35.1281C64.7895 36.1187 64.5822 36.4944 64.444 36.631C64.3058 36.7676 63.8566 37.0067 63.0964 37.2458C62.4053 37.4508 61.7142 37.5874 61.265 37.5874C61.1959 37.5874 61.1613 37.5874 61.1268 37.5874C60.6776 37.5532 60.2975 37.3825 60.0556 37.075C59.8137 36.8018 59.6409 36.4261 59.5373 35.9137C59.399 35.2306 59.2608 33.5911 59.399 32.4639C59.4336 32.1565 59.6064 31.7125 59.7791 31.2684C60.1247 30.2779 60.332 29.6631 60.0901 29.2874C59.8482 29.0141 59.6064 28.9458 59.4682 28.9458Z" fill="white"/>
<path fill-rule="evenodd" clip-rule="evenodd" d="M109.917 34.7183C109.779 34.7183 109.641 34.7183 109.502 34.7524C109.226 34.8207 108.708 34.9232 108.5 35.4356C108.155 36.187 108.5 36.9043 108.708 37.3825C108.777 37.4849 108.811 37.6216 108.846 37.6899C108.915 37.8607 108.95 38.0314 108.984 38.2022C109.053 38.4755 109.122 38.7146 109.226 38.9195C109.399 39.1586 109.641 39.2952 109.952 39.2952C110.194 39.2952 110.47 39.1586 110.746 38.8854C111.023 38.6121 111.334 38.1681 111.541 37.6899C111.679 37.4166 111.921 36.8701 111.887 36.4944C111.887 36.0162 111.645 35.5722 111.265 35.2306C110.919 34.9232 110.435 34.7183 109.917 34.7183Z" fill="white"/>
</svg>
