<svg width="38" height="39" viewBox="0 0 38 39" fill="none" xmlns="http://www.w3.org/2000/svg">
<path d="M19.3242 0.895386C29.6062 0.895386 37.9369 9.22511 37.9369 19.5059C37.9369 29.7868 29.6062 38.1165 19.3242 38.1165C9.04213 38.1165 0.711426 29.7868 0.711426 19.5059C0.711426 9.22511 9.04213 0.895386 19.3242 0.895386ZM17.1552 11.6715L22.8216 17.1046H9.11718C8.11899 17.1046 7.31594 17.9075 7.31594 18.9056V20.1063C7.31594 21.1043 8.11899 21.9073 9.11718 21.9073H22.8216L17.1552 27.3404C16.4272 28.0383 16.4122 29.2014 17.1252 29.9143L17.9507 30.7323C18.6562 31.4377 19.797 31.4377 20.495 30.7323L30.4543 20.7817C31.1598 20.0763 31.1598 18.9356 30.4543 18.2377L20.495 8.27207C19.7895 7.56667 18.6487 7.56667 17.9507 8.27207L17.1252 9.09003C16.4122 9.81044 16.4272 10.9736 17.1552 11.6715Z" fill="white"/>
</svg>
