<svg id="Layer_1" data-name="Layer 1" xmlns="http://www.w3.org/2000/svg" viewBox="0 0 60 60.33"><path d="M38.76,35.51c.65.46,1.32.91,2,1.4.91.68,1.83,1.34,2.66,2.1a4.07,4.07,0,0,1,1.26,2.76,1.74,1.74,0,0,1-1,1.76,3.27,3.27,0,0,1-1.61.41,1.73,1.73,0,0,1-1.6-.89,12.93,12.93,0,0,1-.66-1.47c-.16-.36-.27-.73-.42-1.1a3.3,3.3,0,0,0-3.48-2.31,6.79,6.79,0,0,0-3.48,1,3.41,3.41,0,0,0-1.68,4.36,12.93,12.93,0,0,0,1.52,3.1c.87,1.41,1.75,2.82,2.57,4.26a6.17,6.17,0,0,1,.92,3.43,5,5,0,0,1-1.78,4,4.62,4.62,0,0,1-3.93.94A3.79,3.79,0,0,1,27.18,56a7,7,0,0,1,.51-3.84c.39-1.15.8-2.29,1.09-3.46a11.15,11.15,0,0,0-.09-4.81,17.91,17.91,0,0,0-.86-3.07,5.25,5.25,0,0,0-3.3-3.11,3.07,3.07,0,0,0-3.85,1.53,15.16,15.16,0,0,0-.76,2.21c-.15.45-.24.92-.4,1.36A1.81,1.81,0,0,1,17,44a3.15,3.15,0,0,1-1.89-4.45,14.79,14.79,0,0,1,1.34-1.93c.43-.6.91-1.17,1.34-1.77a3.06,3.06,0,0,0,.52-1.68,2,2,0,0,0-2-2,5,5,0,0,0-2.5.69c-1.06.59-2.07,1.25-3.1,1.88a4.87,4.87,0,0,1-2.6.79,4.72,4.72,0,0,1-4.36-4.3,5.46,5.46,0,0,1,2-4.29,6.35,6.35,0,0,1,6.14-1.44c1.49.37,3,.71,4.49,1a8,8,0,0,0,3.77,0,5.39,5.39,0,0,0,1.24-.51A1.66,1.66,0,0,0,22.24,24a4.36,4.36,0,0,0-1.62-2.56A15.64,15.64,0,0,0,17.4,19.7a17.92,17.92,0,0,1-1.86-.93,3,3,0,0,1-1.09-4.17,5.82,5.82,0,0,1,5.85-2.51,3.86,3.86,0,0,1,2.29,1.7A15.94,15.94,0,0,1,24,16.9a12.5,12.5,0,0,0,.76,1.72,1.38,1.38,0,0,0,2,.64,1.72,1.72,0,0,0,1.13-2.34,9,9,0,0,0-.74-1.65,5.25,5.25,0,0,1-.64-1.76,2.5,2.5,0,0,1,1.06-2.43l.15-.08a2.75,2.75,0,0,1,3,.88,2.51,2.51,0,0,1,.31,1q.07,1.39.06,2.79a3.2,3.2,0,0,0,2.47,3.11,1.77,1.77,0,0,0,2.32-1.56A10.85,10.85,0,0,0,36,15.55c.08-1.8.06-3.61.22-5.41a5.53,5.53,0,0,1,2.9-4.58,3,3,0,0,1,3.41.24,4.41,4.41,0,0,1,1.85,2.52,6.18,6.18,0,0,1,0,2.74,4.53,4.53,0,0,1-2,2.69c-.66.47-1.37.89-2,1.34A9.41,9.41,0,0,0,38,17.19a3.81,3.81,0,0,0-.46.78,2,2,0,0,0,.35,2.28,4.19,4.19,0,0,0,3.42,1.6c1.32-.07,2.64-.28,4-.42a18.77,18.77,0,0,1,2.11-.18,1.89,1.89,0,0,1,2,1.9,2,2,0,0,1-1.86,2.08A8.56,8.56,0,0,1,45,25a6.64,6.64,0,0,0-1-.09,1.67,1.67,0,0,0-1.76,1.24,3.67,3.67,0,0,0,.5,3.55,10.85,10.85,0,0,0,7.69,4.39c1.17.13,2.35.16,3.52.29a4.1,4.1,0,0,1,3.66,4,4.69,4.69,0,0,1-4.43,4.86,3.76,3.76,0,0,1-3.72-1.91,16.33,16.33,0,0,1-1.27-2.67,7,7,0,0,0-4.12-4.19,4.46,4.46,0,0,0-3.44,0c-.65.27-1.26.62-1.89.94Z" fill="#EE6E73"/></svg>