<svg width="1440" height="49" viewBox="0 0 1440 49" fill="none" xmlns="http://www.w3.org/2000/svg">
<path d="M1438.81 48.2255L0 48.2253L2.64685e-06 17.9489C1.22766 17.7294 2.34278 17.4226 3.30652 17.0302C5.13758 16.2848 6.42261 15.2305 6.54163 13.8944C8.15039 14.1568 8.51941 14.4735 8.99134 15.1183C9.03858 15.1724 9.08325 15.2266 9.12659 15.2792L9.12879 15.2818C9.3418 15.5399 9.52381 15.7605 9.81726 15.7476L11.0573 15.6935C13.3364 14.9752 11.991 13.8398 10.9015 12.9204L10.8911 12.9115L10.8889 12.9097L10.8771 12.8998C10.8036 12.8375 10.7311 12.7763 10.661 12.7163C11.7395 12.9769 12.5291 13.3768 13.2822 13.7584C14.9722 14.6145 16.4813 15.3789 20.6681 14.2755L18.1575 15.7161C19.6517 15.1077 20.8773 15.4529 22.1491 15.811C23.9937 16.3306 25.9352 16.8774 28.9341 14.5799L29.3366 9.57144L24.3751 11.7845L32.4977 6.77156C33.6106 7.13422 33.5391 7.5486 33.4404 8.12127C33.3795 8.4752 33.3082 8.88959 33.4995 9.3896C35.8355 8.34769 37.1165 8.82682 38.1052 9.19654C39.2166 9.61214 39.9583 9.88953 41.4128 7.71304L42.355 10.9991L46.2101 7.83621C46.1322 8.05858 46.0369 8.29771 45.9368 8.54867L45.9362 8.54995L45.9346 8.55414L45.9341 8.55534L45.9327 8.55907C45.1199 10.5954 43.9988 13.4044 49.2461 14.3581L54.5895 14.7901L53.1012 11.1952C53.9313 11.634 54.6335 12.2954 55.3046 12.9273C56.9834 14.5084 58.4658 15.9048 61.2627 13.1677L61.6589 16.145C64.0352 16.7192 64.3971 15.4815 64.7094 14.4139C65.01 13.386 65.2645 12.5159 67.226 13.5727L65.8219 15.9631C69.948 15.6616 73.6021 14.8064 77.0595 13.9972C83.0896 12.5858 88.5215 11.3144 94.8153 13.3658L94.7847 14.698C98.1939 15.5473 104.188 14.62 106.033 14.2067L104.941 13.5889L112.707 12.5842L112.942 13.9049L118.404 13.0008L118.3 14.669C123.509 16.1051 128.249 14.8999 132.604 13.046L130.967 12.1194C132.085 12.0705 133.012 8.92381 133.892 5.94035L133.893 5.93544L133.893 5.93429C134.128 5.13805 134.359 4.35363 134.59 3.64298C136.41 3.70844 137.02 3.06897 137.59 2.47125C138.329 1.69697 139.001 0.992776 142.149 1.9819C141.958 2.24328 141.779 2.4741 141.619 2.68194C140.722 3.84007 140.359 4.30982 141.246 5.68132C142.326 5.2815 143.137 4.99724 143.765 4.77712L143.766 4.77666L143.768 4.77583C145.067 4.32048 145.583 4.13963 146.082 3.77627C146.41 3.53723 146.732 3.21853 147.264 2.69121C147.742 2.21732 148.391 1.57451 149.369 0.668375C146.163 4.46839 148.802 8.01306 154.012 9.44913C158.876 9.23666 161.746 8.15174 164.136 7.2481C167.013 6.16074 169.195 5.33585 173.322 6.60929L177.599 11.0806C179.666 11.3255 180.712 9.84214 181.593 8.59176C182.462 7.35986 183.171 6.35412 184.54 7.45018C188.929 8.11889 189.012 7.46262 189.093 6.81243C189.169 6.20554 189.245 5.60396 192.822 6.09023L192.807 5.75814C192.94 5.75234 193.055 5.83053 193.169 5.90872C193.283 5.98688 193.398 6.06508 193.531 6.05928C195.915 7.20558 197.537 6.81872 199.224 6.41605C200.231 6.17585 201.261 5.93004 202.491 6.00062L207.481 4.45173C208.131 1.50369 210.049 2.59339 211.967 3.68309C212.891 4.20775 213.814 4.73242 214.596 4.8064L216.222 1.40812C223.63 4.41178 235.306 5.56542 246.569 5.40616C247.531 7.44663 250.572 6.73626 253.843 5.97204L253.845 5.97172C254.232 5.88133 254.622 5.79022 255.012 5.7028L253.36 4.44407C272.179 6.61656 272.267 6.61269 290.144 5.49909L292.626 3.39435C291.207 5.45266 294.94 7.61868 296.549 7.88112C298.412 7.97401 300.936 7.5817 303.693 7.15304C306.2 6.76326 308.901 6.34341 311.474 6.23102L311.355 7.56712C306.55 7.77701 300.553 8.3214 294.939 8.83097C290 9.27939 285.356 9.70092 282.081 9.84398L282.154 11.5044L289.415 13.1836L291.662 9.75823C298.446 12.0151 302.733 11.4665 306.754 10.9517C308.498 10.7286 310.191 10.5119 312.017 10.5327C316.268 10.347 319.325 9.21533 319.961 7.52393L320.758 7.48911C320.728 7.49039 320.687 7.45522 320.633 7.40832C320.597 7.37752 320.555 7.34167 320.507 7.30777C325.197 9.33243 327.655 10.2162 333.627 11.5851L327.604 11.8482L333.772 14.906C335.609 15.4554 336.182 14.6779 336.844 13.7769C337.933 12.2974 339.266 10.4851 346.851 13.6693L348.695 15.2523L350.071 15.7774C350.104 14.5661 350.257 15.1081 350.431 15.9151L351.042 16.148C351.781 14.7848 355.324 14.6301 359.353 15.4523C359.383 16.3592 359.413 17.2729 359.443 18.1921C361.358 17.9881 363.073 17.5991 364.471 17.0303C366.302 16.2849 367.587 15.2305 367.706 13.8944C369.315 14.1569 369.683 14.4735 370.155 15.1183C370.187 15.1552 370.219 15.1921 370.249 15.2285L370.292 15.2808L370.293 15.2819C370.506 15.54 370.688 15.7605 370.981 15.7477L372.221 15.6935C374.5 14.9752 373.155 13.8398 372.066 12.9204L371.987 12.8541C371.932 12.8075 371.878 12.7616 371.825 12.7163C372.904 12.977 373.693 13.3768 374.446 13.7585C376.136 14.6145 377.645 15.379 381.832 14.2756L379.322 15.7161C380.816 15.1078 382.042 15.453 383.313 15.8111C385.158 16.3307 387.099 16.8775 390.098 14.5799L390.501 9.5715L385.539 11.7846L393.662 6.77162C394.774 7.13427 394.703 7.54865 394.604 8.12129C394.544 8.47523 394.472 8.88966 394.664 9.38966C396.999 8.34776 398.281 8.82688 399.269 9.19661C400.38 9.61221 401.122 9.88959 402.577 7.7131L403.519 10.9992L407.374 7.83627C407.295 8.06106 407.199 8.30298 407.098 8.55695L407.097 8.55879C406.284 10.5952 405.163 13.4044 410.41 14.3582L415.753 14.7902L414.265 11.1952C415.095 11.6339 415.797 12.2952 416.468 12.927C418.147 14.508 419.63 15.9048 422.427 13.1678L422.823 16.145C425.199 16.7193 425.561 15.4815 425.873 14.414C426.174 13.3861 426.429 12.516 428.39 13.5728L426.986 15.9632C431.112 15.6617 434.766 14.8064 438.223 13.9973C444.253 12.5859 449.685 11.3145 455.979 13.3658L455.948 14.6981C459.358 15.5473 465.352 14.6201 467.197 14.2067L466.105 13.589L473.87 12.5843L474.106 13.9049L479.568 13.0009L479.463 14.6691C484.673 16.1051 489.412 14.8999 493.768 13.0461L492.131 12.1194C493.249 12.0706 494.176 8.92388 495.055 5.94042L495.056 5.9379C495.291 5.14045 495.523 4.35475 495.754 3.64305C497.574 3.70851 498.184 3.06903 498.754 2.47131C499.493 1.69703 500.165 0.992838 503.313 1.98196C503.123 2.24218 502.945 2.47168 502.785 2.67882L502.784 2.68026L502.782 2.68201C501.886 3.84013 501.522 4.30988 502.409 5.68138C503.492 5.28077 504.303 4.99618 504.932 4.77589C506.231 4.32054 506.747 4.13969 507.246 3.77633C507.574 3.5373 507.896 3.21859 508.428 2.69128C508.906 2.21738 509.555 1.57458 510.532 0.668441C507.326 4.46846 509.966 8.01313 515.175 9.44919C520.039 9.23672 522.909 8.1518 525.3 7.24816C528.177 6.16081 530.359 5.33592 534.485 6.60936L538.763 11.0807C540.83 11.3256 541.875 9.84221 542.757 8.59183C543.625 7.35992 544.334 6.35418 545.703 7.45025C550.093 8.11896 550.175 7.46268 550.257 6.81249C550.333 6.2056 550.408 5.60402 553.986 6.0903L553.971 5.75821C554.104 5.75241 554.218 5.83062 554.333 5.90878C554.447 5.98694 554.561 6.06515 554.694 6.05934C557.079 7.20565 558.7 6.81878 560.388 6.41611C561.394 6.17592 562.424 5.9301 563.654 6.00069L568.645 4.45179C569.295 1.50375 571.213 2.59345 573.131 3.68315C574.054 4.20781 574.978 4.73248 575.76 4.80646L577.386 1.40818C584.794 4.41184 596.469 5.56548 607.732 5.40622C608.694 7.44669 611.735 6.73632 615.007 5.9721L615.008 5.97179C615.395 5.8814 615.785 5.79027 616.176 5.70286L614.523 4.44414C633.342 6.61662 633.431 6.61276 651.308 5.49915L653.789 3.39441C652.371 5.45272 656.104 7.61874 657.713 7.88119C659.576 7.97407 662.099 7.58175 664.857 7.15309C667.364 6.76331 670.064 6.34348 672.638 6.23108L672.518 7.56718C667.713 7.77708 661.717 8.32142 656.104 8.83099C651.164 9.27943 646.52 9.70098 643.245 9.84404L643.317 11.5045L650.579 13.1837L652.825 9.7583C659.61 12.0152 663.896 11.4665 667.918 10.9518C669.661 10.7287 671.355 10.5119 673.18 10.5328C677.432 10.3471 680.488 9.21539 681.124 7.52399L681.922 7.48917C681.892 7.49046 681.851 7.45524 681.796 7.40838C681.761 7.37758 681.719 7.34173 681.671 7.30783C686.36 9.33249 688.819 10.2162 694.79 11.5852L688.767 11.8483L694.935 14.9061C696.773 15.4555 697.345 14.6779 698.008 13.777C699.097 12.2975 700.43 10.4851 708.015 13.6693L709.859 15.2524L712.205 16.1481C712.944 14.7849 716.487 14.6301 720.516 15.4523C720.539 16.1278 720.562 16.8071 720.584 17.4896C721.052 17.3525 721.495 17.1993 721.91 17.0303C723.742 16.2849 725.026 15.2305 725.146 13.8944C726.754 14.1569 727.123 14.4735 727.595 15.1183C727.642 15.1724 727.687 15.2266 727.731 15.2793L727.733 15.2819C727.946 15.54 728.128 15.7605 728.421 15.7477L729.661 15.6935C731.94 14.9752 730.595 13.8398 729.505 12.9204L729.502 12.9174L729.495 12.9116L729.493 12.9097C729.415 12.8441 729.339 12.7795 729.265 12.7163C730.344 12.977 731.133 13.3768 731.886 13.7585C733.576 14.6145 735.085 15.379 739.272 14.2756L736.761 15.7161C738.256 15.1078 739.481 15.453 740.753 15.8111C742.598 16.3307 744.539 16.8775 747.538 14.5799L747.94 9.5715L742.979 11.7846L751.102 6.77162C752.214 7.13428 752.143 7.54866 752.044 8.12133C751.983 8.47527 751.912 8.88965 752.103 9.38966C754.439 8.34776 755.72 8.82688 756.709 9.19661C757.82 9.61221 758.562 9.88959 760.017 7.7131L760.959 10.9992L764.814 7.83628C764.736 8.05864 764.641 8.29777 764.541 8.54873L764.54 8.55002L764.539 8.55421L764.538 8.5554L764.537 8.55913C763.724 10.5955 762.603 13.4044 767.85 14.3582L773.193 14.7902L771.705 11.1952C772.535 11.634 773.237 12.2955 773.908 12.9274C775.587 14.5084 777.07 15.9048 779.867 13.1678L780.263 16.145C782.639 16.7193 783.001 15.4815 783.313 14.414C783.614 13.3861 783.868 12.516 785.83 13.5728L784.426 15.9632C788.552 15.6617 792.206 14.8064 795.663 13.9972C801.694 12.5858 807.125 11.3145 813.419 13.3658L813.389 14.6981C816.798 15.5473 822.792 14.6201 824.637 14.2067L823.545 13.589L831.311 12.5843L831.546 13.9049L837.008 13.0009L836.904 14.6691C842.113 16.1051 846.853 14.9 851.209 13.0461L849.571 12.1194C850.689 12.0706 851.616 8.92388 852.496 5.94042L852.497 5.9355L852.497 5.93435C852.732 5.13811 852.963 4.35369 853.194 3.64305C855.014 3.70851 855.624 3.06903 856.194 2.47131C856.933 1.69703 857.605 0.992838 860.753 1.98196C860.562 2.24334 860.383 2.47416 860.223 2.68201C859.326 3.84013 858.962 4.30988 859.85 5.68138C860.93 5.28156 861.741 4.9973 862.368 4.77718L862.37 4.77672L862.372 4.77589C863.671 4.32054 864.187 4.13969 864.686 3.77633C865.014 3.5373 865.336 3.21859 865.868 2.69128C866.346 2.21738 866.995 1.57457 867.973 0.668438C864.766 4.46846 867.406 8.01312 872.616 9.44919C877.48 9.23672 880.35 8.15181 882.74 7.24816C885.617 6.16081 887.799 5.33591 891.926 6.60935L896.203 11.0807C898.27 11.3256 899.316 9.84221 900.197 8.59183C901.066 7.35992 901.775 6.35418 903.144 7.45025C907.533 8.11896 907.616 7.46268 907.697 6.8125C907.773 6.2056 907.849 5.60402 911.426 6.0903L911.411 5.7582C911.544 5.7524 911.659 5.83059 911.773 5.90878C911.887 5.98694 912.002 6.06514 912.135 6.05934C914.519 7.20564 916.14 6.81878 917.828 6.41611C918.835 6.17591 919.865 5.9301 921.095 6.00069L926.085 4.45179C926.735 1.50375 928.653 2.59345 930.571 3.68315C931.495 4.20781 932.418 4.73248 933.2 4.80646L934.826 1.40818C942.234 4.41184 953.91 5.56548 965.173 5.40622C966.135 7.44669 969.176 6.73632 972.447 5.9721L972.449 5.97179C972.836 5.88139 973.226 5.79028 973.616 5.70286L971.964 4.44413C990.783 6.61662 990.871 6.61276 1008.75 5.49915L1011.23 3.39441C1009.81 5.45272 1013.54 7.61874 1015.15 7.88118C1017.02 7.97407 1019.54 7.58176 1022.3 7.1531C1024.8 6.76332 1027.5 6.34348 1030.08 6.23108L1029.96 7.56718C1025.15 7.77707 1019.16 8.32146 1013.54 8.83103C1008.6 9.27946 1003.96 9.70098 1000.69 9.84405L1000.76 11.5045L1008.02 13.1837L1010.27 9.7583C1017.05 12.0152 1021.34 11.4665 1025.36 10.9518C1027.1 10.7287 1028.8 10.5119 1030.62 10.5328C1034.87 10.3471 1037.93 9.2154 1038.56 7.52399L1039.36 7.48917C1039.33 7.49045 1039.29 7.45528 1039.24 7.40838C1039.2 7.37758 1039.16 7.34173 1039.11 7.30783C1043.8 9.33249 1046.26 10.2162 1052.23 11.5852L1046.21 11.8483L1052.38 14.9061C1054.21 15.4555 1054.79 14.6779 1055.45 13.777C1056.54 12.2975 1057.87 10.4851 1065.46 13.6693L1067.3 15.2524L1068.67 15.7775C1068.71 14.5662 1068.86 15.1082 1069.04 15.9152L1069.65 16.1481C1070.38 14.7849 1073.93 14.6301 1077.96 15.4523C1077.99 16.3592 1078.02 17.273 1078.05 18.1921C1079.96 17.9882 1081.68 17.5992 1083.07 17.0303C1084.91 16.2849 1086.19 15.2306 1086.31 13.8945C1087.92 14.157 1088.29 14.4736 1088.76 15.1184C1088.81 15.173 1088.85 15.2277 1088.9 15.2809L1088.9 15.2819C1089.11 15.5401 1089.29 15.7606 1089.59 15.7478L1090.83 15.6936C1093.1 14.9753 1091.76 13.8399 1090.67 12.9205L1090.59 12.8541C1090.54 12.8076 1090.48 12.7616 1090.43 12.7164C1091.51 12.9771 1092.3 13.3769 1093.05 13.7585C1094.74 14.6146 1096.25 15.379 1100.44 14.2756L1097.93 15.7162C1099.42 15.1079 1100.65 15.453 1101.92 15.8112C1103.76 16.3307 1105.7 16.8775 1108.7 14.58L1109.1 9.57156L1104.14 11.7846L1112.27 6.77168C1113.38 7.13433 1113.31 7.54871 1113.21 8.12135C1113.15 8.47529 1113.08 8.88972 1113.27 9.38972C1115.6 8.34782 1116.88 8.82694 1117.87 9.19667C1118.98 9.61227 1119.73 9.88965 1121.18 7.71316L1122.12 10.9992L1125.98 7.83633C1125.9 8.06112 1125.8 8.30305 1125.7 8.55701L1125.7 8.55886C1124.89 10.5952 1123.77 13.4045 1129.01 14.3582L1134.36 14.7903L1132.87 11.1953C1133.7 11.6341 1134.4 12.2956 1135.07 12.9274C1136.75 14.5085 1138.23 15.9049 1141.03 13.1679L1141.43 16.1451C1143.8 16.7194 1144.17 15.4816 1144.48 14.414C1144.78 13.3862 1145.03 12.5161 1146.99 13.5728L1145.59 15.9632C1149.72 15.6618 1153.37 14.8065 1156.83 13.9974C1162.86 12.586 1168.29 11.3146 1174.58 13.3659L1174.55 14.6981C1177.96 15.5474 1183.96 14.6201 1185.8 14.2068L1184.71 13.589L1192.47 12.5844L1192.71 13.905L1198.17 13.001L1198.07 14.6691C1203.28 16.1052 1208.02 14.9 1212.37 13.0461L1210.73 12.1195C1211.85 12.0706 1212.78 8.92394 1213.66 5.94048L1213.66 5.93796C1213.9 5.14051 1214.13 4.35481 1214.36 3.64311C1216.18 3.70857 1216.79 3.06909 1217.36 2.47137C1218.1 1.69709 1218.77 0.992901 1221.92 1.98202C1221.73 2.24224 1221.55 2.47174 1221.39 2.67888L1221.39 2.68032L1221.39 2.68208C1220.49 3.84019 1220.13 4.30995 1221.01 5.68145C1222.1 5.28083 1222.91 4.99625 1223.54 4.77596C1224.83 4.3206 1225.35 4.13976 1225.85 3.77639C1226.18 3.53736 1226.5 3.21866 1227.03 2.69134C1227.51 2.21745 1228.16 1.57464 1229.14 0.668503C1225.93 4.46852 1228.57 8.01319 1233.78 9.44925C1238.64 9.23679 1241.51 8.15186 1243.9 7.24822C1246.78 6.16087 1248.96 5.33598 1253.09 6.60942L1257.37 11.0807C1259.43 11.3256 1260.48 9.84227 1261.36 8.59189C1262.23 7.35998 1262.94 6.35424 1264.31 7.45031C1268.7 8.11902 1268.78 7.46274 1268.86 6.81256C1268.94 6.20567 1269.01 5.60408 1272.59 6.09036L1272.57 5.75827C1272.71 5.75247 1272.82 5.83069 1272.94 5.90884C1273.05 5.987 1273.17 6.06521 1273.3 6.05941C1275.68 7.20571 1277.3 6.81884 1278.99 6.41617C1280 6.17598 1281.03 5.93016 1282.26 6.00075L1287.25 4.45185C1287.9 1.50381 1289.82 2.59352 1291.73 3.68321C1292.66 4.20788 1293.58 4.73254 1294.36 4.80652L1295.99 1.40824C1303.4 4.41191 1315.07 5.56554 1326.34 5.40629C1327.3 7.44676 1330.34 6.73638 1333.61 5.97217L1333.61 5.97186C1334 5.88146 1334.39 5.79034 1334.78 5.70293L1333.13 4.4442C1351.95 6.61668 1352.03 6.61282 1369.91 5.49922L1372.39 3.39447C1370.97 5.45278 1374.71 7.6188 1376.32 7.88125C1378.18 7.97413 1380.7 7.58181 1383.46 7.15316C1385.97 6.76337 1388.67 6.34354 1391.24 6.23114L1391.12 7.56725C1386.32 7.77714 1380.32 8.32149 1374.71 8.83106C1369.77 9.27949 1365.12 9.70104 1361.85 9.84411L1361.92 11.5046L1369.18 13.1837L1371.43 9.75836C1378.21 12.0152 1382.5 11.4666 1386.52 10.9519C1388.27 10.7287 1389.96 10.512 1391.78 10.5329C1396.04 10.3471 1399.09 9.21545 1399.73 7.52405L1400.53 7.48924C1400.5 7.49052 1400.45 7.4553 1400.4 7.40844C1400.36 7.37764 1400.32 7.34179 1400.27 7.3079C1404.96 9.33255 1407.42 10.2163 1413.39 11.5853L1407.37 11.8483L1413.54 14.9062C1415.38 15.4555 1415.95 14.678 1416.61 13.777C1417.7 12.2975 1419.03 10.4852 1426.62 13.6694L1428.46 15.2525L1430.81 16.1482C1431.55 14.785 1435.09 14.6302 1439.12 15.4524C1439.42 24.4227 1439.67 34.0621 1439.88 43.0363L1439.88 43.0382L1439.88 43.051C1439.92 44.7655 1439.96 46.48 1440 48.1737L1438.81 48.2255Z" fill="#E1E1E1"/>
<path d="M1400.27 7.3079C1400.2 7.25582 1400.11 7.20835 1400 7.19083L1400.27 7.3079Z" fill="#E1E1E1"/>
<path d="M1400 7.19083C1399.97 7.18501 1399.93 7.1825 1399.89 7.18422L1399.98 7.18036L1400 7.19083Z" fill="#E1E1E1"/>
<path d="M1039.11 7.30783C1039.04 7.25576 1038.95 7.20829 1038.84 7.19076L1039.11 7.30783Z" fill="#E1E1E1"/>
<path d="M1038.84 7.19076C1038.83 7.18942 1038.82 7.18826 1038.82 7.18728C1038.81 7.18644 1038.8 7.18574 1038.79 7.18517C1038.78 7.18429 1038.77 7.18377 1038.76 7.18365C1038.75 7.18355 1038.74 7.18372 1038.73 7.18416L1038.82 7.18029L1038.84 7.19076Z" fill="#E1E1E1"/>
<path d="M681.671 7.30783C681.596 7.25576 681.507 7.20829 681.4 7.19077L681.671 7.30783Z" fill="#E1E1E1"/>
<path d="M681.4 7.19077C681.364 7.18495 681.327 7.18244 681.287 7.18416L681.376 7.18029L681.4 7.19077Z" fill="#E1E1E1"/>
<path d="M320.507 7.30777C320.433 7.2557 320.343 7.20822 320.236 7.1907L320.507 7.30777Z" fill="#E1E1E1"/>
<path d="M320.236 7.1907C320.228 7.18936 320.22 7.1882 320.211 7.18722C320.204 7.18638 320.197 7.18567 320.189 7.18511C320.177 7.18423 320.166 7.18371 320.153 7.18359L320.212 7.18023L320.236 7.1907Z" fill="#E1E1E1"/>
</svg>
