<svg width="1440" height="48" viewBox="0 0 1440 48" fill="none" xmlns="http://www.w3.org/2000/svg">
<path d="M1.18593 0.181396H1440V30.4578C1438.77 30.6773 1437.66 30.9841 1436.69 31.3765C1434.86 32.1219 1433.58 33.1763 1433.46 34.5124C1431.85 34.2499 1431.48 33.9333 1431.01 33.2885C1430.96 33.2343 1430.92 33.1801 1430.87 33.1275L1430.87 33.1249C1430.66 32.8668 1430.48 32.6463 1430.18 32.6591L1428.94 32.7133C1426.66 33.4316 1428.01 34.567 1429.1 35.4864L1429.11 35.4952L1429.11 35.4971L1429.12 35.5069C1429.2 35.5692 1429.27 35.6304 1429.34 35.6905C1428.26 35.4298 1427.47 35.03 1426.72 34.6483C1425.03 33.7923 1423.52 33.0278 1419.33 34.1312L1421.84 32.6907C1420.35 33.299 1419.12 32.9538 1417.85 32.5957C1416.01 32.0761 1414.06 31.5293 1411.07 33.8269L1410.66 38.8353L1415.62 36.6222L1407.5 41.6352C1406.39 41.2725 1406.46 40.8581 1406.56 40.2855C1406.62 39.9315 1406.69 39.5171 1406.5 39.0171C1404.16 40.059 1402.88 39.5799 1401.89 39.2102C1400.78 38.7946 1400.04 38.5172 1398.59 40.6937L1397.65 37.4076L1393.79 40.5705C1393.87 40.3482 1393.96 40.109 1394.06 39.8581L1394.06 39.8568L1394.07 39.8526L1394.07 39.8514L1394.07 39.8477C1394.88 37.8113 1396 35.0024 1390.75 34.0486L1385.41 33.6166L1386.9 37.2116C1386.07 36.7728 1385.37 36.1113 1384.7 35.4794C1383.02 33.8984 1381.53 32.502 1378.74 35.239L1378.34 32.2618C1375.96 31.6875 1375.6 32.9253 1375.29 33.9928C1374.99 35.0207 1374.74 35.8908 1372.77 34.834L1374.18 32.4436C1370.05 32.7451 1366.4 33.6004 1362.94 34.4096C1356.91 35.821 1351.48 37.0923 1345.18 35.041L1345.22 33.7087C1341.81 32.8595 1335.81 33.7868 1333.97 34.2001L1335.06 34.8178L1327.29 35.8225L1327.06 34.5019L1321.6 35.4059L1321.7 33.7377C1316.49 32.3017 1311.75 33.5069 1307.4 35.3608L1309.03 36.2874C1307.92 36.3362 1306.99 39.4829 1306.11 42.4664L1306.11 42.4713L1306.11 42.4725C1305.87 43.2687 1305.64 44.0531 1305.41 44.7638C1303.59 44.6983 1302.98 45.3378 1302.41 45.9355C1301.67 46.7098 1301 47.414 1297.85 46.4249C1298.04 46.1635 1298.22 45.9327 1298.38 45.7248C1299.28 44.5667 1299.64 44.0969 1298.75 42.7254C1297.67 43.1253 1296.86 43.4095 1296.24 43.6296L1296.23 43.6301L1296.23 43.6309C1294.93 44.0863 1294.42 44.2671 1293.92 44.6305C1293.59 44.8695 1293.27 45.1882 1292.74 45.7155C1292.26 46.1894 1291.61 46.8322 1290.63 47.7384C1293.84 43.9384 1291.2 40.3937 1285.99 38.9576C1281.12 39.1701 1278.25 40.255 1275.86 41.1586C1272.99 42.246 1270.8 43.0709 1266.68 41.7975L1262.4 37.3261C1260.33 37.0812 1259.29 38.5646 1258.41 39.815C1257.54 41.0469 1256.83 42.0526 1255.46 40.9566C1251.07 40.2879 1250.99 40.9441 1250.91 41.5943C1250.83 42.2012 1250.76 42.8028 1247.18 42.3165L1247.19 42.6486C1247.06 42.6544 1246.95 42.5762 1246.83 42.498C1246.72 42.4199 1246.6 42.3417 1246.47 42.3475C1244.08 41.2012 1242.46 41.588 1240.78 41.9907C1239.77 42.2309 1238.74 42.4767 1237.51 42.4061L1232.52 43.955C1231.87 46.9031 1229.95 45.8134 1228.03 44.7237C1227.11 44.199 1226.19 43.6743 1225.4 43.6004L1223.78 46.9986C1216.37 43.995 1204.69 42.8413 1193.43 43.0006C1192.47 40.9601 1189.43 41.6705 1186.16 42.4347L1186.16 42.435C1185.77 42.5254 1185.38 42.6165 1184.99 42.704L1186.64 43.9627C1167.82 41.7902 1167.73 41.7941 1149.86 42.9077L1147.37 45.0124C1148.79 42.9541 1145.06 40.7881 1143.45 40.5256C1141.59 40.4328 1139.06 40.8251 1136.31 41.2537C1133.8 41.6435 1131.1 42.0633 1128.53 42.1757L1128.65 40.8396C1133.45 40.6297 1139.45 40.0854 1145.06 39.5758C1150 39.1274 1154.64 38.7058 1157.92 38.5628L1157.85 36.9023L1150.58 35.2232L1148.34 38.6485C1141.55 36.3916 1137.27 36.9403 1133.25 37.455C1131.5 37.6781 1129.81 37.8949 1127.98 37.874C1123.73 38.0597 1120.68 39.1914 1120.04 40.8828L1119.24 40.9177C1119.27 40.9164 1119.31 40.9515 1119.37 40.9984C1119.4 41.0292 1119.44 41.0651 1119.49 41.099C1114.8 39.0743 1112.34 38.1906 1106.37 36.8216L1112.4 36.5586L1106.23 33.5007C1104.39 32.9514 1103.82 33.7289 1103.16 34.6298C1102.07 36.1094 1100.73 37.9217 1093.15 34.7375L1091.3 33.1544L1089.93 32.6293C1089.9 33.8406 1089.74 33.2987 1089.57 32.4917L1088.96 32.2587C1088.22 33.6219 1084.68 33.7767 1080.65 32.9545C1080.62 32.0476 1080.59 31.1339 1080.56 30.2147C1078.64 30.4186 1076.93 30.8076 1075.53 31.3765C1073.7 32.1219 1072.41 33.1762 1072.29 34.5123C1070.69 34.2499 1070.32 33.9333 1069.84 33.2884C1069.81 33.2516 1069.78 33.2147 1069.75 33.1783L1069.71 33.126L1069.71 33.1249C1069.49 32.8668 1069.31 32.6462 1069.02 32.6591L1067.78 32.7132C1065.5 33.4315 1066.84 34.5669 1067.93 35.4864L1068.01 35.5527C1068.07 35.5992 1068.12 35.6452 1068.17 35.6904C1067.1 35.4298 1066.31 35.0299 1065.55 34.6483C1063.86 33.7922 1062.35 33.0278 1058.17 34.1312L1060.68 32.6906C1059.18 33.299 1057.96 32.9538 1056.69 32.5957C1054.84 32.0761 1052.9 31.5293 1049.9 33.8268L1049.5 38.8353L1054.46 36.6222L1046.34 41.6352C1045.23 41.2725 1045.3 40.8581 1045.4 40.2855C1045.46 39.9315 1045.53 39.5171 1045.34 39.0171C1043 40.059 1041.72 39.5799 1040.73 39.2102C1039.62 38.7946 1038.88 38.5172 1037.42 40.6937L1036.48 37.4076L1032.63 40.5705C1032.7 40.3457 1032.8 40.1038 1032.9 39.8498L1032.9 39.848C1033.72 37.8116 1034.84 35.0023 1029.59 34.0486L1024.25 33.6166L1025.73 37.2115C1024.9 36.7729 1024.2 36.1116 1023.53 35.4798C1021.85 33.8988 1020.37 32.502 1017.57 35.239L1017.18 32.2618C1014.8 31.6875 1014.44 32.9252 1014.13 33.9928C1013.83 35.0207 1013.57 35.8908 1011.61 34.834L1013.01 32.4436C1008.89 32.745 1005.23 33.6003 1001.78 34.4095C995.747 35.8209 990.315 37.0923 984.021 35.0409L984.052 33.7087C980.642 32.8595 974.648 33.7867 972.803 34.2001L973.895 34.8178L966.13 35.8225L965.894 34.5018L960.432 35.4059L960.537 33.7377C955.327 32.3016 950.588 33.5068 946.232 35.3607L947.869 36.2874C946.751 36.3362 945.824 39.4829 944.945 42.4664L944.944 42.4689C944.709 43.2663 944.477 44.052 944.246 44.7637C942.426 44.6983 941.816 45.3377 941.246 45.9355C940.507 46.7097 939.835 47.4139 936.687 46.4248C936.877 46.1646 937.055 45.9351 937.215 45.728L937.216 45.7265L937.218 45.7248C938.114 44.5666 938.478 44.0969 937.591 42.7254C936.508 43.126 935.697 43.4106 935.068 43.6309C933.769 44.0862 933.253 44.2671 932.754 44.6304C932.426 44.8695 932.104 45.1882 931.572 45.7155C931.094 46.1894 930.445 46.8322 929.468 47.7383C932.674 43.9383 930.034 40.3937 924.825 38.9576C919.961 39.1701 917.091 40.255 914.7 41.1586C911.823 42.246 909.641 43.0709 905.515 41.7974L901.237 37.3261C899.17 37.0812 898.125 38.5646 897.243 39.815C896.375 41.0469 895.666 42.0526 894.297 40.9565C889.907 40.2878 889.825 40.9441 889.743 41.5943C889.667 42.2012 889.592 42.8028 886.014 42.3165L886.029 42.6486C885.896 42.6544 885.782 42.5762 885.667 42.498C885.553 42.4198 885.439 42.3416 885.306 42.3474C882.921 41.2011 881.3 41.588 879.612 41.9907C878.606 42.2309 877.576 42.4767 876.346 42.4061L871.355 43.955C870.705 46.903 868.787 45.8133 866.869 44.7236C865.946 44.199 865.022 43.6743 864.24 43.6003L862.614 46.9986C855.206 43.9949 843.531 42.8413 832.268 43.0006C831.306 40.9601 828.265 41.6705 824.993 42.4347L824.992 42.435C824.605 42.5254 824.215 42.6165 823.824 42.7039L825.477 43.9627C806.658 41.7902 806.569 41.794 788.692 42.9076L786.211 45.0124C787.629 42.9541 783.896 40.7881 782.287 40.5256C780.424 40.4327 777.901 40.825 775.143 41.2537C772.636 41.6435 769.936 42.0633 767.362 42.1757L767.482 40.8396C772.287 40.6297 778.283 40.0854 783.896 39.5758C788.836 39.1274 793.48 38.7058 796.755 38.5627L796.683 36.9023L789.421 35.2231L787.175 38.6485C780.39 36.3916 776.104 36.9402 772.082 37.455C770.339 37.6781 768.645 37.8949 766.82 37.874C762.568 38.0597 759.512 39.1914 758.876 40.8828L758.078 40.9176C758.108 40.9163 758.149 40.9516 758.204 40.9984C758.24 41.0292 758.281 41.0651 758.329 41.099C753.64 39.0743 751.181 38.1906 745.21 36.8216L751.233 36.5585L745.065 33.5007C743.227 32.9513 742.655 33.7289 741.992 34.6298C740.903 36.1093 739.57 37.9217 731.985 34.7375L730.141 33.1544L727.795 32.2587C727.056 33.6219 723.513 33.7766 719.484 32.9545C719.461 32.279 719.438 31.5997 719.416 30.9172C718.948 31.0543 718.505 31.2075 718.09 31.3765C716.258 32.1219 714.974 33.1763 714.854 34.5124C713.246 34.2499 712.877 33.9333 712.405 33.2885C712.358 33.2343 712.313 33.1801 712.269 33.1275L712.267 33.1249C712.054 32.8668 711.872 32.6463 711.579 32.6591L710.339 32.7133C708.06 33.4316 709.405 34.567 710.495 35.4864L710.498 35.4894L710.505 35.4952L710.507 35.4971C710.585 35.5627 710.661 35.6273 710.735 35.6905C709.656 35.4298 708.867 35.03 708.114 34.6483C706.424 33.7923 704.915 33.0278 700.728 34.1312L703.239 32.6907C701.744 33.299 700.519 32.9538 699.247 32.5957C697.402 32.0761 695.461 31.5293 692.462 33.8269L692.06 38.8353L697.021 36.6222L688.898 41.6352C687.786 41.2725 687.857 40.8581 687.956 40.2855C688.017 39.9315 688.088 39.5171 687.897 39.0171C685.561 40.059 684.28 39.5799 683.291 39.2102C682.18 38.7946 681.438 38.5172 679.983 40.6937L679.041 37.4076L675.186 40.5705C675.264 40.3482 675.359 40.109 675.459 39.8581L675.46 39.8568L675.461 39.8526L675.462 39.8514L675.463 39.8477C676.276 37.8113 677.397 35.0024 672.15 34.0486L666.807 33.6166L668.295 37.2116C667.465 36.7728 666.763 36.1113 666.092 35.4794C664.413 33.8984 662.93 32.502 660.133 35.239L659.737 32.2618C657.361 31.6875 656.999 32.9253 656.687 33.9928C656.386 35.0207 656.132 35.8908 654.17 34.834L655.574 32.4436C651.448 32.7451 647.794 33.6004 644.337 34.4096C638.306 35.821 632.875 37.0923 626.581 35.041L626.611 33.7087C623.202 32.8595 617.208 33.7868 615.363 34.2001L616.455 34.8178L608.689 35.8225L608.454 34.5019L602.992 35.4059L603.096 33.7377C597.887 32.3017 593.147 33.5069 588.791 35.3608L590.429 36.2874C589.311 36.3362 588.384 39.4829 587.504 42.4664L587.503 42.4713L587.503 42.4725C587.268 43.2687 587.037 44.0531 586.806 44.7638C584.986 44.6983 584.376 45.3378 583.806 45.9355C583.067 46.7098 582.395 47.414 579.247 46.4249C579.438 46.1635 579.617 45.9327 579.777 45.7248C580.674 44.5667 581.038 44.0969 580.15 42.7254C579.07 43.1253 578.259 43.4095 577.632 43.6296L577.63 43.6301L577.628 43.6309C576.329 44.0863 575.813 44.2671 575.314 44.6305C574.986 44.8695 574.664 45.1882 574.132 45.7155C573.654 46.1894 573.005 46.8322 572.027 47.7384C575.234 43.9384 572.594 40.3937 567.384 38.9576C562.52 39.1701 559.65 40.255 557.26 41.1586C554.383 42.246 552.201 43.0709 548.074 41.7975L543.797 37.3261C541.73 37.0812 540.684 38.5646 539.803 39.815C538.934 41.0469 538.225 42.0526 536.856 40.9566C532.467 40.2879 532.384 40.9441 532.303 41.5943C532.227 42.2012 532.151 42.8028 528.574 42.3165L528.589 42.6486C528.456 42.6544 528.341 42.5762 528.227 42.498C528.113 42.4199 527.998 42.3417 527.865 42.3475C525.481 41.2012 523.86 41.588 522.172 41.9907C521.165 42.2309 520.135 42.4767 518.905 42.4061L513.915 43.955C513.265 46.9031 511.347 45.8134 509.429 44.7237C508.505 44.199 507.582 43.6743 506.8 43.6004L505.174 46.9986C497.766 43.995 486.09 42.8413 474.827 43.0006C473.865 40.9601 470.824 41.6705 467.553 42.4347L467.551 42.435C467.164 42.5254 466.774 42.6165 466.384 42.704L468.036 43.9627C449.217 41.7902 449.129 41.7941 431.252 42.9077L428.77 45.0124C430.189 42.9541 426.456 40.7881 424.847 40.5256C422.984 40.4328 420.461 40.8251 417.703 41.2537C415.196 41.6435 412.495 42.0633 409.922 42.1757L410.041 40.8396C414.847 40.6297 420.843 40.0854 426.457 39.5758C431.396 39.1274 436.04 38.7058 439.315 38.5628L439.242 36.9023L431.981 35.2232L429.735 38.6485C422.95 36.3916 418.664 36.9403 414.642 37.455C412.898 37.6781 411.205 37.8949 409.379 37.874C405.128 38.0597 402.071 39.1914 401.435 40.8828L400.638 40.9177C400.668 40.9164 400.709 40.9515 400.763 40.9984C400.799 41.0292 400.841 41.0651 400.889 41.099C396.199 39.0743 393.741 38.1906 387.769 36.8216L393.792 36.5586L387.624 33.5007C385.787 32.9514 385.215 33.7289 384.552 34.6298C383.463 36.1094 382.13 37.9217 374.545 34.7375L372.701 33.1544L371.325 32.6293C371.292 33.8406 371.139 33.2987 370.965 32.4917L370.354 32.2587C369.615 33.6219 366.073 33.7767 362.043 32.9545C362.013 32.0476 361.983 31.1339 361.953 30.2147C360.038 30.4186 358.323 30.8076 356.925 31.3765C355.094 32.1219 353.809 33.1762 353.69 34.5123C352.082 34.2499 351.713 33.9333 351.241 33.2884C351.193 33.2338 351.148 33.1791 351.104 33.126L351.103 33.1249C350.89 32.8668 350.708 32.6462 350.415 32.6591L349.175 32.7132C346.896 33.4315 348.241 34.5669 349.331 35.4864L349.409 35.5527C349.464 35.5992 349.518 35.6452 349.571 35.6904C348.492 35.4298 347.703 35.0299 346.95 34.6483C345.26 33.7922 343.751 33.0278 339.564 34.1312L342.075 32.6906C340.58 33.299 339.355 32.9538 338.083 32.5957C336.238 32.0761 334.297 31.5293 331.298 33.8268L330.895 38.8353L335.857 36.6222L327.734 41.6352C326.622 41.2725 326.693 40.8581 326.792 40.2855C326.853 39.9315 326.924 39.5171 326.733 39.0171C324.397 40.059 323.116 39.5799 322.127 39.2102C321.016 38.7946 320.274 38.5172 318.819 40.6937L317.877 37.4076L314.022 40.5705C314.101 40.3457 314.197 40.1038 314.299 39.8498L314.299 39.848C315.112 37.8116 316.233 35.0023 310.986 34.0486L305.643 33.6166L307.131 37.2115C306.301 36.7728 305.598 36.1113 304.927 35.4794C303.249 33.8984 301.766 32.502 298.969 35.239L298.573 32.2618C296.197 31.6875 295.835 32.9252 295.523 33.9928C295.222 35.0207 294.967 35.8908 293.006 34.834L294.41 32.4436C290.284 32.745 286.63 33.6003 283.173 34.4095C277.143 35.8209 271.711 37.0923 265.417 35.0409L265.448 33.7087C262.038 32.8595 256.044 33.7867 254.199 34.2001L255.291 34.8178L247.526 35.8225L247.29 34.5018L241.828 35.4059L241.933 33.7377C236.723 32.3016 231.984 33.5068 227.628 35.3607L229.265 36.2874C228.147 36.3362 227.22 39.4829 226.341 42.4664L226.34 42.4689C226.105 43.2663 225.873 44.052 225.642 44.7637C223.823 44.6983 223.212 45.3377 222.642 45.9355C221.903 46.7097 221.231 47.4139 218.083 46.4248C218.273 46.1646 218.451 45.9351 218.611 45.728L218.613 45.7265L218.614 45.7248C219.51 44.5666 219.874 44.0969 218.987 42.7254C217.905 43.126 217.093 43.4106 216.464 43.6309C215.165 44.0862 214.649 44.2671 214.15 44.6304C213.822 44.8695 213.5 45.1882 212.968 45.7155C212.49 46.1894 211.841 46.8322 210.864 47.7383C214.07 43.9383 211.43 40.3937 206.221 38.9576C201.357 39.1701 198.487 40.255 196.096 41.1586C193.22 42.246 191.037 43.0709 186.911 41.7974L182.633 37.3261C180.566 37.0812 179.521 38.5646 178.639 39.815C177.771 41.0469 177.062 42.0526 175.693 40.9565C171.303 40.2878 171.221 40.9441 171.139 41.5943C171.063 42.2012 170.988 42.8028 167.411 42.3165L167.425 42.6486C167.292 42.6544 167.178 42.5762 167.064 42.498C166.949 42.4198 166.835 42.3416 166.702 42.3474C164.317 41.2011 162.696 41.588 161.008 41.9907C160.002 42.2309 158.972 42.4767 157.742 42.4061L152.751 43.955C152.101 46.903 150.183 45.8133 148.265 44.7236C147.342 44.199 146.418 43.6743 145.637 43.6003L144.01 46.9986C136.602 43.9949 124.927 42.8413 113.664 43.0006C112.702 40.9601 109.661 41.6705 106.389 42.4347L106.388 42.435C106.001 42.5254 105.611 42.6165 105.22 42.7039L106.873 43.9627C88.0536 41.7902 87.965 41.794 70.0882 42.9076L67.6066 45.0124C69.0253 42.9541 65.2923 40.7881 63.6835 40.5256C61.8204 40.4327 59.2968 40.825 56.5395 41.2537C54.0322 41.6435 51.3316 42.0633 48.7585 42.1757L48.8777 40.8396C53.6829 40.6297 59.6793 40.0854 65.2926 39.5758C70.2323 39.1274 74.876 38.7058 78.1512 38.5627L78.0787 36.9023L70.8174 35.2231L68.571 38.6485C61.7865 36.3916 57.4999 36.9402 53.4781 37.455C51.7348 37.6781 50.0413 37.8949 48.2157 37.874C43.9642 38.0597 40.9077 39.1914 40.2717 40.8828L39.4746 40.9176C39.5041 40.9163 39.5451 40.9516 39.5997 40.9984C39.6355 41.0292 39.6773 41.0651 39.7256 41.099C35.0356 39.0743 32.5772 38.1906 26.6058 36.8216L32.6286 36.5585L26.4607 33.5007C24.6231 32.9513 24.051 33.7289 23.3881 34.6298C22.2995 36.1093 20.9661 37.9217 13.3812 34.7375L11.5372 33.1544L9.19088 32.2587C8.45174 33.6219 4.9089 33.7766 0.87969 32.9545C0.576602 23.9841 0.333031 14.3448 0.11851 5.3706L0.118395 5.36863L0.118099 5.35589C0.078426 3.64135 0.0387563 1.92687 0 0.233199L1.18593 0.181396Z" fill="#E1E1E1"/>
<path d="M39.7256 41.099C39.7997 41.151 39.8892 41.1985 39.9963 41.216L39.7256 41.099Z" fill="#E1E1E1"/>
<path d="M39.9963 41.216C40.0319 41.2218 40.0695 41.2244 40.109 41.2226L40.0205 41.2265L39.9963 41.216Z" fill="#E1E1E1"/>
<path d="M400.889 41.099C400.963 41.1511 401.053 41.1985 401.16 41.2161L400.889 41.099Z" fill="#E1E1E1"/>
<path d="M401.16 41.2161C401.168 41.2174 401.176 41.2186 401.185 41.2195C401.192 41.2204 401.2 41.2211 401.207 41.2217C401.219 41.2225 401.231 41.2231 401.243 41.2232C401.253 41.2233 401.263 41.2231 401.273 41.2227L401.184 41.2265L401.16 41.2161Z" fill="#E1E1E1"/>
<path d="M758.329 41.099C758.404 41.151 758.493 41.1985 758.6 41.216L758.329 41.099Z" fill="#E1E1E1"/>
<path d="M758.6 41.216C758.636 41.2218 758.673 41.2244 758.713 41.2226L758.624 41.2265L758.6 41.216Z" fill="#E1E1E1"/>
<path d="M1119.49 41.099C1119.57 41.1511 1119.66 41.1985 1119.76 41.2161L1119.49 41.099Z" fill="#E1E1E1"/>
<path d="M1119.76 41.2161C1119.77 41.2174 1119.78 41.2186 1119.79 41.2195C1119.8 41.2204 1119.8 41.2211 1119.81 41.2217C1119.82 41.2225 1119.83 41.2231 1119.85 41.2232L1119.79 41.2265L1119.76 41.2161Z" fill="#E1E1E1"/>
</svg>
