<svg width="140" height="40" viewBox="0 0 140 40" fill="none" xmlns="http://www.w3.org/2000/svg">
<path fill-rule="evenodd" clip-rule="evenodd" d="M64.5733 16.8442L70.1468 20.1832V26.0264H62.0652V21.8527H58.1638V34.652H62.0652V29.3653H70.1468V36.5997L64.5733 39.9387H55.377L49.8035 36.5997V20.4614L55.377 17.1225H64.5733V16.8442ZM42.5579 16.8442L48.1314 20.1832V36.5997L42.5579 39.9387H33.3616L27.7881 36.5997V20.4614L33.3616 17.1225H42.5579V16.8442ZM10.5103 17.4007C10.5103 17.4007 13.0184 26.3046 13.2971 27.1393C13.5757 26.3046 15.8052 17.4007 15.8052 17.4007H25.8374V39.6604H17.7559V29.3653C16.9198 32.9825 14.9691 39.6604 14.9691 39.6604H11.3463C11.3463 39.6604 9.67429 32.9825 8.55959 29.3653V39.6604H0.478027V17.4007H10.5103ZM80.1791 17.4007V25.4699C81.2938 23.5221 84.9165 17.4007 84.9165 17.4007H93.8342C93.8342 17.4007 87.146 27.1393 86.8673 27.4176C87.146 27.9741 94.1128 38.8257 94.6702 39.6604H85.4739C85.4739 39.6604 81.5725 33.539 80.4578 31.5913V39.6604H72.3762V17.4007H80.1791ZM109.997 17.4007L115.292 20.4614V26.5829C115.292 26.5829 113.063 27.9741 111.948 28.5306C113.063 29.0871 115.849 30.4783 115.849 30.4783V36.5997L110.276 39.9387H95.7848V17.679H109.997V17.4007ZM133.685 17.4007L139.537 39.6604H131.177C131.177 39.6604 130.619 36.3215 130.341 35.765H125.324C125.324 36.3215 124.767 39.6604 124.767 39.6604H116.407L121.423 17.4007H133.685ZM39.7712 22.1309H35.8698V34.9302H39.7712V22.1309ZM107.768 31.0348H103.866V34.652H107.768V31.0348ZM127.832 22.4092C127.554 22.9657 126.439 29.9218 126.16 30.7566H129.226C129.226 29.6436 128.111 22.9657 127.832 22.4092ZM107.768 22.4092H103.866V26.0264H107.768V22.4092Z" fill="#B20933"/>
<path fill-rule="evenodd" clip-rule="evenodd" d="M23.3292 1.26262V6.5493L21.0998 7.94053L23.3292 9.33176V14.3402H10.2314V1.26262H23.3292ZM80.7362 1.26262V10.4447H73.212V14.3402H69.0319V1.26262H80.7362ZM111.669 1.26262V4.60157V14.3402H107.21V10.4447H105.817L103.03 14.3402H98.0141L101.08 10.1665H98.5714V1.26262H111.669ZM126.996 1.26262V14.3402H122.538V10.4447H121.144L118.357 14.3402H113.341L116.407 10.1665H113.899V1.26262H126.996ZM37.8203 1.26262V4.32333H30.0174V5.9928H33.9188V9.05351H30.0174V11.0012H37.8203V14.0619H25.5586V0.984375H37.8203V1.26262ZM43.6725 1.26262V6.5493H47.5739V1.26262H52.0327V14.3402H47.5739V10.1665H39.2136V1.54087H43.6725V1.26262ZM66.5238 1.26262V4.32333H58.7209V5.9928H62.6223V9.05351H58.7209V11.0012H66.5238V14.0619H54.2621V0.984375H66.5238V1.26262ZM87.7031 1.26262V5.9928H91.6046V1.26262H96.0634V14.3402H91.6046V9.61H87.7031V14.3402H83.2443V1.26262H87.7031ZM18.313 9.33176H15.2476V11.5577H19.4277V10.1665L18.313 9.33176ZM77.1135 4.32333H73.4907V7.10579H77.1135V4.32333ZM107.489 4.32333H103.866V7.10579H107.489V4.32333ZM122.538 4.32333H118.915V7.10579H122.538V4.32333ZM19.7064 4.32333H15.2476V6.5493H18.313L19.7064 5.71456V4.32333Z" fill="#B20933"/>
</svg>
