<svg width="121" height="31" viewBox="0 0 121 31" fill="none" xmlns="http://www.w3.org/2000/svg">
<path d="M73.7253 9.06216C72.0532 9.06216 70.3812 9.61865 68.7091 10.4534C68.7091 6.00145 68.7091 2.106 68.9878 0.436523L59.7915 2.10601V2.94074H60.6275C62.0209 3.21899 62.2996 3.77548 62.5783 5.72321C62.8569 9.06216 62.8569 26.8699 62.5783 29.6524C65.0863 30.2089 67.8731 30.4871 70.3812 30.7654C77.6267 30.7654 82.0855 26.3134 82.0855 19.079C81.8068 13.2359 78.4627 9.06216 73.7253 9.06216ZM70.3812 29.3741C69.8238 29.3741 69.2665 29.3741 68.7091 29.0959C68.7091 27.1482 68.4304 18.8008 68.4304 11.5664C68.9878 11.2881 69.8238 11.2881 70.6598 11.2881C73.7253 11.2881 75.3973 14.9053 75.3973 19.3573C75.3973 24.9222 73.4466 29.3741 70.3812 29.3741ZM24.9571 9.3404L23.5637 9.61865C22.1704 5.44495 20.2196 2.94074 16.5969 2.94074H11.8594C11.5807 5.72321 11.5807 10.1751 11.5807 14.9053H14.9248C17.1542 14.9053 17.9903 13.2358 18.5476 11.0099H19.6623V21.0267H18.5476C17.9903 18.5225 17.1542 17.1313 14.9248 16.8531H11.8594C11.8594 20.4703 11.8594 23.531 12.1381 25.2004C12.4168 27.7047 12.9741 29.0959 14.9248 29.3741L16.5969 29.6524V30.7654H0.712402V29.6524L2.10578 29.3741C4.0565 29.0959 4.61385 27.9829 4.89253 25.2004C5.1712 20.7485 5.1712 11.8446 4.89253 6.83618C4.61385 4.33197 4.0565 3.21899 2.10578 2.94074L0.712402 2.10601V0.993018H24.9571V9.3404ZM32.76 8.78391C39.7269 8.78391 43.071 13.5141 43.071 19.6355C43.071 25.7569 39.1696 30.7654 32.4814 30.7654C25.5145 30.7654 22.1704 26.0352 22.1704 19.9138C21.8917 13.5141 25.7932 8.78391 32.76 8.78391ZM32.4814 10.1751C29.4159 10.1751 28.5799 14.3488 28.5799 19.9138C28.5799 25.4787 29.9733 29.6524 32.76 29.6524C35.5468 29.6524 36.6615 25.4787 36.6615 19.9138C36.6615 14.3488 35.2681 10.1751 32.4814 10.1751ZM83.7576 19.9138C83.7576 14.0706 87.3803 8.78391 94.3472 8.78391C100.199 8.78391 102.986 12.9576 102.986 18.8008H89.8884C89.8884 23.8092 92.3965 27.7047 97.134 27.7047C99.3634 27.7047 100.478 27.1482 101.871 26.0352L102.429 26.8699C101.035 28.8176 97.97 30.7654 94.0685 30.7654C87.9377 30.7654 83.7576 26.3134 83.7576 19.9138ZM90.1671 17.4095L96.5766 17.1313C96.5766 14.3488 96.298 10.1751 93.7899 10.1751C91.5605 10.1751 90.1671 14.0706 90.1671 17.4095ZM119.428 15.1836L118.313 15.4618C117.199 11.8446 115.527 10.1751 113.018 10.1751C111.346 10.1751 110.232 11.5664 110.232 13.2359C110.232 15.1836 111.625 16.0183 115.527 17.4095C119.428 18.8008 120.543 20.4703 120.543 23.2527C120.543 27.7047 117.199 30.2089 111.625 30.2089C109.117 30.2089 106.609 29.6524 104.38 28.8176L104.101 22.6962L105.216 22.418C106.609 26.5917 108.56 28.2611 111.346 28.2611C113.854 28.2611 114.691 26.5917 114.691 24.9222C114.691 23.2527 113.854 22.418 110.232 21.0267C106.609 19.6355 104.658 18.5225 104.658 14.6271C104.658 11.0099 107.724 7.94917 113.018 7.94917C115.527 7.94917 117.756 8.50567 119.149 9.06216L119.428 15.1836ZM58.6768 15.1836C55.8901 13.2358 52.8246 14.0706 52.2673 15.1836C51.9886 18.8008 51.9886 22.6962 52.2673 26.3134C52.2673 27.9829 52.8246 28.8176 54.218 29.0959H55.8901V30.2089H43.071V29.0959H43.907C45.3004 28.8176 45.5791 28.2611 45.8578 26.3134C46.1364 22.418 46.1364 18.2443 45.8578 14.3488C45.8578 12.6794 45.3004 11.8446 43.907 11.5664H43.071V10.7316L52.2673 9.06216V13.7923C54.4967 8.78391 58.6768 8.22742 60.9062 9.61865L58.6768 15.1836Z" fill="black"/>
</svg>
