<svg width="245" height="45" viewBox="0 0 245 45" fill="none" xmlns="http://www.w3.org/2000/svg">
<path d="M52.2266 14.3932V13.2802H56.9641L61.9802 22.7406L66.9963 13.2802H71.4552V14.3932H69.5044V26.636H71.4552V27.749H65.3243V26.636H67.275V17.1756C67.275 17.1756 67.275 16.8974 67.275 16.6192C67.275 16.3409 67.275 16.0627 67.275 15.7844C67.275 15.5062 67.275 14.9497 67.275 14.6714H66.9963L66.1603 16.8974L61.9802 24.4101H60.8655L56.6854 16.8974L55.8493 14.3932H55.5707V15.7844C55.5707 16.0627 55.5707 16.3409 55.5707 16.6192V17.1756V26.636H57.2427V27.749H52.2266V26.636H54.1773V14.3932H52.2266ZM78.7007 28.0272H72.5699V26.9143H74.5206V14.6714H72.5699V13.5584H78.7007V14.6714H77.0287V23.5753L76.75 25.2448L77.8647 23.5753L84.8316 15.2279V14.6714H82.8808V13.5584H89.0117V14.6714H87.0609V26.9143H89.0117V28.0272H82.8808V26.9143H84.5529V18.0104L84.8316 16.3409L83.7169 18.0104L76.75 26.636V27.1925H78.7007V28.0272ZM95.4212 14.3932C95.4212 16.3409 95.1425 18.0104 95.1425 19.4016C94.8639 20.7928 94.8639 21.9058 94.5852 22.7406C94.3065 23.5753 94.3065 24.41 94.0278 24.9665C93.7491 25.523 93.4705 26.0795 93.1918 26.636C93.1918 26.9143 92.9131 27.1925 92.6344 27.4708C92.3558 27.749 92.3558 28.0272 92.0771 28.3055H89.569V25.8013H92.0771C92.3558 25.523 92.6344 24.9665 92.6344 24.4101C92.9131 23.8536 92.9132 23.0188 93.1918 22.1841C93.4705 21.3493 93.4705 20.2364 93.4705 19.1234C93.4705 18.0104 93.7492 16.6192 93.7492 14.9497H91.5198V13.8367H103.781V14.9497H101.831V27.1925H103.781V28.3055H97.6506V27.1925H99.3227V14.9497H95.4212V14.3932ZM105.732 20.7928C105.732 19.6799 106.011 18.5669 106.29 17.7321C106.568 16.8974 107.126 16.0627 107.683 15.2279C108.24 14.6714 109.076 14.1149 109.912 13.5584C110.748 13.2802 111.863 13.002 112.978 13.002C114.092 13.002 115.207 13.2802 116.043 13.5584C116.879 13.8367 117.715 14.3932 118.551 15.2279C119.109 15.7844 119.666 16.6192 119.945 17.7321C120.223 18.8451 120.502 19.6799 120.502 20.7928C120.502 21.9058 120.223 23.0188 119.945 23.8536C119.666 24.6883 119.109 25.523 118.551 26.3578C117.994 26.9143 117.158 27.4708 116.043 28.0272C115.207 28.3055 114.092 28.5837 112.978 28.5837C111.863 28.5837 110.748 28.3055 109.912 28.0272C109.076 27.749 108.24 27.1925 107.683 26.3578C107.126 25.8013 106.568 24.9665 106.29 23.8536C106.011 22.7406 105.732 21.9058 105.732 20.7928ZM108.24 20.7928C108.24 21.6276 108.24 22.4623 108.519 23.2971C108.798 24.1318 109.076 24.6883 109.355 25.2448C109.634 25.8013 110.191 26.3578 111.027 26.636C111.584 26.9143 112.42 27.1925 113.256 27.1925C114.092 27.1925 114.65 26.9143 115.207 26.636C115.764 26.3578 116.322 25.8013 116.601 25.2448C116.879 24.6883 117.158 24.1318 117.437 23.2971C117.715 22.4623 117.715 21.6276 117.715 20.7928C117.715 19.9581 117.715 19.1234 117.437 18.2886C117.158 17.4539 116.879 16.8974 116.601 16.3409C116.322 15.7844 115.764 15.2279 114.928 14.9497C114.371 14.6714 113.535 14.3932 112.699 14.3932C111.863 14.3932 111.027 14.6714 110.47 14.9497C109.912 15.2279 109.355 15.7844 109.076 16.3409C108.798 16.8974 108.519 17.4539 108.24 18.2886C108.24 19.1234 108.24 19.9581 108.24 20.7928ZM133.6 24.1318H134.993V27.4708C134.436 27.749 133.878 28.0272 133.321 28.0272C132.764 28.3055 131.928 28.3055 131.092 28.3055C129.698 28.3055 128.584 28.0272 127.748 27.749C126.633 27.4708 125.797 26.9143 125.239 26.3578C124.403 25.8013 124.125 24.9665 123.567 24.1318C123.01 23.2971 123.01 21.9058 123.01 20.7928C123.01 19.4016 123.289 18.2886 123.567 17.1756C124.125 16.3409 124.682 15.5062 125.239 14.9497C126.075 14.3932 126.911 13.8367 127.748 13.5584C128.584 13.2802 129.698 13.002 130.813 13.002C131.37 13.002 131.649 13.002 132.206 13.002C132.485 13.002 133.042 13.002 133.321 13.2802C133.6 13.2802 133.878 13.5584 134.157 13.5584C134.436 13.5584 134.714 13.8367 134.993 13.8367V17.4539H133.321V15.2279L133.042 14.6714C132.764 14.6714 132.485 14.3932 132.206 14.3932C131.928 14.3932 131.37 14.1149 130.534 14.1149C129.698 14.1149 129.141 14.1149 128.305 14.3932C127.748 14.6714 127.19 14.9497 126.633 15.5062C126.075 16.0627 125.797 16.6192 125.518 17.4539C125.239 18.2886 124.961 19.1234 124.961 20.2364C124.961 22.1841 125.518 23.8536 126.354 24.9665C127.469 26.0795 128.862 26.636 130.534 26.636C131.092 26.636 131.37 26.636 131.928 26.636C132.206 26.636 132.485 26.3578 132.764 26.3578L133.042 26.0795V24.1318H133.6ZM147.812 13.2802V16.6192H146.419V14.9497L145.861 14.3932H140.845V19.9581H144.468L144.747 19.6799V18.8451H146.14V22.4623H144.747V21.6276L144.468 21.3493H140.845V27.1925H146.419L146.976 26.636V24.6883H148.369V28.3055H136.944V27.1925H138.895V14.9497H136.944V13.8367H147.812V13.2802ZM149.763 14.3932V13.2802H151.992C152.55 13.2802 153.386 13.2802 153.943 13.2802C154.779 13.2802 155.336 13.2802 156.172 13.2802C157.008 13.2802 157.566 13.2802 158.402 13.5584C159.238 13.8367 159.795 13.8367 160.352 14.3932C160.91 14.6714 161.467 15.2279 161.746 15.7844C162.025 16.3409 162.303 17.1756 162.303 18.0104C162.303 18.8451 162.025 19.6799 161.746 20.2364C161.467 20.7929 160.91 21.3493 160.352 21.6276C159.795 21.9058 158.959 22.1841 158.402 22.4623C157.566 22.7406 156.73 22.7406 155.894 22.7406H155.615C155.336 22.7406 154.779 22.7406 154.5 22.7406H154.222V27.1925H156.451V28.3055H150.042V27.1925H151.992V14.9497H149.763V14.3932ZM154.222 21.0711H154.5C154.5 21.0711 154.779 21.0711 155.058 21.0711C155.336 21.0711 155.336 21.0711 155.615 21.0711H155.894C156.451 21.0711 157.008 21.0711 157.566 20.7928C158.123 20.7928 158.402 20.5146 158.959 20.2364C159.238 19.9581 159.516 19.6799 159.795 19.1234C160.074 18.5669 160.074 18.0104 160.074 17.4539C160.074 16.3409 159.795 15.5062 158.959 14.9497C158.123 14.3932 157.287 14.1149 155.894 14.1149C155.615 14.1149 155.336 14.1149 155.058 14.1149C154.779 14.1149 154.5 14.1149 154.5 14.1149V21.0711H154.222ZM176.794 14.3932H174.844V26.636H177.073V31.088H175.401V28.0272L174.844 27.4708H163.418L162.861 28.0272V31.088H161.189V26.636H163.139C163.418 26.0795 163.975 25.2448 164.254 24.4101C164.533 23.5753 164.811 22.4623 165.09 21.3493C165.369 20.2364 165.647 19.1234 165.647 18.0104C165.926 16.8974 165.926 15.5062 165.926 14.3932H163.697V13.2802H176.237V14.3932H176.794ZM172.614 26.9143V14.6714H168.155C168.155 16.3409 167.877 18.0104 167.598 19.1234C167.319 20.5146 167.041 21.6276 167.041 22.7406C166.762 23.8536 166.483 24.6883 166.205 25.2448C165.926 25.8013 165.647 26.3578 165.369 26.9143H172.614ZM184.04 28.0272H177.909V26.9143H179.86V14.6714H177.909V13.5584H184.04V14.6714H182.368V23.5753L182.089 25.2448L183.204 23.5753L190.171 15.2279V14.6714H188.22V13.5584H194.351V14.6714H192.4V26.9143H194.351V28.0272H188.22V26.9143H189.892V18.0104L190.171 16.3409L189.056 18.0104L182.089 26.636V27.1925H184.04V28.0272ZM206.613 13.2802V16.6192H205.219V14.9497L204.662 14.3932H199.646V19.9581H203.268L203.547 19.6799V18.8451H204.941V22.4623H203.547V21.6276L203.268 21.3493H199.646V27.1925H205.219L205.777 26.636V24.6883H207.17V28.3055H195.744V27.1925H197.695V14.9497H195.744V13.8367H206.613V13.2802ZM209.678 26.9143C209.678 26.3578 209.957 26.0795 210.235 25.8013C210.514 25.523 210.793 25.523 211.35 25.523C211.907 25.523 212.186 25.523 212.465 25.8013C212.743 26.0795 213.022 26.3578 213.022 26.9143C213.022 27.4708 212.743 27.749 212.465 28.0272C212.186 28.3055 211.629 28.3055 211.35 28.3055C210.793 28.3055 210.514 28.3055 210.235 28.0272C209.678 27.4708 209.678 27.1925 209.678 26.9143ZM219.153 26.9143H220.825V28.0272H214.694V26.9143H216.645V14.6714H214.694V13.5584H216.924C217.481 13.5584 218.317 13.5584 218.874 13.5584C219.71 13.5584 220.268 13.5584 221.104 13.5584C221.94 13.5584 222.497 13.5584 223.333 13.8367C223.89 14.1149 224.726 14.1149 225.005 14.6714C225.562 14.9497 225.841 15.5062 226.12 16.0627C226.398 16.6192 226.677 17.1756 226.677 18.0104C226.677 19.1234 226.398 19.9581 225.841 20.5146C225.284 21.3493 224.448 21.6276 223.333 21.9058L227.513 27.4708H228.907V28.5837H225.562L221.382 22.1841H219.153V26.9143ZM220.825 20.5146C221.94 20.5146 222.776 20.2364 223.333 19.6799C223.89 19.1234 224.169 18.2886 224.169 17.1756C224.169 16.0627 223.89 15.5062 223.333 14.9497C222.776 14.3932 221.94 14.1149 220.825 14.1149C220.546 14.1149 220.268 14.1149 219.989 14.1149C219.71 14.1149 219.432 14.1149 219.432 14.1149V20.2364H220.825V20.5146ZM242.562 23.0188C242.562 23.8536 242.562 24.6883 242.283 25.2448C242.004 25.8013 241.726 26.3578 241.168 26.9143C240.611 27.4708 240.054 27.749 239.496 27.749C238.939 28.0272 238.103 28.0272 237.267 28.0272C235.316 28.0272 233.644 27.749 232.808 26.9143C231.693 26.0795 231.136 24.9665 231.136 23.2971V14.3932H229.185V13.2802H235.037V14.3932H233.365V22.7406C233.365 23.5753 233.365 24.1318 233.644 24.6883C233.923 25.2448 234.201 25.523 234.48 25.8013C234.759 26.0795 235.316 26.3578 235.873 26.3578C236.431 26.3578 236.988 26.636 237.545 26.636C238.66 26.636 239.775 26.3578 240.332 25.8013C240.89 25.2448 241.447 24.1318 241.447 22.7406V14.3932H239.775V13.2802H244.791V14.3932H242.84V23.0188H242.562Z" fill="#F11112"/>
<path d="M76.1926 39.1565C76.1926 39.9912 75.9139 40.826 75.0779 41.3825C74.2419 41.9389 73.6845 42.2172 72.8485 42.2172C72.5698 42.2172 72.5698 42.2172 72.2911 42.2172C72.0125 42.2172 71.7338 42.2172 71.7338 42.2172C70.8977 42.2172 70.3404 42.2172 69.783 42.2172V41.6607C70.3404 41.6607 70.6191 41.3825 70.6191 41.1042V34.1481C70.6191 33.8698 70.3404 33.5916 69.5044 33.5916L69.783 33.0351C70.6191 33.0351 71.1764 33.3133 71.4551 33.3133C71.7338 33.3133 72.0125 33.3133 72.2911 33.3133C72.8485 33.3133 73.1271 33.3133 73.1271 33.3133C73.9632 33.3133 74.5205 33.3133 74.7992 33.5916C75.3566 33.8698 75.6352 34.4263 75.6352 34.9828C75.6352 35.261 75.6352 35.5393 75.3565 36.0958C75.0779 36.374 74.7992 36.9305 74.5205 36.9305C75.6352 37.2088 76.1926 38.0435 76.1926 39.1565ZM75.0779 39.4347C75.0779 38.3217 74.5205 37.487 73.4058 37.487C73.1272 37.487 72.8485 37.487 72.5698 37.7653L72.2911 37.487C72.2911 37.487 72.5698 37.2088 72.8485 36.9305C73.1272 36.9305 73.1271 36.9305 73.1271 36.9305C73.1271 36.9305 73.4058 36.9305 73.6845 36.9305C74.2419 36.6523 74.2419 36.0958 74.2419 35.5393C74.2419 34.4263 73.6845 33.8698 72.5698 33.8698C72.2911 33.8698 72.0124 33.8698 71.7338 33.8698V40.826C72.2911 41.1042 72.5698 41.3825 73.4058 41.3825C73.9632 41.3825 74.2418 41.3825 74.5205 41.1042C74.7992 40.5477 75.0779 39.9912 75.0779 39.4347ZM87.0609 38.6C87.0609 39.4347 86.7822 40.2695 86.5036 40.826C86.2249 41.3825 85.3889 41.9389 84.8315 41.9389C84.5529 41.9389 84.5528 41.9389 84.2741 41.9389C83.9955 41.9389 83.7168 41.9389 83.4382 41.9389C83.1595 41.9389 82.8808 41.6607 82.3234 41.3825L83.1595 40.5477C83.7168 41.1042 84.2742 41.3825 84.8315 41.3825C85.1102 41.3825 85.3889 41.3825 85.9462 41.1042C86.2249 40.826 86.2249 40.826 86.2249 40.826C86.2249 40.826 86.2249 40.5477 86.5036 40.2695C86.5036 39.9912 86.7822 39.4347 86.7822 39.1565V38.8782C86.2249 39.1565 85.9462 39.4347 85.6675 39.4347C85.3888 39.4347 85.1102 39.4347 84.8315 39.1565C84.5529 38.8782 84.5528 38.8782 84.5528 38.8782C84.2742 38.8782 83.9955 38.8782 83.9955 39.1565L83.7168 38.8782C83.7168 38.6 83.9955 38.6 84.2741 38.3218C84.5528 38.0435 84.8315 38.0435 84.8315 38.0435C85.1102 38.0435 85.3888 38.0435 85.6675 38.3218C85.9462 38.6 86.2249 38.6 86.2249 38.6C86.2249 38.6 86.2249 38.6 86.5036 38.3218C86.7822 38.3218 86.7822 38.0435 86.7822 38.0435V37.7653C86.7822 37.487 86.5036 36.9305 86.2249 36.9305C85.9462 36.6523 85.6675 36.6523 85.1102 36.6523C84.8315 36.6523 84.5528 36.6523 84.5528 36.6523C83.9955 36.6523 83.7168 37.2088 83.7168 37.7653H83.1595L83.4382 36.9305V36.374C83.7168 36.0958 83.9955 36.0958 84.2741 36.0958C84.5528 36.0958 84.8315 36.0958 85.1102 36.0958C85.3889 36.0958 85.6675 36.0958 85.9462 36.0958C86.5036 36.0958 87.0609 36.6523 87.3396 36.9305C87.6183 37.2088 87.0609 38.0435 87.0609 38.6ZM93.1918 36.0958L92.9131 38.0435H92.3557C92.3557 37.7653 92.3557 37.7653 92.3557 37.487C92.3557 37.2088 92.0771 36.9305 91.7984 36.9305C91.7984 36.9305 91.5197 36.9305 91.241 36.9305H90.9624V41.3825C90.9624 41.6607 90.9623 41.6607 91.241 41.6607C91.241 41.6607 91.5197 41.6607 91.7984 41.6607V42.2172C91.5197 42.2172 91.5197 42.2172 91.241 42.2172C90.9623 42.2172 90.6837 42.2172 90.6837 42.2172C90.6837 42.2172 90.405 42.2172 90.1263 42.2172C89.8477 42.2172 89.569 42.2172 89.569 42.2172V41.6607H89.8476C90.1263 41.6607 90.1263 41.6607 90.1263 41.3825V36.9305H89.8476C89.569 36.9305 89.2903 36.9305 89.2903 36.9305C89.0116 36.9305 89.0116 37.2088 88.733 37.487C88.733 37.487 88.733 37.7653 88.733 38.3218H88.1756C88.1756 37.487 88.4543 36.9305 88.4543 36.6523C88.7329 36.6523 89.2903 36.6523 89.8476 36.6523C90.405 36.6523 90.9623 36.6523 91.241 36.6523C91.5197 36.6523 92.077 36.6523 92.6344 36.6523C92.9131 36.0958 93.1918 36.0958 93.1918 36.0958ZM99.88 38.8782C99.88 39.713 99.6013 40.5477 99.0439 41.1042C98.4866 41.6607 97.6506 42.2172 96.8145 42.2172C95.9785 42.2172 95.4212 41.9389 94.8638 41.3825C94.3065 40.826 94.0278 40.2695 94.0278 39.4347C94.0278 38.6 94.3065 37.7653 94.8638 37.2088C95.4212 36.6523 96.2572 36.0958 97.0932 36.0958C97.9292 36.0958 98.4866 36.374 99.0439 36.9305C99.6013 37.487 99.88 38.0435 99.88 38.8782ZM98.7653 39.1565C98.7653 38.6 98.4866 38.0435 98.2079 37.487C97.6506 36.9305 97.0932 36.6523 96.5359 36.6523C96.2572 36.6523 95.9785 36.6523 95.4211 36.9305C95.1425 37.487 94.8638 38.0435 94.8638 38.3218C94.8638 39.1565 94.8638 39.713 95.1425 39.9912C95.6999 40.5477 96.2572 41.1042 97.0932 41.1042C97.3719 41.1042 97.6506 40.826 98.4866 40.5477C98.7653 40.2695 98.7653 39.713 98.7653 39.1565ZM109.076 41.6607V42.2172C108.519 42.2172 108.24 42.2172 107.962 42.2172C107.683 42.2172 107.126 42.2172 106.847 42.2172V41.6607H107.126C107.404 41.6607 107.404 41.6607 107.404 41.3825L107.126 37.2088C106.847 37.7653 106.568 38.6 106.29 39.713C106.011 40.826 105.732 41.6607 105.453 42.2172H104.896C104.896 41.9389 104.617 41.3825 104.339 40.826L102.945 37.487C102.945 37.7653 102.945 38.6 102.667 40.2695C102.667 40.5477 102.667 40.826 102.667 41.6607C102.667 41.9389 102.945 41.9389 103.224 41.9389V42.4954C102.667 42.4954 102.388 42.4954 102.109 42.4954C102.109 42.4954 101.552 42.4954 100.995 42.4954V41.9389C101.273 41.9389 101.273 41.9389 101.552 41.9389L101.831 41.6607C101.831 41.3825 102.109 40.826 102.109 40.5477C102.109 39.713 102.388 38.3217 102.667 36.6523L103.781 36.374C103.781 36.374 103.781 36.6523 104.06 37.2088L105.453 41.1042L106.29 38.0435C106.568 37.7653 106.568 37.2088 106.568 36.9305C107.126 36.9305 107.126 36.6523 107.404 36.374C107.404 36.374 107.683 36.374 107.962 36.0958C107.962 36.374 107.962 36.374 107.962 36.6523C107.962 36.9305 107.962 36.9305 107.962 37.2088L108.24 40.5477C108.24 41.1042 108.24 41.3825 108.519 41.3825C108.798 41.3825 108.798 41.6607 109.076 41.6607ZM122.174 41.6607V42.2172C121.617 42.2172 121.338 42.2172 121.059 42.2172C120.781 42.2172 120.223 42.2172 119.945 42.2172V41.6607H120.223C120.502 41.6607 120.502 41.6607 120.502 41.3825L120.223 37.2088C119.945 37.7653 119.666 38.6 119.387 39.713C119.109 40.826 118.83 41.6607 118.551 42.2172H117.994C117.994 41.9389 117.715 41.3825 117.437 40.826L116.043 37.487C116.043 37.7653 116.043 38.6 115.764 40.2695C115.764 40.5477 115.764 40.826 115.764 41.6607C115.764 41.9389 116.043 41.9389 116.322 41.9389V42.4954C115.764 42.4954 115.486 42.4954 115.207 42.4954C115.207 42.4954 114.65 42.4954 114.092 42.4954V41.9389C114.371 41.9389 114.371 41.9389 114.65 41.9389L114.928 41.6607C114.928 41.3825 115.207 40.826 115.207 40.5477C115.207 39.713 115.486 38.3217 115.764 36.6523L116.879 36.374C116.879 36.374 116.879 36.6523 117.158 37.2088L118.551 41.1042L119.387 38.0435C119.666 37.7653 119.666 37.2088 119.666 36.9305C120.223 36.9305 120.223 36.6523 120.502 36.374C120.502 36.374 120.781 36.374 121.059 36.0958C121.059 36.374 121.059 36.374 121.059 36.6523C121.059 36.9305 121.059 36.9305 121.059 37.2088L121.338 40.5477C121.338 41.1042 121.338 41.3825 121.617 41.3825C121.617 41.3825 121.895 41.6607 122.174 41.6607ZM129.698 41.6607V42.2172C129.42 42.2172 129.42 42.2172 129.141 42.2172C128.862 42.2172 128.584 42.2172 128.584 42.2172C128.305 42.2172 127.747 42.2172 127.469 42.2172V41.6607H127.747H128.026C128.026 41.6607 128.026 41.6607 128.026 41.3825V38.0435C127.748 38.6 127.19 39.4347 126.354 40.5477C125.518 41.6607 125.239 42.2172 124.961 42.2172L124.125 42.4954C124.125 42.4954 124.125 42.2172 124.125 41.9389C124.125 41.6607 124.125 41.6607 124.125 41.3825V37.2088C124.125 36.9305 124.125 36.9305 123.567 36.9305H123.289V36.374C123.567 36.374 123.567 36.374 123.846 36.374C124.125 36.374 124.403 36.374 124.403 36.374C124.403 36.374 124.682 36.374 124.961 36.374C125.239 36.374 125.518 36.374 125.518 36.374V36.9305H125.239C124.961 36.9305 124.961 36.9305 124.961 37.2088V40.826C126.075 39.4347 126.911 38.3217 127.469 37.487C127.747 37.2088 128.026 36.9305 128.305 36.374L129.141 36.0958C129.141 36.9305 129.141 37.2088 129.141 37.487V41.3825C129.141 41.6607 129.141 41.6607 129.42 41.6607C129.141 41.6607 129.42 41.6607 129.698 41.6607ZM136.944 38.6C136.944 39.4347 136.665 39.9912 136.386 40.5477C135.829 41.1042 135.272 41.6607 134.714 41.9389C134.436 41.9389 134.157 41.9389 134.157 41.9389C133.878 41.9389 133.6 41.9389 133.321 41.6607V44.1649C133.321 44.4432 133.6 44.4432 133.878 44.4432H134.157V44.9996C133.6 44.9996 133.321 44.9996 133.042 44.9996C132.485 44.9996 132.206 44.9996 131.649 44.9996V44.4432H131.928C132.206 44.4432 132.206 44.4432 132.206 44.1649V37.2088C132.206 36.9305 131.928 36.6523 131.649 36.6523C131.649 36.6523 131.649 36.6523 131.37 36.6523V36.0958H131.649C132.206 36.0958 132.485 36.0958 132.764 35.8175L133.042 36.0958C133.042 36.374 133.042 36.6523 133.042 36.9305C133.321 36.6523 133.878 36.374 134.436 35.8175C134.714 35.8175 134.993 35.8175 134.993 35.8175C135.55 35.8175 135.829 36.0958 136.108 36.374C136.665 37.2088 136.944 37.7653 136.944 38.6ZM136.108 39.4347C136.108 38.6 135.829 37.7653 135.55 37.487C135.272 37.2088 134.993 36.9305 134.436 36.9305C134.157 36.9305 133.878 36.9305 133.878 37.2088C133.6 37.2088 133.321 37.487 133.042 37.7653V40.826C133.321 41.1042 133.6 41.1042 134.157 41.3825H134.436C134.993 41.3825 135.272 41.3825 135.55 41.1042C135.829 40.826 136.108 39.9912 136.108 39.4347ZM144.189 38.6L140.009 39.1565C140.009 39.713 140.288 40.2695 140.567 40.5477C140.845 40.826 141.403 41.1042 141.96 41.1042C142.239 41.1042 142.796 41.1042 143.075 40.826C143.353 40.5477 143.632 40.5477 143.911 40.2695L144.189 40.5477L142.517 41.9389C142.239 41.9389 141.96 42.2172 141.681 42.2172C140.845 42.2172 140.009 41.9389 139.731 41.3825C139.173 40.826 139.173 40.2695 139.173 39.4347C139.173 38.6 139.452 37.7653 140.009 37.2088C140.567 36.6523 141.124 36.0958 141.96 36.0958C143.353 36.0958 144.189 37.2088 144.189 38.6ZM140.009 38.8782L143.075 38.3218C143.075 38.3218 143.075 38.3217 143.075 38.0435C142.796 37.2088 142.517 36.9305 141.403 36.9305C141.403 36.9305 141.124 36.9305 140.845 36.9305C140.288 37.2088 140.009 37.7653 140.009 38.8782ZM155.058 38.6L150.878 39.1565C150.878 39.713 151.156 40.2695 151.435 40.5477C151.714 40.826 152.271 41.1042 152.828 41.1042C153.107 41.1042 153.664 41.1042 153.943 40.826C154.222 40.5477 154.5 40.5477 154.779 40.2695L155.058 40.5477L153.386 41.9389C153.107 41.9389 152.828 42.2172 152.55 42.2172C151.714 42.2172 150.878 41.9389 150.599 41.3825C150.041 40.826 150.041 40.2695 150.041 39.4347C150.041 38.6 150.32 37.7653 150.878 37.2088C151.435 36.6523 151.992 36.0958 152.828 36.0958C154.222 36.0958 155.058 37.2088 155.058 38.6ZM150.878 38.8782L153.943 38.3218C153.943 38.3218 153.943 38.3217 153.943 38.0435C153.664 37.2088 153.386 36.9305 152.271 36.9305C152.271 36.9305 151.992 36.9305 151.714 36.9305C151.156 37.2088 150.878 37.7653 150.878 38.8782ZM161.189 40.2695L161.467 40.5477L160.352 41.6607C159.795 42.2172 159.795 42.2172 159.238 42.2172C157.844 42.2172 156.73 41.1042 156.73 39.4347C156.73 37.487 158.402 36.0958 160.074 36.0958C160.631 36.0958 161.189 36.0958 161.467 36.374C161.189 36.9305 161.188 37.487 160.91 38.3218H160.352C160.352 38.0435 160.352 38.0435 160.352 37.487C160.352 37.2088 159.795 36.9305 158.959 36.9305C158.68 36.9305 158.402 36.9305 158.123 37.2088C157.844 37.7653 157.566 38.0435 157.566 38.8782C157.566 41.1042 158.68 41.3825 159.516 41.3825C159.795 41.3825 159.795 41.3825 160.074 41.1042L161.189 40.2695ZM167.319 36.0958L167.041 38.0435H166.483C166.483 37.7653 166.483 37.7653 166.483 37.487C166.483 37.2088 166.205 36.9305 165.926 36.9305C165.926 36.9305 165.647 36.9305 165.369 36.9305H165.09V41.3825C165.09 41.6607 165.09 41.6607 165.369 41.6607C165.369 41.6607 165.647 41.6607 165.926 41.6607V42.2172C165.647 42.2172 165.647 42.2172 165.369 42.2172C165.09 42.2172 164.811 42.2172 164.811 42.2172C164.811 42.2172 164.533 42.2172 164.254 42.2172C163.975 42.2172 163.697 42.2172 163.697 42.2172V41.6607H163.975C164.254 41.6607 164.254 41.6607 164.254 41.3825V36.9305H163.975C163.697 36.9305 163.418 36.9305 163.418 36.9305C163.139 36.9305 163.139 37.2088 162.861 37.487C162.861 37.487 162.861 37.7653 162.861 38.3218H162.303C162.303 37.487 162.582 36.9305 162.582 36.6523C162.861 36.6523 163.418 36.6523 163.975 36.6523C164.533 36.6523 165.09 36.6523 165.369 36.6523C165.647 36.6523 166.205 36.6523 166.762 36.6523C167.041 36.0958 167.319 36.0958 167.319 36.0958ZM173.45 39.713C173.45 39.9912 173.45 39.9912 173.45 40.2695C173.45 40.826 172.893 41.1042 172.614 41.3825C172.057 41.6607 171.499 41.9389 171.221 41.9389C170.942 41.9389 170.663 41.9389 170.385 41.9389C170.106 41.9389 169.827 41.9389 169.549 41.9389C169.549 41.9389 168.991 41.9389 168.434 41.9389V41.3825H168.713C168.991 41.3825 168.991 41.3825 168.991 41.1042V36.9305C168.991 36.6523 168.991 36.6523 168.434 36.6523H168.155V36.0958C168.434 36.0958 168.434 36.0958 168.713 36.0958C168.991 36.0958 169.27 36.0958 169.27 36.0958C169.27 36.0958 169.549 36.0958 169.827 36.0958C170.106 36.0958 170.385 36.0958 170.385 36.0958V36.6523H170.106C169.827 36.6523 169.827 36.6523 169.827 36.9305V40.826C170.106 41.1042 170.663 41.1042 171.499 41.1042C171.778 41.1042 171.778 40.826 172.057 40.5477C172.057 40.2695 172.336 39.9912 172.336 39.713C172.336 39.1565 171.778 38.3218 171.221 38.3218C170.942 38.3218 170.942 38.3218 170.663 38.3218L170.385 38.0435L170.942 37.487C170.942 37.487 171.221 37.487 171.499 37.487C172.057 37.487 172.614 37.487 172.893 37.7653C173.45 38.8782 173.45 39.1565 173.45 39.713ZM184.319 41.6607V42.2172C183.761 42.2172 183.204 42.2172 182.925 42.2172C182.646 42.2172 182.368 42.2172 181.81 42.2172V41.6607C182.089 41.6607 182.089 41.6607 182.368 41.6607L182.646 41.3825V36.9305C182.368 36.9305 182.089 36.9305 181.81 36.9305H181.532C181.253 37.2088 181.253 37.487 181.253 37.7653L180.974 39.713C180.974 40.2695 180.696 41.1042 180.417 41.3825C180.138 41.9389 179.581 42.4954 179.024 42.4954C179.024 42.4954 178.745 42.4954 178.466 42.4954L178.745 41.1042C179.024 41.3825 179.302 41.3825 179.581 41.3825C179.86 41.3825 180.138 40.2695 180.417 38.0435V37.7653C180.417 37.2088 180.138 36.9305 179.86 36.9305C179.581 36.9305 179.581 36.9305 179.302 36.9305L179.581 36.374C180.138 36.374 180.696 36.374 180.974 36.374H183.483C183.761 36.374 184.04 36.374 184.597 36.374V36.9305H184.319C184.04 36.9305 184.04 36.9305 184.04 36.9305V37.2088V41.3825C183.483 41.3825 183.761 41.6607 184.319 41.6607ZM194.63 38.8782C194.63 39.713 194.351 40.5477 193.793 41.1042C193.236 41.939 192.4 42.2172 191.564 42.2172C190.728 42.2172 190.171 41.9389 189.613 41.3825C189.056 40.826 189.056 40.2695 189.056 39.4347H187.663V41.3825C187.663 41.6607 187.941 41.6607 188.22 41.6607H188.499V42.2172C188.22 42.2172 187.663 42.2172 187.384 42.2172C187.384 42.2172 187.105 42.2172 186.827 42.2172C186.548 42.2172 186.269 42.2172 186.269 42.2172V41.6607H186.548C186.827 41.6607 186.827 41.6607 186.827 41.3825V37.2088C186.827 36.9305 186.827 36.9305 186.269 36.9305H185.991V36.374C186.269 36.374 186.827 36.374 187.105 36.374C187.105 36.374 187.384 36.374 187.663 36.374C187.941 36.374 188.22 36.374 188.22 36.374V36.9305H187.941C187.663 36.9305 187.663 36.9305 187.663 37.2088V38.6H189.056C189.056 38.0435 189.613 37.487 190.171 36.9305C190.728 36.374 191.564 36.0958 192.121 36.0958C192.957 36.0958 193.515 36.374 194.072 36.9305C194.63 37.487 194.63 38.0435 194.63 38.8782ZM193.793 39.1565C193.793 38.6 193.515 38.0435 193.236 37.487C192.957 36.9305 192.4 36.6523 191.564 36.6523C191.285 36.6523 191.007 36.6523 190.449 36.9305C190.171 37.487 189.892 38.0435 189.892 38.3218C189.892 39.1565 189.892 39.713 190.171 39.9912C190.728 40.5477 191.285 41.1042 192.121 41.1042C192.4 41.1042 192.679 40.826 193.236 40.5477C193.793 39.9912 193.793 39.713 193.793 39.1565ZM202.432 33.3133C202.432 33.5916 202.154 33.5916 202.154 33.8698C201.875 34.1481 201.596 34.4263 201.318 34.7045L199.367 35.261C199.088 35.261 198.531 35.5393 198.252 35.8175C197.695 36.374 197.695 36.9305 197.695 37.487V37.7653C198.531 36.9305 199.367 36.6523 200.203 36.6523C201.039 36.6523 201.596 36.9305 201.875 37.487C202.432 38.0435 202.432 38.6 202.432 39.1565C202.432 39.9912 202.154 40.826 201.596 41.3825C201.039 42.2172 200.203 42.4954 199.367 42.4954C198.252 42.4954 197.695 42.2172 197.138 41.3825C196.859 40.826 196.58 39.9912 196.58 38.8782C196.58 38.0435 196.859 37.2088 197.138 36.0958C197.695 34.9828 198.252 34.4263 199.088 34.1481L201.318 33.5916C201.596 33.5916 201.596 33.5916 201.596 33.3133C201.596 33.3133 201.596 33.3133 201.596 33.0351V32.7568H202.154V33.0351C202.711 32.7568 202.711 32.7568 202.432 33.3133ZM201.875 39.4347C201.875 39.1565 201.875 38.8782 201.875 38.6C201.596 37.487 200.76 36.9305 199.646 36.9305C199.367 36.9305 199.088 37.2088 198.531 37.487C198.252 38.0435 197.974 38.3217 197.974 38.8782C197.974 39.1565 197.974 39.4347 197.974 39.4347C198.252 40.5477 199.088 41.3825 200.203 41.3825C200.76 41.3825 201.039 41.1042 201.318 40.826C201.596 40.2695 201.875 39.9912 201.875 39.4347ZM210.514 38.8782C210.514 39.713 210.235 40.5477 209.678 41.1042C209.121 41.6607 208.285 42.2172 207.449 42.2172C206.613 42.2172 206.055 41.9389 205.498 41.3825C204.94 40.826 204.662 40.2695 204.662 39.4347C204.662 38.6 204.94 37.7653 205.498 37.2088C206.055 36.6523 206.891 36.0958 207.727 36.0958C208.563 36.0958 209.121 36.374 209.678 36.9305C210.235 37.487 210.514 38.0435 210.514 38.8782ZM209.399 39.1565C209.399 38.6 209.121 38.0435 208.842 37.487C208.285 36.9305 207.727 36.6523 207.17 36.6523C206.891 36.6523 206.613 36.6523 206.055 36.9305C205.777 37.487 205.498 38.0435 205.498 38.3218C205.498 39.1565 205.498 39.713 205.777 39.9912C206.334 40.5477 206.891 41.1042 207.727 41.1042C208.006 41.1042 208.285 40.826 209.121 40.5477C209.399 40.2695 209.399 39.713 209.399 39.1565ZM213.022 41.1042V36.9305C213.022 36.6523 213.022 36.6523 212.465 36.6523H212.186V36.0958C212.743 36.0958 213.301 36.0958 213.579 36.0958C213.858 36.0958 214.137 36.0958 214.415 36.0958C214.973 36.0958 215.251 36.0958 215.251 36.0958C215.809 36.0958 216.088 36.0958 216.366 36.374C216.645 36.6523 216.924 36.9305 216.924 37.487C216.924 37.7653 216.924 38.0435 216.645 38.3218C216.645 38.3218 216.366 38.6 216.087 38.8782C216.924 39.1565 217.202 39.4347 217.202 40.2695C217.202 40.5477 217.202 40.5477 217.202 40.826C217.202 41.3825 216.924 41.6607 216.366 41.9389C215.809 42.2172 215.53 42.2172 214.973 42.2172C214.694 42.2172 214.415 42.2172 214.137 42.2172C213.858 42.2172 213.579 42.2172 213.301 42.2172C212.743 42.2172 212.465 42.2172 211.907 42.2172V41.6607H212.186C212.743 41.6607 213.022 41.3825 213.022 41.1042ZM213.858 36.9305V41.1042C214.137 41.3825 214.694 41.3825 215.53 41.3825C215.809 41.3825 215.809 41.3825 216.087 41.3825C216.366 41.1042 216.645 40.826 216.645 40.5477C216.645 39.713 216.366 39.1565 215.53 39.1565H214.973C214.973 39.1565 214.973 38.8782 215.251 38.6H215.809C216.088 38.6 216.087 38.6 216.087 38.6C216.366 38.3217 216.366 38.0435 216.366 37.7653C216.366 37.2088 216.366 36.9305 216.087 36.9305C216.087 36.9305 215.53 36.9305 214.973 36.9305C214.415 36.9305 214.137 36.9305 213.858 36.9305ZM224.448 39.713C224.448 39.9912 224.448 39.9912 224.448 40.2695C224.448 40.826 223.89 41.1042 223.612 41.3825C223.054 41.6607 222.497 41.9389 222.218 41.9389C221.94 41.9389 221.661 41.9389 221.382 41.9389C221.104 41.9389 220.825 41.9389 220.546 41.9389C220.546 41.9389 219.989 41.9389 219.432 41.9389V41.3825H219.71C219.989 41.3825 219.989 41.3825 219.989 41.1042V36.9305C219.989 36.6523 219.989 36.6523 219.432 36.6523H219.153V36.0958C219.432 36.0958 219.432 36.0958 219.71 36.0958C219.989 36.0958 220.268 36.0958 220.268 36.0958C220.268 36.0958 220.546 36.0958 220.825 36.0958C221.104 36.0958 221.382 36.0958 221.382 36.0958V36.6523H221.104C220.825 36.6523 220.825 36.6523 220.825 36.9305V40.826C221.104 41.1042 221.661 41.1042 222.497 41.1042C222.776 41.1042 222.776 40.826 223.054 40.5477C223.054 40.2695 223.333 39.9912 223.333 39.713C223.333 39.1565 222.776 38.3218 222.218 38.3218C221.94 38.3218 221.94 38.3218 221.661 38.3218L221.382 38.0435L221.94 37.487C221.94 37.487 222.218 37.487 222.497 37.487C223.054 37.487 223.612 37.487 223.89 37.7653C224.448 38.8782 224.448 39.1565 224.448 39.713Z" fill="#5A5A5A"/>
<path fill-rule="evenodd" clip-rule="evenodd" d="M27.7034 13.2797L21.2938 22.1836L14.8843 13.2797H0.671875V42.7738H12.6549V16.0622L21.0151 27.7485L29.0967 16.3404V42.7738H41.0797V13.2797H27.7034ZM12.9336 6.04532C12.9336 9.38427 10.4255 11.8885 7.08139 11.8885C3.73729 11.8885 1.22922 9.38427 1.22922 6.04532C1.22922 2.70636 3.73729 0.202148 7.08139 0.202148C10.1468 0.202148 12.9336 2.70636 12.9336 6.04532ZM35.5062 11.8885C32.1621 11.8885 29.3754 9.38427 29.3754 6.04532C29.3754 2.70636 32.1621 0.202148 35.5062 0.202148C38.8503 0.202148 41.6371 2.70636 41.6371 6.04532C41.6371 9.38427 38.8503 11.8885 35.5062 11.8885Z" fill="#F11112"/>
</svg>
