<svg width="194" height="29" viewBox="0 0 194 29" fill="none" xmlns="http://www.w3.org/2000/svg">
<path d="M0 0.892578H21.1793V2.28381L19.2286 2.56206L18.6712 3.11855V20.9263L19.2286 21.4828L21.1793 21.761V23.1523H13.3764V21.761L15.3271 21.4828L15.8845 20.9263V2.56206H5.29483V20.9263L5.85218 21.4828L7.8029 21.761V23.1523H0V21.761L1.95073 21.4828L2.50808 20.9263V3.11855L1.95073 2.56206L0 2.28381V0.892578Z" fill="black"/>
<path d="M34.2772 0.61377C37.3426 0.61377 39.8507 1.72676 41.8014 3.95273C43.7521 6.1787 44.5881 8.68291 44.5881 12.0219C44.5881 15.3608 43.7521 18.1433 41.8014 20.091C39.8507 22.317 37.3426 23.1517 34.2772 23.1517C31.2117 23.1517 28.7037 22.0387 26.7529 20.091C24.8022 18.1433 23.6875 15.3608 23.6875 11.7436C23.6875 8.12642 24.8022 5.06571 27.3103 2.83974C29.261 1.44851 31.7691 0.61377 34.2772 0.61377ZM34.2772 2.28325C32.0478 2.28325 30.097 3.11799 28.9823 5.06571C27.8676 6.73519 27.3103 9.2394 27.3103 12.0219C27.3103 14.8043 27.8676 17.3085 28.9823 18.978C30.3757 20.9257 32.0478 21.7605 34.2772 21.7605C36.5066 21.7605 38.1786 20.9257 39.2933 19.2563C40.6867 17.5868 41.244 15.3608 41.244 12.3001C41.244 8.96116 40.408 6.1787 38.736 4.50922C37.6213 2.83974 36.2279 2.28325 34.2772 2.28325Z" fill="black"/>
<path d="M48.2109 16.7521H50.1617L50.9977 20.3693L51.555 20.9257C52.3911 21.204 53.5058 21.4822 54.8991 21.4822C57.6859 21.4822 59.6366 20.6475 61.03 18.978C61.5873 18.1433 62.1447 17.3085 62.4234 15.9173C62.702 14.8043 62.9807 13.6913 62.9807 12.3001H53.5058V10.9089H62.9807C62.9807 8.40467 62.1447 6.45694 61.03 4.78746C59.6366 3.11799 57.9646 2.28325 55.1778 2.28325C53.7844 2.28325 52.6697 2.5615 51.555 3.11799L50.9977 3.67448L50.1617 6.73519H48.4896V1.72676C50.4403 0.89202 52.3911 0.61377 54.6205 0.61377C57.9646 0.61377 60.7513 1.44851 62.702 3.39623C63.8167 4.23097 64.3741 5.34396 65.2101 7.01344C65.7675 8.40467 66.3248 10.0741 66.3248 12.0219C66.3248 13.9696 66.0461 15.6391 65.4888 17.0303C64.9314 18.4215 64.0954 19.8128 62.9807 20.6475C61.866 21.4822 60.7513 22.317 59.3579 22.5952C57.9646 23.1517 56.5712 23.1517 55.1778 23.1517C52.9484 23.1517 50.719 22.8735 48.4896 22.0387L48.2109 16.7521Z" fill="black"/>
<path d="M68.8325 0.892578H86.9464V5.90101H85.2744L84.717 2.8403L84.4383 2.56206H79.4222V20.9263L79.9795 21.4828L82.2089 21.761V23.1523H73.8487V21.761L76.0781 21.4828L76.6354 20.9263V2.56206H71.6193L71.0619 3.11855L70.5046 6.17925H68.8325V0.892578Z" fill="black"/>
<path d="M100.602 0.61377C103.667 0.61377 106.175 1.72676 108.126 3.95273C110.077 6.1787 110.913 8.68291 110.913 12.0219C110.913 15.3608 110.077 18.1433 108.126 20.091C106.175 22.317 103.667 23.1517 100.602 23.1517C97.5364 23.1517 95.0284 22.0387 93.0776 20.091C91.1269 17.865 90.0122 15.0826 90.0122 11.7436C90.0122 8.12642 91.1269 5.06571 93.635 2.83974C95.5857 1.44851 97.8151 0.61377 100.602 0.61377ZM100.323 2.28325C98.0938 2.28325 96.1431 3.11799 95.0284 5.06571C93.9137 6.73519 93.3563 9.2394 93.3563 12.0219C93.3563 14.8043 93.9137 17.3085 95.0284 18.978C96.4217 20.9257 98.0938 21.7605 100.323 21.7605C102.553 21.7605 104.225 20.9257 105.339 19.2563C106.733 17.5868 107.29 15.3608 107.29 12.3001C107.29 8.96116 106.454 6.1787 104.782 4.50922C103.946 2.83974 102.274 2.28325 100.323 2.28325Z" fill="black"/>
<path d="M113.7 22.5958V21.2045L115.65 20.9263L116.208 20.3698V2.56206H115.65L113.421 2.28381V0.892578H129.027V6.73575H127.355L126.797 2.8403L126.24 2.56206H118.994V20.9263L119.552 21.4828L121.781 21.761V23.1523L113.7 22.5958Z" fill="black"/>
<path d="M132.928 22.5958V21.2046L134.879 20.9263L135.436 20.3698V2.56206H134.6L132.371 2.28381V0.892578H139.895C141.567 0.892578 143.239 1.17083 144.354 1.44907C145.468 1.72732 146.583 2.28381 147.14 2.8403C147.698 3.3968 148.255 3.95329 148.534 4.78802C148.812 5.62276 148.812 6.45751 148.812 7.29225C148.812 8.68348 148.534 9.79646 148.255 10.6312C147.976 11.4659 147.14 12.3007 146.304 12.8572C145.468 13.4137 144.632 13.6919 143.796 13.9702C142.96 14.2484 141.846 14.2484 140.731 14.2484C140.174 14.2484 139.337 14.2484 138.223 14.2484V20.6481L138.78 21.2046L141.01 21.4828V22.874L132.928 22.5958ZM138.223 2.56206V12.8572C139.059 12.8572 139.616 13.1354 140.452 13.1354C142.124 13.1354 143.239 12.5789 144.354 11.7442C145.468 10.9094 145.747 9.51821 145.747 7.84873C145.747 6.17926 145.19 5.06627 144.354 4.23154C143.518 2.8403 142.124 2.56206 139.895 2.56206C139.337 2.56206 138.78 2.56206 138.223 2.56206Z" fill="black"/>
<path d="M158.009 0.892578H160.238L168.041 21.2046L169.992 21.4828V22.874H162.746V21.4828L164.697 21.2046L164.976 20.6481L162.746 14.5266H155.222L152.993 20.6481L153.271 21.2046L155.501 21.4828V22.874H149.091V21.4828L151.042 21.2046L158.009 0.892578ZM158.566 4.23154L155.501 13.1354H161.91L158.566 4.23154Z" fill="black"/>
<path d="M177.237 0.892578H192.565V2.28381L190.893 2.56206L190.335 3.11855V20.9263L190.614 21.2046H193.122V28.1607H191.45L190.893 23.1523L190.335 22.5958H175.287L174.729 23.1523L174.172 28.1607H172.5V21.2046H174.451C176.401 18.7003 178.073 15.9179 178.91 12.5789C179.746 9.79646 180.303 6.45751 180.86 2.8403L180.303 2.28381H177.516L177.237 0.892578ZM176.401 21.2046H187.27V2.56206H182.532C182.254 6.45751 181.696 9.79646 180.86 12.8572C180.024 15.6396 178.631 18.4221 176.401 21.2046Z" fill="black"/>
</svg>
