<svg width="80" height="42" viewBox="0 0 80 42" fill="none" xmlns="http://www.w3.org/2000/svg">
<path d="M41.4864 1.81889V15.453C39.257 6.54908 31.1754 0.149414 21.4218 0.149414C9.99608 0.149414 0.799805 9.33153 0.799805 20.7396C0.799805 32.1477 9.99608 41.3298 21.4218 41.3298C30.8967 41.3298 38.9783 34.6519 41.4864 26.0263V39.3821H79.3862V1.81889H41.4864ZM31.1754 22.9656H24.2085V29.9217H19.1924V22.9656H12.2255V17.9572H19.1924V11.001H24.2085V17.9572H31.1754V22.9656ZM69.3539 31.0347H53.1907V26.5828H58.7642V16.5659C57.9282 18.2354 55.6988 18.7919 53.1907 18.7919V13.7835C56.5348 13.5052 58.4855 11.5575 59.3216 9.05328H64.059V26.5828H69.6325V31.0347H69.3539Z" fill="black"/>
</svg>
