<svg width="135" height="37" viewBox="0 0 135 37" fill="none" xmlns="http://www.w3.org/2000/svg">
<path fill-rule="evenodd" clip-rule="evenodd" d="M0.878906 0.654297V34.0438L34.3199 0.654297H0.878906Z" fill="#71B88E"/>
<path fill-rule="evenodd" clip-rule="evenodd" d="M3.1084 36.5482H36.5495V2.88037L3.1084 36.5482Z" fill="#0C717B"/>
<path fill-rule="evenodd" clip-rule="evenodd" d="M55.4991 17.9056C59.4006 17.9056 61.3513 15.9578 61.3513 12.3406V12.0624C61.3513 8.16695 59.1219 6.77572 55.4991 6.77572H51.319V17.9056H55.4991ZM43.5161 0.654297H55.7778C64.4168 0.654297 69.1542 4.54975 69.1542 12.0624V12.3406C69.1542 19.8533 63.8594 23.4705 56.0565 23.4705H51.319V36.5481H43.5161V0.654297Z" fill="black"/>
<path fill-rule="evenodd" clip-rule="evenodd" d="M85.039 30.4266C88.9404 30.4266 90.8912 28.7572 90.8912 25.4182V25.14C90.8912 21.801 88.9404 20.1315 85.039 20.1315H80.5802V30.1484H85.039V30.4266ZM85.3177 36.5481H72.7773V0.654297H95.3499V7.05396H80.5802V14.5666H85.875C93.9565 14.5666 98.694 18.1838 98.694 25.4182V25.6965C98.1367 32.3744 93.9566 36.5481 85.3177 36.5481Z" fill="black"/>
<path fill-rule="evenodd" clip-rule="evenodd" d="M103.989 0.654297H112.349V16.2361L125.168 0.654297H134.086L119.595 17.6273L134.643 36.5481H125.168L112.349 20.4098V36.5481H103.989V0.654297Z" fill="black"/>
</svg>
