<svg width="1440" height="48" viewBox="0 0 1440 48" fill="none" xmlns="http://www.w3.org/2000/svg">
<path d="M1438.81 47.8643L0 47.8641L2.64685e-06 17.5877C1.22766 17.3682 2.34278 17.0614 3.30652 16.669C5.13758 15.9236 6.42261 14.8693 6.54163 13.5332C8.15039 13.7956 8.51941 14.1122 8.99134 14.7571C9.03858 14.8112 9.08325 14.8654 9.12659 14.918L9.12879 14.9206C9.3418 15.1787 9.52381 15.3993 9.81726 15.3864L11.0573 15.3323C13.3364 14.6139 11.991 13.4786 10.9015 12.5591L10.8911 12.5503L10.8889 12.5485L10.8771 12.5386C10.8036 12.4763 10.7311 12.4151 10.661 12.3551C11.7395 12.6157 12.5291 13.0156 13.2822 13.3972C14.9722 14.2533 16.4813 15.0177 20.6681 13.9143L18.1575 15.3549C19.6517 14.7465 20.8773 15.0917 22.1491 15.4498C23.9937 15.9694 25.9352 16.5162 28.9341 14.2187L29.3366 9.21023L24.3751 11.4233L32.4977 6.41035C33.6106 6.77301 33.5391 7.1874 33.4404 7.76006C33.3795 8.114 33.3082 8.52838 33.4995 9.02839C35.8355 7.98649 37.1165 8.46561 38.1052 8.83534C39.2166 9.25094 39.9583 9.52832 41.4128 7.35183L42.355 10.6379L46.2101 7.47501C46.1322 7.69737 46.0369 7.9365 45.9368 8.18747L45.9362 8.18875L45.9346 8.19294L45.9341 8.19413L45.9327 8.19786C45.1199 10.2342 43.9988 13.0432 49.2461 13.9969L54.5895 14.4289L53.1012 10.834C53.9313 11.2728 54.6335 11.9342 55.3046 12.5661C56.9834 14.1472 58.4658 15.5435 61.2627 12.8065L61.6589 15.7838C64.0352 16.358 64.3971 15.1203 64.7094 14.0527C65.01 13.0248 65.2645 12.1547 67.226 13.2115L65.8219 15.6019C69.948 15.3004 73.6021 14.4452 77.0595 13.636C83.0896 12.2246 88.5215 10.9532 94.8153 13.0046L94.7847 14.3368C98.1939 15.1861 104.188 14.2588 106.033 13.8454L104.941 13.2277L112.707 12.223L112.942 13.5437L118.404 12.6396L118.3 14.3078C123.509 15.7439 128.249 14.5387 132.604 12.6848L130.967 11.7581C132.085 11.7093 133.012 8.56261 133.892 5.57915L133.893 5.57423L133.893 5.57308C134.128 4.77684 134.359 3.99242 134.59 3.28178C136.41 3.34724 137.02 2.70776 137.59 2.11004C138.329 1.33576 139.001 0.63157 142.149 1.62069C141.958 1.88207 141.779 2.11289 141.619 2.32074C140.722 3.47886 140.359 3.94861 141.246 5.32012C142.326 4.92029 143.137 4.63603 143.765 4.41591L143.766 4.41545L143.768 4.41462C145.067 3.95927 145.583 3.77842 146.082 3.41506C146.41 3.17603 146.732 2.85732 147.264 2.33001C147.742 1.85611 148.391 1.2133 149.369 0.307169C146.163 4.10719 148.802 7.65185 154.012 9.08792C158.876 8.87545 161.746 7.79054 164.136 6.88689C167.013 5.79954 169.195 4.97464 173.322 6.24808L177.599 10.7194C179.666 10.9643 180.712 9.48094 181.593 8.23056C182.462 6.99865 183.171 5.99291 184.54 7.08898C188.929 7.75769 189.012 7.10141 189.093 6.45123C189.169 5.84433 189.245 5.24275 192.822 5.72903L192.807 5.39694C192.94 5.39113 193.055 5.46932 193.169 5.54751C193.283 5.62567 193.398 5.70387 193.531 5.69807C195.915 6.84437 197.537 6.45751 199.224 6.05484C200.231 5.81464 201.261 5.56883 202.491 5.63942L207.481 4.09052C208.131 1.14248 210.049 2.23218 211.967 3.32188C212.891 3.84655 213.814 4.37122 214.596 4.44519L216.222 1.04691C223.63 4.05058 235.306 5.20421 246.569 5.04495C247.531 7.08543 250.572 6.37505 253.843 5.61084L253.845 5.61052C254.232 5.52012 254.622 5.42901 255.012 5.34159L253.36 4.08287C272.179 6.25535 272.267 6.25149 290.144 5.13788L292.626 3.03314C291.207 5.09145 294.94 7.25747 296.549 7.51992C298.412 7.6128 300.936 7.22049 303.693 6.79183C306.2 6.40205 308.901 5.98221 311.474 5.86981L311.355 7.20591C306.55 7.41581 300.553 7.96019 294.939 8.46976C290 8.91819 285.356 9.33972 282.081 9.48278L282.154 11.1432L289.415 12.8224L291.662 9.39703C298.446 11.6539 302.733 11.1053 306.754 10.5905C308.498 10.3674 310.191 10.1507 312.017 10.1715C316.268 9.98581 319.325 8.85413 319.961 7.16272L320.758 7.1279C320.728 7.12919 320.687 7.09401 320.633 7.04711C320.597 7.01631 320.555 6.98046 320.507 6.94657C325.197 8.97122 327.655 9.85496 333.627 11.2239L327.604 11.487L333.772 14.5448C335.609 15.0942 336.182 14.3167 336.844 13.4157C337.933 11.9362 339.266 10.1239 346.851 13.3081L348.695 14.8911L350.071 15.4162C350.104 14.2049 350.257 14.7469 350.431 15.5539L351.042 15.7868C351.781 14.4236 355.324 14.2689 359.353 15.0911C359.383 15.998 359.413 16.9117 359.443 17.8309C361.358 17.6269 363.073 17.2379 364.471 16.6691C366.302 15.9236 367.587 14.8693 367.706 13.5332C369.315 13.7957 369.683 14.1123 370.155 14.7571C370.187 14.794 370.219 14.8309 370.249 14.8673L370.292 14.9196L370.293 14.9207C370.506 15.1788 370.688 15.3993 370.981 15.3865L372.221 15.3323C374.5 14.614 373.155 13.4786 372.066 12.5592L371.987 12.4929C371.932 12.4463 371.878 12.4004 371.825 12.3551C372.904 12.6158 373.693 13.0156 374.446 13.3973C376.136 14.2533 377.645 15.0178 381.832 13.9144L379.322 15.3549C380.816 14.7466 382.042 15.0918 383.313 15.4499C385.158 15.9695 387.099 16.5163 390.098 14.2187L390.501 9.21029L385.539 11.4234L393.662 6.41041C394.774 6.77306 394.703 7.18744 394.604 7.76008C394.544 8.11402 394.472 8.52845 394.664 9.02845C396.999 7.98655 398.281 8.46567 399.269 8.8354C400.38 9.251 401.122 9.52838 402.577 7.3519L403.519 10.638L407.374 7.47506C407.295 7.69985 407.199 7.94178 407.098 8.19574L407.097 8.19759C406.284 10.2339 405.163 13.0432 410.41 13.9969L415.753 14.429L414.265 10.834C415.095 11.2727 415.797 11.934 416.468 12.5657C418.147 14.1468 419.63 15.5436 422.427 12.8066L422.823 15.7838C425.199 16.3581 425.561 15.1203 425.873 14.0528C426.174 13.0249 426.429 12.1548 428.39 13.2116L426.986 15.602C431.112 15.3005 434.766 14.4452 438.223 13.6361C444.253 12.2247 449.685 10.9533 455.979 13.0046L455.948 14.3369C459.358 15.1861 465.352 14.2588 467.197 13.8455L466.105 13.2278L473.87 12.2231L474.106 13.5437L479.568 12.6397L479.463 14.3079C484.673 15.7439 489.412 14.5387 493.768 12.6848L492.131 11.7582C493.249 11.7094 494.176 8.56267 495.055 5.57921L495.056 5.57669C495.291 4.77924 495.523 3.99354 495.754 3.28184C497.574 3.3473 498.184 2.70782 498.754 2.11011C499.493 1.33582 500.165 0.631632 503.313 1.62075C503.123 1.88098 502.945 2.11048 502.785 2.31761L502.784 2.31905L502.782 2.32081C501.886 3.47893 501.522 3.94868 502.409 5.32018C503.492 4.91957 504.303 4.63498 504.932 4.41469C506.231 3.95933 506.747 3.77849 507.246 3.41513C507.574 3.17609 507.896 2.85739 508.428 2.33007C508.906 1.85618 509.555 1.21337 510.532 0.307235C507.326 4.10725 509.966 7.65192 515.175 9.08799C520.039 8.87552 522.909 7.7906 525.3 6.88696C528.177 5.7996 530.359 4.97471 534.485 6.24815L538.763 10.7195C540.83 10.9644 541.875 9.481 542.757 8.23062C543.625 6.99871 544.334 5.99297 545.703 7.08904C550.093 7.75775 550.175 7.10147 550.257 6.45129C550.333 5.8444 550.408 5.24282 553.986 5.72909L553.971 5.397C554.104 5.3912 554.218 5.46942 554.333 5.54757C554.447 5.62574 554.561 5.70394 554.694 5.69814C557.079 6.84444 558.7 6.45758 560.388 6.0549C561.394 5.81471 562.424 5.56889 563.654 5.63948L568.645 4.09058C569.295 1.14254 571.213 2.23225 573.131 3.32194C574.054 3.84661 574.978 4.37127 575.76 4.44526L577.386 1.04698C584.794 4.05064 596.469 5.20427 607.732 5.04502C608.694 7.08549 611.735 6.37511 615.007 5.6109L615.008 5.61059C615.395 5.52019 615.785 5.42907 616.176 5.34166L614.523 4.08293C633.342 6.25542 633.431 6.25155 651.308 5.13795L653.789 3.0332C652.371 5.09151 656.104 7.25753 657.713 7.51999C659.576 7.61286 662.099 7.22054 664.857 6.79189C667.364 6.4021 670.064 5.98227 672.638 5.86987L672.518 7.20598C667.713 7.41587 661.717 7.96022 656.104 8.46979C651.164 8.91822 646.52 9.33977 643.245 9.48284L643.317 11.1433L650.579 12.8225L652.825 9.39709C659.61 11.654 663.896 11.1053 667.918 10.5906C669.661 10.3675 671.355 10.1507 673.18 10.1716C677.432 9.98588 680.488 8.85419 681.124 7.16278L681.922 7.12797C681.892 7.12926 681.851 7.09403 681.796 7.04717C681.761 7.01637 681.719 6.98052 681.671 6.94663C686.36 8.97129 688.819 9.85503 694.79 11.224L688.767 11.4871L694.935 14.5449C696.773 15.0943 697.345 14.3167 698.008 13.4158C699.097 11.9363 700.43 10.1239 708.015 13.3081L709.859 14.8912L712.205 15.7869C712.944 14.4237 716.487 14.2689 720.516 15.0911C720.539 15.7666 720.562 16.4459 720.584 17.1284C721.052 16.9912 721.495 16.8381 721.91 16.6691C723.742 15.9236 725.026 14.8693 725.146 13.5332C726.754 13.7957 727.123 14.1123 727.595 14.7571C727.642 14.8112 727.687 14.8654 727.731 14.9181L727.733 14.9207C727.946 15.1788 728.128 15.3993 728.421 15.3865L729.661 15.3323C731.94 14.614 730.595 13.4786 729.505 12.5592L729.502 12.5562L729.495 12.5504L729.493 12.5485C729.415 12.4829 729.339 12.4183 729.265 12.3551C730.344 12.6158 731.133 13.0156 731.886 13.3973C733.576 14.2533 735.085 15.0178 739.272 13.9144L736.761 15.3549C738.256 14.7466 739.481 15.0918 740.753 15.4499C742.598 15.9695 744.539 16.5163 747.538 14.2187L747.94 9.21029L742.979 11.4234L751.102 6.41041C752.214 6.77307 752.143 7.18746 752.044 7.76013C751.983 8.11406 751.912 8.52845 752.103 9.02845C754.439 7.98655 755.72 8.46567 756.709 8.8354C757.82 9.251 758.562 9.52838 760.017 7.3519L760.959 10.638L764.814 7.47507C764.736 7.69744 764.641 7.93657 764.541 8.18753L764.54 8.18881L764.539 8.193L764.538 8.1942L764.537 8.19792C763.724 10.2343 762.603 13.0432 767.85 13.9969L773.193 14.429L771.705 10.834C772.535 11.2728 773.237 11.9342 773.908 12.5662C775.587 14.1472 777.07 15.5436 779.867 12.8066L780.263 15.7838C782.639 16.3581 783.001 15.1203 783.313 14.0528C783.614 13.0249 783.868 12.1548 785.83 13.2116L784.426 15.602C788.552 15.3005 792.206 14.4452 795.663 13.636C801.694 12.2246 807.125 10.9533 813.419 13.0046L813.389 14.3369C816.798 15.1861 822.792 14.2588 824.637 13.8455L823.545 13.2278L831.311 12.2231L831.546 13.5437L837.008 12.6397L836.904 14.3079C842.113 15.7439 846.853 14.5387 851.209 12.6848L849.571 11.7582C850.689 11.7094 851.616 8.56267 852.496 5.57921L852.497 5.57429L852.497 5.57315C852.732 4.77691 852.963 3.99248 853.194 3.28184C855.014 3.3473 855.624 2.70782 856.194 2.11011C856.933 1.33583 857.605 0.631632 860.753 1.62075C860.562 1.88214 860.383 2.11295 860.223 2.3208C859.326 3.47893 858.962 3.94868 859.85 5.32018C860.93 4.92035 861.741 4.63609 862.368 4.41598L862.37 4.41551L862.372 4.41468C863.671 3.95933 864.187 3.77849 864.686 3.41513C865.014 3.17609 865.336 2.85738 865.868 2.33007C866.346 1.85617 866.995 1.21337 867.973 0.307231C864.766 4.10725 867.406 7.65192 872.616 9.08798C877.48 8.87552 880.35 7.7906 882.74 6.88696C885.617 5.7996 887.799 4.97471 891.926 6.24815L896.203 10.7195C898.27 10.9644 899.316 9.481 900.197 8.23062C901.066 6.99872 901.775 5.99298 903.144 7.08904C907.533 7.75775 907.616 7.10147 907.697 6.45129C907.773 5.8444 907.849 5.24281 911.426 5.72909L911.411 5.397C911.544 5.3912 911.659 5.46939 911.773 5.54757C911.887 5.62574 912.002 5.70394 912.135 5.69814C914.519 6.84444 916.14 6.45757 917.828 6.05491C918.835 5.81471 919.865 5.56889 921.095 5.63948L926.085 4.09058C926.735 1.14254 928.653 2.23225 930.571 3.32194C931.495 3.84661 932.418 4.37128 933.2 4.44526L934.826 1.04698C942.234 4.05064 953.91 5.20427 965.173 5.04501C966.135 7.08549 969.176 6.37512 972.447 5.6109L972.449 5.61058C972.836 5.52018 973.226 5.42907 973.616 5.34166L971.964 4.08293C990.783 6.25542 990.871 6.25155 1008.75 5.13795L1011.23 3.0332C1009.81 5.09152 1013.54 7.25753 1015.15 7.51998C1017.02 7.61286 1019.54 7.22055 1022.3 6.79189C1024.8 6.40211 1027.5 5.98227 1030.08 5.86988L1029.96 7.20597C1025.15 7.41587 1019.16 7.96025 1013.54 8.46983C1008.6 8.91825 1003.96 9.33978 1000.69 9.48284L1000.76 11.1433L1008.02 12.8225L1010.27 9.39709C1017.05 11.654 1021.34 11.1053 1025.36 10.5906C1027.1 10.3675 1028.8 10.1507 1030.62 10.1716C1034.87 9.98588 1037.93 8.85419 1038.56 7.16278L1039.36 7.12796C1039.33 7.12925 1039.29 7.09408 1039.24 7.04717C1039.2 7.01637 1039.16 6.98053 1039.11 6.94663C1043.8 8.97129 1046.26 9.85503 1052.23 11.224L1046.21 11.4871L1052.38 14.5449C1054.21 15.0943 1054.79 14.3167 1055.45 13.4158C1056.54 11.9363 1057.87 10.1239 1065.46 13.3081L1067.3 14.8912L1068.67 15.4163C1068.71 14.205 1068.86 14.747 1069.04 15.554L1069.65 15.7869C1070.38 14.4237 1073.93 14.2689 1077.96 15.0911C1077.99 15.998 1078.02 16.9117 1078.05 17.8309C1079.96 17.627 1081.68 17.238 1083.07 16.6691C1084.91 15.9237 1086.19 14.8694 1086.31 13.5333C1087.92 13.7958 1088.29 14.1124 1088.76 14.7572C1088.81 14.8118 1088.85 14.8665 1088.9 14.9197L1088.9 14.9207C1089.11 15.1789 1089.29 15.3994 1089.59 15.3866L1090.83 15.3324C1093.1 14.6141 1091.76 13.4787 1090.67 12.5593L1090.59 12.4929C1090.54 12.4464 1090.48 12.4004 1090.43 12.3552C1091.51 12.6159 1092.3 13.0157 1093.05 13.3973C1094.74 14.2534 1096.25 15.0178 1100.44 13.9144L1097.93 15.355C1099.42 14.7466 1100.65 15.0918 1101.92 15.45C1103.76 15.9695 1105.7 16.5163 1108.7 14.2188L1109.1 9.21036L1104.14 11.4234L1112.27 6.41047C1113.38 6.77313 1113.31 7.18751 1113.21 7.76015C1113.15 8.11408 1113.08 8.52851 1113.27 9.02852C1115.6 7.98662 1116.88 8.46573 1117.87 8.83546C1118.98 9.25106 1119.73 9.52844 1121.18 7.35196L1122.12 10.638L1125.98 7.47513C1125.9 7.69992 1125.8 7.94184 1125.7 8.19581L1125.7 8.19765C1124.89 10.234 1123.77 13.0433 1129.01 13.997L1134.36 14.4291L1132.87 10.8341C1133.7 11.2729 1134.4 11.9344 1135.07 12.5662C1136.75 14.1473 1138.23 15.5437 1141.03 12.8067L1141.43 15.7839C1143.8 16.3581 1144.17 15.1204 1144.48 14.0528C1144.78 13.025 1145.03 12.1548 1146.99 13.2116L1145.59 15.602C1149.72 15.3006 1153.37 14.4453 1156.83 13.6361C1162.86 12.2248 1168.29 10.9534 1174.58 13.0047L1174.55 14.3369C1177.96 15.1862 1183.96 14.2589 1185.8 13.8456L1184.71 13.2278L1192.47 12.2232L1192.71 13.5438L1198.17 12.6398L1198.07 14.3079C1203.28 15.744 1208.02 14.5388 1212.37 12.6849L1210.73 11.7583C1211.85 11.7094 1212.78 8.56274 1213.66 5.57928L1213.66 5.57675C1213.9 4.77931 1214.13 3.99361 1214.36 3.28191C1216.18 3.34737 1216.79 2.70789 1217.36 2.11017C1218.1 1.33589 1218.77 0.631695 1221.92 1.62082C1221.73 1.88104 1221.55 2.11054 1221.39 2.31767L1221.39 2.31911L1221.39 2.32087C1220.49 3.47899 1220.13 3.94874 1221.01 5.32024C1222.1 4.91963 1222.91 4.63504 1223.54 4.41475C1224.83 3.9594 1225.35 3.77855 1225.85 3.41519C1226.18 3.17616 1226.5 2.85745 1227.03 2.33013C1227.51 1.85624 1228.16 1.21343 1229.14 0.307297C1225.93 4.10732 1228.57 7.65199 1233.78 9.08805C1238.64 8.87558 1241.51 7.79066 1243.9 6.88702C1246.78 5.79966 1248.96 4.97478 1253.09 6.24822L1257.37 10.7195C1259.43 10.9644 1260.48 9.48106 1261.36 8.23069C1262.23 6.99878 1262.94 5.99303 1264.31 7.0891C1268.7 7.75781 1268.78 7.10153 1268.86 6.45135C1268.94 5.84446 1269.01 5.24288 1272.59 5.72916L1272.57 5.39706C1272.71 5.39127 1272.82 5.46948 1272.94 5.54763C1273.05 5.6258 1273.17 5.704 1273.3 5.6982C1275.68 6.8445 1277.3 6.45764 1278.99 6.05497C1280 5.81477 1281.03 5.56895 1282.26 5.63954L1287.25 4.09065C1287.9 1.14261 1289.82 2.23231 1291.73 3.322C1292.66 3.84667 1293.58 4.37134 1294.36 4.44532L1295.99 1.04704C1303.4 4.0507 1315.07 5.20433 1326.34 5.04508C1327.3 7.08555 1330.34 6.37518 1333.61 5.61096L1333.61 5.61065C1334 5.52025 1334.39 5.42913 1334.78 5.34172L1333.13 4.08299C1351.95 6.25548 1352.03 6.25161 1369.91 5.13801L1372.39 3.03327C1370.97 5.09158 1374.71 7.2576 1376.32 7.52005C1378.18 7.61292 1380.7 7.2206 1383.46 6.79195C1385.97 6.40217 1388.67 5.98233 1391.24 5.86994L1391.12 7.20604C1386.32 7.41593 1380.32 7.96028 1374.71 8.46985C1369.77 8.91829 1365.12 9.33984 1361.85 9.4829L1361.92 11.1434L1369.18 12.8225L1371.43 9.39715C1378.21 11.654 1382.5 11.1054 1386.52 10.5907C1388.27 10.3675 1389.96 10.1508 1391.78 10.1716C1396.04 9.98594 1399.09 8.85425 1399.73 7.16285L1400.53 7.12803C1400.5 7.12932 1400.45 7.0941 1400.4 7.04723C1400.36 7.01643 1400.32 6.98059 1400.27 6.94669C1404.96 8.97135 1407.42 9.85509 1413.39 11.2241L1407.37 11.4871L1413.54 14.545C1415.38 15.0943 1415.95 14.3168 1416.61 13.4158C1417.7 11.9363 1419.03 10.124 1426.62 13.3082L1428.46 14.8913L1430.81 15.7869C1431.55 14.4238 1435.09 14.269 1439.12 15.0912C1439.42 24.0615 1439.67 33.7009 1439.88 42.6751L1439.88 42.677L1439.88 42.6898C1439.92 44.4043 1439.96 46.1188 1440 47.8125L1438.81 47.8643Z" fill="white"/>
<path d="M1400.27 6.94669C1400.2 6.89462 1400.11 6.84715 1400 6.82962L1400.27 6.94669Z" fill="white"/>
<path d="M1400 6.82962C1399.97 6.82381 1399.93 6.82129 1399.89 6.82302L1399.98 6.81915L1400 6.82962Z" fill="white"/>
<path d="M1039.11 6.94663C1039.04 6.89455 1038.95 6.84708 1038.84 6.82956L1039.11 6.94663Z" fill="white"/>
<path d="M1038.84 6.82956C1038.83 6.82822 1038.82 6.82705 1038.82 6.82608C1038.81 6.82523 1038.8 6.82453 1038.79 6.82397C1038.78 6.82309 1038.77 6.82257 1038.76 6.82244C1038.75 6.82234 1038.74 6.82251 1038.73 6.82295L1038.82 6.81909L1038.84 6.82956Z" fill="white"/>
<path d="M681.671 6.94663C681.596 6.89455 681.507 6.84708 681.4 6.82956L681.671 6.94663Z" fill="white"/>
<path d="M681.4 6.82956C681.364 6.82374 681.327 6.82123 681.287 6.82295L681.376 6.81909L681.4 6.82956Z" fill="white"/>
<path d="M320.507 6.94657C320.433 6.89449 320.343 6.84702 320.236 6.8295L320.507 6.94657Z" fill="white"/>
<path d="M320.236 6.8295C320.228 6.82815 320.22 6.82699 320.211 6.82601C320.204 6.82517 320.197 6.82447 320.189 6.8239C320.177 6.82302 320.166 6.8225 320.153 6.82238L320.212 6.81902L320.236 6.8295Z" fill="white"/>
</svg>
