<svg width="1440" height="49" viewBox="0 0 1440 49" fill="none" xmlns="http://www.w3.org/2000/svg">
<path d="M1438.81 48.1592L0 48.1591L2.64685e-06 17.8827C1.22766 17.6631 2.34278 17.3563 3.30652 16.9639C5.13758 16.2185 6.42261 15.1642 6.54163 13.8281C8.15039 14.0906 8.51941 14.4072 8.99134 15.052C9.03858 15.1061 9.08325 15.1603 9.12659 15.213L9.12879 15.2155C9.3418 15.4737 9.52381 15.6942 9.81726 15.6814L11.0573 15.6272C13.3364 14.9089 11.991 13.7735 10.9015 12.8541L10.8911 12.8452L10.8889 12.8434L10.8771 12.8335C10.8036 12.7713 10.7311 12.71 10.661 12.65C11.7395 12.9107 12.5291 13.3105 13.2822 13.6921C14.9722 14.5482 16.4813 15.3126 20.6681 14.2092L18.1575 15.6498C19.6517 15.0414 20.8773 15.3866 22.1491 15.7448C23.9937 16.2643 25.9352 16.8111 28.9341 14.5136L29.3366 9.50515L24.3751 11.7182L32.4977 6.70527C33.6106 7.06793 33.5391 7.48232 33.4404 8.05498C33.3795 8.40892 33.3082 8.82331 33.4995 9.32331C35.8355 8.28141 37.1165 8.76053 38.1052 9.13026C39.2166 9.54586 39.9583 9.82324 41.4128 7.64676L42.355 10.9328L46.2101 7.76993C46.1322 7.99229 46.0369 8.23143 45.9368 8.48239L45.9362 8.48367L45.9346 8.48786L45.9341 8.48906L45.9327 8.49278C45.1199 10.5291 43.9988 13.3381 49.2461 14.2918L54.5895 14.7239L53.1012 11.1289C53.9313 11.5677 54.6335 12.2291 55.3046 12.861C56.9834 14.4421 58.4658 15.8385 61.2627 13.1015L61.6589 16.0787C64.0352 16.6529 64.3971 15.4152 64.7094 14.3476C65.01 13.3197 65.2645 12.4496 67.226 13.5064L65.8219 15.8968C69.948 15.5954 73.6021 14.7401 77.0595 13.9309C83.0896 12.5195 88.5215 11.2482 94.8153 13.2995L94.7847 14.6317C98.1939 15.481 104.188 14.5537 106.033 14.1404L104.941 13.5226L112.707 12.518L112.942 13.8386L118.404 12.9345L118.3 14.6027C123.509 16.0388 128.249 14.8336 132.604 12.9797L130.967 12.0531C132.085 12.0042 133.012 8.85753 133.892 5.87407L133.893 5.86915L133.893 5.868C134.128 5.07177 134.359 4.28734 134.59 3.5767C136.41 3.64216 137.02 3.00268 137.59 2.40497C138.329 1.63068 139.001 0.926491 142.149 1.91561C141.958 2.177 141.779 2.40781 141.619 2.61566C140.722 3.77379 140.359 4.24353 141.246 5.61504C142.326 5.21521 143.137 4.93095 143.765 4.71084L143.766 4.71037L143.768 4.70954C145.067 4.25419 145.583 4.07335 146.082 3.70999C146.41 3.47095 146.732 3.15224 147.264 2.62493C147.742 2.15103 148.391 1.50823 149.369 0.602091C146.163 4.40211 148.802 7.94678 154.012 9.38284C158.876 9.17037 161.746 8.08546 164.136 7.18182C167.013 6.09446 169.195 5.26957 173.322 6.54301L177.599 11.0143C179.666 11.2592 180.712 9.77586 181.593 8.52548C182.462 7.29358 183.171 6.28783 184.54 7.3839C188.929 8.05261 189.012 7.39633 189.093 6.74615C189.169 6.13926 189.245 5.53767 192.822 6.02395L192.807 5.69186C192.94 5.68606 193.055 5.76425 193.169 5.84243C193.283 5.92059 193.398 5.9988 193.531 5.99299C195.915 7.1393 197.537 6.75243 199.224 6.34976C200.231 6.10956 201.261 5.86375 202.491 5.93434L207.481 4.38544C208.131 1.4374 210.049 2.52711 211.967 3.6168C212.891 4.14147 213.814 4.66614 214.596 4.74012L216.222 1.34183C223.63 4.3455 235.306 5.49913 246.569 5.33987C247.531 7.38035 250.572 6.66997 253.843 5.90576L253.845 5.90544C254.232 5.81504 254.622 5.72393 255.012 5.63652L253.36 4.37779C272.179 6.55027 272.267 6.54641 290.144 5.43281L292.626 3.32806C291.207 5.38637 294.94 7.55239 296.549 7.81484C298.412 7.90772 300.936 7.51541 303.693 7.08675C306.2 6.69697 308.901 6.27713 311.474 6.16473L311.355 7.50083C306.55 7.71073 300.553 8.25511 294.939 8.76469C290 9.21311 285.356 9.63464 282.081 9.7777L282.154 11.4382L289.415 13.1173L291.662 9.69195C298.446 11.9488 302.733 11.4002 306.754 10.8854C308.498 10.6623 310.191 10.4456 312.017 10.4664C316.268 10.2807 319.325 9.14905 319.961 7.45764L320.758 7.42282C320.728 7.42411 320.687 7.38894 320.633 7.34203C320.597 7.31123 320.555 7.27538 320.507 7.24149C325.197 9.26615 327.655 10.1499 333.627 11.5188L327.604 11.7819L333.772 14.8398C335.609 15.3891 336.182 14.6116 336.844 13.7106C337.933 12.2311 339.266 10.4188 346.851 13.603L348.695 15.1861L350.071 15.7111C350.104 14.4998 350.257 15.0418 350.431 15.8488L351.042 16.0817C351.781 14.7186 355.324 14.5638 359.353 15.386C359.383 16.2929 359.413 17.2066 359.443 18.1258C361.358 17.9219 363.073 17.5329 364.471 16.964C366.302 16.2186 367.587 15.1643 367.706 13.8282C369.315 14.0906 369.683 14.4072 370.155 15.0521C370.187 15.0889 370.219 15.1258 370.249 15.1622L370.292 15.2145L370.293 15.2156C370.506 15.4737 370.688 15.6942 370.981 15.6814L372.221 15.6273C374.5 14.9089 373.155 13.7735 372.066 12.8541L371.987 12.7878C371.932 12.7412 371.878 12.6953 371.825 12.65C372.904 12.9107 373.693 13.3106 374.446 13.6922C376.136 14.5482 377.645 15.3127 381.832 14.2093L379.322 15.6498C380.816 15.0415 382.042 15.3867 383.313 15.7448C385.158 16.2644 387.099 16.8112 390.098 14.5137L390.501 9.50521L385.539 11.7183L393.662 6.70533C394.774 7.06799 394.703 7.48236 394.604 8.055C394.544 8.40894 394.472 8.82337 394.664 9.32338C396.999 8.28148 398.281 8.76059 399.269 9.13032C400.38 9.54592 401.122 9.8233 402.577 7.64682L403.519 10.9329L407.374 7.76999C407.295 7.99478 407.199 8.2367 407.098 8.49067L407.097 8.49251C406.284 10.5289 405.163 13.3382 410.41 14.2919L415.753 14.7239L414.265 11.129C415.095 11.5676 415.797 12.2289 416.468 12.8607C418.147 14.4417 419.63 15.8385 422.427 13.1015L422.823 16.0787C425.199 16.653 425.561 15.4152 425.873 14.3477C426.174 13.3198 426.429 12.4497 428.39 13.5065L426.986 15.8969C431.112 15.5955 434.766 14.7402 438.223 13.931C444.253 12.5196 449.685 11.2482 455.979 13.2995L455.948 14.6318C459.358 15.481 465.352 14.5538 467.197 14.1404L466.105 13.5227L473.87 12.518L474.106 13.8387L479.568 12.9346L479.463 14.6028C484.673 16.0389 489.412 14.8337 493.768 12.9798L492.131 12.0531C493.249 12.0043 494.176 8.85759 495.055 5.87414L495.056 5.87161C495.291 5.07417 495.523 4.28846 495.754 3.57676C497.574 3.64222 498.184 3.00274 498.754 2.40503C499.493 1.63075 500.165 0.926554 503.313 1.91567C503.123 2.1759 502.945 2.4054 502.785 2.61253L502.784 2.61397L502.782 2.61573C501.886 3.77385 501.522 4.2436 502.409 5.6151C503.492 5.21449 504.303 4.9299 504.932 4.70961C506.231 4.25426 506.747 4.07341 507.246 3.71005C507.574 3.47101 507.896 3.15231 508.428 2.62499C508.906 2.1511 509.555 1.50829 510.532 0.602156C507.326 4.40217 509.966 7.94684 515.175 9.38291C520.039 9.17044 522.909 8.08552 525.3 7.18188C528.177 6.09452 530.359 5.26963 534.485 6.54308L538.763 11.0144C540.83 11.2593 541.875 9.77592 542.757 8.52554C543.625 7.29363 544.334 6.28789 545.703 7.38396C550.093 8.05267 550.175 7.39639 550.257 6.74621C550.333 6.13932 550.408 5.53774 553.986 6.02402L553.971 5.69192C554.104 5.68613 554.218 5.76434 554.333 5.84249C554.447 5.92066 554.561 5.99886 554.694 5.99306C557.079 7.13936 558.7 6.7525 560.388 6.34983C561.394 6.10963 562.424 5.86381 563.654 5.9344L568.645 4.38551C569.295 1.43747 571.213 2.52717 573.131 3.61686C574.054 4.14153 574.978 4.6662 575.76 4.74018L577.386 1.3419C584.794 4.34556 596.469 5.49919 607.732 5.33994C608.694 7.38041 611.735 6.67004 615.007 5.90582L615.008 5.90551C615.395 5.81511 615.785 5.72399 616.176 5.63658L614.523 4.37785C633.342 6.55034 633.431 6.54647 651.308 5.43287L653.789 3.32812C652.371 5.38644 656.104 7.55246 657.713 7.81491C659.576 7.90778 662.099 7.51546 664.857 7.08681C667.364 6.69703 670.064 6.27719 672.638 6.1648L672.518 7.5009C667.713 7.71079 661.717 8.25514 656.104 8.76471C651.164 9.21315 646.52 9.6347 643.245 9.77776L643.317 11.4382L650.579 13.1174L652.825 9.69201C659.61 11.9489 663.896 11.4003 667.918 10.8855C669.661 10.6624 671.355 10.4456 673.18 10.4665C677.432 10.2808 680.488 9.14911 681.124 7.4577L681.922 7.42289C681.892 7.42418 681.851 7.38896 681.796 7.34209C681.761 7.31129 681.719 7.27545 681.671 7.24155C686.36 9.26621 688.819 10.1499 694.79 11.5189L688.767 11.782L694.935 14.8398C696.773 15.3892 697.345 14.6116 698.008 13.7107C699.097 12.2312 700.43 10.4188 708.015 13.603L709.859 15.1861L712.205 16.0818C712.944 14.7186 716.487 14.5639 720.516 15.386C720.539 16.0615 720.562 16.7408 720.584 17.4233C721.052 17.2862 721.495 17.133 721.91 16.964C723.742 16.2186 725.026 15.1643 725.146 13.8282C726.754 14.0906 727.123 14.4072 727.595 15.0521C727.642 15.1062 727.687 15.1604 727.731 15.213L727.733 15.2156C727.946 15.4737 728.128 15.6942 728.421 15.6814L729.661 15.6273C731.94 14.9089 730.595 13.7735 729.505 12.8541L729.502 12.8511L729.495 12.8453L729.493 12.8435C729.415 12.7778 729.339 12.7132 729.265 12.65C730.344 12.9107 731.133 13.3106 731.886 13.6922C733.576 14.5482 735.085 15.3127 739.272 14.2093L736.761 15.6498C738.256 15.0415 739.481 15.3867 740.753 15.7448C742.598 16.2644 744.539 16.8112 747.538 14.5137L747.94 9.50522L742.979 11.7183L751.102 6.70533C752.214 7.06799 752.143 7.48238 752.044 8.05505C751.983 8.40898 751.912 8.82337 752.103 9.32338C754.439 8.28147 755.72 8.76059 756.709 9.13032C757.82 9.54592 758.562 9.8233 760.017 7.64682L760.959 10.9329L764.814 7.76999C764.736 7.99236 764.641 8.23149 764.541 8.48245L764.54 8.48373L764.539 8.48792L764.538 8.48912L764.537 8.49285C763.724 10.5292 762.603 13.3382 767.85 14.2919L773.193 14.7239L771.705 11.1289C772.535 11.5677 773.237 12.2292 773.908 12.8611C775.587 14.4422 777.07 15.8385 779.867 13.1015L780.263 16.0787C782.639 16.653 783.001 15.4152 783.313 14.3477C783.614 13.3198 783.868 12.4497 785.83 13.5065L784.426 15.8969C788.552 15.5954 792.206 14.7402 795.663 13.9309C801.694 12.5196 807.125 11.2482 813.419 13.2995L813.389 14.6318C816.798 15.481 822.792 14.5538 824.637 14.1404L823.545 13.5227L831.311 12.518L831.546 13.8387L837.008 12.9346L836.904 14.6028C842.113 16.0389 846.853 14.8337 851.209 12.9798L849.571 12.0531C850.689 12.0043 851.616 8.85759 852.496 5.87413L852.497 5.86922L852.497 5.86807C852.732 5.07183 852.963 4.28741 853.194 3.57676C855.014 3.64222 855.624 3.00275 856.194 2.40503C856.933 1.63075 857.605 0.926554 860.753 1.91568C860.562 2.17706 860.383 2.40787 860.223 2.61572C859.326 3.77385 858.962 4.2436 859.85 5.6151C860.93 5.21527 861.741 4.93101 862.368 4.7109L862.37 4.71044L862.372 4.70961C863.671 4.25426 864.187 4.07341 864.686 3.71005C865.014 3.47101 865.336 3.1523 865.868 2.62499C866.346 2.1511 866.995 1.50829 867.973 0.602153C864.766 4.40217 867.406 7.94684 872.616 9.3829C877.48 9.17044 880.35 8.08552 882.74 7.18188C885.617 6.09452 887.799 5.26963 891.926 6.54307L896.203 11.0144C898.27 11.2593 899.316 9.77592 900.197 8.52554C901.066 7.29364 901.775 6.2879 903.144 7.38396C907.533 8.05267 907.616 7.3964 907.697 6.74621C907.773 6.13932 907.849 5.53773 911.426 6.02401L911.411 5.69192C911.544 5.68612 911.659 5.76431 911.773 5.84249C911.887 5.92066 912.002 5.99886 912.135 5.99306C914.519 7.13936 916.14 6.75249 917.828 6.34983C918.835 6.10963 919.865 5.86382 921.095 5.9344L926.085 4.38551C926.735 1.43747 928.653 2.52717 930.571 3.61686C931.495 4.14153 932.418 4.6662 933.2 4.74018L934.826 1.3419C942.234 4.34556 953.91 5.49919 965.173 5.33994C966.135 7.38041 969.176 6.67004 972.447 5.90582L972.449 5.9055C972.836 5.81511 973.226 5.724 973.616 5.63658L971.964 4.37785C990.783 6.55034 990.871 6.54647 1008.75 5.43287L1011.23 3.32813C1009.81 5.38644 1013.54 7.55246 1015.15 7.8149C1017.02 7.90778 1019.54 7.51547 1022.3 7.08682C1024.8 6.69703 1027.5 6.27719 1030.08 6.1648L1029.96 7.50089C1025.15 7.71079 1019.16 8.25517 1013.54 8.76475C1008.6 9.21317 1003.96 9.6347 1000.69 9.77776L1000.76 11.4382L1008.02 13.1174L1010.27 9.69201C1017.05 11.9489 1021.34 11.4003 1025.36 10.8855C1027.1 10.6624 1028.8 10.4456 1030.62 10.4665C1034.87 10.2808 1037.93 9.14911 1038.56 7.45771L1039.36 7.42289C1039.33 7.42417 1039.29 7.389 1039.24 7.34209C1039.2 7.31129 1039.16 7.27545 1039.11 7.24155C1043.8 9.26621 1046.26 10.1499 1052.23 11.5189L1046.21 11.782L1052.38 14.8398C1054.21 15.3892 1054.79 14.6117 1055.45 13.7107C1056.54 12.2312 1057.87 10.4188 1065.46 13.603L1067.3 15.1861L1068.67 15.7112C1068.71 14.4999 1068.86 15.0419 1069.04 15.8489L1069.65 16.0818C1070.38 14.7186 1073.93 14.5639 1077.96 15.386C1077.99 16.2929 1078.02 17.2067 1078.05 18.1258C1079.96 17.9219 1081.68 17.5329 1083.07 16.9641C1084.91 16.2186 1086.19 15.1643 1086.31 13.8282C1087.92 14.0907 1088.29 14.4073 1088.76 15.0521C1088.81 15.1067 1088.85 15.1615 1088.9 15.2146L1088.9 15.2156C1089.11 15.4738 1089.29 15.6943 1089.59 15.6815L1090.83 15.6273C1093.1 14.909 1091.76 13.7736 1090.67 12.8542L1090.59 12.7879C1090.54 12.7413 1090.48 12.6954 1090.43 12.6501C1091.51 12.9108 1092.3 13.3106 1093.05 13.6923C1094.74 14.5483 1096.25 15.3128 1100.44 14.2093L1097.93 15.6499C1099.42 15.0416 1100.65 15.3868 1101.92 15.7449C1103.76 16.2644 1105.7 16.8113 1108.7 14.5137L1109.1 9.50528L1104.14 11.7183L1112.27 6.7054C1113.38 7.06805 1113.31 7.48243 1113.21 8.05507C1113.15 8.40901 1113.08 8.82343 1113.27 9.32344C1115.6 8.28154 1116.88 8.76066 1117.87 9.13038C1118.98 9.54598 1119.73 9.82337 1121.18 7.64688L1122.12 10.933L1125.98 7.77005C1125.9 7.99484 1125.8 8.23676 1125.7 8.49073L1125.7 8.49257C1124.89 10.5289 1123.77 13.3382 1129.01 14.2919L1134.36 14.724L1132.87 11.129C1133.7 11.5678 1134.4 12.2293 1135.07 12.8612C1136.75 14.4422 1138.23 15.8386 1141.03 13.1016L1141.43 16.0788C1143.8 16.6531 1144.17 15.4153 1144.48 14.3477C1144.78 13.3199 1145.03 12.4498 1146.99 13.5066L1145.59 15.897C1149.72 15.5955 1153.37 14.7402 1156.83 13.9311C1162.86 12.5197 1168.29 11.2483 1174.58 13.2996L1174.55 14.6318C1177.96 15.4811 1183.96 14.5538 1185.8 14.1405L1184.71 13.5227L1192.47 12.5181L1192.71 13.8387L1198.17 12.9347L1198.07 14.6029C1203.28 16.0389 1208.02 14.8337 1212.37 12.9798L1210.73 12.0532C1211.85 12.0044 1212.78 8.85766 1213.66 5.8742L1213.66 5.87168C1213.9 5.07423 1214.13 4.28853 1214.36 3.57683C1216.18 3.64229 1216.79 3.00281 1217.36 2.40509C1218.1 1.63081 1218.77 0.926616 1221.92 1.91574C1221.73 2.17596 1221.55 2.40546 1221.39 2.61259L1221.39 2.61404L1221.39 2.61579C1220.49 3.77391 1220.13 4.24366 1221.01 5.61516C1222.1 5.21455 1222.91 4.92996 1223.54 4.70967C1224.83 4.25432 1225.35 4.07347 1225.85 3.71011C1226.18 3.47108 1226.5 3.15237 1227.03 2.62505C1227.51 2.15116 1228.16 1.50835 1229.14 0.602219C1225.93 4.40224 1228.57 7.94691 1233.78 9.38297C1238.64 9.1705 1241.51 8.08558 1243.9 7.18194C1246.78 6.09458 1248.96 5.2697 1253.09 6.54314L1257.37 11.0144C1259.43 11.2594 1260.48 9.77599 1261.36 8.52561C1262.23 7.2937 1262.94 6.28796 1264.31 7.38403C1268.7 8.05273 1268.78 7.39645 1268.86 6.74627C1268.94 6.13938 1269.01 5.5378 1272.59 6.02408L1272.57 5.69199C1272.71 5.68619 1272.82 5.7644 1272.94 5.84256C1273.05 5.92072 1273.17 5.99892 1273.3 5.99312C1275.68 7.13942 1277.3 6.75256 1278.99 6.34989C1280 6.1097 1281.03 5.86387 1282.26 5.93446L1287.25 4.38557C1287.9 1.43753 1289.82 2.52723 1291.73 3.61693C1292.66 4.14159 1293.58 4.66626 1294.36 4.74024L1295.99 1.34196C1303.4 4.34562 1315.07 5.49926 1326.34 5.34C1327.3 7.38047 1330.34 6.6701 1333.61 5.90588L1333.61 5.90557C1334 5.81518 1334.39 5.72405 1334.78 5.63664L1333.13 4.37792C1351.95 6.5504 1352.03 6.54654 1369.91 5.43293L1372.39 3.32819C1370.97 5.3865 1374.71 7.55252 1376.32 7.81497C1378.18 7.90785 1380.7 7.51552 1383.46 7.08687C1385.97 6.69709 1388.67 6.27726 1391.24 6.16486L1391.12 7.50096C1386.32 7.71086 1380.32 8.2552 1374.71 8.76477C1369.77 9.21321 1365.12 9.63476 1361.85 9.77782L1361.92 11.4383L1369.18 13.1174L1371.43 9.69208C1378.21 11.949 1382.5 11.4003 1386.52 10.8856C1388.27 10.6625 1389.96 10.4457 1391.78 10.4666C1396.04 10.2809 1399.09 9.14917 1399.73 7.45777L1400.53 7.42295C1400.5 7.42424 1400.45 7.38902 1400.4 7.34216C1400.36 7.31136 1400.32 7.27551 1400.27 7.24161C1404.96 9.26627 1407.42 10.15 1413.39 11.519L1407.37 11.7821L1413.54 14.8399C1415.38 15.3892 1415.95 14.6117 1416.61 13.7108C1417.7 12.2313 1419.03 10.4189 1426.62 13.6031L1428.46 15.1862L1430.81 16.0819C1431.55 14.7187 1435.09 14.5639 1439.12 15.3861C1439.42 24.3564 1439.67 33.9958 1439.88 42.97L1439.88 42.9719L1439.88 42.9847C1439.92 44.6992 1439.96 46.4137 1440 48.1074L1438.81 48.1592Z" fill="#5C5C5C"/>
<path d="M1400.27 7.24161C1400.2 7.18954 1400.11 7.14207 1400 7.12455L1400.27 7.24161Z" fill="#5C5C5C"/>
<path d="M1400 7.12455C1399.97 7.11873 1399.93 7.11622 1399.89 7.11794L1399.98 7.11407L1400 7.12455Z" fill="#5C5C5C"/>
<path d="M1039.11 7.24155C1039.04 7.18948 1038.95 7.142 1038.84 7.12448L1039.11 7.24155Z" fill="#5C5C5C"/>
<path d="M1038.84 7.12448C1038.83 7.12314 1038.82 7.12197 1038.82 7.121C1038.81 7.12015 1038.8 7.11945 1038.79 7.11889C1038.78 7.11801 1038.77 7.11749 1038.76 7.11737C1038.75 7.11727 1038.74 7.11743 1038.73 7.11787L1038.82 7.11401L1038.84 7.12448Z" fill="#5C5C5C"/>
<path d="M681.671 7.24155C681.596 7.18947 681.507 7.142 681.4 7.12448L681.671 7.24155Z" fill="#5C5C5C"/>
<path d="M681.4 7.12448C681.364 7.11867 681.327 7.11615 681.287 7.11788L681.376 7.11401L681.4 7.12448Z" fill="#5C5C5C"/>
<path d="M320.507 7.24149C320.433 7.18941 320.343 7.14194 320.236 7.12442L320.507 7.24149Z" fill="#5C5C5C"/>
<path d="M320.236 7.12442C320.228 7.12307 320.22 7.12191 320.211 7.12093C320.204 7.12009 320.197 7.11939 320.189 7.11883C320.177 7.11794 320.166 7.11743 320.153 7.1173L320.212 7.11395L320.236 7.12442Z" fill="#5C5C5C"/>
</svg>
