<svg width="1440" height="48" viewBox="0 0 1440 48" fill="none" xmlns="http://www.w3.org/2000/svg">
<path d="M1.18593 0.0421143H1440V30.3185C1438.77 30.538 1437.66 30.8448 1436.69 31.2372C1434.86 31.9827 1433.58 33.037 1433.46 34.3731C1431.85 34.1106 1431.48 33.794 1431.01 33.1492C1430.96 33.0951 1430.92 33.0409 1430.87 32.9882L1430.87 32.9856C1430.66 32.7275 1430.48 32.507 1430.18 32.5198L1428.94 32.574C1426.66 33.2923 1428.01 34.4277 1429.1 35.3471L1429.11 35.3559L1429.11 35.3578L1429.12 35.3676C1429.2 35.4299 1429.27 35.4912 1429.34 35.5512C1428.26 35.2905 1427.47 34.8907 1426.72 34.509C1425.03 33.653 1423.52 32.8885 1419.33 33.992L1421.84 32.5514C1420.35 33.1597 1419.12 32.8145 1417.85 32.4564C1416.01 31.9369 1414.06 31.39 1411.07 33.6876L1410.66 38.696L1415.62 36.483L1407.5 41.4959C1406.39 41.1332 1406.46 40.7189 1406.56 40.1462C1406.62 39.7923 1406.69 39.3779 1406.5 38.8779C1404.16 39.9198 1402.88 39.4406 1401.89 39.0709C1400.78 38.6553 1400.04 38.3779 1398.59 40.5544L1397.65 37.2683L1393.79 40.4312C1393.87 40.2089 1393.96 39.9697 1394.06 39.7188L1394.06 39.7175L1394.07 39.7133L1394.07 39.7121L1394.07 39.7084C1394.88 37.672 1396 34.8631 1390.75 33.9094L1385.41 33.4773L1386.9 37.0723C1386.07 36.6335 1385.37 35.9721 1384.7 35.3401C1383.02 33.7591 1381.53 32.3627 1378.74 35.0997L1378.34 32.1225C1375.96 31.5482 1375.6 32.786 1375.29 33.8536C1374.99 34.8814 1374.74 35.7515 1372.77 34.6947L1374.18 32.3043C1370.05 32.6058 1366.4 33.4611 1362.94 34.2703C1356.91 35.6817 1351.48 36.953 1345.18 34.9017L1345.22 33.5695C1341.81 32.7202 1335.81 33.6475 1333.97 34.0608L1335.06 34.6786L1327.29 35.6832L1327.06 34.3626L1321.6 35.2666L1321.7 33.5984C1316.49 32.1624 1311.75 33.3676 1307.4 35.2215L1309.03 36.1481C1307.92 36.1969 1306.99 39.3437 1306.11 42.3271L1306.11 42.332L1306.11 42.3332C1305.87 43.1294 1305.64 43.9138 1305.41 44.6245C1303.59 44.559 1302.98 45.1985 1302.41 45.7962C1301.67 46.5705 1301 47.2747 1297.85 46.2856C1298.04 46.0242 1298.22 45.7934 1298.38 45.5855C1299.28 44.4274 1299.64 43.9576 1298.75 42.5861C1297.67 42.986 1296.86 43.2702 1296.24 43.4903L1296.23 43.4908L1296.23 43.4916C1294.93 43.947 1294.42 44.1278 1293.92 44.4912C1293.59 44.7302 1293.27 45.0489 1292.74 45.5763C1292.26 46.0501 1291.61 46.693 1290.63 47.5991C1293.84 43.7991 1291.2 40.2544 1285.99 38.8183C1281.12 39.0308 1278.25 40.1157 1275.86 41.0194C1272.99 42.1067 1270.8 42.9316 1266.68 41.6582L1262.4 37.1869C1260.33 36.9419 1259.29 38.4253 1258.41 39.6757C1257.54 40.9076 1256.83 41.9133 1255.46 40.8173C1251.07 40.1486 1250.99 40.8049 1250.91 41.455C1250.83 42.0619 1250.76 42.6635 1247.18 42.1772L1247.19 42.5093C1247.06 42.5151 1246.95 42.4369 1246.83 42.3588C1246.72 42.2806 1246.6 42.2024 1246.47 42.2082C1244.08 41.0619 1242.46 41.4488 1240.78 41.8514C1239.77 42.0916 1238.74 42.3374 1237.51 42.2668L1232.52 43.8157C1231.87 46.7638 1229.95 45.6741 1228.03 44.5844C1227.11 44.0597 1226.19 43.535 1225.4 43.4611L1223.78 46.8594C1216.37 43.8557 1204.69 42.7021 1193.43 42.8613C1192.47 40.8208 1189.43 41.5312 1186.16 42.2954L1186.16 42.2957C1185.77 42.3861 1185.38 42.4773 1184.99 42.5647L1186.64 43.8234C1167.82 41.6509 1167.73 41.6548 1149.86 42.7684L1147.37 44.8731C1148.79 42.8148 1145.06 40.6488 1143.45 40.3864C1141.59 40.2935 1139.06 40.6858 1136.31 41.1144C1133.8 41.5042 1131.1 41.9241 1128.53 42.0365L1128.65 40.7004C1133.45 40.4905 1139.45 39.9461 1145.06 39.4365C1150 38.9881 1154.64 38.5666 1157.92 38.4235L1157.85 36.763L1150.58 35.0839L1148.34 38.5092C1141.55 36.2524 1137.27 36.801 1133.25 37.3157C1131.5 37.5389 1129.81 37.7556 1127.98 37.7348C1123.73 37.9205 1120.68 39.0521 1120.04 40.7436L1119.24 40.7784C1119.27 40.7771 1119.31 40.8123 1119.37 40.8592C1119.4 40.89 1119.44 40.9258 1119.49 40.9597C1114.8 38.9351 1112.34 38.0513 1106.37 36.6824L1112.4 36.4193L1106.23 33.3614C1104.39 32.8121 1103.82 33.5896 1103.16 34.4906C1102.07 35.9701 1100.73 37.7824 1093.15 34.5982L1091.3 33.0151L1089.93 32.4901C1089.9 33.7014 1089.74 33.1594 1089.57 32.3524L1088.96 32.1195C1088.22 33.4826 1084.68 33.6374 1080.65 32.8152C1080.62 31.9083 1080.59 30.9946 1080.56 30.0754C1078.64 30.2793 1076.93 30.6683 1075.53 31.2372C1073.7 31.9826 1072.41 33.0369 1072.29 34.373C1070.69 34.1106 1070.32 33.794 1069.84 33.1491C1069.81 33.1123 1069.78 33.0754 1069.75 33.039L1069.71 32.9867L1069.71 32.9856C1069.49 32.7275 1069.31 32.507 1069.02 32.5198L1067.78 32.5739C1065.5 33.2923 1066.84 34.4277 1067.93 35.3471L1068.01 35.4134C1068.07 35.46 1068.12 35.5059 1068.17 35.5512C1067.1 35.2905 1066.31 34.8906 1065.55 34.509C1063.86 33.653 1062.35 32.8885 1058.17 33.9919L1060.68 32.5514C1059.18 33.1597 1057.96 32.8145 1056.69 32.4564C1054.84 31.9368 1052.9 31.39 1049.9 33.6875L1049.5 38.696L1054.46 36.4829L1046.34 41.4959C1045.23 41.1332 1045.3 40.7188 1045.4 40.1462C1045.46 39.7923 1045.53 39.3778 1045.34 38.8778C1043 39.9197 1041.72 39.4406 1040.73 39.0709C1039.62 38.6553 1038.88 38.3779 1037.42 40.5544L1036.48 37.2683L1032.63 40.4312C1032.7 40.2064 1032.8 39.9645 1032.9 39.7105L1032.9 39.7087C1033.72 37.6723 1034.84 34.863 1029.59 33.9093L1024.25 33.4773L1025.73 37.0723C1024.9 36.6336 1024.2 35.9723 1023.53 35.3405C1021.85 33.7595 1020.37 32.3627 1017.57 35.0997L1017.18 32.1225C1014.8 31.5482 1014.44 32.786 1014.13 33.8535C1013.83 34.8814 1013.57 35.7515 1011.61 34.6947L1013.01 32.3043C1008.89 32.6058 1005.23 33.4611 1001.78 34.2702C995.747 35.6816 990.315 36.953 984.021 34.9017L984.052 33.5694C980.642 32.7202 974.648 33.6474 972.803 34.0608L973.895 34.6785L966.13 35.6832L965.894 34.3625L960.432 35.2666L960.537 33.5984C955.327 32.1624 950.588 33.3675 946.232 35.2214L947.869 36.1481C946.751 36.1969 945.824 39.3436 944.945 42.3271L944.944 42.3296C944.709 43.127 944.477 43.9127 944.246 44.6244C942.426 44.559 941.816 45.1985 941.246 45.7962C940.507 46.5705 939.835 47.2747 936.687 46.2855C936.877 46.0253 937.055 45.7958 937.215 45.5887L937.216 45.5872L937.218 45.5855C938.114 44.4274 938.478 43.9576 937.591 42.5861C936.508 42.9867 935.697 43.2713 935.068 43.4916C933.769 43.947 933.253 44.1278 932.754 44.4912C932.426 44.7302 932.104 45.0489 931.572 45.5762C931.094 46.0501 930.445 46.6929 929.468 47.5991C932.674 43.799 930.034 40.2544 924.825 38.8183C919.961 39.0308 917.091 40.1157 914.7 41.0193C911.823 42.1067 909.641 42.9316 905.515 41.6581L901.237 37.1868C899.17 36.9419 898.125 38.4253 897.243 39.6757C896.375 40.9076 895.666 41.9133 894.297 40.8173C889.907 40.1485 889.825 40.8048 889.743 41.455C889.667 42.0619 889.592 42.6635 886.014 42.1772L886.029 42.5093C885.896 42.5151 885.782 42.4369 885.667 42.3587C885.553 42.2806 885.439 42.2024 885.306 42.2082C882.921 41.0619 881.3 41.4487 879.612 41.8514C878.606 42.0916 877.576 42.3374 876.346 42.2668L871.355 43.8157C870.705 46.7638 868.787 45.674 866.869 44.5844C865.946 44.0597 865.022 43.535 864.24 43.461L862.614 46.8593C855.206 43.8557 843.531 42.702 832.268 42.8613C831.306 40.8208 828.265 41.5312 824.993 42.2954L824.992 42.2957C824.605 42.3861 824.215 42.4772 823.824 42.5646L825.477 43.8234C806.658 41.6509 806.569 41.6548 788.692 42.7684L786.211 44.8731C787.629 42.8148 783.896 40.6488 782.287 40.3863C780.424 40.2934 777.901 40.6858 775.143 41.1144C772.636 41.5042 769.936 41.924 767.362 42.0364L767.482 40.7003C772.287 40.4904 778.283 39.9461 783.896 39.4365C788.836 38.9881 793.48 38.5665 796.755 38.4235L796.683 36.763L789.421 35.0838L787.175 38.5092C780.39 36.2523 776.104 36.801 772.082 37.3157C770.339 37.5388 768.645 37.7556 766.82 37.7347C762.568 37.9204 759.512 39.0521 758.876 40.7435L758.078 40.7783C758.108 40.7771 758.149 40.8123 758.204 40.8591C758.24 40.8899 758.281 40.9258 758.329 40.9597C753.64 38.935 751.181 38.0513 745.21 36.6823L751.233 36.4192L745.065 33.3614C743.227 32.812 742.655 33.5896 741.992 34.4905C740.903 35.97 739.57 37.7824 731.985 34.5982L730.141 33.0151L727.795 32.1194C727.056 33.4826 723.513 33.6374 719.484 32.8152C719.461 32.1397 719.438 31.4604 719.416 30.7779C718.948 30.9151 718.505 31.0682 718.09 31.2372C716.258 31.9827 714.974 33.037 714.854 34.3731C713.246 34.1106 712.877 33.794 712.405 33.1492C712.358 33.0951 712.313 33.0409 712.269 32.9882L712.267 32.9856C712.054 32.7275 711.872 32.507 711.579 32.5198L710.339 32.574C708.06 33.2923 709.405 34.4277 710.495 35.3471L710.498 35.3501L710.505 35.3559L710.507 35.3578C710.585 35.4234 710.661 35.488 710.735 35.5512C709.656 35.2905 708.867 34.8907 708.114 34.509C706.424 33.653 704.915 32.8885 700.728 33.992L703.239 32.5514C701.744 33.1597 700.519 32.8145 699.247 32.4564C697.402 31.9369 695.461 31.39 692.462 33.6876L692.06 38.696L697.021 36.483L688.898 41.4959C687.786 41.1332 687.857 40.7189 687.956 40.1462C688.017 39.7923 688.088 39.3779 687.897 38.8779C685.561 39.9198 684.28 39.4406 683.291 39.0709C682.18 38.6553 681.438 38.3779 679.983 40.5544L679.041 37.2683L675.186 40.4312C675.264 40.2089 675.359 39.9697 675.459 39.7188L675.46 39.7175L675.461 39.7133L675.462 39.7121L675.463 39.7084C676.276 37.672 677.397 34.8631 672.15 33.9094L666.807 33.4773L668.295 37.0723C667.465 36.6335 666.763 35.9721 666.092 35.3401C664.413 33.7591 662.93 32.3627 660.133 35.0997L659.737 32.1225C657.361 31.5482 656.999 32.786 656.687 33.8536C656.386 34.8814 656.132 35.7515 654.17 34.6947L655.574 32.3043C651.448 32.6058 647.794 33.4611 644.337 34.2703C638.306 35.6817 632.875 36.953 626.581 34.9017L626.611 33.5695C623.202 32.7202 617.208 33.6475 615.363 34.0608L616.455 34.6786L608.689 35.6832L608.454 34.3626L602.992 35.2666L603.096 33.5984C597.887 32.1624 593.147 33.3676 588.791 35.2215L590.429 36.1481C589.311 36.1969 588.384 39.3437 587.504 42.3271L587.503 42.332L587.503 42.3332C587.268 43.1294 587.037 43.9138 586.806 44.6245C584.986 44.559 584.376 45.1985 583.806 45.7962C583.067 46.5705 582.395 47.2747 579.247 46.2856C579.438 46.0242 579.617 45.7934 579.777 45.5855C580.674 44.4274 581.038 43.9576 580.15 42.5861C579.07 42.986 578.259 43.2702 577.632 43.4903L577.63 43.4908L577.628 43.4916C576.329 43.947 575.813 44.1278 575.314 44.4912C574.986 44.7302 574.664 45.0489 574.132 45.5763C573.654 46.0501 573.005 46.693 572.027 47.5991C575.234 43.7991 572.594 40.2544 567.384 38.8183C562.52 39.0308 559.65 40.1157 557.26 41.0194C554.383 42.1067 552.201 42.9316 548.074 41.6582L543.797 37.1869C541.73 36.9419 540.684 38.4253 539.803 39.6757C538.934 40.9076 538.225 41.9133 536.856 40.8173C532.467 40.1486 532.384 40.8049 532.303 41.455C532.227 42.0619 532.151 42.6635 528.574 42.1772L528.589 42.5093C528.456 42.5151 528.341 42.4369 528.227 42.3588C528.113 42.2806 527.998 42.2024 527.865 42.2082C525.481 41.0619 523.86 41.4488 522.172 41.8514C521.165 42.0916 520.135 42.3374 518.905 42.2668L513.915 43.8157C513.265 46.7638 511.347 45.6741 509.429 44.5844C508.505 44.0597 507.582 43.535 506.8 43.4611L505.174 46.8594C497.766 43.8557 486.09 42.7021 474.827 42.8613C473.865 40.8208 470.824 41.5312 467.553 42.2954L467.551 42.2957C467.164 42.3861 466.774 42.4773 466.384 42.5647L468.036 43.8234C449.217 41.6509 449.129 41.6548 431.252 42.7684L428.77 44.8731C430.189 42.8148 426.456 40.6488 424.847 40.3864C422.984 40.2935 420.461 40.6858 417.703 41.1144C415.196 41.5042 412.495 41.9241 409.922 42.0365L410.041 40.7004C414.847 40.4905 420.843 39.9461 426.457 39.4365C431.396 38.9881 436.04 38.5666 439.315 38.4235L439.242 36.763L431.981 35.0839L429.735 38.5092C422.95 36.2524 418.664 36.801 414.642 37.3157C412.898 37.5389 411.205 37.7556 409.379 37.7348C405.128 37.9205 402.071 39.0521 401.435 40.7436L400.638 40.7784C400.668 40.7771 400.709 40.8123 400.763 40.8592C400.799 40.89 400.841 40.9258 400.889 40.9597C396.199 38.9351 393.741 38.0513 387.769 36.6824L393.792 36.4193L387.624 33.3614C385.787 32.8121 385.215 33.5896 384.552 34.4906C383.463 35.9701 382.13 37.7824 374.545 34.5982L372.701 33.0151L371.325 32.4901C371.292 33.7014 371.139 33.1594 370.965 32.3524L370.354 32.1195C369.615 33.4826 366.073 33.6374 362.043 32.8152C362.013 31.9083 361.983 30.9946 361.953 30.0754C360.038 30.2793 358.323 30.6683 356.925 31.2372C355.094 31.9826 353.809 33.0369 353.69 34.373C352.082 34.1106 351.713 33.794 351.241 33.1491C351.193 33.0945 351.148 33.0398 351.104 32.9867L351.103 32.9856C350.89 32.7275 350.708 32.507 350.415 32.5198L349.175 32.5739C346.896 33.2923 348.241 34.4277 349.331 35.3471L349.409 35.4134C349.464 35.46 349.518 35.5059 349.571 35.5512C348.492 35.2905 347.703 34.8906 346.95 34.509C345.26 33.653 343.751 32.8885 339.564 33.9919L342.075 32.5514C340.58 33.1597 339.355 32.8145 338.083 32.4564C336.238 31.9368 334.297 31.39 331.298 33.6875L330.895 38.696L335.857 36.4829L327.734 41.4959C326.622 41.1332 326.693 40.7188 326.792 40.1462C326.853 39.7923 326.924 39.3778 326.733 38.8778C324.397 39.9197 323.116 39.4406 322.127 39.0709C321.016 38.6553 320.274 38.3779 318.819 40.5544L317.877 37.2683L314.022 40.4312C314.101 40.2064 314.197 39.9645 314.299 39.7105L314.299 39.7087C315.112 37.6723 316.233 34.863 310.986 33.9093L305.643 33.4773L307.131 37.0723C306.301 36.6335 305.598 35.972 304.927 35.3401C303.249 33.7591 301.766 32.3627 298.969 35.0997L298.573 32.1225C296.197 31.5482 295.835 32.786 295.523 33.8535C295.222 34.8814 294.967 35.7515 293.006 34.6947L294.41 32.3043C290.284 32.6058 286.63 33.4611 283.173 34.2702C277.143 35.6816 271.711 36.953 265.417 34.9017L265.448 33.5694C262.038 32.7202 256.044 33.6474 254.199 34.0608L255.291 34.6785L247.526 35.6832L247.29 34.3625L241.828 35.2666L241.933 33.5984C236.723 32.1624 231.984 33.3675 227.628 35.2214L229.265 36.1481C228.147 36.1969 227.22 39.3436 226.341 42.3271L226.34 42.3296C226.105 43.127 225.873 43.9127 225.642 44.6244C223.823 44.559 223.212 45.1985 222.642 45.7962C221.903 46.5705 221.231 47.2747 218.083 46.2855C218.273 46.0253 218.451 45.7958 218.611 45.5887L218.613 45.5872L218.614 45.5855C219.51 44.4274 219.874 43.9576 218.987 42.5861C217.905 42.9867 217.093 43.2713 216.464 43.4916C215.165 43.947 214.649 44.1278 214.15 44.4912C213.822 44.7302 213.5 45.0489 212.968 45.5762C212.49 46.0501 211.841 46.6929 210.864 47.5991C214.07 43.799 211.43 40.2544 206.221 38.8183C201.357 39.0308 198.487 40.1157 196.096 41.0193C193.22 42.1067 191.037 42.9316 186.911 41.6581L182.633 37.1868C180.566 36.9419 179.521 38.4253 178.639 39.6757C177.771 40.9076 177.062 41.9133 175.693 40.8173C171.303 40.1485 171.221 40.8048 171.139 41.455C171.063 42.0619 170.988 42.6635 167.411 42.1772L167.425 42.5093C167.292 42.5151 167.178 42.4369 167.064 42.3587C166.949 42.2806 166.835 42.2024 166.702 42.2082C164.317 41.0619 162.696 41.4487 161.008 41.8514C160.002 42.0916 158.972 42.3374 157.742 42.2668L152.751 43.8157C152.101 46.7638 150.183 45.674 148.265 44.5844C147.342 44.0597 146.418 43.535 145.637 43.461L144.01 46.8593C136.602 43.8557 124.927 42.702 113.664 42.8613C112.702 40.8208 109.661 41.5312 106.389 42.2954L106.388 42.2957C106.001 42.3861 105.611 42.4772 105.22 42.5646L106.873 43.8234C88.0536 41.6509 87.965 41.6548 70.0882 42.7684L67.6066 44.8731C69.0253 42.8148 65.2923 40.6488 63.6835 40.3863C61.8204 40.2934 59.2968 40.6858 56.5395 41.1144C54.0322 41.5042 51.3316 41.924 48.7585 42.0364L48.8777 40.7003C53.6829 40.4904 59.6793 39.9461 65.2926 39.4365C70.2323 38.9881 74.876 38.5665 78.1512 38.4235L78.0787 36.763L70.8174 35.0838L68.571 38.5092C61.7865 36.2523 57.4999 36.801 53.4781 37.3157C51.7348 37.5388 50.0413 37.7556 48.2157 37.7347C43.9642 37.9204 40.9077 39.0521 40.2717 40.7435L39.4746 40.7783C39.5041 40.7771 39.5451 40.8123 39.5997 40.8591C39.6355 40.8899 39.6773 40.9258 39.7256 40.9597C35.0356 38.935 32.5772 38.0513 26.6058 36.6823L32.6286 36.4192L26.4607 33.3614C24.6231 32.812 24.051 33.5896 23.3881 34.4905C22.2995 35.97 20.9661 37.7824 13.3812 34.5982L11.5372 33.0151L9.19088 32.1194C8.45174 33.4826 4.9089 33.6374 0.87969 32.8152C0.576602 23.8449 0.333031 14.2055 0.11851 5.23132L0.118395 5.22935L0.118099 5.21661C0.078426 3.50206 0.0387563 1.78759 0 0.0939169L1.18593 0.0421143Z" fill="white"/>
<path d="M39.7256 40.9597C39.7997 41.0118 39.8892 41.0592 39.9963 41.0767L39.7256 40.9597Z" fill="white"/>
<path d="M39.9963 41.0767C40.0319 41.0826 40.0695 41.0851 40.109 41.0834L40.0205 41.0872L39.9963 41.0767Z" fill="white"/>
<path d="M400.889 40.9597C400.963 41.0118 401.053 41.0593 401.16 41.0768L400.889 40.9597Z" fill="white"/>
<path d="M401.16 41.0768C401.168 41.0781 401.176 41.0793 401.185 41.0803C401.192 41.0811 401.2 41.0818 401.207 41.0824C401.219 41.0833 401.231 41.0838 401.243 41.0839C401.253 41.084 401.263 41.0838 401.273 41.0834L401.184 41.0872L401.16 41.0768Z" fill="white"/>
<path d="M758.329 40.9597C758.404 41.0118 758.493 41.0592 758.6 41.0767L758.329 40.9597Z" fill="white"/>
<path d="M758.6 41.0767C758.636 41.0826 758.673 41.0851 758.713 41.0834L758.624 41.0872L758.6 41.0767Z" fill="white"/>
<path d="M1119.49 40.9597C1119.57 41.0118 1119.66 41.0593 1119.76 41.0768L1119.49 40.9597Z" fill="white"/>
<path d="M1119.76 41.0768C1119.77 41.0781 1119.78 41.0793 1119.79 41.0803C1119.8 41.0811 1119.8 41.0818 1119.81 41.0824C1119.82 41.0833 1119.83 41.0838 1119.85 41.0839L1119.79 41.0872L1119.76 41.0768Z" fill="white"/>
</svg>
