<svg width="20" height="14" viewBox="0 0 20 14" fill="none" xmlns="http://www.w3.org/2000/svg">
<path d="M18.5757 0H1.39251C0.930976 0 0.529395 0.31586 0.420658 0.7644L0.291862 1.29568C0.1417 1.9151 0.60156 2.51504 1.23872 2.53097L18.7464 2.96866C19.3883 2.98471 19.8788 2.40031 19.7516 1.77096L19.5559 0.80198C19.4616 0.335454 19.0516 0 18.5757 0Z" fill="#F57C2A"/>
<path d="M18.5757 11H1.39251C0.930976 11 0.529395 11.3159 0.420658 11.7644L0.291862 12.2957C0.1417 12.9151 0.60156 13.515 1.23872 13.531L18.7464 13.9687C19.3883 13.9847 19.8788 13.4003 19.7516 12.771L19.5559 11.802C19.4616 11.3355 19.0516 11 18.5757 11Z" fill="#F57C2A"/>
<path d="M18.6073 8L1.42415 8C0.948197 8 0.538199 7.66455 0.443952 7.19802L0.248198 6.22904C0.121056 5.59969 0.611518 5.01529 1.25339 5.03134L18.7611 5.46903C19.3983 5.48496 19.8581 6.0849 19.708 6.70432L19.5792 7.2356C19.4704 7.68414 19.0688 8 18.6073 8Z" fill="#F57C2A"/>
</svg>
