<svg width="21" height="21" viewBox="0 0 21 21" fill="none" xmlns="http://www.w3.org/2000/svg">
<path d="M6.78613 16.2373C5.68613 16.2373 4.79613 17.1373 4.79613 18.2373C4.79613 19.3373 5.68613 20.2373 6.78613 20.2373C7.88613 20.2373 8.78613 19.3373 8.78613 18.2373C8.78613 17.1373 7.88613 16.2373 6.78613 16.2373ZM0.786133 0.237305V2.2373H2.78613L6.38613 9.8273L5.03613 12.2773C4.87613 12.5573 4.78613 12.8873 4.78613 13.2373C4.78613 14.3373 5.68613 15.2373 6.78613 15.2373H18.7861V13.2373H7.20613C7.06613 13.2373 6.95613 13.1273 6.95613 12.9873L6.98613 12.8673L7.88613 11.2373H15.3361C16.0861 11.2373 16.7461 10.8273 17.0861 10.2073L20.6661 3.7173C20.7461 3.5773 20.7861 3.4073 20.7861 3.2373C20.7861 2.6873 20.3361 2.2373 19.7861 2.2373H4.99613L4.05613 0.237305H0.786133ZM16.7861 16.2373C15.6861 16.2373 14.7961 17.1373 14.7961 18.2373C14.7961 19.3373 15.6861 20.2373 16.7861 20.2373C17.8861 20.2373 18.7861 19.3373 18.7861 18.2373C18.7861 17.1373 17.8861 16.2373 16.7861 16.2373Z" fill="white"/>
</svg>
