<svg width="245" height="78" viewBox="0 0 245 78" fill="none" xmlns="http://www.w3.org/2000/svg">
<path fill-rule="evenodd" clip-rule="evenodd" d="M163.105 19.4954C162.243 19.4954 161.682 19.5897 161.424 19.7782C160.906 20.1081 160.346 20.3438 159.785 20.5794C159.182 20.8151 158.578 21.0507 158.018 21.4278C156.853 22.1819 155.819 23.4544 154.956 25.1982C154.223 26.7064 153.62 28.4974 153.275 30.4298C153.189 30.8068 153.102 31.231 153.016 31.608C152.456 34.2474 151.895 36.981 152.844 39.2904C153.965 42.1182 155.991 44.0034 157.974 45.653C158.535 46.1243 159.182 46.5956 159.699 46.7842C159.958 46.8784 160.26 46.9256 160.561 46.9256C160.82 46.9727 161.079 46.9727 161.337 47.0669C161.812 47.2083 162.243 47.4911 162.631 47.7739C163.321 48.1981 164.054 48.6694 164.959 48.6694C165.002 48.6694 165.002 48.6694 165.045 48.6694C165.735 48.6694 166.382 48.2923 167.029 47.9153C167.201 47.821 167.374 47.7268 167.546 47.6325C169.961 46.36 170.866 45.0403 172.289 42.8252C172.418 42.6367 172.504 42.4953 172.634 42.3067C172.935 41.8354 173.28 41.3641 173.625 40.8928C174.617 39.526 175.522 38.2535 175.954 36.3683C176.255 35.0015 176.342 33.6347 176.212 32.2679C176.126 31.0425 175.824 29.8171 175.393 28.5917C175.005 27.5077 174.488 26.4708 173.884 25.5753C173.323 24.7269 172.677 23.9257 171.987 23.313C171.901 23.2188 171.771 23.1245 171.685 23.0302C170.349 21.8048 169.055 20.6266 166.986 20.061C165.735 19.6839 164.399 19.4954 163.105 19.4954ZM165.132 46.4542C164.528 46.4542 163.881 46.0772 163.191 45.653C162.674 45.3702 162.157 45.0403 161.639 44.8989C161.381 44.8047 161.122 44.7575 160.906 44.7575C160.691 44.7104 160.518 44.7104 160.389 44.6161C159.742 44.3334 158.837 43.6735 157.974 42.8252C157.112 42.024 156.336 41.1285 155.819 40.3272L155.776 40.2801C155.043 39.1961 154.094 37.735 154.18 36.1797C154.18 35.9441 154.353 35.6613 154.482 35.4256C154.611 35.19 154.741 35.0015 154.784 34.7658C154.87 34.4359 154.827 34.0588 154.784 33.7761C154.784 33.5404 154.741 33.3519 154.784 33.1634C154.784 32.9748 154.87 32.8334 154.956 32.6449C155.043 32.4564 155.129 32.2679 155.172 32.0322L155.215 31.8437C155.732 29.0158 156.077 27.1306 157.285 25.1511C157.845 24.2556 158.492 23.5487 159.311 23.0302C160.173 22.5118 161.208 22.1819 162.458 21.9934C162.89 21.9462 163.321 21.8991 163.795 21.8991C165.304 21.8991 166.77 22.1819 167.719 22.6532C168.581 23.0774 169.788 24.0671 170.866 25.2454C172.073 26.565 172.935 27.8847 173.237 28.8745C173.28 29.063 173.323 29.2515 173.323 29.44C173.323 29.6757 173.367 29.9113 173.41 30.147C173.712 31.3253 173.927 32.8334 173.927 34.1531C173.927 35.7084 173.712 37.0752 173.28 38.065C173.022 38.6305 172.547 39.2432 172.03 39.8559C171.642 40.3272 171.254 40.7985 170.909 41.317C170.693 41.6469 170.478 41.9768 170.262 42.3539C169.529 43.5321 168.84 44.6161 167.891 45.2288C167.072 45.7944 165.735 46.4071 165.218 46.4542C165.175 46.4542 165.132 46.4542 165.132 46.4542Z" fill="#333333"/>
<path fill-rule="evenodd" clip-rule="evenodd" d="M203.332 21.8048C201.952 21.8048 199.667 23.0302 198.848 24.2085C198.762 24.3499 198.632 24.5855 198.503 24.9154C198.417 25.104 198.287 25.3396 198.201 25.5281C197.899 26.1408 197.554 26.8478 197.339 27.649C197.123 28.5445 197.037 29.4871 197.166 30.4769C197.209 30.7597 197.296 30.9953 197.382 31.231C197.468 31.4195 197.511 31.6551 197.554 31.8437C197.597 32.2207 197.554 32.5978 197.554 32.9748C197.554 33.3519 197.511 33.776 197.554 34.2002C197.597 34.5301 197.727 34.9072 197.856 35.2371C197.985 35.567 198.072 35.8969 198.115 36.1326C198.115 36.274 198.158 36.4625 198.158 36.651C198.417 38.8662 198.718 41.1756 200.184 41.9768C200.745 42.2596 201.866 42.4952 202.642 42.4952C202.728 42.4952 202.814 42.4952 202.857 42.4952C203.849 42.401 204.582 41.7883 205.229 41.2227C205.358 41.1284 205.444 41.0342 205.574 40.9399C205.962 40.61 206.436 40.233 206.479 39.7145C206.522 39.3846 206.393 39.1018 206.177 38.7719L206.091 38.6776L205.962 38.6305C205.832 38.6305 205.703 38.5834 205.574 38.5834C204.798 38.5834 204.366 39.1018 204.022 39.526C203.763 39.8559 203.504 40.1387 203.159 40.1858C202.901 40.233 202.642 40.2801 202.426 40.2801C201.65 40.2801 201.133 39.9502 200.831 39.1961C200.529 38.442 200.4 37.4522 200.271 36.3682C200.227 35.7555 200.141 35.0957 200.012 34.483C199.969 34.1531 199.839 33.9174 199.753 33.6818C199.667 33.4932 199.624 33.399 199.581 33.2576C200.141 33.3519 200.702 33.4461 201.262 33.4461C202.599 33.4461 203.806 33.1162 204.798 32.5035C205.876 31.8437 206.608 30.8068 206.91 29.5814C207.169 28.5916 207.169 27.4605 206.91 26.2822C206.695 25.1511 206.264 24.1142 205.703 23.313C205.401 22.8417 205.056 22.5118 204.668 22.229C204.237 21.9462 203.806 21.8048 203.332 21.8048C203.332 21.8048 203.375 21.8048 203.332 21.8048ZM199.451 30.8068C198.891 28.1203 199.494 25.7638 201.133 24.7269C201.736 24.3499 202.383 24.1142 202.901 24.1142C203.59 24.1142 204.065 24.4913 204.366 25.2925C204.755 26.4236 204.927 29.3457 204.41 30.0527C203.892 30.7597 202.857 31.1367 201.607 31.1367C200.874 31.1838 200.141 31.0424 199.451 30.8068Z" fill="#333333"/>
<path fill-rule="evenodd" clip-rule="evenodd" d="M213.033 22.559C212.3 22.559 211.782 22.7475 211.48 23.2188C210.963 23.9729 211.265 25.104 211.567 26.2823C211.696 26.8479 211.868 27.4134 211.912 27.979C212.084 29.1101 211.868 30.4769 211.696 31.5138C211.61 31.9851 211.567 32.4093 211.524 32.7863C211.524 32.9749 211.524 33.1634 211.567 33.3519C211.61 33.6818 211.61 33.8232 211.61 33.9175C211.308 33.7761 211.006 33.729 210.704 33.729C210.316 33.729 209.971 33.8232 209.713 34.0589C209.411 34.2945 209.238 34.6716 209.195 35.1429V35.3785L209.411 35.5199C209.713 35.7085 210.058 35.8027 210.446 35.897C210.963 36.0384 211.308 36.1326 211.394 36.3683C211.524 36.9339 211.437 37.8293 211.308 38.6777C211.222 39.3847 211.135 40.0445 211.179 40.6101C211.222 41.3642 211.524 41.8355 211.998 42.024C212.127 42.0711 212.3 42.1182 212.429 42.1182C212.731 42.1182 213.033 41.9768 213.248 41.6941C213.421 41.5055 213.507 41.1756 213.593 40.8457C213.722 40.233 213.766 39.4318 213.766 38.6777C213.766 38.065 213.809 37.4052 213.895 36.981C214.887 36.6982 216.266 36.6982 217.603 36.6511C218.163 36.6511 218.681 36.6039 219.198 36.6039C219.284 36.7925 219.371 36.981 219.457 37.1695C219.586 37.4523 219.759 37.7351 219.845 38.1593C219.931 38.5363 219.888 38.9605 219.845 39.3847C219.802 39.8088 219.759 40.233 219.845 40.7043C219.974 41.6941 220.578 42.401 221.224 42.401C221.656 42.401 222.044 42.1182 222.302 41.6469L222.432 41.4584L222.345 41.2228C222.13 40.7514 222.216 40.233 222.302 39.6674C222.345 39.2433 222.432 38.8191 222.389 38.3478C222.389 37.9707 222.259 37.5937 222.13 37.2166C222.001 36.7925 221.871 36.3683 221.914 36.0384C222.001 35.6613 222.389 35.5199 222.906 35.2371C223.294 35.0958 223.682 34.9072 223.941 34.6244C224.286 34.2474 224.329 33.729 224.156 33.1163L224.113 32.9749L223.984 32.8806C223.855 32.7863 223.682 32.7392 223.51 32.7392C223.251 32.7392 223.035 32.8335 222.863 32.8806C222.734 32.9277 222.604 32.9749 222.475 33.022C222.604 32.0794 222.432 31.4667 222.13 30.8068C222.475 30.1941 222.475 29.5814 222.475 29.063C222.475 28.5917 222.475 28.1204 222.647 27.602L222.733 27.3663L222.604 27.1778C222.259 26.7065 221.526 26.3766 220.836 26.3766C220.319 26.3766 219.931 26.5651 219.629 26.8479L219.543 26.9421V27.0835C219.457 27.602 219.629 27.9319 219.759 28.1675C219.802 28.2618 219.845 28.3089 219.888 28.4032C219.457 29.8171 219.629 31.0896 219.759 32.5036C219.802 32.7863 219.845 33.1163 219.845 33.399C219.198 33.8232 218.25 33.8704 217.387 33.8704C217.172 33.8704 216.956 33.8704 216.784 33.8704C216.611 33.8704 216.439 33.8704 216.266 33.8704H216.223C215.878 33.8704 215.576 33.9646 215.275 34.106C215.016 34.2003 214.8 34.2945 214.585 34.2945C214.542 34.2945 214.498 34.2945 214.455 34.2945C214.498 33.729 214.542 33.1163 214.585 32.4564C214.628 31.6552 214.671 30.8069 214.757 29.9585C214.757 29.77 214.843 29.6286 214.887 29.4401C214.973 29.2044 215.059 28.9216 215.059 28.6388C215.059 28.3089 214.973 28.0261 214.887 27.6491C214.8 27.3663 214.714 27.0364 214.714 26.7065C214.671 26.2352 214.714 25.7639 214.757 25.2925C214.8 24.727 214.887 24.2085 214.757 23.7372C214.628 23.1717 214.283 22.7946 213.679 22.6061H213.636H213.593C213.377 22.559 213.205 22.559 213.033 22.559Z" fill="#333333"/>
<path fill-rule="evenodd" clip-rule="evenodd" d="M230.149 24.6798C229.502 24.6798 228.942 25.104 228.813 25.7167C228.726 26.0466 228.856 26.3765 228.942 26.7536C228.985 26.9421 229.071 27.1777 229.071 27.3191C229.158 28.8273 229.114 30.8539 229.028 33.022C228.985 34.483 228.942 36.0383 228.942 37.4051C228.942 38.442 229.114 39.3846 229.416 40.1387C229.718 40.9399 230.192 41.5526 230.71 41.9297L230.753 41.9768H230.796C231.227 42.1182 231.701 42.2125 232.132 42.2125C232.909 42.2125 233.642 41.9768 234.288 41.5055C234.892 41.0813 235.366 40.5158 235.754 39.8088C236.142 39.0547 236.315 38.2064 236.315 37.358C236.315 36.4625 236.056 35.567 235.625 34.8129C235.107 33.9175 234.288 33.4933 233.469 33.0691C233.081 32.8806 232.693 32.6449 232.348 32.4093L232.262 32.3621H232.176C232.089 32.3621 232.046 32.3621 231.96 32.3621C231.701 32.3621 231.529 32.4564 231.4 32.5035C231.356 32.5035 231.313 32.5507 231.27 32.5507C230.796 30.3826 231.098 27.3663 231.27 25.6696V25.5753L231.227 25.481C231.141 24.9626 230.623 24.6798 230.149 24.6798ZM231.27 34.6715C231.4 34.6244 231.572 34.6244 231.744 34.6244C232.521 34.6244 233.297 35.1429 233.814 36.0383C234.374 36.981 234.504 38.1592 234.159 39.0076C233.943 39.526 233.167 40.1387 232.477 40.1387C232.262 40.1387 232.089 40.0916 231.917 39.9973C231.572 39.7617 231.356 39.2904 231.27 38.442C231.184 37.6408 231.227 36.651 231.27 35.7556C231.27 35.3314 231.27 35.0015 231.27 34.6715Z" fill="#333333"/>
<path fill-rule="evenodd" clip-rule="evenodd" d="M187.767 26.0938C187.25 26.0938 186.819 26.4237 186.646 26.8007C186.387 27.272 186.172 27.8847 185.999 28.4503C185.611 29.6286 185.223 30.8068 184.275 31.4195C183.93 31.6552 183.671 31.7494 183.412 31.7494C182.938 31.7494 182.593 31.3724 182.162 30.9011C181.645 30.3826 181.084 29.7699 180.222 29.7699C180.179 29.7699 180.136 29.7699 180.093 29.7699C179.532 29.8171 178.972 30.2884 178.282 31.3253C178.196 31.4195 177.851 31.938 177.592 32.5507C177.247 33.3048 177.161 33.8232 177.376 34.2002C177.463 34.3888 177.678 34.6715 178.196 34.6715C178.325 34.6715 178.454 34.6715 178.627 34.6244C179.187 34.483 179.403 33.8703 179.575 33.2576C179.705 32.8806 179.877 32.3621 180.049 32.3621C180.136 32.3621 180.351 32.6921 180.438 32.8334C180.567 33.0691 180.739 33.3048 180.955 33.4933C181.3 33.8703 182.076 34.4359 182.593 34.483C182.723 34.483 182.809 34.5302 182.938 34.5302C183.671 34.5302 184.145 34.2002 184.577 33.9175C184.749 33.7761 184.921 33.6818 185.137 33.5875C185.051 34.0588 184.921 34.5302 184.835 35.0015C184.663 35.9441 184.447 36.8867 184.189 37.7822C184.059 38.2535 183.801 38.6777 183.542 39.1018C183.283 39.526 183.068 39.9031 182.981 40.3272C182.852 40.8457 182.938 41.317 183.283 41.7883L183.412 41.9297H183.628C184.145 41.9297 184.663 41.9768 185.223 41.9768C185.784 42.0239 186.387 42.0711 186.991 42.0711C187.681 42.0711 188.284 42.0239 188.845 41.9297C189.405 41.8354 190.009 41.5526 190.656 41.2699C191.044 41.1285 191.389 40.9399 191.777 40.7985C192.855 40.4215 193.933 40.0445 194.838 39.9502C194.967 39.9502 195.097 39.9031 195.183 39.9031C195.787 39.8559 196.347 39.7617 196.649 39.2904C196.864 39.0076 196.864 38.5834 196.778 38.065L196.735 37.8293L196.563 37.735C196.175 37.5937 195.743 37.4994 195.226 37.4994C194.493 37.4994 193.76 37.6879 193.113 37.8293C192.467 37.9707 191.777 38.2535 191.13 38.5363C190.354 38.8662 189.621 39.1961 188.931 39.2904C188.414 39.3375 187.853 39.3846 187.336 39.3846C186.775 39.3846 186.301 39.3375 185.784 39.2432C186.732 35.8969 187.595 32.2207 188.457 28.6388C188.586 28.0261 188.759 27.3663 188.888 26.7536L188.931 26.5179L188.802 26.3294C188.414 26.2351 188.112 26.0938 187.767 26.0938Z" fill="#333333"/>
<path fill-rule="evenodd" clip-rule="evenodd" d="M242.739 38.065C242.135 38.065 241.575 38.3949 241.144 38.9605C240.756 39.4789 240.54 40.0916 240.497 40.7515C240.454 41.2228 240.54 41.5998 240.756 41.9297C240.971 42.3068 241.359 42.5424 241.791 42.5896C241.834 42.5896 241.92 42.5896 241.963 42.5896C242.696 42.5896 243.688 41.9297 244.119 41.4584C244.291 41.2699 244.334 41.0342 244.421 40.7986C244.464 40.7043 244.507 40.5158 244.55 40.4687C244.722 40.2801 244.852 40.0445 244.852 39.8088V39.7617C244.809 39.0547 244.076 38.5363 243.989 38.442C243.558 38.2064 243.127 38.065 242.739 38.065Z" fill="#333333"/>
<path fill-rule="evenodd" clip-rule="evenodd" d="M59.3266 44.1448C59.5422 44.6161 59.7146 45.1346 59.9733 45.6059C59.8009 45.8887 59.6284 46.2186 59.4559 46.5485C59.0248 47.3026 58.6368 47.9624 58.1625 48.528C57.6451 49.0935 57.0846 49.3763 56.3516 49.4706C56.2223 49.4706 56.1361 49.4706 56.0067 49.4706C55.1013 49.4706 54.0665 49.1407 53.2473 48.6222C52.4282 48.1038 51.9108 47.444 51.8677 46.7841C51.7383 45.4173 52.5575 44.2391 53.3767 43.2965C54.1959 42.3538 55.3169 41.0813 56.5241 41.0813C56.9553 41.0813 57.3864 41.2227 57.8176 41.5526C58.5074 42.1182 58.8955 43.1079 59.3266 44.1448ZM63.6381 45.2288C64.4573 45.2288 64.328 43.5321 63.4657 43.862C62.7327 44.0977 63.0345 45.2288 63.6381 45.2288ZM72.0887 48.8579L72.0025 48.7636L71.8732 48.7165C71.7007 48.6694 71.5714 48.6694 71.3989 48.6694C70.7522 48.6694 70.0623 48.9522 69.7174 49.1878C69.4156 49.3763 69.1138 49.612 68.812 49.8948C68.2084 50.3661 67.6047 50.7903 66.958 51.2616C66.1819 51.78 64.8885 52.6755 63.9831 52.6755C63.9399 52.6755 63.8968 52.6755 63.8537 52.6755C63.2932 52.6284 62.8621 52.2513 62.5171 51.4501C62.1722 50.696 61.9566 49.7534 61.7842 48.8108C61.7411 48.528 61.6548 48.2452 61.6117 47.9624C61.7842 47.821 61.8704 47.6796 61.9998 47.4911C62.2153 47.2083 62.3447 47.0198 62.5602 46.9727C62.6034 46.9727 62.6034 46.9727 62.6465 46.9727C62.7758 46.9727 62.9052 47.0198 63.0345 47.0669C63.207 47.1141 63.4226 47.2083 63.6381 47.2083C63.6812 47.2083 63.7675 47.2083 63.8106 47.2083C65.2334 46.9727 66.0095 45.3702 65.9232 44.0034C65.8801 43.4379 65.7077 42.9194 65.3627 42.5424C64.9747 42.1182 64.4573 41.8825 63.8537 41.8825C63.6381 41.8825 63.3794 41.9297 63.1207 41.9768C62.6465 42.0711 62.3016 42.4481 62.0429 42.778C61.7842 43.0608 61.6117 43.2493 61.3961 43.2493C61.353 43.2493 61.353 43.2493 61.3099 43.2493C61.1806 43.2493 61.0943 43.0137 60.9219 42.5895C60.8356 42.3538 60.7494 42.1182 60.5769 41.8825C60.1027 40.9871 59.5422 40.3272 58.9817 39.8088C58.2056 39.149 57.3002 38.819 56.3085 38.819C56.2223 38.819 56.0929 38.819 56.0067 38.819C54.4977 38.9133 53.5491 40.0444 52.6868 41.1756C52.5575 41.3641 52.385 41.5526 52.2557 41.694C52.1263 41.8354 51.997 41.9768 51.8677 42.1653C50.876 43.2965 49.6257 44.7575 49.755 46.8313C49.7981 47.2554 49.9706 47.6325 50.0999 47.9624C50.2293 48.2923 50.4017 48.528 50.3586 48.8579C50.3586 49.0464 50.1862 49.4706 49.7981 49.989C49.4532 50.4603 48.9789 50.8374 48.634 51.0259C48.1166 51.2616 47.6424 51.403 47.1681 51.403C46.3058 51.403 45.6159 50.9788 45.0554 50.1776C44.5812 49.4706 44.2794 48.3395 44.0207 47.2083C43.8913 46.737 43.8051 46.2657 43.6758 45.7944C43.5895 45.4645 43.4602 45.1346 43.3739 44.8046C43.1584 44.0977 42.9428 43.3907 42.8997 42.9194C42.8134 42.1653 42.8997 41.2698 42.9859 40.5157C43.029 40.0444 43.0721 39.6203 43.0721 39.2432C43.0721 38.9604 43.029 38.7248 42.9859 38.4891C42.9428 38.3477 42.8997 38.2063 42.8997 38.0649C42.8134 35.7084 43.4602 33.7289 44.0638 31.7965C44.2362 31.231 44.4087 30.6654 44.5812 30.0998C44.7536 29.4871 44.883 28.8744 44.9692 28.3089C45.0986 27.5548 45.2279 26.8478 45.4866 26.2351C45.6159 25.8581 45.7884 25.5281 46.004 25.1511C46.392 24.4441 46.78 23.69 46.78 22.7474V22.5118L46.5645 22.4175C46.392 22.3233 46.2196 22.2761 46.0902 22.2761C45.7022 22.2761 45.4435 22.5118 45.2279 22.7474C45.0986 22.8417 44.9692 22.9831 44.883 22.9831L44.7105 23.0302L44.6243 23.1716C43.762 24.8683 43.2446 26.565 42.7272 28.5445C42.641 28.8273 42.5547 29.063 42.5116 29.3457C41.8218 31.3724 41.2613 33.399 41.0026 35.7555C40.1403 35.9441 39.7523 36.4625 39.4073 36.9809C39.3211 37.1223 39.1918 37.2637 39.1055 37.4051C38.7606 37.8293 37.4671 39.2903 36.303 39.4317C36.1737 39.4317 36.0443 39.4317 35.915 39.4317C34.5353 39.4317 33.7592 38.5834 32.8969 37.735C32.4658 37.2637 31.9915 36.7924 31.431 36.4625C30.7843 36.0383 30.1375 35.8498 29.4046 35.8498C29.0165 35.8498 28.5854 35.8969 28.1542 36.0383C27.7662 36.1326 26.6452 36.6039 26.2572 36.8867C25.9122 37.1223 25.7398 37.4522 25.6104 37.735C25.5242 37.9235 25.438 38.0649 25.3517 38.2063C25.3517 36.8395 25.2655 35.4256 25.0499 34.1531C24.8344 32.7863 24.5326 31.5609 24.1445 30.524C24.2307 30.524 24.317 30.524 24.4463 30.524C24.705 30.524 25.0068 30.524 25.2655 30.4298C25.826 30.2412 26.3003 29.8171 26.6021 29.2515C26.8608 28.7802 26.9901 28.1675 26.9039 27.6019C26.8608 27.0363 26.6021 26.565 26.2572 26.188C25.8691 25.7638 25.3517 25.5281 24.7912 25.481C24.7481 25.481 24.705 25.481 24.6619 25.481C23.6271 25.481 22.7648 26.1408 22.0319 26.7064C21.6438 26.9892 21.2989 27.272 20.954 27.4134L20.7815 27.4605L20.6953 27.649C20.0917 29.2515 19.0138 30.0998 17.7635 31.0896C17.5048 31.2781 17.2461 31.5138 16.9874 31.7023C16.7287 31.9379 16.47 32.1736 16.2544 32.4092C15.9095 32.8334 15.5646 33.2105 15.1765 33.2576C15.0472 33.2576 14.8747 33.3047 14.7023 33.3047C14.0987 33.3047 13.4519 33.1162 13.1501 32.9748C11.8998 32.4564 11.3393 30.8539 10.7357 29.2043C10.0889 27.4134 9.4422 25.5281 7.80382 24.9626C7.37267 24.8212 6.94151 24.7269 6.51036 24.7269C5.2169 24.7269 4.13902 25.3868 3.66475 25.9523C2.32818 27.4134 1.63833 30.0527 0.991603 32.4092C0.862257 32.8806 0.732911 33.3519 0.603565 33.776C0.517334 33.9646 0.431104 34.3416 0.387988 34.6715C0.344873 34.9072 0.301758 35.1428 0.301758 35.2842C0.301758 35.567 0.344873 35.7084 0.387988 35.8027C0.474219 35.9912 0.64668 36.0854 0.776026 36.0854H0.819141C0.948487 36.0854 1.03472 36.0854 1.16406 36.0854C1.63833 36.0854 2.1126 35.9912 2.50064 35.3785C2.6731 35.0957 2.6731 34.7187 2.6731 34.3416C2.6731 34.1531 2.6731 33.9174 2.71621 33.776C2.75933 33.5404 2.84556 33.2576 2.97491 32.9277C3.19048 32.4564 3.31983 32.0322 3.44917 31.608C3.62164 30.9953 3.96656 29.7699 4.44083 28.733C4.91509 27.7433 5.38936 27.0835 5.7774 26.9892C5.82052 26.9892 5.90675 26.9892 5.99298 26.9892C6.07921 26.9892 6.20855 26.9892 6.3379 27.0363C6.51036 27.0363 6.63971 27.0835 6.81217 27.0835C6.8984 27.0835 6.94151 27.0835 7.02774 27.0835C8.0194 27.7904 8.45055 29.063 8.8817 30.4769C9.14039 31.3252 9.4422 32.1736 9.83024 32.9277C10.6925 34.5301 12.4603 35.4256 14.616 35.4256C15.2628 35.4256 15.9526 35.3314 16.5993 35.19C17.1167 35.0486 17.4185 34.6715 17.7203 34.2002C18.1946 33.5875 18.8413 32.7392 20.4366 31.7965C20.6953 31.6552 20.8678 31.3252 20.9971 31.0896C21.0833 30.9482 21.1696 30.7125 21.2558 30.7125C21.4283 30.7597 21.8163 31.231 22.0319 31.7494C22.463 32.692 22.7217 33.8703 22.8942 35.3314C23.0235 36.5568 23.0666 37.9707 22.9804 39.3846C22.9373 40.233 22.6786 41.2227 22.463 42.0711C22.3768 42.4481 22.2474 42.8252 22.2043 43.1551C22.1181 43.6735 22.0319 44.1448 21.9456 44.5219C21.8163 45.2288 21.7301 45.8887 21.4714 46.5956C20.8246 48.528 19.0138 51.2144 17.8066 52.3927C17.2461 52.9583 16.6425 53.1939 15.9957 53.4767C15.4783 53.7124 14.961 53.948 14.3573 54.3251C14.1418 54.4665 13.9262 54.7021 13.7106 54.8906C13.3657 55.2206 13.0208 55.5505 12.719 55.5505C12.4603 55.5505 12.2016 55.3148 11.8998 55.0792C11.598 54.7964 11.253 54.5607 10.865 54.5607C10.8219 54.5607 10.7357 54.5607 10.6494 54.5607C10.0889 54.7021 9.74401 55.2677 9.83024 55.9746C9.87335 56.3517 10.0027 56.7287 10.2614 57.0115C10.5201 57.3414 10.9081 57.53 11.2962 57.53C11.5549 57.6242 12.0291 57.6714 12.4172 57.6714C12.8483 57.6714 13.1932 57.6242 13.4519 57.53C13.9262 57.2943 14.3142 56.9644 14.7023 56.6345C15.0472 56.3517 15.3921 56.0689 15.7801 55.8333C16.082 55.6447 16.4269 55.5033 16.7718 55.3619C17.5479 54.9849 18.3671 54.5607 18.9276 54.0423C20.0486 52.9583 21.0833 51.3558 21.9456 49.9419C23.4978 47.3968 24.1445 44.6633 24.8775 41.5526C24.9206 41.2698 25.0068 40.9871 25.0931 40.7043C25.9122 40.5157 26.3434 39.903 26.6883 39.3846C26.947 39.0547 27.1626 38.7248 27.4644 38.5363C27.68 38.442 28.3698 38.1121 29.2321 38.1121C29.4477 38.1121 29.7064 38.1592 29.922 38.2063C30.4825 38.3477 30.9998 38.9133 31.5172 39.526C31.9915 40.0916 32.4658 40.6571 33.0694 40.9871C33.5005 41.2227 34.6215 41.7883 35.915 41.7883C36.3461 41.7883 36.7342 41.7411 37.1222 41.5998C38.0276 41.317 39.2349 40.3744 39.9678 39.6674C40.1834 39.4317 40.3128 39.1961 40.399 39.0076C40.4852 38.8662 40.5714 38.6776 40.7008 38.5834C40.7008 39.0076 40.7439 39.4317 40.7439 39.903C40.787 41.8354 40.8301 43.862 41.3475 45.4173C41.5631 46.0772 41.7356 46.7841 41.9511 47.444C42.5548 49.5649 43.0721 51.5915 44.4518 52.6755C45.1417 53.2411 46.0471 53.5238 47.0819 53.5238C48.2029 53.5238 49.2807 53.1939 50.0999 52.5812C50.3586 52.3927 50.7035 51.9214 51.0916 51.403C51.3503 51.0259 51.8245 50.4603 51.997 50.319C52.1263 50.3661 52.3419 50.5075 52.5144 50.6017C52.73 50.7431 52.9455 50.8845 53.1611 50.9788C53.9803 51.3087 55.2738 51.7329 56.2654 51.7329C56.3948 51.7329 56.5672 51.7329 56.6966 51.6857C57.5589 51.5444 58.1625 51.1202 58.6799 50.696C59.0248 50.4132 59.3266 50.1776 59.7578 49.989C59.844 50.2718 59.9302 50.5075 60.0164 50.7903C60.3183 51.7329 60.6632 52.6755 61.1374 53.4767C61.7411 54.4193 62.474 54.8906 63.4226 55.032C63.5088 55.032 63.6381 55.032 63.7675 55.032C64.5004 55.032 65.449 54.7964 66.4837 54.2779C67.5185 53.8066 68.4239 53.0054 69.2862 52.2042C69.8898 51.6386 70.4935 51.1202 71.054 50.7903C71.1833 50.8845 71.3558 50.8845 71.5282 50.8845C71.7869 50.8845 72.0456 50.7903 72.2181 50.6017L72.3043 50.5075L72.3474 50.3661C72.3474 49.8948 72.4768 49.3292 72.0887 48.8579ZM23.196 28.3089C23.7134 28.7802 25.1793 29.0158 24.9206 27.6962C24.3601 27.1777 23.3253 27.649 23.196 28.3089Z" fill="#333333"/>
<path fill-rule="evenodd" clip-rule="evenodd" d="M137.796 23.7372L137.667 23.7843C136.632 24.1142 135.856 24.7269 135.08 25.2925C134.649 25.6224 134.261 25.9052 133.83 26.188L133.787 26.2351L133.743 26.2822C133.7 26.3294 133.657 26.3765 133.571 26.4708C133.355 26.7536 133.01 27.1306 132.752 27.5548C132.407 28.1675 132.278 28.6388 132.364 29.063C132.45 29.3457 132.622 29.6757 133.183 29.8642C133.269 29.9113 133.399 29.9113 133.485 29.9113C134.131 29.9113 134.52 29.2986 134.864 28.733C135.037 28.4974 135.166 28.2617 135.339 28.1203C136.072 27.4134 136.805 26.9892 137.365 26.9892C137.883 26.9892 138.227 27.3191 138.486 27.979C138.831 28.8744 138.917 29.7699 138.702 30.9011C138.486 31.9379 138.098 32.9748 137.667 34.0588C137.236 35.1428 136.805 36.274 136.546 37.4051C136.244 38.7248 136.244 39.9502 136.503 41.1285L136.546 41.2698L136.632 41.3641C137.063 41.7412 137.408 41.8825 137.753 41.8825C138.012 41.8825 138.357 41.7883 138.659 41.317C138.831 41.0342 138.96 40.7043 139.09 40.233C139.305 39.4317 139.348 38.3949 139.435 37.4994C139.478 36.7453 139.564 36.0383 139.65 35.6613C139.823 34.9072 140.168 34.2002 140.469 33.4461C140.944 32.3621 141.418 31.231 141.461 29.9584C141.547 28.356 141.246 26.9892 140.513 25.8581C139.909 24.8683 139.004 24.1614 137.883 23.7372H137.796Z" fill="#333333"/>
<path fill-rule="evenodd" clip-rule="evenodd" d="M95.0259 32.5507C94.8103 32.5507 94.5948 32.6449 94.3792 32.6921C94.2067 32.7392 94.0343 32.8334 93.8618 32.8334C93.8187 32.8334 93.7756 32.8334 93.6893 32.8334C93.56 32.8334 93.4306 32.8334 93.3013 32.7863C93.1719 32.7863 92.9995 32.7392 92.8701 32.7392C92.6977 32.7392 92.5683 32.7392 92.439 32.7863C92.0941 32.8806 91.6629 33.1162 91.1455 33.4933C90.6713 33.8232 90.1539 34.2474 89.6796 34.6715C89.2485 35.0486 87.8688 36.3211 87.4376 37.2166C85.7992 40.7043 87.1789 46.3129 88.688 49.1879C89.0329 49.8948 89.9814 51.2145 90.4988 51.5915C91.1024 52.0157 91.7923 52.2514 92.5252 52.2514C93.4306 52.2514 94.293 51.9214 94.9828 51.3087C95.7158 50.6489 96.1469 49.7534 96.2331 48.7637C96.3194 47.5854 95.8451 45.9358 95.6726 45.4645C95.3708 44.569 94.7672 42.9194 94.3792 42.2596C94.1636 41.9297 93.948 41.7412 93.6893 41.5998C93.6031 41.5527 93.5169 41.5055 93.4738 41.4113C93.6893 41.4113 93.8618 41.4584 94.0774 41.4584C94.3792 41.5055 94.7241 41.5055 95.0259 41.5055C95.3708 41.5055 95.6726 41.4584 95.9313 41.4113C96.3625 41.317 96.923 40.9871 97.4835 40.61C97.7853 40.3744 98.3889 39.9031 98.5614 39.4318C98.7338 38.9605 98.7338 37.7351 98.6907 37.2637C98.6476 36.7924 98.4751 36.0855 98.3458 35.4728C98.0009 34.2002 97.7853 33.9175 97.6991 33.8232C97.1817 33.2105 95.7589 32.6449 95.1121 32.5978C95.0259 32.5507 95.0259 32.5507 95.0259 32.5507ZM89.076 39.4318C89.1191 38.9133 89.2053 38.4891 89.3778 38.065C89.5934 37.5937 89.8952 37.1695 90.2832 36.7453C91.0162 35.9912 91.9647 35.4728 92.8701 34.9543C93.2582 35.19 93.7325 35.19 94.1205 35.19C94.293 35.19 94.4654 35.19 94.5948 35.19C94.7672 35.19 94.8966 35.19 95.069 35.19C95.3277 35.19 95.5864 35.19 95.8882 35.2843C95.8882 35.3314 95.9313 35.3785 95.9313 35.4728C96.2763 36.5097 96.7074 37.9707 96.3194 38.7248C96.19 39.0076 95.9313 39.149 95.5433 39.2432C95.4139 39.2904 95.2415 39.2904 95.0259 39.2904C94.681 39.2904 94.2498 39.2432 93.8187 39.149C93.4738 39.1018 93.1288 39.0547 92.7408 39.0076C92.6115 39.0076 92.439 39.0076 92.3096 39.0076C91.5336 39.0076 90.8437 39.149 90.2401 39.2432C89.8521 39.3375 89.4209 39.4318 89.076 39.4318ZM88.9035 41.8354C89.2053 41.7412 89.464 41.7412 89.7658 41.7412C90.4126 41.7412 91.0162 41.9768 91.5767 42.401C92.0941 42.8252 92.5252 43.4379 92.9564 44.192C93.6462 45.5588 94.0774 47.444 94.1636 49.3764C93.8618 49.9891 93.4738 50.319 93.0426 50.319C92.051 50.319 90.6713 48.7165 90.1539 47.2555C89.2916 45.0403 88.9467 43.4379 88.9035 41.8354Z" fill="#333333"/>
<path fill-rule="evenodd" clip-rule="evenodd" d="M104.253 33.3047C103.563 33.3047 103.175 34.0588 103.002 34.6715C102.83 35.2842 102.744 36.0383 102.701 36.5096C102.701 37.0752 102.701 37.6879 102.744 38.3006C102.787 39.149 102.83 40.0445 102.701 40.8928C102.701 40.9871 102.658 41.0342 102.658 41.1285C102.571 41.7412 102.442 42.6838 102.27 43.2022C101.925 43.108 101.623 43.0608 101.364 43.0608C100.933 43.0608 100.631 43.2022 100.416 43.4379C100.2 43.6735 100.114 44.0506 100.114 44.5219V44.6633L100.2 44.7575C100.502 45.1346 101.019 45.2288 101.407 45.3231C101.709 45.3702 101.968 45.4174 102.14 45.5588C102.356 45.9829 102.226 47.0198 102.097 47.9153C102.011 48.6223 101.881 49.3292 101.925 49.9419C101.968 50.319 102.011 50.6017 102.14 50.8374C102.313 51.1202 102.528 51.3087 102.83 51.403C102.959 51.4501 103.046 51.4501 103.175 51.4501C103.563 51.4501 104.037 51.2616 104.253 50.319C104.382 49.8005 104.382 49.1407 104.382 48.4809C104.382 47.5382 104.382 46.3128 104.813 46.1243C105.115 46.1243 105.417 46.1243 105.719 46.1243C106.452 46.1243 107.142 46.0772 107.788 46.0772C108.435 46.0301 108.996 46.0301 109.599 46.0301C109.685 46.0301 109.815 46.0301 109.901 46.0301C109.944 46.1715 110.03 46.3128 110.117 46.4542C110.332 46.8313 110.548 47.2555 110.591 47.821C110.634 48.2452 110.634 48.7165 110.677 49.1878C110.677 49.7534 110.677 50.319 110.806 50.7431C110.979 51.5444 111.41 51.6858 111.755 51.6858C112.014 51.6858 112.359 51.5915 112.703 51.3558L112.919 51.2145V50.9317C112.876 50.4604 112.919 49.9419 112.962 49.3763C113.005 48.6694 113.091 47.8682 113.005 47.1141C112.962 46.737 112.833 46.4071 112.747 46.1243C112.617 45.7473 112.574 45.5588 112.617 45.276C112.66 45.0874 112.919 44.9461 113.178 44.8047C113.393 44.6633 113.609 44.569 113.781 44.3805C114.04 44.0977 114.126 43.7678 114.04 43.4379C113.911 42.7309 113.264 42.6366 112.919 42.5895C112.79 42.5895 112.574 42.5424 112.531 42.4953C112.359 41.5998 112.402 40.5629 112.402 39.526C112.445 38.2535 112.488 37.0281 112.143 36.0383L112.014 35.6613L111.669 35.8027C110.893 36.0855 110.418 36.8396 110.289 38.065C110.203 39.0076 110.289 40.1387 110.418 41.1756C110.461 41.7883 110.548 42.401 110.548 42.8252C110.16 43.2022 109.384 43.2493 108.607 43.2493C108.392 43.2493 108.219 43.2493 108.004 43.2493C107.788 43.2493 107.573 43.2493 107.357 43.2493C107.142 43.2493 106.969 43.2493 106.797 43.2493C106.452 43.2493 106.107 43.3907 105.805 43.485C105.546 43.5793 105.331 43.6264 105.158 43.6264C105.115 43.6264 105.029 43.6264 105.029 43.5793C105.374 42.2596 105.503 40.61 105.633 39.0076C105.633 38.7719 105.676 38.4891 105.719 38.2063C105.762 37.6408 105.676 37.2166 105.546 36.8396C105.503 36.651 105.46 36.4625 105.417 36.274C105.417 36.0383 105.417 35.8027 105.417 35.5199C105.46 34.8129 105.46 34.106 104.986 33.6818C104.813 33.4461 104.555 33.3047 104.253 33.3047Z" fill="#333333"/>
<path fill-rule="evenodd" clip-rule="evenodd" d="M123.18 37.2166C122.577 37.2166 121.93 37.4994 121.283 38.0179C120.421 38.6777 118.093 41.2699 117.748 42.4481C117.575 43.0137 117.575 43.8621 117.575 44.6633C117.575 45.0875 117.575 45.5116 117.532 45.8887V46.0772C117.36 48.0567 117.231 49.7534 117.877 51.0259C118.05 51.3559 118.352 51.6858 118.653 52.0628C118.912 52.3456 119.171 52.6284 119.343 52.9112C119.473 53.0997 119.559 53.3354 119.645 53.5239C119.731 53.8067 119.861 54.0423 120.033 54.2308C120.421 54.7022 121.025 55.0321 121.758 55.2677C122.404 55.4562 123.18 55.5505 124.043 55.5505C126.199 55.5505 128.613 54.8907 129.906 53.9952C130.208 53.8067 130.683 53.3825 131.157 52.8641C131.717 52.2514 132.062 51.6858 132.192 51.2145C132.278 50.9317 132.278 50.5075 132.321 50.0362C132.321 49.6592 132.364 49.2821 132.407 48.9051C132.45 48.5751 132.493 48.2924 132.536 48.0096C132.623 47.4911 132.709 47.067 132.666 46.6899C132.58 46.0772 131.545 44.3805 131.545 44.3805C131.2 43.7678 130.639 43.2494 130.079 42.6838C129.863 42.4953 129.691 42.3068 129.518 42.1182C127.923 40.4687 127.276 39.856 125.164 39.0076C125.164 39.0076 125.121 39.0076 125.121 38.9605C124.819 38.8191 124.258 38.5834 123.741 38.5834C123.87 38.3478 123.957 38.0178 124 37.6408V37.2638L123.698 37.1695C123.482 37.2638 123.31 37.2166 123.18 37.2166ZM121.327 52.8641C121.111 52.2514 120.723 51.7329 120.378 51.2145C119.904 50.5075 119.386 49.7534 119.257 48.8579C119.214 48.5751 119.257 48.2452 119.3 47.8682C119.343 47.6325 119.343 47.3969 119.343 47.1612C119.343 46.6428 119.343 46.1243 119.3 45.5116C119.257 44.5219 119.214 43.485 119.386 42.7309C119.516 42.1654 120.594 41.1756 121.283 40.4687C121.456 40.2801 121.628 40.1387 121.801 39.9502C122.016 39.7617 122.275 39.6203 122.534 39.4789C122.577 39.4318 122.62 39.4318 122.663 39.3846C122.663 39.526 122.663 39.7146 122.706 39.9031C122.792 40.3744 123.439 40.7043 124.948 41.317C125.422 41.5055 125.94 41.7412 126.069 41.8354C126.414 42.1182 127.664 43.0608 128.785 44.3805C129.82 45.5588 130.381 46.5957 130.467 47.444C130.51 47.7268 130.424 48.1038 130.338 48.4809C130.294 48.7637 130.208 49.0936 130.208 49.3764C130.036 50.9317 129.95 51.2145 129.217 51.8272C128.699 52.2513 127.88 52.6284 126.975 52.9112C126.026 53.194 124.991 53.3825 124.043 53.3825C123.008 53.5239 122.059 53.2882 121.327 52.8641Z" fill="#333333"/>
<path fill-rule="evenodd" clip-rule="evenodd" d="M74.5462 40.0916C74.2444 40.0916 73.8995 40.2801 73.5976 40.7043C73.3821 40.987 73.2096 41.317 73.1234 41.5997C72.1748 45.1817 72.1748 50.5075 73.727 52.9111L73.7701 52.9583L73.8563 53.0054C73.9857 53.0997 74.1581 53.1939 74.2875 53.3353C74.9342 53.8066 75.581 54.2779 76.5295 54.3722C76.5726 54.3722 76.6588 54.3722 76.7451 54.3722C78.3834 54.3722 81.3153 53.1939 82.1345 52.1571C82.3501 51.8743 82.4794 51.5915 82.6087 51.3087C82.6519 51.2144 82.695 51.1202 82.7381 51.0259C82.7381 51.073 82.7381 51.073 82.7381 51.1202C82.8243 51.4501 82.9106 51.9214 83.5573 52.1099C83.6866 52.157 83.7729 52.1571 83.9022 52.1571C84.2471 52.1571 84.4627 51.9685 84.5489 51.8271C84.9801 51.2616 84.7214 50.1776 84.4196 48.905C84.2902 48.2923 84.1609 47.6325 84.1178 47.1612C84.0747 46.6899 84.1609 46.2186 84.2471 45.7473C84.3765 45.0874 84.4627 44.4276 84.1609 43.9092L84.1178 43.8149L84.0315 43.7678C83.8591 43.6735 83.6866 43.6264 83.4711 43.6264C83.1261 43.6264 82.8674 43.7678 82.6519 43.862L82.5225 43.9092L82.4363 44.0505C82.0051 44.946 81.9189 45.9358 81.8327 46.8784C81.7896 47.4911 81.7464 48.1038 81.574 48.6222C81.1859 49.989 80.9273 50.5075 80.7548 50.696C80.5823 50.8845 80.0218 51.2144 79.0733 51.5443C78.211 51.8271 77.3487 52.0157 76.7882 52.0157C76.702 52.0157 76.6588 52.0157 76.6157 52.0157C76.0552 51.9685 75.581 51.7329 75.2791 51.3087C74.9773 50.9316 74.7618 50.4132 74.6324 49.7062C74.46 48.7636 74.2875 46.5013 74.46 44.946C74.5031 44.5219 74.7186 43.9092 74.9342 43.2965C75.3654 41.9297 75.6241 41.0813 75.3223 40.5629C75.0204 40.1858 74.7618 40.0916 74.5462 40.0916Z" fill="#333333"/>
<path fill-rule="evenodd" clip-rule="evenodd" d="M137.495 48.1038C137.322 48.1038 137.15 48.1038 136.978 48.151C136.633 48.2452 135.986 48.3866 135.727 49.0936C135.296 50.1304 135.727 51.1202 135.986 51.78C136.072 51.9214 136.115 52.1099 136.158 52.2042C136.245 52.4398 136.288 52.6755 136.331 52.9112C136.417 53.2882 136.503 53.6181 136.633 53.9009C136.848 54.2308 137.15 54.4193 137.538 54.4193C137.84 54.4193 138.185 54.2308 138.53 53.8538C138.875 53.4767 139.263 52.864 139.521 52.2042C139.694 51.8271 139.996 51.0731 139.952 50.5546C139.952 49.8948 139.651 49.2821 139.176 48.8108C138.788 48.3395 138.142 48.1038 137.495 48.1038Z" fill="#333333"/>
<path fill-rule="evenodd" clip-rule="evenodd" d="M25.7832 70.3495H26.6455V74.3557L28.715 70.3495H29.7067V75.7225H28.8444V71.6692L26.7317 75.7225H25.7832V70.3495Z" fill="#333333"/>
<path fill-rule="evenodd" clip-rule="evenodd" d="M38.3296 72.0462C38.2864 71.9048 38.2433 71.7634 38.1571 71.622C38.114 71.4806 38.0277 71.3864 37.8984 71.2921C37.8122 71.1979 37.6828 71.1036 37.5535 71.0565C37.4241 71.0093 37.2517 70.9622 37.0792 70.9622C36.8205 70.9622 36.6049 71.0093 36.3894 71.1507C36.2169 71.245 36.0444 71.4335 35.9151 71.622C35.7857 71.8106 35.6995 72.0462 35.6564 72.2819C35.6133 72.5175 35.5702 72.8003 35.5702 73.036C35.5702 73.2716 35.6133 73.5544 35.6564 73.79C35.6995 74.0257 35.7857 74.2614 35.9151 74.4499C36.0444 74.6384 36.1738 74.7798 36.3894 74.9212C36.5618 75.0154 36.8205 75.1097 37.0792 75.1097C37.2517 75.1097 37.4241 75.0626 37.5966 75.0154C37.7259 74.9212 37.8553 74.8269 37.9846 74.7327C38.0709 74.5913 38.1571 74.4499 38.2433 74.3085C38.2864 74.12 38.3296 73.9314 38.3727 73.7429H39.1919C39.1919 74.0728 39.1056 74.3556 39.0194 74.6384C38.8901 74.9212 38.7607 75.1097 38.5882 75.3454C38.4158 75.5339 38.2002 75.6753 37.9415 75.7695C37.6828 75.8638 37.4241 75.9109 37.1223 75.9109C36.7343 75.9109 36.4325 75.8167 36.1307 75.6753C35.8289 75.5339 35.6133 75.3454 35.3977 75.0626C35.1821 74.8269 35.0528 74.497 34.9234 74.1671C34.8372 73.8372 34.751 73.4601 34.751 73.0831C34.751 72.706 34.7941 72.329 34.9234 71.9991C35.0528 71.6692 35.1821 71.3393 35.3977 71.1036C35.6133 70.8679 35.8289 70.6323 36.1307 70.4909C36.4325 70.3495 36.7343 70.2552 37.1223 70.2552C37.381 70.2552 37.6397 70.3024 37.8984 70.3966C38.1571 70.4909 38.3727 70.5852 38.5451 70.7737C38.7176 70.9151 38.8901 71.1036 38.9763 71.3393C39.1056 71.5749 39.1487 71.8106 39.1919 72.0933H38.3296V72.0462Z" fill="#333333"/>
<path fill-rule="evenodd" clip-rule="evenodd" d="M44.1934 70.3495H45.0557V72.8004L47.2545 70.3495H48.3324L46.3491 72.5176L48.4618 75.7225H47.3839L45.7886 73.1774L45.0557 73.9315V75.7225H44.1934V70.3495Z" fill="#333333"/>
<path fill-rule="evenodd" clip-rule="evenodd" d="M53.4198 74.9213C53.5922 74.9213 53.7647 74.8741 53.894 74.7327C54.0665 74.5913 54.1527 74.4499 54.239 74.2614L52.6006 70.3495H53.6354L54.7563 73.3659L55.8773 70.3495H56.8259L55.1875 74.3086C54.9719 74.827 54.7132 75.204 54.4114 75.4397C54.1096 75.6754 53.8078 75.7696 53.4198 75.7696C53.3335 75.7696 53.2473 75.7696 53.2042 75.7696C53.1611 75.7696 53.0749 75.7696 53.0317 75.7225V74.9213C53.0749 74.9213 53.118 74.9213 53.1611 74.9213C53.2904 74.9213 53.3335 74.9213 53.4198 74.9213Z" fill="#333333"/>
<path fill-rule="evenodd" clip-rule="evenodd" d="M64.9316 72.0462C64.8885 71.9048 64.8454 71.7634 64.7591 71.622C64.716 71.4806 64.6298 71.3864 64.5005 71.2921C64.4142 71.1979 64.2849 71.1036 64.1555 71.0565C64.0262 71.0093 63.8537 70.9622 63.6813 70.9622C63.4226 70.9622 63.207 71.0093 62.9914 71.1507C62.819 71.245 62.6465 71.4335 62.5171 71.622C62.3878 71.8106 62.3016 72.0462 62.2584 72.2819C62.2153 72.5175 62.1722 72.8003 62.1722 73.036C62.1722 73.2716 62.2153 73.5544 62.2584 73.79C62.3016 74.0257 62.3878 74.2614 62.5171 74.4499C62.6465 74.6384 62.7758 74.7798 62.9914 74.9212C63.1639 75.0154 63.4226 75.1097 63.6813 75.1097C63.8537 75.1097 64.0262 75.0626 64.1986 75.0154C64.328 74.9212 64.4573 74.8269 64.5867 74.7327C64.6729 74.5913 64.7591 74.4499 64.8454 74.3085C64.8885 74.12 64.9316 73.9314 64.9747 73.7429H65.7939C65.7939 74.0728 65.7077 74.3556 65.6214 74.6384C65.4921 74.9212 65.3628 75.1097 65.1903 75.3454C65.0178 75.5339 64.8023 75.6753 64.5436 75.7695C64.2849 75.8638 64.0262 75.9109 63.7244 75.9109C63.3363 75.9109 63.0345 75.8167 62.7327 75.6753C62.4309 75.5339 62.2153 75.3454 61.9998 75.0626C61.7842 74.8269 61.6548 74.497 61.5255 74.1671C61.4393 73.8372 61.353 73.4601 61.353 73.0831C61.353 72.706 61.3961 72.329 61.5255 71.9991C61.6548 71.6692 61.7842 71.3393 61.9998 71.1036C62.2153 70.8679 62.4309 70.6323 62.7327 70.4909C63.0345 70.3495 63.3363 70.2552 63.7244 70.2552C63.9831 70.2552 64.2418 70.3024 64.5005 70.3966C64.7591 70.4909 64.9747 70.5852 65.1472 70.7737C65.3196 70.9151 65.4921 71.1036 65.5783 71.3393C65.7077 71.5749 65.7508 71.8106 65.7939 72.0933H64.9316V72.0462Z" fill="#333333"/>
<path fill-rule="evenodd" clip-rule="evenodd" d="M74.1582 72.0462C74.1151 71.9048 74.0719 71.7634 73.9857 71.622C73.9426 71.4806 73.8564 71.3864 73.727 71.2921C73.6408 71.1979 73.5114 71.1036 73.3821 71.0565C73.2527 71.0093 73.0803 70.9622 72.9078 70.9622C72.6491 70.9622 72.4336 71.0093 72.218 71.1507C72.0455 71.245 71.8731 71.4335 71.7437 71.622C71.6144 71.8106 71.5281 72.0462 71.485 72.2819C71.4419 72.5175 71.3988 72.8003 71.3988 73.036C71.3988 73.2716 71.4419 73.5544 71.485 73.79C71.5281 74.0257 71.6144 74.2614 71.7437 74.4499C71.8731 74.6384 72.0024 74.7798 72.218 74.9212C72.3904 75.0154 72.6491 75.1097 72.9078 75.1097C73.0803 75.1097 73.2527 75.0626 73.4252 75.0154C73.5546 74.9212 73.6839 74.8269 73.8132 74.7327C73.8995 74.5913 73.9857 74.4499 74.0719 74.3085C74.1151 74.12 74.1582 73.9314 74.2013 73.7429H75.0205C75.0205 74.0728 74.9342 74.3556 74.848 74.6384C74.7187 74.9212 74.5893 75.1097 74.4169 75.3454C74.2444 75.5339 74.0288 75.6753 73.7701 75.7695C73.5114 75.8638 73.2527 75.9109 72.9509 75.9109C72.5629 75.9109 72.2611 75.8167 71.9593 75.6753C71.6575 75.5339 71.4419 75.3454 71.2263 75.0626C71.0107 74.8269 70.8814 74.497 70.7521 74.1671C70.6658 73.8372 70.5796 73.4601 70.5796 73.0831C70.5796 72.706 70.6227 72.329 70.7521 71.9991C70.8814 71.6692 71.0107 71.3393 71.2263 71.1036C71.4419 70.8679 71.6575 70.6323 71.9593 70.4909C72.2611 70.3495 72.5629 70.2552 72.9509 70.2552C73.2096 70.2552 73.4683 70.3024 73.727 70.3966C73.9857 70.4909 74.2013 70.5852 74.3737 70.7737C74.5462 70.9151 74.7187 71.1036 74.8049 71.3393C74.9342 71.5749 74.9774 71.8106 75.0205 72.0933H74.1582V72.0462Z" fill="#333333"/>
<path fill-rule="evenodd" clip-rule="evenodd" d="M79.5908 70.3495H83.5574V71.1508H82.0053V75.7225H81.143V71.1508H79.5908V70.3495Z" fill="#333333"/>
<path fill-rule="evenodd" clip-rule="evenodd" d="M89.2056 74.9684H90.7146C90.9733 74.9684 91.1889 74.8741 91.3182 74.7327C91.4476 74.5913 91.5338 74.3557 91.5338 74.12C91.5338 73.8372 91.4476 73.6487 91.3182 73.5073C91.1889 73.3659 90.9733 73.2717 90.7146 73.2717H89.2056V74.9684ZM89.2056 72.6118H90.6284C90.8439 72.6118 91.0164 72.5647 91.1458 72.4233C91.2751 72.2819 91.3613 72.0934 91.3613 71.8577C91.3613 71.575 91.3182 71.3864 91.1889 71.2922C91.0595 71.1979 90.8871 71.1036 90.6715 71.1036H89.2487V72.6118H89.2056ZM88.3433 70.3495H90.7146C91.1458 70.3495 91.4907 70.4438 91.7925 70.6795C92.0512 70.9151 92.1805 71.245 92.1805 71.6692C92.1805 71.952 92.1374 72.1877 92.0081 72.3762C91.8787 72.5647 91.7063 72.7061 91.4907 72.8475C91.7925 72.9418 92.0081 73.0831 92.1805 73.3188C92.353 73.5545 92.3961 73.8844 92.3961 74.2143C92.3961 74.4028 92.353 74.6385 92.3099 74.7799C92.2236 74.9684 92.1374 75.1098 91.965 75.2512C91.8356 75.3926 91.62 75.4868 91.4044 75.5811C91.1889 75.6753 90.8871 75.6753 90.5853 75.6753H88.3433V70.3495Z" fill="#333333"/>
<path fill-rule="evenodd" clip-rule="evenodd" d="M99.553 71.0094C99.2943 71.0094 99.0787 71.0565 98.8631 71.1979C98.6907 71.2921 98.5182 71.4807 98.3889 71.6692C98.2595 71.8577 98.1733 72.0934 98.1302 72.329C98.0871 72.5647 98.0439 72.8475 98.0439 73.0831C98.0439 73.3188 98.0871 73.6015 98.1302 73.8372C98.1733 74.0729 98.2595 74.3085 98.3889 74.497C98.5182 74.6856 98.6476 74.8269 98.8631 74.9683C99.0356 75.0626 99.2943 75.1569 99.553 75.1569C99.8117 75.1569 100.027 75.1097 100.243 74.9683C100.415 74.8741 100.588 74.6856 100.717 74.497C100.846 74.3085 100.933 74.0729 100.976 73.8372C101.019 73.6015 101.062 73.3659 101.062 73.0831C101.062 72.8475 101.019 72.5647 100.976 72.329C100.933 72.0934 100.846 71.8577 100.717 71.6692C100.588 71.4807 100.458 71.3393 100.243 71.1979C100.027 71.0565 99.8117 71.0094 99.553 71.0094ZM99.553 70.2081C99.8979 70.2081 100.243 70.3024 100.545 70.4438C100.846 70.5852 101.062 70.7737 101.278 71.0565C101.493 71.2921 101.623 71.6221 101.752 71.952C101.838 72.2819 101.924 72.6589 101.924 73.036C101.924 73.413 101.881 73.7901 101.752 74.12C101.623 74.4499 101.493 74.7798 101.278 75.0155C101.062 75.2511 100.846 75.4868 100.545 75.6282C100.243 75.7696 99.941 75.8638 99.553 75.8638C99.1649 75.8638 98.8631 75.7696 98.5613 75.6282C98.2595 75.4868 98.0439 75.2983 97.8284 75.0155C97.6128 74.7798 97.4835 74.4499 97.3541 74.12C97.2679 73.7901 97.1816 73.413 97.1816 73.036C97.1816 72.6589 97.2248 72.2819 97.3541 71.952C97.4835 71.6221 97.6128 71.2921 97.8284 71.0565C98.0439 70.8208 98.2595 70.5852 98.5613 70.4438C98.8631 70.3024 99.1649 70.2081 99.553 70.2081Z" fill="#333333"/>
<path fill-rule="evenodd" clip-rule="evenodd" d="M115.161 71.0094C114.902 71.0094 114.687 71.0565 114.471 71.1979C114.299 71.2921 114.126 71.4807 113.997 71.6692C113.867 71.8577 113.781 72.0934 113.738 72.329C113.695 72.5647 113.652 72.8475 113.652 73.0831C113.652 73.3188 113.695 73.6015 113.738 73.8372C113.781 74.0729 113.867 74.3085 113.997 74.497C114.126 74.6856 114.255 74.8269 114.471 74.9683C114.644 75.0626 114.902 75.1569 115.161 75.1569C115.42 75.1569 115.635 75.1097 115.851 74.9683C116.023 74.8741 116.196 74.6856 116.325 74.497C116.454 74.3085 116.541 74.0729 116.584 73.8372C116.627 73.6015 116.67 73.3659 116.67 73.0831C116.67 72.8475 116.627 72.5647 116.584 72.329C116.541 72.0934 116.454 71.8577 116.325 71.6692C116.196 71.4807 116.066 71.3393 115.851 71.1979C115.678 71.0565 115.42 71.0094 115.161 71.0094ZM115.161 70.2081C115.506 70.2081 115.851 70.3024 116.153 70.4438C116.454 70.5852 116.67 70.7737 116.886 71.0565C117.101 71.2921 117.23 71.6221 117.36 71.952C117.446 72.2819 117.532 72.6589 117.532 73.036C117.532 73.413 117.489 73.7901 117.36 74.12C117.23 74.4499 117.101 74.7798 116.886 75.0155C116.67 75.2511 116.454 75.4868 116.153 75.6282C115.851 75.7696 115.549 75.8638 115.161 75.8638C114.773 75.8638 114.471 75.7696 114.169 75.6282C113.867 75.4868 113.652 75.2983 113.436 75.0155C113.221 74.7798 113.091 74.4499 112.962 74.12C112.876 73.7901 112.79 73.413 112.79 73.036C112.79 72.6589 112.833 72.2819 112.962 71.952C113.091 71.6221 113.221 71.2921 113.436 71.0565C113.652 70.8208 113.867 70.5852 114.169 70.4438C114.471 70.3024 114.816 70.2081 115.161 70.2081Z" fill="#333333"/>
<path fill-rule="evenodd" clip-rule="evenodd" d="M125.897 72.0462C125.854 71.9048 125.811 71.7634 125.724 71.622C125.681 71.4806 125.595 71.3864 125.466 71.2921C125.38 71.1979 125.25 71.1036 125.121 71.0565C124.991 71.0093 124.819 70.9622 124.647 70.9622C124.388 70.9622 124.172 71.0093 123.957 71.1507C123.784 71.245 123.612 71.4335 123.482 71.622C123.353 71.8106 123.267 72.0462 123.224 72.2819C123.181 72.5175 123.138 72.8003 123.138 73.036C123.138 73.2716 123.181 73.5544 123.224 73.79C123.267 74.0257 123.353 74.2614 123.482 74.4499C123.612 74.6384 123.741 74.7798 123.957 74.9212C124.129 75.0154 124.388 75.1097 124.647 75.1097C124.819 75.1097 124.991 75.0626 125.164 75.0154C125.293 74.9212 125.423 74.8269 125.552 74.7327C125.638 74.5913 125.724 74.4499 125.811 74.3085C125.854 74.12 125.897 73.9314 125.94 73.7429H126.759C126.759 74.0728 126.673 74.3556 126.587 74.6384C126.457 74.9212 126.328 75.1097 126.156 75.3454C125.983 75.5339 125.768 75.6753 125.509 75.7695C125.25 75.8638 124.991 75.9109 124.69 75.9109C124.302 75.9109 124 75.8167 123.698 75.6753C123.396 75.5339 123.181 75.3454 122.965 75.0626C122.75 74.8269 122.62 74.497 122.491 74.1671C122.405 73.8372 122.318 73.4601 122.318 73.0831C122.318 72.706 122.361 72.329 122.491 71.9991C122.62 71.6692 122.75 71.3393 122.965 71.1036C123.181 70.8679 123.396 70.6323 123.698 70.4909C124 70.3495 124.302 70.2552 124.69 70.2552C124.948 70.2552 125.207 70.3024 125.466 70.3966C125.724 70.4909 125.94 70.5852 126.112 70.7737C126.285 70.9151 126.457 71.1036 126.544 71.3393C126.673 71.5749 126.716 71.8106 126.759 72.0933H125.897V72.0462Z" fill="#333333"/>
<path fill-rule="evenodd" clip-rule="evenodd" d="M133.873 71.0094C133.615 71.0094 133.399 71.0565 133.183 71.1979C133.011 71.2921 132.839 71.4807 132.709 71.6692C132.58 71.8577 132.494 72.0934 132.45 72.329C132.407 72.5647 132.364 72.8475 132.364 73.0831C132.364 73.3188 132.407 73.6015 132.45 73.8372C132.494 74.0729 132.58 74.3085 132.709 74.497C132.839 74.6856 132.968 74.8269 133.183 74.9683C133.356 75.0626 133.615 75.1569 133.873 75.1569C134.132 75.1569 134.348 75.1097 134.563 74.9683C134.736 74.8741 134.908 74.6856 135.037 74.497C135.167 74.3085 135.253 74.0729 135.296 73.8372C135.339 73.6015 135.382 73.3659 135.382 73.0831C135.382 72.8475 135.339 72.5647 135.296 72.329C135.253 72.0934 135.167 71.8577 135.037 71.6692C134.908 71.4807 134.779 71.3393 134.563 71.1979C134.348 71.0565 134.132 71.0094 133.873 71.0094ZM133.873 70.2081C134.218 70.2081 134.563 70.3024 134.865 70.4438C135.167 70.5852 135.382 70.7737 135.598 71.0565C135.813 71.2921 135.943 71.6221 136.072 71.952C136.158 72.2819 136.245 72.6589 136.245 73.036C136.245 73.413 136.202 73.7901 136.072 74.12C135.943 74.4499 135.813 74.7798 135.598 75.0155C135.382 75.2511 135.167 75.4868 134.865 75.6282C134.563 75.7696 134.261 75.8638 133.873 75.8638C133.485 75.8638 133.183 75.7696 132.882 75.6282C132.58 75.4868 132.364 75.2983 132.149 75.0155C131.933 74.7798 131.804 74.4499 131.674 74.12C131.588 73.7901 131.502 73.413 131.502 73.036C131.502 72.6589 131.545 72.2819 131.674 71.952C131.804 71.6221 131.933 71.2921 132.149 71.0565C132.364 70.8208 132.58 70.5852 132.882 70.4438C133.183 70.3024 133.485 70.2081 133.873 70.2081Z" fill="#333333"/>
<path fill-rule="evenodd" clip-rule="evenodd" d="M142.108 74.9684H143.401C143.531 74.9684 143.617 74.9684 143.703 74.9213C143.789 74.8741 143.876 74.827 143.962 74.7799C144.048 74.7327 144.091 74.6385 144.134 74.4971C144.177 74.4028 144.221 74.2143 144.221 74.0729C144.221 73.8844 144.177 73.743 144.134 73.6487C144.091 73.5545 144.005 73.4602 143.919 73.3659C143.833 73.3188 143.746 73.2717 143.66 73.2245C143.574 73.1774 143.444 73.1774 143.358 73.1774H142.108V74.9684ZM141.246 70.3495H144.652V71.1508H142.108V72.3762H143.401C143.746 72.3762 144.048 72.4233 144.264 72.5176C144.479 72.6118 144.652 72.7532 144.781 72.9418C144.91 73.1303 144.997 73.2717 145.04 73.4602C145.083 73.6487 145.126 73.8372 145.126 73.9786C145.126 74.1672 145.083 74.3086 145.04 74.5442C144.997 74.7327 144.91 74.9213 144.781 75.0626C144.652 75.204 144.479 75.3454 144.264 75.4868C144.048 75.5811 143.746 75.6282 143.401 75.6282H141.246V70.3495Z" fill="#333333"/>
<path fill-rule="evenodd" clip-rule="evenodd" d="M154.655 70.3495H155.517V75.7225H154.655V70.3495ZM150.947 74.9684H152.24C152.37 74.9684 152.456 74.9684 152.542 74.9213C152.628 74.8741 152.714 74.827 152.801 74.7799C152.887 74.7327 152.93 74.6385 152.973 74.4971C153.016 74.4028 153.059 74.2143 153.059 74.0729C153.059 73.8844 153.016 73.743 152.973 73.6487C152.93 73.5545 152.844 73.4602 152.758 73.3659C152.671 73.3188 152.585 73.2717 152.499 73.2245C152.413 73.1774 152.283 73.1774 152.197 73.1774H150.947V74.9684ZM150.084 70.3495H150.947V72.4233H152.24C152.585 72.4233 152.887 72.4704 153.103 72.5647C153.318 72.659 153.491 72.8004 153.62 72.9889C153.749 73.1774 153.835 73.3188 153.879 73.5073C153.922 73.6959 153.965 73.8844 153.965 74.0258C153.965 74.2143 153.922 74.3557 153.879 74.5913C153.835 74.7799 153.749 74.9684 153.62 75.1098C153.491 75.2512 153.318 75.3926 153.103 75.534C152.887 75.6282 152.585 75.6753 152.24 75.6753H150.084V70.3495Z" fill="#333333"/>
<path fill-rule="evenodd" clip-rule="evenodd" d="M160.389 70.3495H161.424L162.545 72.2348L163.709 70.3495H164.657L163.062 72.9418L164.787 75.7225H163.752L162.502 73.6487L161.251 75.7225H160.303L162.027 72.9418L160.389 70.3495Z" fill="#333333"/>
<path fill-rule="evenodd" clip-rule="evenodd" d="M175.436 74.9212C175.565 74.9212 175.652 74.8741 175.738 74.8269C175.824 74.7798 175.91 74.6855 175.953 74.5913C175.997 74.497 176.04 74.3556 176.083 74.2142C176.126 74.0728 176.126 73.9315 176.169 73.7429C176.169 73.5544 176.212 73.413 176.212 73.2716C176.212 73.1302 176.255 72.9888 176.255 72.8474C176.255 72.706 176.255 72.5647 176.298 72.4233C176.298 72.2819 176.298 72.0933 176.298 71.9048C176.298 71.7163 176.298 71.4806 176.298 71.1979C176.298 70.9622 176.298 70.6323 176.298 70.2552H179.704V75.6282H178.842V71.0565H177.118C177.118 71.3864 177.118 71.6692 177.118 71.952C177.118 72.1876 177.118 72.4233 177.118 72.6589C177.118 72.8946 177.118 73.0831 177.074 73.2716C177.074 73.4601 177.031 73.6958 176.988 73.9314C176.945 74.0728 176.945 74.2614 176.859 74.4499C176.816 74.6384 176.73 74.8269 176.6 75.0155C176.471 75.204 176.342 75.3454 176.169 75.4396C175.997 75.581 175.781 75.6282 175.522 75.6282C175.436 75.6282 175.35 75.6282 175.307 75.6282C175.264 75.6282 175.177 75.6282 175.134 75.581V74.7798C175.177 74.7798 175.221 74.7798 175.264 74.7798C175.35 74.9212 175.393 74.9212 175.436 74.9212Z" fill="#333333"/>
<path fill-rule="evenodd" clip-rule="evenodd" d="M189.018 71.0094C188.759 71.0094 188.543 71.0565 188.328 71.1979C188.155 71.2921 187.983 71.4807 187.854 71.6692C187.724 71.8577 187.638 72.0934 187.595 72.329C187.552 72.5647 187.509 72.8475 187.509 73.0831C187.509 73.3188 187.552 73.6015 187.595 73.8372C187.638 74.0729 187.724 74.3085 187.854 74.497C187.983 74.6856 188.112 74.8269 188.328 74.9683C188.5 75.0626 188.759 75.1569 189.018 75.1569C189.276 75.1569 189.492 75.1097 189.708 74.9683C189.88 74.8741 190.052 74.6856 190.182 74.497C190.311 74.3085 190.397 74.0729 190.441 73.8372C190.484 73.6015 190.527 73.3659 190.527 73.0831C190.527 72.8475 190.484 72.5647 190.441 72.329C190.397 72.0934 190.311 71.8577 190.182 71.6692C190.052 71.4807 189.923 71.3393 189.708 71.1979C189.492 71.0565 189.276 71.0094 189.018 71.0094ZM189.018 70.2081C189.406 70.2081 189.708 70.3024 190.009 70.4438C190.311 70.5852 190.527 70.7737 190.742 71.0565C190.958 71.2921 191.087 71.6221 191.217 71.952C191.346 72.2819 191.389 72.6589 191.389 73.036C191.389 73.413 191.346 73.7901 191.217 74.12C191.087 74.4499 190.958 74.7798 190.742 75.0155C190.527 75.2511 190.311 75.4868 190.009 75.6282C189.708 75.7696 189.406 75.8638 189.018 75.8638C188.673 75.8638 188.371 75.8167 188.069 75.6753C187.81 75.5339 187.552 75.3454 187.336 75.1569C187.121 74.9212 186.991 74.6856 186.862 74.3556C186.733 74.0257 186.646 73.7429 186.646 73.3659H185.827V75.7696H184.965V70.3967H185.827V72.6118H186.646C186.689 72.2819 186.776 71.9991 186.905 71.7163C187.034 71.4335 187.207 71.1979 187.379 70.9622C187.595 70.7737 187.81 70.5852 188.069 70.4438C188.371 70.3024 188.673 70.2081 189.018 70.2081Z" fill="#333333"/>
<path fill-rule="evenodd" clip-rule="evenodd" d="M197.597 74.9212H199.71V71.1979H197.986C197.986 71.5278 197.986 71.8106 197.986 72.0934C197.986 72.3291 197.986 72.5647 197.986 72.8004C197.986 73.036 197.986 73.2245 197.942 73.4131C197.942 73.6016 197.899 73.8372 197.856 74.0729C197.813 74.2143 197.813 74.4028 197.727 74.5913C197.684 74.6856 197.641 74.7798 197.597 74.9212ZM200.486 75.7225H196.778V77.0421H195.916V74.9212H196.477C196.52 74.9212 196.563 74.8741 196.563 74.8741C196.649 74.827 196.735 74.7327 196.778 74.6385C196.821 74.5442 196.865 74.4028 196.908 74.2614C196.951 74.12 196.994 73.9786 196.994 73.7901C196.994 73.6016 197.037 73.4602 197.037 73.3188C197.037 73.1774 197.08 73.036 197.08 72.8946C197.08 72.7532 197.08 72.6118 197.123 72.4704C197.123 72.329 197.123 72.1405 197.123 71.952C197.123 71.7635 197.123 71.5278 197.123 71.245C197.123 71.0094 197.123 70.6795 197.123 70.3024H200.529V74.8741H201.305V76.995H200.443V75.7225H200.486Z" fill="#333333"/>
<path fill-rule="evenodd" clip-rule="evenodd" d="M206.177 70.3495H209.713V71.1508H207.04V72.5647H209.54V73.3188H207.04V74.9213H209.756V75.7225H206.177V70.3495Z" fill="#333333"/>
<path fill-rule="evenodd" clip-rule="evenodd" d="M216.007 68.7472C216.05 68.9828 216.137 69.1242 216.266 69.1714C216.395 69.2656 216.568 69.3128 216.74 69.3128C216.913 69.3128 217.085 69.2656 217.171 69.1714C217.301 69.0771 217.387 68.9357 217.43 68.7472H217.818C217.775 69.1242 217.646 69.3599 217.473 69.5484C217.258 69.7369 216.999 69.8312 216.697 69.8312C216.395 69.8312 216.137 69.7369 215.921 69.5484C215.749 69.3599 215.619 69.1242 215.576 68.7472H216.007ZM214.757 70.3496H215.619V74.3558L217.689 70.3496H218.681V75.7226H217.818V71.7164L215.706 75.7226H214.714V70.3496H214.757Z" fill="#333333"/>
<path fill-rule="evenodd" clip-rule="evenodd" d="M27.0762 1.06726H32.1638V8.23114H31.3015V1.86848H27.9385V8.23114H27.0762V1.06726Z" fill="#333333"/>
<path fill-rule="evenodd" clip-rule="evenodd" d="M67.0874 4.50781C67.5617 4.50781 67.9497 4.41355 68.1653 4.17789C68.3809 3.94224 68.5102 3.61232 68.5102 3.18815C68.5102 2.76397 68.3809 2.43405 68.1653 2.1984C67.9497 1.96275 67.5617 1.86848 67.0874 1.86848H65.3628V4.50781H67.0874ZM64.5005 1.06726H67.3892C68.0359 1.06726 68.5533 1.25578 68.8983 1.63283C69.2432 2.00988 69.4156 2.52832 69.4156 3.18815C69.4156 3.84798 69.2432 4.36642 68.8983 4.74346C68.5533 5.12051 68.0359 5.30903 67.3892 5.30903H65.3628V8.23114H64.5005V1.06726Z" fill="#333333"/>
<path fill-rule="evenodd" clip-rule="evenodd" d="M104.167 7.61845C104.555 7.61845 104.9 7.52418 105.201 7.38279C105.503 7.19427 105.719 7.00574 105.891 6.72296C106.064 6.44017 106.193 6.11026 106.279 5.78034C106.365 5.45043 106.409 5.07338 106.409 4.69633C106.409 4.31929 106.365 3.98937 106.279 3.61232C106.193 3.28241 106.064 2.95249 105.891 2.66971C105.719 2.38692 105.46 2.15127 105.201 2.00988C104.9 1.82135 104.555 1.77422 104.167 1.77422C103.779 1.77422 103.434 1.86848 103.132 2.00988C102.83 2.1984 102.614 2.38692 102.442 2.66971C102.27 2.95249 102.14 3.28241 102.054 3.61232C101.968 3.94224 101.925 4.31929 101.925 4.69633C101.925 5.07338 101.968 5.4033 102.054 5.78034C102.14 6.11026 102.27 6.44017 102.442 6.72296C102.614 7.00574 102.873 7.2414 103.132 7.38279C103.391 7.52418 103.735 7.61845 104.167 7.61845ZM104.167 8.41967C103.649 8.41967 103.175 8.32541 102.787 8.08975C102.399 7.90123 102.054 7.61845 101.795 7.2414C101.537 6.91148 101.321 6.48731 101.192 6.06313C101.062 5.59182 100.976 5.12051 100.976 4.6492C100.976 4.17789 101.062 3.70659 101.192 3.23528C101.321 2.76397 101.537 2.38692 101.795 2.00988C102.054 1.67996 102.399 1.39717 102.787 1.16152C103.175 0.925866 103.649 0.831604 104.167 0.831604C104.684 0.831604 105.158 0.925866 105.546 1.16152C105.934 1.35004 106.279 1.63283 106.538 2.00988C106.797 2.33979 107.012 2.76397 107.142 3.23528C107.271 3.70659 107.357 4.17789 107.357 4.6492C107.357 5.16764 107.271 5.63895 107.142 6.06313C107.012 6.53444 106.797 6.91148 106.538 7.2414C106.279 7.57131 105.934 7.8541 105.546 8.08975C105.115 8.32541 104.684 8.41967 104.167 8.41967Z" fill="#333333"/>
<path fill-rule="evenodd" clip-rule="evenodd" d="M139.263 1.06726H143.79V1.86848H140.125V4.13076H143.574V4.93199H140.125V7.42992H143.833V8.23114H139.263V1.06726Z" fill="#333333"/>
<path fill-rule="evenodd" clip-rule="evenodd" d="M175.781 1.06726H176.644V4.55494L180.007 1.06726H181.128L177.98 4.27216L181.214 8.23114H180.136L177.333 4.83772L176.644 5.54469V8.23114H175.781V1.06726Z" fill="#333333"/>
<path fill-rule="evenodd" clip-rule="evenodd" d="M214.283 1.86848H212.127V1.06726H217.388V1.86848H215.189V8.23114H214.283V1.86848Z" fill="#333333"/>
<path fill-rule="evenodd" clip-rule="evenodd" d="M162.76 18.8356C161.898 18.8356 161.338 18.9298 161.079 19.1184C160.562 19.4483 160.001 19.6839 159.441 19.9196C158.837 20.1552 158.233 20.3909 157.673 20.7679C156.509 21.522 155.474 22.7946 154.612 24.5384C153.879 26.0466 153.275 27.8376 152.93 29.7699C152.844 30.147 152.758 30.5711 152.671 30.9482C152.111 33.5875 151.55 36.3211 152.499 38.6305C153.62 41.4584 155.646 43.3436 157.63 44.9932C158.19 45.4645 158.837 45.9358 159.354 46.1243C159.613 46.2186 159.915 46.2657 160.217 46.2657C160.475 46.3128 160.734 46.3128 160.993 46.4071C161.467 46.5485 161.898 46.8313 162.286 47.1141C162.976 47.5382 163.709 48.0095 164.614 48.0095C164.658 48.0095 164.658 48.0095 164.701 48.0095C165.39 48.0095 166.037 47.6325 166.684 47.2555C166.856 47.1612 167.029 47.0669 167.201 46.9727C169.616 45.7001 170.521 44.3805 171.944 42.1653C172.073 41.9768 172.16 41.8354 172.289 41.6469C172.591 41.1756 172.936 40.7043 173.281 40.233C174.272 38.8662 175.178 37.5936 175.609 35.7084C175.911 34.3416 175.997 32.9748 175.867 31.608C175.781 30.3826 175.479 29.1572 175.048 27.9318C174.66 26.8478 174.143 25.8109 173.539 24.9154C172.979 24.0671 172.332 23.2659 171.642 22.6532C171.556 22.5589 171.427 22.4646 171.34 22.3704C170.004 21.145 168.71 19.9667 166.641 19.4011C165.347 19.0241 164.011 18.8356 162.76 18.8356ZM164.744 45.7944C164.14 45.7944 163.493 45.4173 162.804 44.9932C162.286 44.7104 161.769 44.3805 161.251 44.2391C160.993 44.1448 160.734 44.0977 160.518 44.0977C160.303 44.0506 160.13 44.0506 160.001 43.9563C159.354 43.6735 158.449 43.0137 157.587 42.1653C156.724 41.3641 155.948 40.4686 155.431 39.6674L155.388 39.6203C154.655 38.5362 153.706 37.0752 153.792 35.5199C153.792 35.2842 153.965 35.0014 154.094 34.7658C154.224 34.5301 154.353 34.3416 154.396 34.106C154.482 33.776 154.439 33.399 154.396 33.1162C154.396 32.8806 154.353 32.692 154.396 32.5035C154.396 32.315 154.482 32.1736 154.569 31.9851C154.655 31.7965 154.741 31.608 154.784 31.3724L154.827 31.1838C155.345 28.356 155.69 26.4708 156.897 24.4913C157.457 23.5958 158.104 22.8888 158.923 22.3704C159.785 21.8519 160.82 21.522 162.071 21.3335C162.502 21.2864 162.933 21.2392 163.407 21.2392C164.916 21.2392 166.382 21.522 167.331 21.9933C168.193 22.4175 169.4 23.4073 170.478 24.5855C171.685 25.9052 172.548 27.2249 172.849 28.2146C172.893 28.4031 172.936 28.5917 172.936 28.7802C172.936 29.0158 172.979 29.2515 173.022 29.4871C173.324 30.6654 173.539 32.1736 173.539 33.4933C173.539 35.0486 173.324 36.4154 172.893 37.4051C172.634 37.9707 172.16 38.5834 171.642 39.1961C171.254 39.6674 170.866 40.1387 170.521 40.6571C170.306 40.9871 170.09 41.317 169.874 41.694C169.142 42.8723 168.452 43.9563 167.503 44.569C166.684 45.1346 165.347 45.7473 164.83 45.7944C164.787 45.7944 164.787 45.7944 164.744 45.7944Z" fill="#F57C2A"/>
<path fill-rule="evenodd" clip-rule="evenodd" d="M202.944 21.0978C201.564 21.0978 199.279 22.3232 198.46 23.5015C198.373 23.6429 198.244 23.8786 198.115 24.2085C198.028 24.397 197.899 24.6327 197.813 24.8212C197.511 25.4339 197.166 26.1408 196.951 26.9421C196.735 27.8375 196.649 28.7802 196.778 29.7699C196.821 30.0527 196.907 30.2884 196.994 30.524C197.08 30.7125 197.123 30.9482 197.166 31.1367C197.209 31.5138 197.166 31.8908 197.166 32.2678C197.166 32.6449 197.123 33.0691 197.166 33.4932C197.209 33.8232 197.339 34.2002 197.468 34.5301C197.597 34.86 197.683 35.19 197.727 35.4256C197.727 35.567 197.77 35.7555 197.77 35.944C198.028 38.1592 198.33 40.4686 199.796 41.2698C200.357 41.5526 201.478 41.7883 202.254 41.7883C202.34 41.7883 202.426 41.7883 202.469 41.7883C203.461 41.694 204.194 41.0813 204.841 40.5157C204.97 40.4215 205.056 40.3272 205.186 40.233C205.574 39.903 206.048 39.526 206.091 39.0076C206.134 38.6776 206.005 38.3949 205.789 38.0649L205.703 37.9707L205.574 37.9235C205.444 37.9235 205.315 37.8764 205.186 37.8764C204.409 37.8764 203.978 38.3949 203.633 38.819C203.375 39.1489 203.116 39.4317 202.771 39.4789C202.512 39.526 202.254 39.5731 202.038 39.5731C201.262 39.5731 200.745 39.2432 200.443 38.4891C200.141 37.735 200.012 36.7453 199.882 35.6613C199.839 35.0486 199.753 34.3887 199.624 33.776C199.581 33.4461 199.451 33.2105 199.365 32.9748C199.279 32.7863 199.236 32.692 199.193 32.5506C199.753 32.6449 200.314 32.7392 200.874 32.7392C202.211 32.7392 203.418 32.4092 204.409 31.7965C205.487 31.1367 206.22 30.0998 206.522 28.8744C206.781 27.8847 206.781 26.7535 206.522 25.5753C206.307 24.4441 205.875 23.4072 205.315 22.606C205.013 22.1347 204.668 21.8048 204.28 21.522C203.849 21.2864 203.418 21.0978 202.944 21.0978C202.987 21.0978 202.987 21.0978 202.944 21.0978ZM199.106 30.147C198.546 27.4605 199.149 25.104 200.788 24.0671C201.391 23.69 202.038 23.4544 202.556 23.4544C203.245 23.4544 203.72 23.8314 204.021 24.6327C204.409 25.7638 204.582 28.6859 204.065 29.3929C203.547 30.0998 202.512 30.4769 201.262 30.4769C200.529 30.524 199.796 30.3826 199.106 30.147Z" fill="#F57C2A"/>
<path fill-rule="evenodd" clip-rule="evenodd" d="M212.645 21.8519C211.912 21.8519 211.395 22.0405 211.093 22.5118C210.575 23.2659 210.877 24.397 211.179 25.5753C211.308 26.1408 211.481 26.7064 211.524 27.272C211.696 28.4031 211.481 29.7699 211.308 30.8068C211.222 31.2781 211.179 31.7023 211.136 32.0793C211.136 32.2678 211.136 32.4564 211.179 32.6449C211.222 32.9748 211.222 33.1162 211.222 33.2105C210.92 33.0691 210.618 33.0219 210.317 33.0219C209.929 33.0219 209.584 33.1162 209.325 33.3518C209.023 33.5875 208.851 33.9645 208.808 34.4359V34.6715L209.023 34.8129C209.325 35.0014 209.67 35.0957 210.058 35.19C210.575 35.3313 210.92 35.4256 211.006 35.6613C211.136 36.2268 211.05 37.1223 210.92 37.9707C210.834 38.6776 210.748 39.3375 210.791 39.903C210.834 40.6571 211.136 41.1284 211.61 41.317C211.739 41.3641 211.912 41.4112 212.041 41.4112C212.343 41.4112 212.645 41.2698 212.86 40.987C213.033 40.7985 213.119 40.4686 213.205 40.1387C213.335 39.526 213.378 38.7248 213.378 37.9707C213.378 37.358 213.421 36.6981 213.507 36.274C214.499 35.9912 215.879 35.9912 217.215 35.944C217.776 35.944 218.293 35.8969 218.81 35.8969C218.897 36.0854 218.983 36.274 219.069 36.4625C219.198 36.7453 219.371 37.0281 219.457 37.4522C219.543 37.8293 219.5 38.2535 219.457 38.6776C219.414 39.1018 219.371 39.526 219.457 39.9973C219.586 40.987 220.19 41.694 220.837 41.694C221.268 41.694 221.656 41.4112 221.915 40.9399L222.044 40.7514L221.958 40.5157C221.742 40.0444 221.828 39.526 221.915 38.9604C221.958 38.5362 222.044 38.1121 222.001 37.6408C222.001 37.2637 221.872 36.8867 221.742 36.5096C221.613 36.0854 221.484 35.6613 221.527 35.3313C221.613 34.9543 222.001 34.8129 222.518 34.5301C222.906 34.3887 223.294 34.2002 223.553 33.9174C223.898 33.5404 223.941 33.0219 223.769 32.4092L223.726 32.2678L223.596 32.1736C223.467 32.0793 223.294 32.0322 223.122 32.0322C222.863 32.0322 222.648 32.1264 222.475 32.1736C222.346 32.2207 222.216 32.2678 222.087 32.315C222.216 31.3724 222.044 30.7597 221.742 30.0998C222.087 29.4871 222.087 28.8744 222.087 28.356C222.087 27.8847 222.087 27.4134 222.26 26.8949L222.346 26.6593L222.216 26.4707C221.872 25.9994 221.139 25.6695 220.449 25.6695C219.931 25.6695 219.543 25.858 219.242 26.1408L219.155 26.2351V26.3765C219.069 26.8949 219.242 27.2248 219.371 27.4605C219.414 27.5548 219.457 27.6019 219.5 27.6962C219.069 29.1101 219.242 30.3826 219.371 31.7965C219.414 32.0793 219.457 32.4092 219.457 32.692C218.81 33.1162 217.862 33.1633 217 33.1633C216.784 33.1633 216.568 33.1633 216.396 33.1633C216.223 33.1633 216.051 33.1633 215.879 33.1633H215.835C215.49 33.1633 215.189 33.2576 214.887 33.399C214.628 33.4932 214.413 33.5875 214.197 33.5875C214.154 33.5875 214.111 33.5875 214.068 33.5875C214.111 33.0219 214.154 32.4092 214.197 31.7494C214.24 30.9482 214.283 30.0998 214.369 29.2515C214.369 29.0629 214.456 28.9216 214.499 28.733C214.585 28.4974 214.671 28.2146 214.671 27.9318C214.671 27.6019 214.585 27.3191 214.499 26.9421C214.413 26.6593 214.326 26.3294 214.326 25.9994C214.283 25.5281 214.326 25.0568 214.369 24.5855C214.413 24.0199 214.499 23.5015 214.369 23.0302C214.24 22.4646 213.895 22.0876 213.292 21.8991H213.248H213.205C212.99 21.8991 212.817 21.8519 212.645 21.8519Z" fill="#F57C2A"/>
<path fill-rule="evenodd" clip-rule="evenodd" d="M229.804 24.0199C229.158 24.0199 228.597 24.4441 228.468 25.0568C228.382 25.3867 228.511 25.7166 228.597 26.0937C228.64 26.2822 228.727 26.5178 228.727 26.6592C228.813 28.1674 228.77 30.194 228.683 32.3621C228.64 33.8231 228.597 35.3784 228.597 36.7452C228.597 37.7821 228.77 38.7247 229.071 39.4788C229.373 40.28 229.848 40.8927 230.365 41.2698L230.408 41.3169H230.451C230.882 41.4583 231.357 41.5526 231.788 41.5526C232.564 41.5526 233.297 41.3169 233.943 40.8456C234.547 40.4214 235.021 39.8559 235.409 39.1489C235.797 38.3948 235.97 37.5464 235.97 36.6981C235.97 35.8026 235.711 34.9071 235.28 34.153C234.763 33.2575 233.943 32.8334 233.124 32.4092C232.736 32.2207 232.348 31.985 232.003 31.7494L231.917 31.7022H231.831C231.745 31.7022 231.702 31.7022 231.615 31.7022C231.357 31.7022 231.184 31.7965 231.055 31.8436C231.012 31.8436 230.969 31.8907 230.925 31.8907C230.451 29.7227 230.753 26.7064 230.925 25.0096V24.9154L230.882 24.8211C230.753 24.3027 230.279 24.0199 229.804 24.0199ZM230.925 33.9645C231.055 33.9174 231.227 33.9174 231.4 33.9174C232.176 33.9174 232.952 34.4358 233.469 35.3313C234.03 36.2739 234.159 37.4522 233.814 38.3005C233.599 38.819 232.823 39.4317 232.133 39.4317C231.917 39.4317 231.745 39.3845 231.572 39.2903C231.227 39.0546 231.012 38.5833 230.925 37.735C230.839 36.9337 230.882 35.944 230.925 35.0485C230.882 34.6715 230.925 34.2944 230.925 33.9645Z" fill="#F57C2A"/>
<path fill-rule="evenodd" clip-rule="evenodd" d="M187.422 25.4339C186.905 25.4339 186.474 25.7638 186.301 26.1409C186.043 26.6122 185.827 27.2249 185.655 27.7904C185.267 28.9687 184.879 30.147 183.93 30.7597C183.585 30.9953 183.326 31.0896 183.068 31.0896C182.593 31.0896 182.249 30.7126 181.817 30.2412C181.3 29.7228 180.74 29.1101 179.877 29.1101C179.834 29.1101 179.791 29.1101 179.748 29.1101C179.187 29.1572 178.627 29.6285 177.937 30.6654C177.851 30.7597 177.506 31.2781 177.247 31.8908C176.902 32.6449 176.816 33.1634 177.032 33.5404C177.118 33.7289 177.333 34.0117 177.851 34.0117C177.98 34.0117 178.109 34.0117 178.282 33.9646C178.842 33.8232 179.058 33.2105 179.23 32.5978C179.36 32.2207 179.532 31.7023 179.705 31.7023C179.791 31.7023 180.007 32.0322 180.093 32.1736C180.222 32.4093 180.395 32.6449 180.61 32.8334C180.955 33.2105 181.731 33.7761 182.249 33.8232C182.378 33.8232 182.464 33.8703 182.593 33.8703C183.326 33.8703 183.801 33.5404 184.232 33.2576C184.404 33.1162 184.577 33.022 184.792 32.9277C184.706 33.399 184.577 33.8703 184.491 34.3416C184.318 35.2842 184.103 36.2269 183.844 37.1223C183.714 37.5936 183.456 38.0178 183.197 38.442C182.938 38.8662 182.723 39.2432 182.637 39.6674C182.507 40.1858 182.593 40.6572 182.938 41.1285L183.068 41.2699H183.283C183.801 41.2699 184.318 41.317 184.879 41.317C185.439 41.3641 186.043 41.4112 186.646 41.4112C187.336 41.4112 187.94 41.3641 188.5 41.2699C189.061 41.1756 189.664 40.8928 190.311 40.61C190.699 40.4686 191.044 40.2801 191.432 40.1387C192.51 39.7617 193.588 39.3846 194.493 39.2904C194.623 39.2904 194.752 39.2432 194.838 39.2432C195.442 39.1961 196.002 39.1018 196.304 38.6305C196.52 38.3477 196.52 37.9236 196.433 37.4051L196.39 37.1695L196.218 37.0752C195.83 36.9338 195.399 36.8396 194.881 36.8396C194.148 36.8396 193.415 37.0281 192.769 37.1695C192.122 37.3109 191.432 37.5936 190.785 37.8764C190.009 38.2063 189.276 38.5363 188.586 38.6305C188.069 38.6777 187.509 38.7248 186.991 38.7248C186.431 38.7248 185.956 38.6777 185.439 38.5834C186.388 35.2371 187.25 31.5609 188.112 27.979C188.242 27.3663 188.414 26.7064 188.543 26.0937L188.586 25.8581L188.457 25.6696C188.069 25.5753 187.767 25.4339 187.422 25.4339Z" fill="#F57C2A"/>
<path fill-rule="evenodd" clip-rule="evenodd" d="M242.394 37.4051C241.791 37.4051 241.23 37.735 240.799 38.3006C240.411 38.819 240.195 39.4317 240.152 40.0915C240.109 40.5629 240.195 40.9399 240.411 41.2698C240.627 41.6469 241.015 41.8825 241.446 41.9297C241.489 41.9297 241.575 41.9297 241.618 41.9297C242.351 41.9297 243.343 41.2698 243.774 40.7985C243.947 40.61 243.99 40.3743 244.076 40.1387C244.119 40.0444 244.162 39.8559 244.205 39.8088C244.378 39.6202 244.507 39.3846 244.507 39.1489V39.1018C244.464 38.3948 243.731 37.8764 243.645 37.7821C243.17 37.5465 242.782 37.4051 242.394 37.4051Z" fill="#F57C2A"/>
<path fill-rule="evenodd" clip-rule="evenodd" d="M58.9817 43.485C59.1973 43.9563 59.3698 44.4747 59.6285 44.946C59.456 45.2288 59.2835 45.5587 59.1111 45.8886C58.6799 46.6427 58.2919 47.3026 57.8176 47.8681C57.3002 48.4337 56.7397 48.7165 56.0068 48.8108C55.8774 48.8108 55.7912 48.8108 55.6618 48.8108C54.7564 48.8108 53.7217 48.4808 52.9025 47.9624C52.0833 47.444 51.5659 46.7841 51.5228 46.1243C51.3934 44.7575 52.2126 43.5792 53.0318 42.6366C53.851 41.694 54.972 40.4215 56.1792 40.4215C56.6104 40.4215 57.0415 40.5629 57.4727 40.8928C58.1194 41.4112 58.5506 42.401 58.9817 43.485ZM63.2933 44.569C64.1124 44.569 63.9831 42.8723 63.1208 43.2022C62.3878 43.4378 62.6896 44.5219 63.2933 44.569ZM71.7439 48.1981L71.6576 48.1038L71.5283 48.0567C71.3558 48.0095 71.2265 48.0095 71.054 48.0095C70.4073 48.0095 69.7174 48.2923 69.3725 48.528C69.0707 48.7165 68.7689 48.9522 68.4671 49.2349C67.8635 49.7062 67.2599 50.1304 66.6131 50.6017C65.8371 51.1202 64.5436 52.0157 63.6382 52.0157C63.5951 52.0157 63.5519 52.0157 63.5088 52.0157C62.9483 51.9685 62.5172 51.5915 62.1723 50.7903C61.8273 50.0362 61.6118 49.0935 61.4393 48.1509C61.3962 47.8681 61.31 47.5854 61.2668 47.3026C61.4393 47.1612 61.5255 47.0198 61.6549 46.8313C61.8705 46.5485 61.9998 46.36 62.2154 46.3128C62.2585 46.3128 62.2585 46.3128 62.3016 46.3128C62.431 46.3128 62.5603 46.36 62.6896 46.4071C62.8621 46.4542 63.0777 46.5485 63.2933 46.5485C63.3364 46.5485 63.4226 46.5485 63.4657 46.5485C64.8885 46.3128 65.6646 44.7104 65.5784 43.3436C65.5353 42.778 65.3628 42.2596 65.0179 41.8825C64.6298 41.4584 64.1124 41.2227 63.5088 41.2227C63.2933 41.2227 63.0346 41.2698 62.7759 41.317C62.3016 41.4112 61.9567 41.7883 61.698 42.1182C61.4393 42.401 61.2668 42.5895 61.0513 42.5895C61.0081 42.5895 61.0081 42.5895 60.965 42.5895C60.8357 42.5895 60.7495 42.3538 60.577 41.9297C60.4908 41.694 60.4045 41.4584 60.2321 41.2227C59.7578 40.3272 59.1973 39.6674 58.6368 39.1489C57.8607 38.4891 56.9553 38.1592 55.9637 38.1592C55.8774 38.1592 55.7481 38.1592 55.6618 38.1592C54.1528 38.2535 53.2043 39.3846 52.342 40.5157C52.2126 40.7043 52.0402 40.8928 51.9108 41.0342C51.7815 41.1756 51.6521 41.317 51.5228 41.5055C50.5311 42.6366 49.2808 44.0977 49.4101 46.1714C49.4532 46.5956 49.6257 46.9727 49.7551 47.3026C49.8844 47.6325 50.0569 47.8681 50.0137 48.1981C50.0137 48.3866 49.8413 48.8108 49.4532 49.3292C49.1083 49.8005 48.6341 50.1776 48.2891 50.3661C47.7717 50.6017 47.2975 50.7431 46.8232 50.7431C45.9609 50.7431 45.2711 50.3189 44.7106 49.5177C44.2363 48.8108 43.9345 47.6796 43.6758 46.5485C43.5465 46.0772 43.4602 45.6059 43.3309 45.1346C43.2446 44.8046 43.1153 44.4747 43.0291 44.1448C42.8135 43.4378 42.5979 42.7309 42.5548 42.2596C42.4686 41.5055 42.5548 40.61 42.641 39.8559C42.6841 39.3846 42.7273 38.9604 42.7273 38.5834C42.7273 38.3006 42.6841 38.0649 42.641 37.8293C42.5979 37.6879 42.5548 37.5465 42.5548 37.4051C42.4686 35.0486 43.1153 33.0691 43.7189 31.1367C43.8914 30.5711 44.0638 30.0056 44.2363 29.44C44.4088 28.8273 44.5381 28.2146 44.6243 27.649C44.7537 26.8949 44.883 26.188 45.1417 25.5753C45.2711 25.1982 45.4435 24.8683 45.6591 24.4913C46.0471 23.7843 46.4352 23.0302 46.4352 22.0876V21.8519L46.2196 21.7577C46.0471 21.6634 45.8747 21.6163 45.7453 21.6163C45.3573 21.6163 45.0986 21.8519 44.883 22.0876C44.7537 22.1818 44.6243 22.3232 44.5381 22.3232L44.3656 22.3704L44.2794 22.5118C43.4171 24.2085 42.8997 25.9052 42.3823 27.8847C42.2961 28.1675 42.2099 28.4031 42.1668 28.6859C41.5631 30.8068 40.9595 32.8334 40.7008 35.19C39.8385 35.3785 39.4505 35.8969 39.1056 36.4154C39.0193 36.5567 38.89 36.6981 38.8038 36.8395C38.4588 37.2637 37.1654 38.7248 36.0013 38.8662C35.8719 38.8662 35.7426 38.8662 35.6132 38.8662C34.2335 38.8662 33.4575 38.0178 32.5952 37.1694C32.164 36.6981 31.6897 36.2268 31.1292 35.8969C30.4825 35.4727 29.8358 35.2842 29.1028 35.2842C28.7148 35.2842 28.2836 35.3313 27.8525 35.4727C27.4644 35.567 26.3434 36.0383 25.9554 36.3211C25.6105 36.5567 25.438 36.8867 25.3087 37.1694C25.2224 37.358 25.1362 37.4994 25.05 37.6408C25.05 36.274 24.9638 34.86 24.7482 33.5875C24.5326 32.2207 24.2308 30.9953 23.8428 29.9584C23.929 29.9584 24.0152 29.9584 24.1446 29.9584C24.4033 29.9584 24.7051 29.9584 24.9638 29.8642C25.5243 29.6756 25.9985 29.2515 26.3003 28.6859C26.559 28.2146 26.6884 27.6019 26.6021 27.0363C26.559 26.4707 26.3003 25.9994 25.9554 25.6224C25.5674 25.1982 25.05 24.9626 24.4895 24.9154C24.4464 24.9154 24.4033 24.9154 24.3601 24.9154C23.3254 24.9154 22.4631 25.5753 21.7301 26.1408C21.3421 26.4236 20.9972 26.7064 20.6522 26.8478L20.4798 26.8949L20.3935 27.0834C19.7899 28.6859 18.712 29.5343 17.4617 30.524C17.203 30.7125 16.9443 30.9482 16.6856 31.1367C16.4269 31.3724 16.1682 31.608 15.9527 31.8437C15.6077 32.2678 15.2628 32.6449 14.8748 32.692C14.7454 32.692 14.573 32.7391 14.4005 32.7391C13.7969 32.7391 13.1502 32.5506 12.8484 32.4092C11.598 31.8908 11.0375 30.2883 10.4339 28.6388C9.78717 26.8478 9.14044 24.9626 7.50206 24.397C7.07091 24.2556 6.63976 24.1613 6.2086 24.1613C4.91514 24.1613 3.83726 24.8212 3.36299 25.3867C2.02642 26.6593 1.29346 29.2515 0.646729 31.608C0.517384 32.0793 0.388038 32.5506 0.258692 32.9748C0.172461 33.1633 0.0862306 33.5404 0.0431153 33.8703C0 34.1059 0 34.2945 0 34.483C0 34.7658 0.0431153 34.9072 0.0862306 35.0014C0.172461 35.19 0.344922 35.2842 0.474268 35.2842H0.517384C0.646729 35.2842 0.73296 35.2842 0.862306 35.2842C1.33657 35.2842 1.81084 35.19 2.19888 34.5772C2.37134 34.2945 2.37134 33.9174 2.37134 33.5404C2.37134 33.3518 2.37134 33.1162 2.41446 32.9748C2.45757 32.7391 2.5438 32.4564 2.67315 32.1264C2.80249 31.7494 2.93184 31.3724 3.06119 30.9482C3.23365 30.3355 3.57857 29.1101 4.05284 28.0732C4.52711 27.0834 5.00137 26.4236 5.38941 26.3294C5.43253 26.3294 5.51876 26.3294 5.60499 26.3294C5.69122 26.3294 5.82057 26.3294 5.94991 26.3765C6.12237 26.3765 6.25172 26.4236 6.42418 26.4236C6.51041 26.4236 6.55352 26.4236 6.63976 26.4236C7.63141 27.1306 8.06256 28.4031 8.49371 29.817C8.75241 30.6654 9.05421 31.5137 9.44225 32.2678C10.3046 33.8703 12.0723 34.7658 14.228 34.7658C14.8748 34.7658 15.5646 34.6715 16.2114 34.5301C16.7287 34.3887 17.0305 34.0117 17.3323 33.5404C17.8066 32.9277 18.4533 32.0793 20.0486 31.1367C20.3073 30.9953 20.4798 30.6654 20.6091 30.4297C20.6953 30.2883 20.7816 30.0527 20.8678 30.0527C21.0403 30.0998 21.4283 30.5711 21.6439 31.0896C22.075 32.0322 22.3337 33.2105 22.5062 34.6715C22.6355 35.8969 22.6786 37.3108 22.5924 38.7248C22.5493 39.5731 22.2906 40.5629 22.075 41.4112C21.9888 41.7883 21.8595 42.1653 21.8163 42.4952C21.7301 43.0137 21.6439 43.485 21.5576 43.862C21.4283 44.569 21.3421 45.2288 21.0834 45.9358C20.4367 47.8681 18.6258 50.5546 17.4186 51.7329C16.8581 52.2984 16.2545 52.5341 15.6077 52.8169C15.0904 53.0525 14.573 53.2882 13.9694 53.6652C13.7538 53.8066 13.5382 54.0423 13.3226 54.2308C12.9777 54.5607 12.6328 54.8906 12.331 54.8906C12.0723 54.8906 11.8136 54.655 11.5118 54.4193C11.21 54.1365 10.8651 53.9009 10.477 53.9009C10.4339 53.9009 10.3477 53.9009 10.2614 53.9009C9.70094 54.0423 9.35602 54.6079 9.44225 55.3148C9.48536 55.6919 9.61471 56.0689 9.8734 56.3517C10.1321 56.6816 10.5201 56.8701 10.9082 56.8701C11.1669 56.9644 11.6411 57.0115 12.0292 57.0115C12.4603 57.0115 12.8052 56.9644 13.0639 56.8701C13.5382 56.6345 13.9262 56.3046 14.3143 55.9746C14.6592 55.6919 15.0041 55.4091 15.3922 55.1734C15.694 54.9849 16.0389 54.8435 16.3838 54.7021C17.1599 54.3251 17.9791 53.9009 18.5396 53.3825C19.6606 52.2984 20.6953 50.696 21.5576 49.2821C23.1098 46.737 23.7565 44.0034 24.4895 40.8928C24.5326 40.61 24.6188 40.3272 24.7051 40.0444C25.5243 39.8559 25.9554 39.2432 26.3003 38.7248C26.559 38.3948 26.7746 38.0649 27.0764 37.8764C27.292 37.7821 27.9818 37.4522 28.8441 37.4522C29.0597 37.4522 29.3184 37.4994 29.534 37.5465C30.0945 37.6879 30.6119 38.2535 31.1292 38.8662C31.6035 39.4317 32.0778 39.9973 32.6814 40.3272C33.1125 40.5629 34.2335 41.1284 35.527 41.1284C35.9582 41.1284 36.3462 41.0813 36.7342 40.9399C37.6397 40.6571 38.8469 39.7145 39.5798 39.0075C39.7954 38.7719 39.9248 38.5362 40.011 38.3477C40.0972 38.2063 40.1835 38.0178 40.3128 37.9235C40.3128 38.3477 40.3559 38.7719 40.3559 39.2432C40.399 41.1756 40.4422 43.2022 40.9595 44.7575C41.1751 45.4173 41.3476 46.1243 41.5631 46.7841C42.1668 48.905 42.6841 50.9316 44.0638 52.0157C44.7537 52.5812 45.6591 52.864 46.6939 52.864C47.8149 52.864 48.8927 52.5341 49.7119 51.9214C49.9706 51.7329 50.3156 51.2616 50.7036 50.7431C50.9623 50.3661 51.4365 49.8005 51.609 49.6591C51.7384 49.7062 51.9539 49.8476 52.1264 49.9419C52.342 50.0833 52.5575 50.2247 52.7731 50.3189C53.5923 50.6489 54.8858 51.073 55.8774 51.073C56.0068 51.073 56.1792 51.073 56.3086 51.0259C57.1709 50.8845 57.7745 50.4603 58.2919 50.0362C58.6368 49.7534 58.9386 49.5177 59.3698 49.3292C59.456 49.612 59.5422 49.8476 59.6285 50.1304C59.9303 51.073 60.2752 52.0157 60.7495 52.8169C61.3531 53.7595 62.086 54.2308 63.0346 54.3722C63.1208 54.3722 63.2501 54.3722 63.3795 54.3722C64.1124 54.3722 65.061 54.1365 66.0957 53.6181C67.1305 53.1468 68.0359 52.3456 68.8982 51.5443C69.5019 50.9788 70.1055 50.4603 70.666 50.1304C70.7953 50.2247 70.9678 50.2247 71.1402 50.2247C71.3989 50.2247 71.6576 50.1304 71.8301 49.9419L71.9163 49.8476L71.9594 49.7062C71.9594 49.2349 72.0888 48.6694 71.7439 48.1981ZM22.808 27.649C23.3254 28.1203 24.7913 28.356 24.5326 27.0363C24.0152 26.5179 22.9373 26.9892 22.808 27.649Z" fill="#3D82BD"/>
<path fill-rule="evenodd" clip-rule="evenodd" d="M137.409 23.0773L137.279 23.1245C136.244 23.4544 135.468 24.0671 134.692 24.6326C134.261 24.9626 133.873 25.2453 133.442 25.5281L133.399 25.5753L133.356 25.6224C133.313 25.6695 133.27 25.7167 133.183 25.8109C132.968 26.0937 132.623 26.4708 132.364 26.8949C132.019 27.5076 131.89 27.9789 131.976 28.4031C132.062 28.6859 132.235 29.0158 132.795 29.2043C132.881 29.2515 133.011 29.2515 133.097 29.2515C133.744 29.2515 134.132 28.6388 134.477 28.0732C134.649 27.8375 134.779 27.6019 134.951 27.4605C135.684 26.7535 136.417 26.3294 136.977 26.3294C137.495 26.3294 137.84 26.6593 138.098 27.3191C138.443 28.2146 138.53 29.1101 138.314 30.2412C138.098 31.2781 137.71 32.315 137.279 33.399C136.848 34.483 136.417 35.6141 136.158 36.7453C135.856 38.0649 135.856 39.2903 136.115 40.4686L136.158 40.61L136.244 40.7043C136.676 41.0813 137.021 41.2227 137.365 41.2227C137.624 41.2227 137.969 41.1284 138.271 40.6571C138.443 40.3743 138.573 40.0444 138.702 39.5731C138.918 38.7719 138.961 37.735 139.047 36.8395C139.09 36.0854 139.176 35.3785 139.263 35.0014C139.435 34.2473 139.78 33.5404 140.082 32.7863C140.556 31.7023 141.03 30.5711 141.073 29.2986C141.16 27.6962 140.858 26.3294 140.125 25.1982C139.521 24.2085 138.616 23.5015 137.495 23.0773H137.409Z" fill="#3D82BD"/>
<path fill-rule="evenodd" clip-rule="evenodd" d="M94.6382 31.8908C94.4226 31.8908 94.2071 31.9851 93.9915 32.0322C93.819 32.0793 93.6466 32.1736 93.4741 32.1736C93.431 32.1736 93.3879 32.1736 93.3016 32.1736C93.1723 32.1736 93.043 32.1736 92.9136 32.1265C92.7843 32.1265 92.6118 32.0793 92.4825 32.0793C92.31 32.0793 92.1807 32.0793 92.0513 32.1265C91.7064 32.2207 91.2752 32.4564 90.7578 32.8334C90.2836 33.1633 89.7662 33.5875 89.2919 34.0117C88.8608 34.3887 87.4811 35.6613 87.0499 36.5568C85.4115 40.0444 86.7912 45.653 88.3003 48.528C88.6452 49.235 89.5937 50.5546 90.1111 50.9317C90.7147 51.3558 91.4046 51.5915 92.1375 51.5915C93.043 51.5915 93.9053 51.2616 94.5951 50.6489C95.3281 49.989 95.7592 49.0936 95.8455 48.1038C95.9317 46.9255 95.4574 45.276 95.285 44.8047C94.9831 43.9092 94.3795 42.2596 93.9915 41.5998C93.7759 41.2698 93.5603 41.0813 93.3016 40.9399C93.2154 40.8928 93.1292 40.8457 93.0861 40.7514C93.3016 40.7514 93.4741 40.7985 93.6897 40.7985C93.9915 40.8457 94.3364 40.8457 94.6382 40.8457C94.9831 40.8457 95.285 40.7985 95.5437 40.7514C95.9748 40.6571 96.5353 40.3272 97.0958 39.9502C97.3976 39.7145 98.0012 39.2432 98.1737 38.7719C98.3461 38.3006 98.3461 37.0752 98.303 36.6039C98.2599 36.1326 98.0875 35.4256 97.9581 34.8129C97.6132 33.5404 97.3976 33.2576 97.3114 33.1633C96.794 32.5506 95.3712 31.9851 94.7245 31.9379C94.6813 31.8908 94.6382 31.8908 94.6382 31.8908ZM88.6883 38.7719C88.7314 38.2535 88.8177 37.8293 88.9901 37.4051C89.2057 36.9338 89.5075 36.5096 89.8955 36.0855C90.6285 35.3314 91.577 34.8129 92.4825 34.2945C92.8705 34.5301 93.3448 34.5301 93.7328 34.5301C93.9053 34.5301 94.0777 34.5301 94.2071 34.5301C94.3795 34.5301 94.5089 34.5301 94.6813 34.5301C94.94 34.5301 95.1987 34.5301 95.5005 34.6244C95.5005 34.6715 95.5437 34.7187 95.5437 34.8129C95.8886 35.8498 96.3197 37.3109 95.9317 38.0649C95.8023 38.3477 95.5436 38.4891 95.1556 38.5834C95.0263 38.6305 94.8538 38.6305 94.6382 38.6305C94.2933 38.6305 93.8621 38.5834 93.431 38.4891C93.0861 38.442 92.7411 38.3949 92.3531 38.3477C92.2238 38.3477 92.0513 38.3477 91.922 38.3477C91.1459 38.3477 90.456 38.4891 89.8524 38.5834C89.4644 38.6776 89.0763 38.7719 88.6883 38.7719ZM88.5159 41.1756C88.8177 41.0813 89.0763 41.0813 89.3782 41.0813C90.0249 41.0813 90.6285 41.317 91.189 41.7412C91.7064 42.1653 92.1375 42.778 92.5687 43.5321C93.2585 44.8989 93.6897 46.7842 93.7759 48.7165C93.4741 49.3292 93.0861 49.6591 92.6549 49.6591C91.6633 49.6591 90.2836 48.0567 89.7662 46.5956C88.947 44.3805 88.559 42.778 88.5159 41.1756Z" fill="#3D82BD"/>
<path fill-rule="evenodd" clip-rule="evenodd" d="M103.865 32.6449C103.175 32.6449 102.787 33.399 102.614 34.0117C102.442 34.6244 102.356 35.3785 102.313 35.8498C102.313 36.4154 102.313 37.0281 102.356 37.6408C102.399 38.4891 102.442 39.3846 102.313 40.2329C102.313 40.3272 102.269 40.3743 102.269 40.4686C102.183 41.0813 102.054 42.0239 101.881 42.5424C101.536 42.4481 101.235 42.401 100.976 42.401C100.545 42.401 100.243 42.5424 100.027 42.778C99.8118 43.0137 99.7256 43.3907 99.7256 43.862V44.0034L99.8118 44.0977C100.114 44.4747 100.631 44.569 101.019 44.6632C101.321 44.7104 101.58 44.7575 101.752 44.8989C101.968 45.3231 101.838 46.3599 101.709 47.2554C101.623 47.9624 101.493 48.6694 101.536 49.2821C101.58 49.6591 101.623 49.9419 101.752 50.1775C101.924 50.4603 102.14 50.6488 102.442 50.7431C102.571 50.7902 102.657 50.7902 102.787 50.7902C103.175 50.7902 103.649 50.6017 103.865 49.6591C103.994 49.1407 103.994 48.4808 103.994 47.821C103.994 46.8784 103.994 45.653 104.425 45.4645C104.727 45.4645 105.029 45.4645 105.331 45.4645C106.064 45.4645 106.753 45.4173 107.4 45.4173C108.047 45.3702 108.607 45.3702 109.211 45.3702C109.297 45.3702 109.427 45.3702 109.513 45.3702C109.556 45.5116 109.642 45.653 109.728 45.7944C109.944 46.1714 110.159 46.5956 110.203 47.1612C110.246 47.5853 110.246 48.0567 110.289 48.528C110.289 49.0935 110.289 49.6591 110.418 50.0833C110.591 50.8845 111.022 51.0259 111.367 51.0259C111.625 51.0259 111.97 50.9316 112.315 50.696L112.531 50.5546V50.2718C112.488 49.8005 112.531 49.2821 112.574 48.7165C112.617 48.0095 112.703 47.2083 112.617 46.4542C112.574 46.0772 112.445 45.7472 112.358 45.4645C112.229 45.0874 112.186 44.8989 112.229 44.6161C112.272 44.4276 112.531 44.2862 112.79 44.1448C113.005 44.0034 113.221 43.9091 113.393 43.7206C113.652 43.4378 113.738 43.1079 113.652 42.778C113.522 42.071 112.876 41.9768 112.531 41.9297C112.401 41.9297 112.186 41.8825 112.143 41.8354C111.97 40.9399 112.013 39.903 112.013 38.8662C112.057 37.5936 112.1 36.3682 111.755 35.3785L111.625 35.0014L111.28 35.1428C110.504 35.4256 110.03 36.1797 109.901 37.4051C109.815 38.3477 109.901 39.4789 110.03 40.5157C110.073 41.1284 110.159 41.7411 110.159 42.1653C109.771 42.5424 108.995 42.5895 108.219 42.5895C108.004 42.5895 107.831 42.5895 107.616 42.5895C107.4 42.5895 107.185 42.5895 106.969 42.5895C106.753 42.5895 106.581 42.5895 106.408 42.5895C106.064 42.5895 105.719 42.7309 105.417 42.8251C105.158 42.9194 104.943 42.9665 104.77 42.9665C104.727 42.9665 104.641 42.9665 104.641 42.9194C104.986 41.5997 105.115 39.9502 105.244 38.3477C105.244 38.1121 105.287 37.8293 105.331 37.5465C105.374 36.9809 105.287 36.5568 105.158 36.1797C105.115 35.9912 105.072 35.8027 105.029 35.6141C105.029 35.3785 105.029 35.1428 105.029 34.86C105.072 34.1531 105.072 33.4461 104.598 33.0219C104.425 32.7863 104.166 32.6449 103.865 32.6449Z" fill="#3D82BD"/>
<path fill-rule="evenodd" clip-rule="evenodd" d="M122.792 36.5568C122.189 36.5568 121.542 36.8396 120.895 37.358C120.033 38.0178 117.705 40.61 117.36 41.7883C117.187 42.3539 117.187 43.2022 117.187 44.0034C117.187 44.4276 117.187 44.8518 117.144 45.2288V45.4174C116.972 47.3969 116.842 49.0936 117.489 50.3661C117.662 50.696 117.963 51.0259 118.265 51.403C118.524 51.6858 118.783 51.9685 118.955 52.2513C119.084 52.4399 119.171 52.6755 119.257 52.864C119.343 53.1468 119.472 53.3825 119.645 53.571C120.033 54.0423 120.637 54.3722 121.369 54.6079C122.016 54.7964 122.792 54.8907 123.655 54.8907C125.81 54.8907 128.225 54.2308 129.518 53.3353C129.82 53.1468 130.294 52.7226 130.769 52.2042C131.329 51.5915 131.674 51.0259 131.803 50.5546C131.89 50.2718 131.89 49.8477 131.933 49.3764C131.933 48.9993 131.976 48.6223 132.019 48.2452C132.062 47.9153 132.105 47.6325 132.148 47.3497C132.235 46.8313 132.321 46.4071 132.278 46.0301C132.191 45.4174 131.157 43.7207 131.157 43.7207C130.812 43.108 130.251 42.5895 129.691 42.024C129.475 41.8354 129.303 41.6469 129.13 41.4584C127.535 39.8088 126.888 39.1961 124.776 38.3477C124.776 38.3477 124.732 38.3477 124.732 38.3006C124.431 38.1592 123.87 37.9236 123.353 37.9236C123.482 37.6879 123.568 37.358 123.611 36.981V36.6039L123.31 36.5096C123.094 36.5568 122.965 36.5568 122.792 36.5568ZM120.981 52.2042C120.766 51.5915 120.378 51.0731 120.033 50.5546C119.559 49.8477 119.041 49.0936 118.912 48.1981C118.869 47.9153 118.912 47.5854 118.955 47.2083C118.998 46.9727 118.998 46.737 118.998 46.5014C118.998 45.9829 118.998 45.4645 118.955 44.8518C118.912 43.8621 118.869 42.8252 119.041 42.0711C119.171 41.5055 120.248 40.5158 120.938 39.8088C121.111 39.6203 121.283 39.4789 121.456 39.2904C121.671 39.1018 121.93 38.9604 122.189 38.8191C122.232 38.7719 122.275 38.7719 122.318 38.7248C122.318 38.8662 122.318 39.0547 122.361 39.2432C122.447 39.7145 123.094 40.0445 124.603 40.6572C125.077 40.8457 125.595 41.0813 125.724 41.1756C126.069 41.4584 127.319 42.401 128.44 43.7207C129.475 44.8989 130.036 45.9358 130.122 46.7842C130.165 47.0669 130.079 47.444 129.993 47.821C129.949 48.1038 129.863 48.4337 129.863 48.7165C129.691 50.2718 129.605 50.5546 128.872 51.1673C128.354 51.5915 127.535 51.9685 126.63 52.2513C125.681 52.5341 124.646 52.7226 123.698 52.7226C122.62 52.8169 121.671 52.6284 120.981 52.2042Z" fill="#3D82BD"/>
<path fill-rule="evenodd" clip-rule="evenodd" d="M74.2015 39.4317C73.8997 39.4317 73.5547 39.6202 73.2529 40.0444C73.0373 40.3272 72.8649 40.6571 72.7787 40.9399C71.8301 44.5218 71.8301 49.8476 73.3823 52.2513L73.4254 52.2984L73.5116 52.3455C73.641 52.4398 73.8134 52.5341 73.9428 52.6755C74.5895 53.1468 75.2362 53.6181 76.1848 53.7123C76.2279 53.7123 76.3141 53.7123 76.4003 53.7123C78.0387 53.7123 80.9705 52.5341 81.7897 51.4972C82.0053 51.2144 82.1347 50.9316 82.264 50.6488C82.3071 50.5546 82.3502 50.4603 82.3934 50.3661C82.3934 50.4132 82.3934 50.4132 82.3934 50.4603C82.4796 50.7902 82.5658 51.2615 83.2125 51.4501C83.3419 51.4972 83.4281 51.4972 83.5575 51.4972C83.9024 51.4972 84.118 51.3087 84.2042 51.1673C84.6353 50.6017 84.3767 49.5177 84.0748 48.2452C83.9455 47.6325 83.8162 46.9726 83.773 46.5013C83.7299 46.03 83.8162 45.5587 83.9024 45.0874C84.0317 44.4276 84.118 43.7677 83.8162 43.2493L83.773 43.155L83.6868 43.1079C83.5144 43.0136 83.3419 42.9665 83.1263 42.9665C82.7814 42.9665 82.5227 43.1079 82.3071 43.2022L82.1778 43.2493L82.0915 43.3907C81.6604 44.2862 81.5742 45.2759 81.4879 46.2185C81.4448 46.8312 81.4017 47.4439 81.2292 47.9624C80.8412 49.3292 80.5825 49.8476 80.4101 50.0361C80.2376 50.2247 79.6771 50.5546 78.7286 50.8845C77.8663 51.1673 77.0039 51.3558 76.4434 51.3558C76.3572 51.3558 76.3141 51.3558 76.271 51.3558C75.7105 51.3087 75.2362 51.073 74.9344 50.6488C74.6326 50.2718 74.417 49.7534 74.2877 49.0464C74.1152 48.1038 73.9428 45.8415 74.1152 44.2862C74.1583 43.862 74.3739 43.2493 74.5895 42.6366C75.0206 41.2698 75.2793 40.4214 74.9775 39.903C74.6757 39.526 74.3739 39.4317 74.2015 39.4317Z" fill="#3D82BD"/>
<path fill-rule="evenodd" clip-rule="evenodd" d="M137.15 47.3969C136.977 47.3969 136.805 47.3969 136.632 47.444C136.287 47.5382 135.641 47.6796 135.382 48.3866C134.951 49.4235 135.382 50.4132 135.641 51.0731C135.727 51.2145 135.77 51.403 135.813 51.4972C135.899 51.7329 135.942 51.9685 135.986 52.2042C136.072 52.5812 136.158 52.9112 136.287 53.1939C136.503 53.5239 136.805 53.7124 137.193 53.7124C137.495 53.7124 137.84 53.5239 138.184 53.1468C138.529 52.7698 138.917 52.1571 139.176 51.4972C139.349 51.1202 139.65 50.3661 139.607 49.8477C139.607 49.1878 139.305 48.5751 138.831 48.1038C138.4 47.6796 137.796 47.3969 137.15 47.3969Z" fill="#3D82BD"/>
</svg>
